G04 #@! TF.GenerationSoftware,KiCad,Pcbnew,5.0.2-bee76a0~70~ubuntu18.10.1*
G04 #@! TF.CreationDate,2019-03-17T01:37:17+01:00*
G04 #@! TF.ProjectId,Relocator 4 Kickstart,52656c6f-6361-4746-9f72-2034204b6963,rev?*
G04 #@! TF.SameCoordinates,Original*
G04 #@! TF.FileFunction,Copper,L1,Top*
G04 #@! TF.FilePolarity,Positive*
%FSLAX46Y46*%
G04 Gerber Fmt 4.6, Leading zero omitted, Abs format (unit mm)*
G04 Created by KiCad (PCBNEW 5.0.2-bee76a0~70~ubuntu18.10.1) date dom 17 mar 2019 01:37:17 CET*
%MOMM*%
%LPD*%
G01*
G04 APERTURE LIST*
G04 #@! TA.AperFunction,Conductor*
%ADD10C,0.100000*%
G04 #@! TD*
G04 #@! TA.AperFunction,ComponentPad*
%ADD11C,1.700000*%
G04 #@! TD*
G04 #@! TA.AperFunction,ComponentPad*
%ADD12O,1.700000X1.950000*%
G04 #@! TD*
G04 #@! TA.AperFunction,ComponentPad*
%ADD13R,1.700000X1.700000*%
G04 #@! TD*
G04 #@! TA.AperFunction,ComponentPad*
%ADD14R,2.400000X1.600000*%
G04 #@! TD*
G04 #@! TA.AperFunction,ComponentPad*
%ADD15O,2.400000X1.600000*%
G04 #@! TD*
G04 #@! TA.AperFunction,ViaPad*
%ADD16C,0.800000*%
G04 #@! TD*
G04 #@! TA.AperFunction,Conductor*
%ADD17C,0.300000*%
G04 #@! TD*
G04 #@! TA.AperFunction,Conductor*
%ADD18C,0.254000*%
G04 #@! TD*
G04 APERTURE END LIST*
D10*
G04 #@! TO.N,VCC*
G04 #@! TO.C,J1*
G36*
X43144104Y-110786204D02*
X43168373Y-110789804D01*
X43192171Y-110795765D01*
X43215271Y-110804030D01*
X43237449Y-110814520D01*
X43258493Y-110827133D01*
X43278198Y-110841747D01*
X43296377Y-110858223D01*
X43312853Y-110876402D01*
X43327467Y-110896107D01*
X43340080Y-110917151D01*
X43350570Y-110939329D01*
X43358835Y-110962429D01*
X43364796Y-110986227D01*
X43368396Y-111010496D01*
X43369600Y-111035000D01*
X43369600Y-112485000D01*
X43368396Y-112509504D01*
X43364796Y-112533773D01*
X43358835Y-112557571D01*
X43350570Y-112580671D01*
X43340080Y-112602849D01*
X43327467Y-112623893D01*
X43312853Y-112643598D01*
X43296377Y-112661777D01*
X43278198Y-112678253D01*
X43258493Y-112692867D01*
X43237449Y-112705480D01*
X43215271Y-112715970D01*
X43192171Y-112724235D01*
X43168373Y-112730196D01*
X43144104Y-112733796D01*
X43119600Y-112735000D01*
X41919600Y-112735000D01*
X41895096Y-112733796D01*
X41870827Y-112730196D01*
X41847029Y-112724235D01*
X41823929Y-112715970D01*
X41801751Y-112705480D01*
X41780707Y-112692867D01*
X41761002Y-112678253D01*
X41742823Y-112661777D01*
X41726347Y-112643598D01*
X41711733Y-112623893D01*
X41699120Y-112602849D01*
X41688630Y-112580671D01*
X41680365Y-112557571D01*
X41674404Y-112533773D01*
X41670804Y-112509504D01*
X41669600Y-112485000D01*
X41669600Y-111035000D01*
X41670804Y-111010496D01*
X41674404Y-110986227D01*
X41680365Y-110962429D01*
X41688630Y-110939329D01*
X41699120Y-110917151D01*
X41711733Y-110896107D01*
X41726347Y-110876402D01*
X41742823Y-110858223D01*
X41761002Y-110841747D01*
X41780707Y-110827133D01*
X41801751Y-110814520D01*
X41823929Y-110804030D01*
X41847029Y-110795765D01*
X41870827Y-110789804D01*
X41895096Y-110786204D01*
X41919600Y-110785000D01*
X43119600Y-110785000D01*
X43144104Y-110786204D01*
X43144104Y-110786204D01*
G37*
D11*
G04 #@! TD*
G04 #@! TO.P,J1,1*
G04 #@! TO.N,VCC*
X42519600Y-111760000D03*
D12*
G04 #@! TO.P,J1,2*
G04 #@! TO.N,GND*
X45019600Y-111760000D03*
G04 #@! TO.P,J1,3*
G04 #@! TO.N,A_19*
X47519600Y-111760000D03*
G04 #@! TO.P,J1,4*
G04 #@! TO.N,A_18*
X50019600Y-111760000D03*
G04 #@! TD*
D13*
G04 #@! TO.P,TP1,1*
G04 #@! TO.N,Net-(TP1-Pad1)*
X35814000Y-111760000D03*
G04 #@! TD*
D14*
G04 #@! TO.P,U3,1*
G04 #@! TO.N,A_18*
X41351200Y-104851000D03*
D15*
G04 #@! TO.P,U3,22*
G04 #@! TO.N,VCC*
X26111200Y-54051000D03*
G04 #@! TO.P,U3,2*
G04 #@! TO.N,A18*
X41351200Y-102311000D03*
G04 #@! TO.P,U3,23*
G04 #@! TO.N,D4*
X26111200Y-56591000D03*
G04 #@! TO.P,U3,3*
G04 #@! TO.N,A8*
X41351200Y-99771000D03*
G04 #@! TO.P,U3,24*
G04 #@! TO.N,D12*
X26111200Y-59131000D03*
G04 #@! TO.P,U3,4*
G04 #@! TO.N,A7*
X41351200Y-97231000D03*
G04 #@! TO.P,U3,25*
G04 #@! TO.N,D5*
X26111200Y-61671000D03*
G04 #@! TO.P,U3,5*
G04 #@! TO.N,A6*
X41351200Y-94691000D03*
G04 #@! TO.P,U3,26*
G04 #@! TO.N,D13*
X26111200Y-64211000D03*
G04 #@! TO.P,U3,6*
G04 #@! TO.N,A5*
X41351200Y-92151000D03*
G04 #@! TO.P,U3,27*
G04 #@! TO.N,D6*
X26111200Y-66751000D03*
G04 #@! TO.P,U3,7*
G04 #@! TO.N,A4*
X41351200Y-89611000D03*
G04 #@! TO.P,U3,28*
G04 #@! TO.N,D14*
X26111200Y-69291000D03*
G04 #@! TO.P,U3,8*
G04 #@! TO.N,A3*
X41351200Y-87071000D03*
G04 #@! TO.P,U3,29*
G04 #@! TO.N,D7*
X26111200Y-71831000D03*
G04 #@! TO.P,U3,9*
G04 #@! TO.N,A2*
X41351200Y-84531000D03*
G04 #@! TO.P,U3,30*
G04 #@! TO.N,D15*
X26111200Y-74371000D03*
G04 #@! TO.P,U3,10*
G04 #@! TO.N,A1*
X41351200Y-81991000D03*
G04 #@! TO.P,U3,31*
G04 #@! TO.N,GND*
X26111200Y-76911000D03*
G04 #@! TO.P,U3,11*
X41351200Y-79451000D03*
G04 #@! TO.P,U3,32*
G04 #@! TO.N,VCC*
X26111200Y-79451000D03*
G04 #@! TO.P,U3,12*
G04 #@! TO.N,GND*
X41351200Y-76911000D03*
G04 #@! TO.P,U3,33*
G04 #@! TO.N,A17*
X26111200Y-81991000D03*
G04 #@! TO.P,U3,13*
G04 #@! TO.N,Net-(TP1-Pad1)*
X41351200Y-74371000D03*
G04 #@! TO.P,U3,34*
G04 #@! TO.N,A16*
X26111200Y-84531000D03*
G04 #@! TO.P,U3,14*
G04 #@! TO.N,D0*
X41351200Y-71831000D03*
G04 #@! TO.P,U3,35*
G04 #@! TO.N,A15*
X26111200Y-87071000D03*
G04 #@! TO.P,U3,15*
G04 #@! TO.N,D8*
X41351200Y-69291000D03*
G04 #@! TO.P,U3,36*
G04 #@! TO.N,A14*
X26111200Y-89611000D03*
G04 #@! TO.P,U3,16*
G04 #@! TO.N,D1*
X41351200Y-66751000D03*
G04 #@! TO.P,U3,37*
G04 #@! TO.N,A13*
X26111200Y-92151000D03*
G04 #@! TO.P,U3,17*
G04 #@! TO.N,D9*
X41351200Y-64211000D03*
G04 #@! TO.P,U3,38*
G04 #@! TO.N,A12*
X26111200Y-94691000D03*
G04 #@! TO.P,U3,18*
G04 #@! TO.N,D2*
X41351200Y-61671000D03*
G04 #@! TO.P,U3,39*
G04 #@! TO.N,A11*
X26111200Y-97231000D03*
G04 #@! TO.P,U3,19*
G04 #@! TO.N,D10*
X41351200Y-59131000D03*
G04 #@! TO.P,U3,40*
G04 #@! TO.N,A10*
X26111200Y-99771000D03*
G04 #@! TO.P,U3,20*
G04 #@! TO.N,D3*
X41351200Y-56591000D03*
G04 #@! TO.P,U3,41*
G04 #@! TO.N,A9*
X26111200Y-102311000D03*
G04 #@! TO.P,U3,21*
G04 #@! TO.N,D11*
X41351200Y-54051000D03*
G04 #@! TO.P,U3,42*
G04 #@! TO.N,A_19*
X26111200Y-104851000D03*
G04 #@! TD*
G04 #@! TO.P,U2,64*
G04 #@! TO.N,D5*
X82042000Y-36220400D03*
G04 #@! TO.P,U2,32*
G04 #@! TO.N,A4*
X59182000Y-114960400D03*
G04 #@! TO.P,U2,63*
G04 #@! TO.N,D6*
X82042000Y-38760400D03*
G04 #@! TO.P,U2,31*
G04 #@! TO.N,A3*
X59182000Y-112420400D03*
G04 #@! TO.P,U2,62*
G04 #@! TO.N,D7*
X82042000Y-41300400D03*
G04 #@! TO.P,U2,30*
G04 #@! TO.N,A2*
X59182000Y-109880400D03*
G04 #@! TO.P,U2,61*
G04 #@! TO.N,D8*
X82042000Y-43840400D03*
G04 #@! TO.P,U2,29*
G04 #@! TO.N,A1*
X59182000Y-107340400D03*
G04 #@! TO.P,U2,60*
G04 #@! TO.N,D9*
X82042000Y-46380400D03*
G04 #@! TO.P,U2,28*
G04 #@! TO.N,/FC0*
X59182000Y-104800400D03*
G04 #@! TO.P,U2,59*
G04 #@! TO.N,D10*
X82042000Y-48920400D03*
G04 #@! TO.P,U2,27*
G04 #@! TO.N,/FC1*
X59182000Y-102260400D03*
G04 #@! TO.P,U2,58*
G04 #@! TO.N,D11*
X82042000Y-51460400D03*
G04 #@! TO.P,U2,26*
G04 #@! TO.N,/FC2*
X59182000Y-99720400D03*
G04 #@! TO.P,U2,57*
G04 #@! TO.N,D12*
X82042000Y-54000400D03*
G04 #@! TO.P,U2,25*
G04 #@! TO.N,/IPL0*
X59182000Y-97180400D03*
G04 #@! TO.P,U2,56*
G04 #@! TO.N,D13*
X82042000Y-56540400D03*
G04 #@! TO.P,U2,24*
G04 #@! TO.N,/IPL1*
X59182000Y-94640400D03*
G04 #@! TO.P,U2,55*
G04 #@! TO.N,D14*
X82042000Y-59080400D03*
G04 #@! TO.P,U2,23*
G04 #@! TO.N,/IPL2*
X59182000Y-92100400D03*
G04 #@! TO.P,U2,54*
G04 #@! TO.N,D15*
X82042000Y-61620400D03*
G04 #@! TO.P,U2,22*
G04 #@! TO.N,/BERR*
X59182000Y-89560400D03*
G04 #@! TO.P,U2,53*
G04 #@! TO.N,GND*
X82042000Y-64160400D03*
G04 #@! TO.P,U2,21*
G04 #@! TO.N,/VPA*
X59182000Y-87020400D03*
G04 #@! TO.P,U2,52*
G04 #@! TO.N,/A23*
X82042000Y-66700400D03*
G04 #@! TO.P,U2,20*
G04 #@! TO.N,/E*
X59182000Y-84480400D03*
G04 #@! TO.P,U2,51*
G04 #@! TO.N,/A22*
X82042000Y-69240400D03*
G04 #@! TO.P,U2,19*
G04 #@! TO.N,/VMA*
X59182000Y-81940400D03*
G04 #@! TO.P,U2,50*
G04 #@! TO.N,/A21*
X82042000Y-71780400D03*
G04 #@! TO.P,U2,18*
G04 #@! TO.N,/RESET*
X59182000Y-79400400D03*
G04 #@! TO.P,U2,49*
G04 #@! TO.N,VCC*
X82042000Y-74320400D03*
G04 #@! TO.P,U2,17*
G04 #@! TO.N,/HALT*
X59182000Y-76860400D03*
G04 #@! TO.P,U2,48*
G04 #@! TO.N,/A20*
X82042000Y-76860400D03*
G04 #@! TO.P,U2,16*
G04 #@! TO.N,GND*
X59182000Y-74320400D03*
G04 #@! TO.P,U2,47*
G04 #@! TO.N,/A19*
X82042000Y-79400400D03*
G04 #@! TO.P,U2,15*
G04 #@! TO.N,/CLK*
X59182000Y-71780400D03*
G04 #@! TO.P,U2,46*
G04 #@! TO.N,A18*
X82042000Y-81940400D03*
G04 #@! TO.P,U2,14*
G04 #@! TO.N,VCC*
X59182000Y-69240400D03*
G04 #@! TO.P,U2,45*
G04 #@! TO.N,A17*
X82042000Y-84480400D03*
G04 #@! TO.P,U2,13*
G04 #@! TO.N,/BR*
X59182000Y-66700400D03*
G04 #@! TO.P,U2,44*
G04 #@! TO.N,A16*
X82042000Y-87020400D03*
G04 #@! TO.P,U2,12*
G04 #@! TO.N,/BGACK*
X59182000Y-64160400D03*
G04 #@! TO.P,U2,43*
G04 #@! TO.N,A15*
X82042000Y-89560400D03*
G04 #@! TO.P,U2,11*
G04 #@! TO.N,/BG*
X59182000Y-61620400D03*
G04 #@! TO.P,U2,42*
G04 #@! TO.N,A14*
X82042000Y-92100400D03*
G04 #@! TO.P,U2,10*
G04 #@! TO.N,/DTACK*
X59182000Y-59080400D03*
G04 #@! TO.P,U2,41*
G04 #@! TO.N,A13*
X82042000Y-94640400D03*
G04 #@! TO.P,U2,9*
G04 #@! TO.N,/RW*
X59182000Y-56540400D03*
G04 #@! TO.P,U2,40*
G04 #@! TO.N,A12*
X82042000Y-97180400D03*
G04 #@! TO.P,U2,8*
G04 #@! TO.N,/LDS*
X59182000Y-54000400D03*
G04 #@! TO.P,U2,39*
G04 #@! TO.N,A11*
X82042000Y-99720400D03*
G04 #@! TO.P,U2,7*
G04 #@! TO.N,/UDS*
X59182000Y-51460400D03*
G04 #@! TO.P,U2,38*
G04 #@! TO.N,A10*
X82042000Y-102260400D03*
G04 #@! TO.P,U2,6*
G04 #@! TO.N,/AS*
X59182000Y-48920400D03*
G04 #@! TO.P,U2,37*
G04 #@! TO.N,A9*
X82042000Y-104800400D03*
G04 #@! TO.P,U2,5*
G04 #@! TO.N,D0*
X59182000Y-46380400D03*
G04 #@! TO.P,U2,36*
G04 #@! TO.N,A8*
X82042000Y-107340400D03*
G04 #@! TO.P,U2,4*
G04 #@! TO.N,D1*
X59182000Y-43840400D03*
G04 #@! TO.P,U2,35*
G04 #@! TO.N,A7*
X82042000Y-109880400D03*
G04 #@! TO.P,U2,3*
G04 #@! TO.N,D2*
X59182000Y-41300400D03*
G04 #@! TO.P,U2,34*
G04 #@! TO.N,A6*
X82042000Y-112420400D03*
G04 #@! TO.P,U2,2*
G04 #@! TO.N,D3*
X59182000Y-38760400D03*
G04 #@! TO.P,U2,33*
G04 #@! TO.N,A5*
X82042000Y-114960400D03*
D14*
G04 #@! TO.P,U2,1*
G04 #@! TO.N,D4*
X59182000Y-36220400D03*
G04 #@! TD*
G04 #@! TO.P,U1,1*
G04 #@! TO.N,D4*
X47701200Y-26111200D03*
D15*
G04 #@! TO.P,U1,33*
G04 #@! TO.N,A5*
X70561200Y-104851200D03*
G04 #@! TO.P,U1,2*
G04 #@! TO.N,D3*
X47701200Y-28651200D03*
G04 #@! TO.P,U1,34*
G04 #@! TO.N,A6*
X70561200Y-102311200D03*
G04 #@! TO.P,U1,3*
G04 #@! TO.N,D2*
X47701200Y-31191200D03*
G04 #@! TO.P,U1,35*
G04 #@! TO.N,A7*
X70561200Y-99771200D03*
G04 #@! TO.P,U1,4*
G04 #@! TO.N,D1*
X47701200Y-33731200D03*
G04 #@! TO.P,U1,36*
G04 #@! TO.N,A8*
X70561200Y-97231200D03*
G04 #@! TO.P,U1,5*
G04 #@! TO.N,D0*
X47701200Y-36271200D03*
G04 #@! TO.P,U1,37*
G04 #@! TO.N,A9*
X70561200Y-94691200D03*
G04 #@! TO.P,U1,6*
G04 #@! TO.N,/AS*
X47701200Y-38811200D03*
G04 #@! TO.P,U1,38*
G04 #@! TO.N,A10*
X70561200Y-92151200D03*
G04 #@! TO.P,U1,7*
G04 #@! TO.N,/UDS*
X47701200Y-41351200D03*
G04 #@! TO.P,U1,39*
G04 #@! TO.N,A11*
X70561200Y-89611200D03*
G04 #@! TO.P,U1,8*
G04 #@! TO.N,/LDS*
X47701200Y-43891200D03*
G04 #@! TO.P,U1,40*
G04 #@! TO.N,A12*
X70561200Y-87071200D03*
G04 #@! TO.P,U1,9*
G04 #@! TO.N,/RW*
X47701200Y-46431200D03*
G04 #@! TO.P,U1,41*
G04 #@! TO.N,A13*
X70561200Y-84531200D03*
G04 #@! TO.P,U1,10*
G04 #@! TO.N,/DTACK*
X47701200Y-48971200D03*
G04 #@! TO.P,U1,42*
G04 #@! TO.N,A14*
X70561200Y-81991200D03*
G04 #@! TO.P,U1,11*
G04 #@! TO.N,/BG*
X47701200Y-51511200D03*
G04 #@! TO.P,U1,43*
G04 #@! TO.N,A15*
X70561200Y-79451200D03*
G04 #@! TO.P,U1,12*
G04 #@! TO.N,/BGACK*
X47701200Y-54051200D03*
G04 #@! TO.P,U1,44*
G04 #@! TO.N,A16*
X70561200Y-76911200D03*
G04 #@! TO.P,U1,13*
G04 #@! TO.N,/BR*
X47701200Y-56591200D03*
G04 #@! TO.P,U1,45*
G04 #@! TO.N,A17*
X70561200Y-74371200D03*
G04 #@! TO.P,U1,14*
G04 #@! TO.N,VCC*
X47701200Y-59131200D03*
G04 #@! TO.P,U1,46*
G04 #@! TO.N,A18*
X70561200Y-71831200D03*
G04 #@! TO.P,U1,15*
G04 #@! TO.N,/CLK*
X47701200Y-61671200D03*
G04 #@! TO.P,U1,47*
G04 #@! TO.N,/A19*
X70561200Y-69291200D03*
G04 #@! TO.P,U1,16*
G04 #@! TO.N,GND*
X47701200Y-64211200D03*
G04 #@! TO.P,U1,48*
G04 #@! TO.N,/A20*
X70561200Y-66751200D03*
G04 #@! TO.P,U1,17*
G04 #@! TO.N,/HALT*
X47701200Y-66751200D03*
G04 #@! TO.P,U1,49*
G04 #@! TO.N,VCC*
X70561200Y-64211200D03*
G04 #@! TO.P,U1,18*
G04 #@! TO.N,/RESET*
X47701200Y-69291200D03*
G04 #@! TO.P,U1,50*
G04 #@! TO.N,/A21*
X70561200Y-61671200D03*
G04 #@! TO.P,U1,19*
G04 #@! TO.N,/VMA*
X47701200Y-71831200D03*
G04 #@! TO.P,U1,51*
G04 #@! TO.N,/A22*
X70561200Y-59131200D03*
G04 #@! TO.P,U1,20*
G04 #@! TO.N,/E*
X47701200Y-74371200D03*
G04 #@! TO.P,U1,52*
G04 #@! TO.N,/A23*
X70561200Y-56591200D03*
G04 #@! TO.P,U1,21*
G04 #@! TO.N,/VPA*
X47701200Y-76911200D03*
G04 #@! TO.P,U1,53*
G04 #@! TO.N,GND*
X70561200Y-54051200D03*
G04 #@! TO.P,U1,22*
G04 #@! TO.N,/BERR*
X47701200Y-79451200D03*
G04 #@! TO.P,U1,54*
G04 #@! TO.N,D15*
X70561200Y-51511200D03*
G04 #@! TO.P,U1,23*
G04 #@! TO.N,/IPL2*
X47701200Y-81991200D03*
G04 #@! TO.P,U1,55*
G04 #@! TO.N,D14*
X70561200Y-48971200D03*
G04 #@! TO.P,U1,24*
G04 #@! TO.N,/IPL1*
X47701200Y-84531200D03*
G04 #@! TO.P,U1,56*
G04 #@! TO.N,D13*
X70561200Y-46431200D03*
G04 #@! TO.P,U1,25*
G04 #@! TO.N,/IPL0*
X47701200Y-87071200D03*
G04 #@! TO.P,U1,57*
G04 #@! TO.N,D12*
X70561200Y-43891200D03*
G04 #@! TO.P,U1,26*
G04 #@! TO.N,/FC2*
X47701200Y-89611200D03*
G04 #@! TO.P,U1,58*
G04 #@! TO.N,D11*
X70561200Y-41351200D03*
G04 #@! TO.P,U1,27*
G04 #@! TO.N,/FC1*
X47701200Y-92151200D03*
G04 #@! TO.P,U1,59*
G04 #@! TO.N,D10*
X70561200Y-38811200D03*
G04 #@! TO.P,U1,28*
G04 #@! TO.N,/FC0*
X47701200Y-94691200D03*
G04 #@! TO.P,U1,60*
G04 #@! TO.N,D9*
X70561200Y-36271200D03*
G04 #@! TO.P,U1,29*
G04 #@! TO.N,A1*
X47701200Y-97231200D03*
G04 #@! TO.P,U1,61*
G04 #@! TO.N,D8*
X70561200Y-33731200D03*
G04 #@! TO.P,U1,30*
G04 #@! TO.N,A2*
X47701200Y-99771200D03*
G04 #@! TO.P,U1,62*
G04 #@! TO.N,D7*
X70561200Y-31191200D03*
G04 #@! TO.P,U1,31*
G04 #@! TO.N,A3*
X47701200Y-102311200D03*
G04 #@! TO.P,U1,63*
G04 #@! TO.N,D6*
X70561200Y-28651200D03*
G04 #@! TO.P,U1,32*
G04 #@! TO.N,A4*
X47701200Y-104851200D03*
G04 #@! TO.P,U1,64*
G04 #@! TO.N,D5*
X70561200Y-26111200D03*
G04 #@! TD*
D16*
G04 #@! TO.N,VCC*
X33918900Y-61050900D03*
G04 #@! TO.N,D10*
X49785600Y-57958800D03*
G04 #@! TD*
D17*
G04 #@! TO.N,A5*
X41351200Y-92151000D02*
X39800900Y-92151000D01*
X70561200Y-104851200D02*
X69010900Y-104851200D01*
X69010900Y-104851200D02*
X67911300Y-105950800D01*
X67911300Y-105950800D02*
X49465600Y-105950800D01*
X49465600Y-105950800D02*
X48821600Y-106594800D01*
X48821600Y-106594800D02*
X46313700Y-106594800D01*
X46313700Y-106594800D02*
X43419500Y-103700600D01*
X43419500Y-103700600D02*
X40708300Y-103700600D01*
X40708300Y-103700600D02*
X39800900Y-102793200D01*
X39800900Y-102793200D02*
X39800900Y-92151000D01*
G04 #@! TO.N,D3*
X47701200Y-28651200D02*
X46150900Y-28651200D01*
X46150900Y-28651200D02*
X42935300Y-31866800D01*
X42935300Y-31866800D02*
X42935300Y-55006900D01*
X42935300Y-55006900D02*
X41351200Y-56591000D01*
G04 #@! TO.N,D2*
X41351200Y-61671000D02*
X43435700Y-59586500D01*
X43435700Y-59586500D02*
X43435700Y-57548800D01*
X43435700Y-57548800D02*
X43936000Y-57048500D01*
X43936000Y-57048500D02*
X43936000Y-33406100D01*
X43936000Y-33406100D02*
X46150900Y-31191200D01*
X47701200Y-31191200D02*
X46150900Y-31191200D01*
G04 #@! TO.N,D1*
X42901500Y-66751000D02*
X42901500Y-63758100D01*
X42901500Y-63758100D02*
X44936600Y-61723000D01*
X44936600Y-61723000D02*
X44936600Y-58170400D01*
X44936600Y-58170400D02*
X45436900Y-57670100D01*
X45436900Y-57670100D02*
X45436900Y-54287200D01*
X45436900Y-54287200D02*
X46850000Y-52874100D01*
X46850000Y-52874100D02*
X48598000Y-52874100D01*
X48598000Y-52874100D02*
X57631700Y-43840400D01*
X41351200Y-66751000D02*
X42901500Y-66751000D01*
X59182000Y-43840400D02*
X57631700Y-43840400D01*
G04 #@! TO.N,D0*
X42901500Y-71831000D02*
X45615700Y-69116800D01*
X45615700Y-69116800D02*
X45615700Y-62458900D01*
X45615700Y-62458900D02*
X45937300Y-62137300D01*
X45937300Y-62137300D02*
X45937300Y-58823700D01*
X45937300Y-58823700D02*
X46899800Y-57861200D01*
X46899800Y-57861200D02*
X48504200Y-57861200D01*
X48504200Y-57861200D02*
X49284200Y-57081200D01*
X49284200Y-57081200D02*
X49284200Y-55435400D01*
X49284200Y-55435400D02*
X57631700Y-47087900D01*
X57631700Y-47087900D02*
X57631700Y-46380400D01*
X41351200Y-71831000D02*
X42901500Y-71831000D01*
X59182000Y-46380400D02*
X57631700Y-46380400D01*
G04 #@! TO.N,A9*
X75836000Y-101615700D02*
X79020600Y-104800400D01*
X79020600Y-104800400D02*
X80491700Y-104800400D01*
X72111500Y-94691200D02*
X72111500Y-97891300D01*
X72111500Y-97891300D02*
X75836000Y-101615700D01*
X75836000Y-101615700D02*
X66301300Y-111150400D01*
X66301300Y-111150400D02*
X55264600Y-111150400D01*
X55264600Y-111150400D02*
X52951700Y-113463300D01*
X52951700Y-113463300D02*
X34562600Y-113463300D01*
X34562600Y-113463300D02*
X27661500Y-106562200D01*
X27661500Y-106562200D02*
X27661500Y-102311000D01*
X70561200Y-94691200D02*
X72111500Y-94691200D01*
X26111200Y-102311000D02*
X27661500Y-102311000D01*
X82042000Y-104800400D02*
X80491700Y-104800400D01*
G04 #@! TO.N,A10*
X82042000Y-102260400D02*
X80491700Y-102260400D01*
X70561200Y-92151200D02*
X72111500Y-92151200D01*
X72111500Y-92151200D02*
X72111500Y-93880200D01*
X72111500Y-93880200D02*
X80491700Y-102260400D01*
G04 #@! TO.N,A11*
X82042000Y-99720400D02*
X80491700Y-99720400D01*
X70561200Y-89611200D02*
X72111500Y-89611200D01*
X72111500Y-89611200D02*
X72111500Y-91340200D01*
X72111500Y-91340200D02*
X80491700Y-99720400D01*
G04 #@! TO.N,A12*
X82042000Y-97180400D02*
X80491700Y-97180400D01*
X70561200Y-87071200D02*
X72111500Y-87071200D01*
X72111500Y-87071200D02*
X72111500Y-88800200D01*
X72111500Y-88800200D02*
X80491700Y-97180400D01*
G04 #@! TO.N,A13*
X82042000Y-94640400D02*
X80491700Y-94640400D01*
X70561200Y-84531200D02*
X72111500Y-84531200D01*
X72111500Y-84531200D02*
X72111500Y-86260200D01*
X72111500Y-86260200D02*
X80491700Y-94640400D01*
G04 #@! TO.N,A14*
X82042000Y-92100400D02*
X80491700Y-92100400D01*
X70561200Y-81991200D02*
X72111500Y-81991200D01*
X72111500Y-81991200D02*
X72111500Y-83720200D01*
X72111500Y-83720200D02*
X80491700Y-92100400D01*
G04 #@! TO.N,A15*
X82042000Y-89560400D02*
X80491700Y-89560400D01*
X70561200Y-79451200D02*
X72111500Y-79451200D01*
X72111500Y-79451200D02*
X72111500Y-81180200D01*
X72111500Y-81180200D02*
X80491700Y-89560400D01*
G04 #@! TO.N,A16*
X82042000Y-87020400D02*
X80491700Y-87020400D01*
X70561200Y-76911200D02*
X72111500Y-76911200D01*
X72111500Y-76911200D02*
X72111500Y-78640200D01*
X72111500Y-78640200D02*
X80491700Y-87020400D01*
G04 #@! TO.N,VCC*
X27661500Y-54051000D02*
X27661500Y-54793500D01*
X27661500Y-54793500D02*
X33918900Y-61050900D01*
X47701200Y-59131200D02*
X49251500Y-59131200D01*
X59182000Y-69240400D02*
X57631700Y-69240400D01*
X57631700Y-69240400D02*
X57631700Y-67511400D01*
X57631700Y-67511400D02*
X49251500Y-59131200D01*
X26111200Y-54051000D02*
X27661500Y-54051000D01*
X42519600Y-111760000D02*
X41319200Y-112960400D01*
X41319200Y-112960400D02*
X34783600Y-112960400D01*
X34783600Y-112960400D02*
X34453000Y-112629800D01*
X34453000Y-112629800D02*
X34453000Y-86367600D01*
X34453000Y-86367600D02*
X27536400Y-79451000D01*
X26111200Y-79451000D02*
X27536400Y-79451000D01*
G04 #@! TO.N,A18*
X69010900Y-75737200D02*
X69010900Y-81785700D01*
X69010900Y-81785700D02*
X59966200Y-90830400D01*
X59966200Y-90830400D02*
X58361200Y-90830400D01*
X58361200Y-90830400D02*
X49285600Y-99906000D01*
X49285600Y-99906000D02*
X49285600Y-105326900D01*
X49285600Y-105326900D02*
X48542100Y-106070400D01*
X48542100Y-106070400D02*
X46660900Y-106070400D01*
X46660900Y-106070400D02*
X42901500Y-102311000D01*
X69010900Y-71831200D02*
X69010900Y-75737200D01*
X69010900Y-75737200D02*
X74288500Y-75737200D01*
X74288500Y-75737200D02*
X80491700Y-81940400D01*
X82042000Y-81940400D02*
X80491700Y-81940400D01*
X41351200Y-102311000D02*
X42901500Y-102311000D01*
X70561200Y-71831200D02*
X69010900Y-71831200D01*
G04 #@! TO.N,GND*
X39800900Y-79451000D02*
X39300600Y-79951300D01*
X39300600Y-79951300D02*
X39300600Y-106041000D01*
X39300600Y-106041000D02*
X43819300Y-110559700D01*
X43819300Y-110559700D02*
X43819300Y-111760000D01*
X45019600Y-111760000D02*
X43819300Y-111760000D01*
X41351200Y-79451000D02*
X39800900Y-79451000D01*
X41568000Y-79451000D02*
X41351200Y-79451000D01*
X41568000Y-79451000D02*
X41784700Y-79451000D01*
X42126400Y-76911000D02*
X42904100Y-76133300D01*
X42904100Y-76133300D02*
X42904100Y-73756700D01*
X42904100Y-73756700D02*
X42305400Y-73158000D01*
X26111200Y-76911000D02*
X27661500Y-76911000D01*
X42305400Y-73158000D02*
X31414500Y-73158000D01*
X31414500Y-73158000D02*
X27661500Y-76911000D01*
X42305400Y-73158000D02*
X46150900Y-69312500D01*
X46150900Y-69312500D02*
X46150900Y-64211200D01*
X69010900Y-63017400D02*
X69010900Y-66041800D01*
X69010900Y-66041800D02*
X60732300Y-74320400D01*
X69010900Y-54051200D02*
X69010900Y-63017400D01*
X69010900Y-63017400D02*
X79348700Y-63017400D01*
X79348700Y-63017400D02*
X80491700Y-64160400D01*
X82042000Y-64160400D02*
X80491700Y-64160400D01*
X47701200Y-64211200D02*
X46150900Y-64211200D01*
X42126400Y-76911000D02*
X41784700Y-77252700D01*
X41784700Y-77252700D02*
X41784700Y-79451000D01*
X41351200Y-76911000D02*
X42126400Y-76911000D01*
X59182000Y-74320400D02*
X60732300Y-74320400D01*
X70561200Y-54051200D02*
X69010900Y-54051200D01*
G04 #@! TO.N,/RESET*
X59182000Y-79400400D02*
X57631700Y-79400400D01*
X47701200Y-69291200D02*
X49251500Y-69291200D01*
X49251500Y-69291200D02*
X49251500Y-71020200D01*
X49251500Y-71020200D02*
X57631700Y-79400400D01*
G04 #@! TO.N,/VMA*
X59182000Y-81940400D02*
X57631700Y-81940400D01*
X47701200Y-71831200D02*
X49251500Y-71831200D01*
X49251500Y-71831200D02*
X49251500Y-73560200D01*
X49251500Y-73560200D02*
X57631700Y-81940400D01*
G04 #@! TO.N,/E*
X59182000Y-84480400D02*
X57631700Y-84480400D01*
X47701200Y-74371200D02*
X49251500Y-74371200D01*
X49251500Y-74371200D02*
X49251500Y-76100200D01*
X49251500Y-76100200D02*
X57631700Y-84480400D01*
G04 #@! TO.N,/VPA*
X59182000Y-87020400D02*
X57631700Y-87020400D01*
X47701200Y-76911200D02*
X49251500Y-76911200D01*
X49251500Y-76911200D02*
X49251500Y-78640200D01*
X49251500Y-78640200D02*
X57631700Y-87020400D01*
G04 #@! TO.N,/BERR*
X59182000Y-89560400D02*
X57631700Y-89560400D01*
X47701200Y-79451200D02*
X49251500Y-79451200D01*
X49251500Y-79451200D02*
X49251500Y-81180200D01*
X49251500Y-81180200D02*
X57631700Y-89560400D01*
G04 #@! TO.N,D14*
X82042000Y-59080400D02*
X80491700Y-59080400D01*
X70561200Y-48971200D02*
X72111500Y-48971200D01*
X72111500Y-48971200D02*
X72111500Y-50700200D01*
X72111500Y-50700200D02*
X80491700Y-59080400D01*
G04 #@! TO.N,D13*
X82042000Y-56540400D02*
X80491700Y-56540400D01*
X70561200Y-46431200D02*
X72111500Y-46431200D01*
X72111500Y-46431200D02*
X72111500Y-48160200D01*
X72111500Y-48160200D02*
X80491700Y-56540400D01*
G04 #@! TO.N,D12*
X82042000Y-54000400D02*
X80491700Y-54000400D01*
X70561200Y-43891200D02*
X72111500Y-43891200D01*
X72111500Y-43891200D02*
X72111500Y-45620200D01*
X72111500Y-45620200D02*
X80491700Y-54000400D01*
G04 #@! TO.N,D10*
X69010900Y-38811200D02*
X60171800Y-47650300D01*
X60171800Y-47650300D02*
X58349300Y-47650300D01*
X58349300Y-47650300D02*
X49785600Y-56214000D01*
X49785600Y-56214000D02*
X49785600Y-57958800D01*
X70561200Y-38811200D02*
X69010900Y-38811200D01*
G04 #@! TO.N,D9*
X41351200Y-64211000D02*
X41589500Y-64211000D01*
X41589500Y-64211000D02*
X44436300Y-61364200D01*
X44436300Y-61364200D02*
X44436300Y-57963200D01*
X44436300Y-57963200D02*
X44936600Y-57462900D01*
X44936600Y-57462900D02*
X44936600Y-52238200D01*
X44936600Y-52238200D02*
X46933600Y-50241200D01*
X46933600Y-50241200D02*
X49741000Y-50241200D01*
X49741000Y-50241200D02*
X57350400Y-42631800D01*
X57350400Y-42631800D02*
X62650300Y-42631800D01*
X62650300Y-42631800D02*
X69010900Y-36271200D01*
X70561200Y-36271200D02*
X69010900Y-36271200D01*
G04 #@! TO.N,A1*
X41351200Y-81991000D02*
X42901500Y-81991000D01*
X47701200Y-97231200D02*
X46150900Y-97231200D01*
X46150900Y-97231200D02*
X46150900Y-85240400D01*
X46150900Y-85240400D02*
X42901500Y-81991000D01*
G04 #@! TO.N,D8*
X42901500Y-69291000D02*
X43937900Y-68254600D01*
X43937900Y-68254600D02*
X43937900Y-63429200D01*
X43937900Y-63429200D02*
X45436900Y-61930200D01*
X45436900Y-61930200D02*
X45436900Y-58377600D01*
X45436900Y-58377600D02*
X45937200Y-57877300D01*
X45937200Y-57877300D02*
X45937200Y-56290700D01*
X45937200Y-56290700D02*
X46906700Y-55321200D01*
X46906700Y-55321200D02*
X48493900Y-55321200D01*
X48493900Y-55321200D02*
X49284200Y-54530900D01*
X49284200Y-54530900D02*
X49284200Y-54020200D01*
X49284200Y-54020200D02*
X58313600Y-44990800D01*
X58313600Y-44990800D02*
X61341400Y-44990800D01*
X61341400Y-44990800D02*
X68910600Y-37421600D01*
X68910600Y-37421600D02*
X71503300Y-37421600D01*
X71503300Y-37421600D02*
X72111500Y-36813400D01*
X72111500Y-36813400D02*
X72111500Y-35272300D01*
X82042000Y-43840400D02*
X80491700Y-43840400D01*
X72111500Y-35272300D02*
X80491700Y-43652500D01*
X80491700Y-43652500D02*
X80491700Y-43840400D01*
X72111500Y-33731200D02*
X72111500Y-35272300D01*
X41351200Y-69291000D02*
X42901500Y-69291000D01*
X70561200Y-33731200D02*
X72111500Y-33731200D01*
G04 #@! TO.N,A2*
X46150900Y-99771200D02*
X45608600Y-99228900D01*
X45608600Y-99228900D02*
X45608600Y-87238100D01*
X45608600Y-87238100D02*
X42901500Y-84531000D01*
X41351200Y-84531000D02*
X42901500Y-84531000D01*
X47701200Y-99771200D02*
X46150900Y-99771200D01*
G04 #@! TO.N,D7*
X27661500Y-71831000D02*
X36551500Y-62941000D01*
X36551500Y-62941000D02*
X42146800Y-62941000D01*
X42146800Y-62941000D02*
X43936000Y-61151800D01*
X43936000Y-61151800D02*
X43936000Y-57756000D01*
X43936000Y-57756000D02*
X44436300Y-57255700D01*
X44436300Y-57255700D02*
X44436300Y-50187000D01*
X44436300Y-50187000D02*
X46922100Y-47701200D01*
X46922100Y-47701200D02*
X48631400Y-47701200D01*
X48631400Y-47701200D02*
X56302200Y-40030400D01*
X56302200Y-40030400D02*
X60171700Y-40030400D01*
X60171700Y-40030400D02*
X69010900Y-31191200D01*
X26111200Y-71831000D02*
X27661500Y-71831000D01*
X70561200Y-31191200D02*
X69010900Y-31191200D01*
G04 #@! TO.N,A3*
X41351200Y-87071000D02*
X42901500Y-87071000D01*
X47701200Y-102311200D02*
X46150900Y-102311200D01*
X46150900Y-102311200D02*
X43741300Y-99901600D01*
X43741300Y-99901600D02*
X43741300Y-87910800D01*
X43741300Y-87910800D02*
X42901500Y-87071000D01*
G04 #@! TO.N,D6*
X70561200Y-28651200D02*
X69010900Y-28651200D01*
X69010900Y-28651200D02*
X67860500Y-29801600D01*
X67860500Y-29801600D02*
X46832800Y-29801600D01*
X46832800Y-29801600D02*
X43435700Y-33198700D01*
X43435700Y-33198700D02*
X43435700Y-56542600D01*
X43435700Y-56542600D02*
X42117300Y-57861000D01*
X42117300Y-57861000D02*
X39231200Y-57861000D01*
X39231200Y-57861000D02*
X30341200Y-66751000D01*
X30341200Y-66751000D02*
X26111200Y-66751000D01*
G04 #@! TO.N,A4*
X41351200Y-89611000D02*
X42901500Y-89611000D01*
X47701200Y-104851200D02*
X46150900Y-104851200D01*
X46150900Y-104851200D02*
X42901500Y-101601800D01*
X42901500Y-101601800D02*
X42901500Y-89611000D01*
G04 #@! TO.N,D5*
X69010900Y-26111200D02*
X67860500Y-27261600D01*
X67860500Y-27261600D02*
X46832700Y-27261600D01*
X46832700Y-27261600D02*
X35551900Y-38542400D01*
X35551900Y-38542400D02*
X35551900Y-60479200D01*
X35551900Y-60479200D02*
X34177200Y-61853900D01*
X34177200Y-61853900D02*
X27844400Y-61853900D01*
X27844400Y-61853900D02*
X27661500Y-61671000D01*
X26111200Y-61671000D02*
X27661500Y-61671000D01*
X70561200Y-26111200D02*
X69010900Y-26111200D01*
G04 #@! TO.N,A_18*
X42901500Y-104851000D02*
X50019600Y-111760000D01*
X41351200Y-104851000D02*
X42901500Y-104851000D01*
G04 #@! TO.N,Net-(TP1-Pad1)*
X39800900Y-74371000D02*
X35814000Y-78357900D01*
X35814000Y-78357900D02*
X35814000Y-110559700D01*
X35814000Y-111760000D02*
X35814000Y-110559700D01*
X41351200Y-74371000D02*
X39800900Y-74371000D01*
G04 #@! TD*
D18*
G04 #@! TO.N,VCC*
G36*
X84278400Y-23569413D02*
X84278401Y-117501600D01*
X24129178Y-117501600D01*
X24161612Y-56591000D01*
X24248087Y-56591000D01*
X24359460Y-57150909D01*
X24676623Y-57625577D01*
X25028958Y-57861000D01*
X24676623Y-58096423D01*
X24359460Y-58571091D01*
X24248087Y-59131000D01*
X24359460Y-59690909D01*
X24676623Y-60165577D01*
X25028958Y-60401000D01*
X24676623Y-60636423D01*
X24359460Y-61111091D01*
X24248087Y-61671000D01*
X24359460Y-62230909D01*
X24676623Y-62705577D01*
X25028958Y-62941000D01*
X24676623Y-63176423D01*
X24359460Y-63651091D01*
X24248087Y-64211000D01*
X24359460Y-64770909D01*
X24676623Y-65245577D01*
X25028958Y-65481000D01*
X24676623Y-65716423D01*
X24359460Y-66191091D01*
X24248087Y-66751000D01*
X24359460Y-67310909D01*
X24676623Y-67785577D01*
X25028958Y-68021000D01*
X24676623Y-68256423D01*
X24359460Y-68731091D01*
X24248087Y-69291000D01*
X24359460Y-69850909D01*
X24676623Y-70325577D01*
X25028958Y-70561000D01*
X24676623Y-70796423D01*
X24359460Y-71271091D01*
X24248087Y-71831000D01*
X24359460Y-72390909D01*
X24676623Y-72865577D01*
X25028958Y-73101000D01*
X24676623Y-73336423D01*
X24359460Y-73811091D01*
X24248087Y-74371000D01*
X24359460Y-74930909D01*
X24676623Y-75405577D01*
X25028958Y-75641000D01*
X24676623Y-75876423D01*
X24359460Y-76351091D01*
X24248087Y-76911000D01*
X24359460Y-77470909D01*
X24676623Y-77945577D01*
X25032699Y-78183499D01*
X24606700Y-78526104D01*
X24336833Y-79019181D01*
X24319296Y-79101961D01*
X24441285Y-79324000D01*
X25984200Y-79324000D01*
X25984200Y-79304000D01*
X26238200Y-79304000D01*
X26238200Y-79324000D01*
X27781115Y-79324000D01*
X27903104Y-79101961D01*
X27885567Y-79019181D01*
X27615700Y-78526104D01*
X27189701Y-78183499D01*
X27545777Y-77945577D01*
X27708512Y-77702027D01*
X27738812Y-77696000D01*
X27738816Y-77696000D01*
X27967792Y-77650454D01*
X28227453Y-77476953D01*
X28271250Y-77411407D01*
X31739658Y-73943000D01*
X39118742Y-73943000D01*
X35313592Y-77748151D01*
X35248047Y-77791947D01*
X35074546Y-78051609D01*
X35029000Y-78280585D01*
X35029000Y-78280588D01*
X35013622Y-78357900D01*
X35029000Y-78435212D01*
X35029001Y-110262560D01*
X34964000Y-110262560D01*
X34716235Y-110311843D01*
X34506191Y-110452191D01*
X34365843Y-110662235D01*
X34316560Y-110910000D01*
X34316560Y-112107102D01*
X28446500Y-106237043D01*
X28446500Y-102388316D01*
X28461879Y-102311000D01*
X28400954Y-102004708D01*
X28227453Y-101745047D01*
X27967792Y-101571546D01*
X27738816Y-101526000D01*
X27708511Y-101519972D01*
X27545777Y-101276423D01*
X27193442Y-101041000D01*
X27545777Y-100805577D01*
X27862940Y-100330909D01*
X27974313Y-99771000D01*
X27862940Y-99211091D01*
X27545777Y-98736423D01*
X27193442Y-98501000D01*
X27545777Y-98265577D01*
X27862940Y-97790909D01*
X27974313Y-97231000D01*
X27862940Y-96671091D01*
X27545777Y-96196423D01*
X27193442Y-95961000D01*
X27545777Y-95725577D01*
X27862940Y-95250909D01*
X27974313Y-94691000D01*
X27862940Y-94131091D01*
X27545777Y-93656423D01*
X27193442Y-93421000D01*
X27545777Y-93185577D01*
X27862940Y-92710909D01*
X27974313Y-92151000D01*
X27862940Y-91591091D01*
X27545777Y-91116423D01*
X27193442Y-90881000D01*
X27545777Y-90645577D01*
X27862940Y-90170909D01*
X27974313Y-89611000D01*
X27862940Y-89051091D01*
X27545777Y-88576423D01*
X27193442Y-88341000D01*
X27545777Y-88105577D01*
X27862940Y-87630909D01*
X27974313Y-87071000D01*
X27862940Y-86511091D01*
X27545777Y-86036423D01*
X27193442Y-85801000D01*
X27545777Y-85565577D01*
X27862940Y-85090909D01*
X27974313Y-84531000D01*
X27862940Y-83971091D01*
X27545777Y-83496423D01*
X27193442Y-83261000D01*
X27545777Y-83025577D01*
X27862940Y-82550909D01*
X27974313Y-81991000D01*
X27862940Y-81431091D01*
X27545777Y-80956423D01*
X27189701Y-80718501D01*
X27615700Y-80375896D01*
X27885567Y-79882819D01*
X27903104Y-79800039D01*
X27781115Y-79578000D01*
X26238200Y-79578000D01*
X26238200Y-79598000D01*
X25984200Y-79598000D01*
X25984200Y-79578000D01*
X24441285Y-79578000D01*
X24319296Y-79800039D01*
X24336833Y-79882819D01*
X24606700Y-80375896D01*
X25032699Y-80718501D01*
X24676623Y-80956423D01*
X24359460Y-81431091D01*
X24248087Y-81991000D01*
X24359460Y-82550909D01*
X24676623Y-83025577D01*
X25028958Y-83261000D01*
X24676623Y-83496423D01*
X24359460Y-83971091D01*
X24248087Y-84531000D01*
X24359460Y-85090909D01*
X24676623Y-85565577D01*
X25028958Y-85801000D01*
X24676623Y-86036423D01*
X24359460Y-86511091D01*
X24248087Y-87071000D01*
X24359460Y-87630909D01*
X24676623Y-88105577D01*
X25028958Y-88341000D01*
X24676623Y-88576423D01*
X24359460Y-89051091D01*
X24248087Y-89611000D01*
X24359460Y-90170909D01*
X24676623Y-90645577D01*
X25028958Y-90881000D01*
X24676623Y-91116423D01*
X24359460Y-91591091D01*
X24248087Y-92151000D01*
X24359460Y-92710909D01*
X24676623Y-93185577D01*
X25028958Y-93421000D01*
X24676623Y-93656423D01*
X24359460Y-94131091D01*
X24248087Y-94691000D01*
X24359460Y-95250909D01*
X24676623Y-95725577D01*
X25028958Y-95961000D01*
X24676623Y-96196423D01*
X24359460Y-96671091D01*
X24248087Y-97231000D01*
X24359460Y-97790909D01*
X24676623Y-98265577D01*
X25028958Y-98501000D01*
X24676623Y-98736423D01*
X24359460Y-99211091D01*
X24248087Y-99771000D01*
X24359460Y-100330909D01*
X24676623Y-100805577D01*
X25028958Y-101041000D01*
X24676623Y-101276423D01*
X24359460Y-101751091D01*
X24248087Y-102311000D01*
X24359460Y-102870909D01*
X24676623Y-103345577D01*
X25028958Y-103581000D01*
X24676623Y-103816423D01*
X24359460Y-104291091D01*
X24248087Y-104851000D01*
X24359460Y-105410909D01*
X24676623Y-105885577D01*
X25151291Y-106202740D01*
X25569867Y-106286000D01*
X26652533Y-106286000D01*
X26876500Y-106241450D01*
X26876500Y-106484888D01*
X26861122Y-106562200D01*
X26876500Y-106639512D01*
X26876500Y-106639515D01*
X26922046Y-106868491D01*
X27095547Y-107128153D01*
X27161092Y-107171949D01*
X33952853Y-113963711D01*
X33996647Y-114029253D01*
X34062189Y-114073047D01*
X34062191Y-114073049D01*
X34137225Y-114123185D01*
X34256308Y-114202754D01*
X34485284Y-114248300D01*
X34485288Y-114248300D01*
X34562599Y-114263678D01*
X34639910Y-114248300D01*
X52874388Y-114248300D01*
X52951700Y-114263678D01*
X53029012Y-114248300D01*
X53029016Y-114248300D01*
X53257992Y-114202754D01*
X53517653Y-114029253D01*
X53561449Y-113963708D01*
X55589757Y-111935400D01*
X57415360Y-111935400D01*
X57318887Y-112420400D01*
X57430260Y-112980309D01*
X57747423Y-113454977D01*
X58099758Y-113690400D01*
X57747423Y-113925823D01*
X57430260Y-114400491D01*
X57318887Y-114960400D01*
X57430260Y-115520309D01*
X57747423Y-115994977D01*
X58222091Y-116312140D01*
X58640667Y-116395400D01*
X59723333Y-116395400D01*
X60141909Y-116312140D01*
X60616577Y-115994977D01*
X60933740Y-115520309D01*
X61045113Y-114960400D01*
X60933740Y-114400491D01*
X60616577Y-113925823D01*
X60264242Y-113690400D01*
X60616577Y-113454977D01*
X60933740Y-112980309D01*
X61045113Y-112420400D01*
X60948640Y-111935400D01*
X66223988Y-111935400D01*
X66301300Y-111950778D01*
X66378612Y-111935400D01*
X66378616Y-111935400D01*
X66607592Y-111889854D01*
X66867253Y-111716353D01*
X66911049Y-111650808D01*
X75835992Y-102725866D01*
X78410848Y-105300804D01*
X78454647Y-105366353D01*
X78580365Y-105450356D01*
X78714296Y-105539849D01*
X78714302Y-105539850D01*
X78714308Y-105539854D01*
X78907444Y-105578271D01*
X79020587Y-105600778D01*
X79097904Y-105585400D01*
X80440661Y-105585400D01*
X80607423Y-105834977D01*
X80959758Y-106070400D01*
X80607423Y-106305823D01*
X80290260Y-106780491D01*
X80178887Y-107340400D01*
X80290260Y-107900309D01*
X80607423Y-108374977D01*
X80959758Y-108610400D01*
X80607423Y-108845823D01*
X80290260Y-109320491D01*
X80178887Y-109880400D01*
X80290260Y-110440309D01*
X80607423Y-110914977D01*
X80959758Y-111150400D01*
X80607423Y-111385823D01*
X80290260Y-111860491D01*
X80178887Y-112420400D01*
X80290260Y-112980309D01*
X80607423Y-113454977D01*
X80959758Y-113690400D01*
X80607423Y-113925823D01*
X80290260Y-114400491D01*
X80178887Y-114960400D01*
X80290260Y-115520309D01*
X80607423Y-115994977D01*
X81082091Y-116312140D01*
X81500667Y-116395400D01*
X82583333Y-116395400D01*
X83001909Y-116312140D01*
X83476577Y-115994977D01*
X83793740Y-115520309D01*
X83905113Y-114960400D01*
X83793740Y-114400491D01*
X83476577Y-113925823D01*
X83124242Y-113690400D01*
X83476577Y-113454977D01*
X83793740Y-112980309D01*
X83905113Y-112420400D01*
X83793740Y-111860491D01*
X83476577Y-111385823D01*
X83124242Y-111150400D01*
X83476577Y-110914977D01*
X83793740Y-110440309D01*
X83905113Y-109880400D01*
X83793740Y-109320491D01*
X83476577Y-108845823D01*
X83124242Y-108610400D01*
X83476577Y-108374977D01*
X83793740Y-107900309D01*
X83905113Y-107340400D01*
X83793740Y-106780491D01*
X83476577Y-106305823D01*
X83124242Y-106070400D01*
X83476577Y-105834977D01*
X83793740Y-105360309D01*
X83905113Y-104800400D01*
X83793740Y-104240491D01*
X83476577Y-103765823D01*
X83124242Y-103530400D01*
X83476577Y-103294977D01*
X83793740Y-102820309D01*
X83905113Y-102260400D01*
X83793740Y-101700491D01*
X83476577Y-101225823D01*
X83124242Y-100990400D01*
X83476577Y-100754977D01*
X83793740Y-100280309D01*
X83905113Y-99720400D01*
X83793740Y-99160491D01*
X83476577Y-98685823D01*
X83124242Y-98450400D01*
X83476577Y-98214977D01*
X83793740Y-97740309D01*
X83905113Y-97180400D01*
X83793740Y-96620491D01*
X83476577Y-96145823D01*
X83124242Y-95910400D01*
X83476577Y-95674977D01*
X83793740Y-95200309D01*
X83905113Y-94640400D01*
X83793740Y-94080491D01*
X83476577Y-93605823D01*
X83124242Y-93370400D01*
X83476577Y-93134977D01*
X83793740Y-92660309D01*
X83905113Y-92100400D01*
X83793740Y-91540491D01*
X83476577Y-91065823D01*
X83124242Y-90830400D01*
X83476577Y-90594977D01*
X83793740Y-90120309D01*
X83905113Y-89560400D01*
X83793740Y-89000491D01*
X83476577Y-88525823D01*
X83124242Y-88290400D01*
X83476577Y-88054977D01*
X83793740Y-87580309D01*
X83905113Y-87020400D01*
X83793740Y-86460491D01*
X83476577Y-85985823D01*
X83124242Y-85750400D01*
X83476577Y-85514977D01*
X83793740Y-85040309D01*
X83905113Y-84480400D01*
X83793740Y-83920491D01*
X83476577Y-83445823D01*
X83124242Y-83210400D01*
X83476577Y-82974977D01*
X83793740Y-82500309D01*
X83905113Y-81940400D01*
X83793740Y-81380491D01*
X83476577Y-80905823D01*
X83124242Y-80670400D01*
X83476577Y-80434977D01*
X83793740Y-79960309D01*
X83905113Y-79400400D01*
X83793740Y-78840491D01*
X83476577Y-78365823D01*
X83124242Y-78130400D01*
X83476577Y-77894977D01*
X83793740Y-77420309D01*
X83905113Y-76860400D01*
X83793740Y-76300491D01*
X83476577Y-75825823D01*
X83120501Y-75587901D01*
X83546500Y-75245296D01*
X83816367Y-74752219D01*
X83833904Y-74669439D01*
X83711915Y-74447400D01*
X82169000Y-74447400D01*
X82169000Y-74467400D01*
X81915000Y-74467400D01*
X81915000Y-74447400D01*
X80372085Y-74447400D01*
X80250096Y-74669439D01*
X80267633Y-74752219D01*
X80537500Y-75245296D01*
X80963499Y-75587901D01*
X80607423Y-75825823D01*
X80290260Y-76300491D01*
X80178887Y-76860400D01*
X80290260Y-77420309D01*
X80607423Y-77894977D01*
X80959758Y-78130400D01*
X80607423Y-78365823D01*
X80290260Y-78840491D01*
X80178887Y-79400400D01*
X80290260Y-79960309D01*
X80607423Y-80434977D01*
X80959758Y-80670400D01*
X80607423Y-80905823D01*
X80591344Y-80929887D01*
X74898249Y-75236792D01*
X74854453Y-75171247D01*
X74594792Y-74997746D01*
X74365816Y-74952200D01*
X74365812Y-74952200D01*
X74288500Y-74936822D01*
X74211188Y-74952200D01*
X72298847Y-74952200D01*
X72312940Y-74931109D01*
X72424313Y-74371200D01*
X72312940Y-73811291D01*
X71995777Y-73336623D01*
X71643442Y-73101200D01*
X71995777Y-72865777D01*
X72312940Y-72391109D01*
X72424313Y-71831200D01*
X72312940Y-71271291D01*
X71995777Y-70796623D01*
X71643442Y-70561200D01*
X71995777Y-70325777D01*
X72312940Y-69851109D01*
X72424313Y-69291200D01*
X72312940Y-68731291D01*
X71995777Y-68256623D01*
X71643442Y-68021200D01*
X71995777Y-67785777D01*
X72312940Y-67311109D01*
X72424313Y-66751200D01*
X72312940Y-66191291D01*
X71995777Y-65716623D01*
X71639701Y-65478701D01*
X72065700Y-65136096D01*
X72335567Y-64643019D01*
X72353104Y-64560239D01*
X72231115Y-64338200D01*
X70688200Y-64338200D01*
X70688200Y-64358200D01*
X70434200Y-64358200D01*
X70434200Y-64338200D01*
X70414200Y-64338200D01*
X70414200Y-64084200D01*
X70434200Y-64084200D01*
X70434200Y-64064200D01*
X70688200Y-64064200D01*
X70688200Y-64084200D01*
X72231115Y-64084200D01*
X72353104Y-63862161D01*
X72340444Y-63802400D01*
X79023543Y-63802400D01*
X79881953Y-64660811D01*
X79925747Y-64726353D01*
X79991289Y-64770147D01*
X79991291Y-64770149D01*
X80185408Y-64899854D01*
X80414384Y-64945400D01*
X80414387Y-64945400D01*
X80444688Y-64951427D01*
X80607423Y-65194977D01*
X80959758Y-65430400D01*
X80607423Y-65665823D01*
X80290260Y-66140491D01*
X80178887Y-66700400D01*
X80290260Y-67260309D01*
X80607423Y-67734977D01*
X80959758Y-67970400D01*
X80607423Y-68205823D01*
X80290260Y-68680491D01*
X80178887Y-69240400D01*
X80290260Y-69800309D01*
X80607423Y-70274977D01*
X80959758Y-70510400D01*
X80607423Y-70745823D01*
X80290260Y-71220491D01*
X80178887Y-71780400D01*
X80290260Y-72340309D01*
X80607423Y-72814977D01*
X80963499Y-73052899D01*
X80537500Y-73395504D01*
X80267633Y-73888581D01*
X80250096Y-73971361D01*
X80372085Y-74193400D01*
X81915000Y-74193400D01*
X81915000Y-74173400D01*
X82169000Y-74173400D01*
X82169000Y-74193400D01*
X83711915Y-74193400D01*
X83833904Y-73971361D01*
X83816367Y-73888581D01*
X83546500Y-73395504D01*
X83120501Y-73052899D01*
X83476577Y-72814977D01*
X83793740Y-72340309D01*
X83905113Y-71780400D01*
X83793740Y-71220491D01*
X83476577Y-70745823D01*
X83124242Y-70510400D01*
X83476577Y-70274977D01*
X83793740Y-69800309D01*
X83905113Y-69240400D01*
X83793740Y-68680491D01*
X83476577Y-68205823D01*
X83124242Y-67970400D01*
X83476577Y-67734977D01*
X83793740Y-67260309D01*
X83905113Y-66700400D01*
X83793740Y-66140491D01*
X83476577Y-65665823D01*
X83124242Y-65430400D01*
X83476577Y-65194977D01*
X83793740Y-64720309D01*
X83905113Y-64160400D01*
X83793740Y-63600491D01*
X83476577Y-63125823D01*
X83124242Y-62890400D01*
X83476577Y-62654977D01*
X83793740Y-62180309D01*
X83905113Y-61620400D01*
X83793740Y-61060491D01*
X83476577Y-60585823D01*
X83124242Y-60350400D01*
X83476577Y-60114977D01*
X83793740Y-59640309D01*
X83905113Y-59080400D01*
X83793740Y-58520491D01*
X83476577Y-58045823D01*
X83124242Y-57810400D01*
X83476577Y-57574977D01*
X83793740Y-57100309D01*
X83905113Y-56540400D01*
X83793740Y-55980491D01*
X83476577Y-55505823D01*
X83124242Y-55270400D01*
X83476577Y-55034977D01*
X83793740Y-54560309D01*
X83905113Y-54000400D01*
X83793740Y-53440491D01*
X83476577Y-52965823D01*
X83124242Y-52730400D01*
X83476577Y-52494977D01*
X83793740Y-52020309D01*
X83905113Y-51460400D01*
X83793740Y-50900491D01*
X83476577Y-50425823D01*
X83124242Y-50190400D01*
X83476577Y-49954977D01*
X83793740Y-49480309D01*
X83905113Y-48920400D01*
X83793740Y-48360491D01*
X83476577Y-47885823D01*
X83124242Y-47650400D01*
X83476577Y-47414977D01*
X83793740Y-46940309D01*
X83905113Y-46380400D01*
X83793740Y-45820491D01*
X83476577Y-45345823D01*
X83124242Y-45110400D01*
X83476577Y-44874977D01*
X83793740Y-44400309D01*
X83905113Y-43840400D01*
X83793740Y-43280491D01*
X83476577Y-42805823D01*
X83124242Y-42570400D01*
X83476577Y-42334977D01*
X83793740Y-41860309D01*
X83905113Y-41300400D01*
X83793740Y-40740491D01*
X83476577Y-40265823D01*
X83124242Y-40030400D01*
X83476577Y-39794977D01*
X83793740Y-39320309D01*
X83905113Y-38760400D01*
X83793740Y-38200491D01*
X83476577Y-37725823D01*
X83124242Y-37490400D01*
X83476577Y-37254977D01*
X83793740Y-36780309D01*
X83905113Y-36220400D01*
X83793740Y-35660491D01*
X83476577Y-35185823D01*
X83001909Y-34868660D01*
X82583333Y-34785400D01*
X81500667Y-34785400D01*
X81082091Y-34868660D01*
X80607423Y-35185823D01*
X80290260Y-35660491D01*
X80178887Y-36220400D01*
X80290260Y-36780309D01*
X80607423Y-37254977D01*
X80959758Y-37490400D01*
X80607423Y-37725823D01*
X80290260Y-38200491D01*
X80178887Y-38760400D01*
X80290260Y-39320309D01*
X80607423Y-39794977D01*
X80959758Y-40030400D01*
X80607423Y-40265823D01*
X80290260Y-40740491D01*
X80178887Y-41300400D01*
X80290260Y-41860309D01*
X80607423Y-42334977D01*
X80959758Y-42570400D01*
X80695997Y-42746639D01*
X72896500Y-34947143D01*
X72896500Y-33808516D01*
X72911879Y-33731200D01*
X72850954Y-33424908D01*
X72677453Y-33165247D01*
X72417792Y-32991746D01*
X72188816Y-32946200D01*
X72158511Y-32940172D01*
X71995777Y-32696623D01*
X71643442Y-32461200D01*
X71995777Y-32225777D01*
X72312940Y-31751109D01*
X72424313Y-31191200D01*
X72312940Y-30631291D01*
X71995777Y-30156623D01*
X71643442Y-29921200D01*
X71995777Y-29685777D01*
X72312940Y-29211109D01*
X72424313Y-28651200D01*
X72312940Y-28091291D01*
X71995777Y-27616623D01*
X71643442Y-27381200D01*
X71995777Y-27145777D01*
X72312940Y-26671109D01*
X72424313Y-26111200D01*
X72312940Y-25551291D01*
X71995777Y-25076623D01*
X71521109Y-24759460D01*
X71102533Y-24676200D01*
X70019867Y-24676200D01*
X69601291Y-24759460D01*
X69126623Y-25076623D01*
X68963888Y-25320173D01*
X68933588Y-25326200D01*
X68933584Y-25326200D01*
X68704608Y-25371746D01*
X68585525Y-25451315D01*
X68510491Y-25501451D01*
X68510489Y-25501453D01*
X68444947Y-25545247D01*
X68401153Y-25610789D01*
X67535343Y-26476600D01*
X49548640Y-26476600D01*
X49548640Y-25311200D01*
X49499357Y-25063435D01*
X49359009Y-24853391D01*
X49148965Y-24713043D01*
X48901200Y-24663760D01*
X46501200Y-24663760D01*
X46253435Y-24713043D01*
X46043391Y-24853391D01*
X45903043Y-25063435D01*
X45853760Y-25311200D01*
X45853760Y-26911200D01*
X45890124Y-27094018D01*
X35051492Y-37932651D01*
X34985947Y-37976447D01*
X34812446Y-38236109D01*
X34766900Y-38465085D01*
X34766900Y-38465088D01*
X34751522Y-38542400D01*
X34766900Y-38619712D01*
X34766901Y-60154041D01*
X33852043Y-61068900D01*
X28173356Y-61068900D01*
X27967792Y-60931546D01*
X27738816Y-60886000D01*
X27738812Y-60886000D01*
X27708512Y-60879973D01*
X27545777Y-60636423D01*
X27193442Y-60401000D01*
X27545777Y-60165577D01*
X27862940Y-59690909D01*
X27974313Y-59131000D01*
X27862940Y-58571091D01*
X27545777Y-58096423D01*
X27193442Y-57861000D01*
X27545777Y-57625577D01*
X27862940Y-57150909D01*
X27974313Y-56591000D01*
X27862940Y-56031091D01*
X27545777Y-55556423D01*
X27189701Y-55318501D01*
X27615700Y-54975896D01*
X27885567Y-54482819D01*
X27903104Y-54400039D01*
X27781115Y-54178000D01*
X26238200Y-54178000D01*
X26238200Y-54198000D01*
X25984200Y-54198000D01*
X25984200Y-54178000D01*
X24441285Y-54178000D01*
X24319296Y-54400039D01*
X24336833Y-54482819D01*
X24606700Y-54975896D01*
X25032699Y-55318501D01*
X24676623Y-55556423D01*
X24359460Y-56031091D01*
X24248087Y-56591000D01*
X24161612Y-56591000D01*
X24163150Y-53701961D01*
X24319296Y-53701961D01*
X24441285Y-53924000D01*
X25984200Y-53924000D01*
X25984200Y-52616000D01*
X26238200Y-52616000D01*
X26238200Y-53924000D01*
X27781115Y-53924000D01*
X27903104Y-53701961D01*
X27885567Y-53619181D01*
X27615700Y-53126104D01*
X27177683Y-52773834D01*
X26638200Y-52616000D01*
X26238200Y-52616000D01*
X25984200Y-52616000D01*
X25584200Y-52616000D01*
X25044717Y-52773834D01*
X24606700Y-53126104D01*
X24336833Y-53619181D01*
X24319296Y-53701961D01*
X24163150Y-53701961D01*
X24179222Y-23519786D01*
X84278400Y-23569413D01*
X84278400Y-23569413D01*
G37*
X84278400Y-23569413D02*
X84278401Y-117501600D01*
X24129178Y-117501600D01*
X24161612Y-56591000D01*
X24248087Y-56591000D01*
X24359460Y-57150909D01*
X24676623Y-57625577D01*
X25028958Y-57861000D01*
X24676623Y-58096423D01*
X24359460Y-58571091D01*
X24248087Y-59131000D01*
X24359460Y-59690909D01*
X24676623Y-60165577D01*
X25028958Y-60401000D01*
X24676623Y-60636423D01*
X24359460Y-61111091D01*
X24248087Y-61671000D01*
X24359460Y-62230909D01*
X24676623Y-62705577D01*
X25028958Y-62941000D01*
X24676623Y-63176423D01*
X24359460Y-63651091D01*
X24248087Y-64211000D01*
X24359460Y-64770909D01*
X24676623Y-65245577D01*
X25028958Y-65481000D01*
X24676623Y-65716423D01*
X24359460Y-66191091D01*
X24248087Y-66751000D01*
X24359460Y-67310909D01*
X24676623Y-67785577D01*
X25028958Y-68021000D01*
X24676623Y-68256423D01*
X24359460Y-68731091D01*
X24248087Y-69291000D01*
X24359460Y-69850909D01*
X24676623Y-70325577D01*
X25028958Y-70561000D01*
X24676623Y-70796423D01*
X24359460Y-71271091D01*
X24248087Y-71831000D01*
X24359460Y-72390909D01*
X24676623Y-72865577D01*
X25028958Y-73101000D01*
X24676623Y-73336423D01*
X24359460Y-73811091D01*
X24248087Y-74371000D01*
X24359460Y-74930909D01*
X24676623Y-75405577D01*
X25028958Y-75641000D01*
X24676623Y-75876423D01*
X24359460Y-76351091D01*
X24248087Y-76911000D01*
X24359460Y-77470909D01*
X24676623Y-77945577D01*
X25032699Y-78183499D01*
X24606700Y-78526104D01*
X24336833Y-79019181D01*
X24319296Y-79101961D01*
X24441285Y-79324000D01*
X25984200Y-79324000D01*
X25984200Y-79304000D01*
X26238200Y-79304000D01*
X26238200Y-79324000D01*
X27781115Y-79324000D01*
X27903104Y-79101961D01*
X27885567Y-79019181D01*
X27615700Y-78526104D01*
X27189701Y-78183499D01*
X27545777Y-77945577D01*
X27708512Y-77702027D01*
X27738812Y-77696000D01*
X27738816Y-77696000D01*
X27967792Y-77650454D01*
X28227453Y-77476953D01*
X28271250Y-77411407D01*
X31739658Y-73943000D01*
X39118742Y-73943000D01*
X35313592Y-77748151D01*
X35248047Y-77791947D01*
X35074546Y-78051609D01*
X35029000Y-78280585D01*
X35029000Y-78280588D01*
X35013622Y-78357900D01*
X35029000Y-78435212D01*
X35029001Y-110262560D01*
X34964000Y-110262560D01*
X34716235Y-110311843D01*
X34506191Y-110452191D01*
X34365843Y-110662235D01*
X34316560Y-110910000D01*
X34316560Y-112107102D01*
X28446500Y-106237043D01*
X28446500Y-102388316D01*
X28461879Y-102311000D01*
X28400954Y-102004708D01*
X28227453Y-101745047D01*
X27967792Y-101571546D01*
X27738816Y-101526000D01*
X27708511Y-101519972D01*
X27545777Y-101276423D01*
X27193442Y-101041000D01*
X27545777Y-100805577D01*
X27862940Y-100330909D01*
X27974313Y-99771000D01*
X27862940Y-99211091D01*
X27545777Y-98736423D01*
X27193442Y-98501000D01*
X27545777Y-98265577D01*
X27862940Y-97790909D01*
X27974313Y-97231000D01*
X27862940Y-96671091D01*
X27545777Y-96196423D01*
X27193442Y-95961000D01*
X27545777Y-95725577D01*
X27862940Y-95250909D01*
X27974313Y-94691000D01*
X27862940Y-94131091D01*
X27545777Y-93656423D01*
X27193442Y-93421000D01*
X27545777Y-93185577D01*
X27862940Y-92710909D01*
X27974313Y-92151000D01*
X27862940Y-91591091D01*
X27545777Y-91116423D01*
X27193442Y-90881000D01*
X27545777Y-90645577D01*
X27862940Y-90170909D01*
X27974313Y-89611000D01*
X27862940Y-89051091D01*
X27545777Y-88576423D01*
X27193442Y-88341000D01*
X27545777Y-88105577D01*
X27862940Y-87630909D01*
X27974313Y-87071000D01*
X27862940Y-86511091D01*
X27545777Y-86036423D01*
X27193442Y-85801000D01*
X27545777Y-85565577D01*
X27862940Y-85090909D01*
X27974313Y-84531000D01*
X27862940Y-83971091D01*
X27545777Y-83496423D01*
X27193442Y-83261000D01*
X27545777Y-83025577D01*
X27862940Y-82550909D01*
X27974313Y-81991000D01*
X27862940Y-81431091D01*
X27545777Y-80956423D01*
X27189701Y-80718501D01*
X27615700Y-80375896D01*
X27885567Y-79882819D01*
X27903104Y-79800039D01*
X27781115Y-79578000D01*
X26238200Y-79578000D01*
X26238200Y-79598000D01*
X25984200Y-79598000D01*
X25984200Y-79578000D01*
X24441285Y-79578000D01*
X24319296Y-79800039D01*
X24336833Y-79882819D01*
X24606700Y-80375896D01*
X25032699Y-80718501D01*
X24676623Y-80956423D01*
X24359460Y-81431091D01*
X24248087Y-81991000D01*
X24359460Y-82550909D01*
X24676623Y-83025577D01*
X25028958Y-83261000D01*
X24676623Y-83496423D01*
X24359460Y-83971091D01*
X24248087Y-84531000D01*
X24359460Y-85090909D01*
X24676623Y-85565577D01*
X25028958Y-85801000D01*
X24676623Y-86036423D01*
X24359460Y-86511091D01*
X24248087Y-87071000D01*
X24359460Y-87630909D01*
X24676623Y-88105577D01*
X25028958Y-88341000D01*
X24676623Y-88576423D01*
X24359460Y-89051091D01*
X24248087Y-89611000D01*
X24359460Y-90170909D01*
X24676623Y-90645577D01*
X25028958Y-90881000D01*
X24676623Y-91116423D01*
X24359460Y-91591091D01*
X24248087Y-92151000D01*
X24359460Y-92710909D01*
X24676623Y-93185577D01*
X25028958Y-93421000D01*
X24676623Y-93656423D01*
X24359460Y-94131091D01*
X24248087Y-94691000D01*
X24359460Y-95250909D01*
X24676623Y-95725577D01*
X25028958Y-95961000D01*
X24676623Y-96196423D01*
X24359460Y-96671091D01*
X24248087Y-97231000D01*
X24359460Y-97790909D01*
X24676623Y-98265577D01*
X25028958Y-98501000D01*
X24676623Y-98736423D01*
X24359460Y-99211091D01*
X24248087Y-99771000D01*
X24359460Y-100330909D01*
X24676623Y-100805577D01*
X25028958Y-101041000D01*
X24676623Y-101276423D01*
X24359460Y-101751091D01*
X24248087Y-102311000D01*
X24359460Y-102870909D01*
X24676623Y-103345577D01*
X25028958Y-103581000D01*
X24676623Y-103816423D01*
X24359460Y-104291091D01*
X24248087Y-104851000D01*
X24359460Y-105410909D01*
X24676623Y-105885577D01*
X25151291Y-106202740D01*
X25569867Y-106286000D01*
X26652533Y-106286000D01*
X26876500Y-106241450D01*
X26876500Y-106484888D01*
X26861122Y-106562200D01*
X26876500Y-106639512D01*
X26876500Y-106639515D01*
X26922046Y-106868491D01*
X27095547Y-107128153D01*
X27161092Y-107171949D01*
X33952853Y-113963711D01*
X33996647Y-114029253D01*
X34062189Y-114073047D01*
X34062191Y-114073049D01*
X34137225Y-114123185D01*
X34256308Y-114202754D01*
X34485284Y-114248300D01*
X34485288Y-114248300D01*
X34562599Y-114263678D01*
X34639910Y-114248300D01*
X52874388Y-114248300D01*
X52951700Y-114263678D01*
X53029012Y-114248300D01*
X53029016Y-114248300D01*
X53257992Y-114202754D01*
X53517653Y-114029253D01*
X53561449Y-113963708D01*
X55589757Y-111935400D01*
X57415360Y-111935400D01*
X57318887Y-112420400D01*
X57430260Y-112980309D01*
X57747423Y-113454977D01*
X58099758Y-113690400D01*
X57747423Y-113925823D01*
X57430260Y-114400491D01*
X57318887Y-114960400D01*
X57430260Y-115520309D01*
X57747423Y-115994977D01*
X58222091Y-116312140D01*
X58640667Y-116395400D01*
X59723333Y-116395400D01*
X60141909Y-116312140D01*
X60616577Y-115994977D01*
X60933740Y-115520309D01*
X61045113Y-114960400D01*
X60933740Y-114400491D01*
X60616577Y-113925823D01*
X60264242Y-113690400D01*
X60616577Y-113454977D01*
X60933740Y-112980309D01*
X61045113Y-112420400D01*
X60948640Y-111935400D01*
X66223988Y-111935400D01*
X66301300Y-111950778D01*
X66378612Y-111935400D01*
X66378616Y-111935400D01*
X66607592Y-111889854D01*
X66867253Y-111716353D01*
X66911049Y-111650808D01*
X75835992Y-102725866D01*
X78410848Y-105300804D01*
X78454647Y-105366353D01*
X78580365Y-105450356D01*
X78714296Y-105539849D01*
X78714302Y-105539850D01*
X78714308Y-105539854D01*
X78907444Y-105578271D01*
X79020587Y-105600778D01*
X79097904Y-105585400D01*
X80440661Y-105585400D01*
X80607423Y-105834977D01*
X80959758Y-106070400D01*
X80607423Y-106305823D01*
X80290260Y-106780491D01*
X80178887Y-107340400D01*
X80290260Y-107900309D01*
X80607423Y-108374977D01*
X80959758Y-108610400D01*
X80607423Y-108845823D01*
X80290260Y-109320491D01*
X80178887Y-109880400D01*
X80290260Y-110440309D01*
X80607423Y-110914977D01*
X80959758Y-111150400D01*
X80607423Y-111385823D01*
X80290260Y-111860491D01*
X80178887Y-112420400D01*
X80290260Y-112980309D01*
X80607423Y-113454977D01*
X80959758Y-113690400D01*
X80607423Y-113925823D01*
X80290260Y-114400491D01*
X80178887Y-114960400D01*
X80290260Y-115520309D01*
X80607423Y-115994977D01*
X81082091Y-116312140D01*
X81500667Y-116395400D01*
X82583333Y-116395400D01*
X83001909Y-116312140D01*
X83476577Y-115994977D01*
X83793740Y-115520309D01*
X83905113Y-114960400D01*
X83793740Y-114400491D01*
X83476577Y-113925823D01*
X83124242Y-113690400D01*
X83476577Y-113454977D01*
X83793740Y-112980309D01*
X83905113Y-112420400D01*
X83793740Y-111860491D01*
X83476577Y-111385823D01*
X83124242Y-111150400D01*
X83476577Y-110914977D01*
X83793740Y-110440309D01*
X83905113Y-109880400D01*
X83793740Y-109320491D01*
X83476577Y-108845823D01*
X83124242Y-108610400D01*
X83476577Y-108374977D01*
X83793740Y-107900309D01*
X83905113Y-107340400D01*
X83793740Y-106780491D01*
X83476577Y-106305823D01*
X83124242Y-106070400D01*
X83476577Y-105834977D01*
X83793740Y-105360309D01*
X83905113Y-104800400D01*
X83793740Y-104240491D01*
X83476577Y-103765823D01*
X83124242Y-103530400D01*
X83476577Y-103294977D01*
X83793740Y-102820309D01*
X83905113Y-102260400D01*
X83793740Y-101700491D01*
X83476577Y-101225823D01*
X83124242Y-100990400D01*
X83476577Y-100754977D01*
X83793740Y-100280309D01*
X83905113Y-99720400D01*
X83793740Y-99160491D01*
X83476577Y-98685823D01*
X83124242Y-98450400D01*
X83476577Y-98214977D01*
X83793740Y-97740309D01*
X83905113Y-97180400D01*
X83793740Y-96620491D01*
X83476577Y-96145823D01*
X83124242Y-95910400D01*
X83476577Y-95674977D01*
X83793740Y-95200309D01*
X83905113Y-94640400D01*
X83793740Y-94080491D01*
X83476577Y-93605823D01*
X83124242Y-93370400D01*
X83476577Y-93134977D01*
X83793740Y-92660309D01*
X83905113Y-92100400D01*
X83793740Y-91540491D01*
X83476577Y-91065823D01*
X83124242Y-90830400D01*
X83476577Y-90594977D01*
X83793740Y-90120309D01*
X83905113Y-89560400D01*
X83793740Y-89000491D01*
X83476577Y-88525823D01*
X83124242Y-88290400D01*
X83476577Y-88054977D01*
X83793740Y-87580309D01*
X83905113Y-87020400D01*
X83793740Y-86460491D01*
X83476577Y-85985823D01*
X83124242Y-85750400D01*
X83476577Y-85514977D01*
X83793740Y-85040309D01*
X83905113Y-84480400D01*
X83793740Y-83920491D01*
X83476577Y-83445823D01*
X83124242Y-83210400D01*
X83476577Y-82974977D01*
X83793740Y-82500309D01*
X83905113Y-81940400D01*
X83793740Y-81380491D01*
X83476577Y-80905823D01*
X83124242Y-80670400D01*
X83476577Y-80434977D01*
X83793740Y-79960309D01*
X83905113Y-79400400D01*
X83793740Y-78840491D01*
X83476577Y-78365823D01*
X83124242Y-78130400D01*
X83476577Y-77894977D01*
X83793740Y-77420309D01*
X83905113Y-76860400D01*
X83793740Y-76300491D01*
X83476577Y-75825823D01*
X83120501Y-75587901D01*
X83546500Y-75245296D01*
X83816367Y-74752219D01*
X83833904Y-74669439D01*
X83711915Y-74447400D01*
X82169000Y-74447400D01*
X82169000Y-74467400D01*
X81915000Y-74467400D01*
X81915000Y-74447400D01*
X80372085Y-74447400D01*
X80250096Y-74669439D01*
X80267633Y-74752219D01*
X80537500Y-75245296D01*
X80963499Y-75587901D01*
X80607423Y-75825823D01*
X80290260Y-76300491D01*
X80178887Y-76860400D01*
X80290260Y-77420309D01*
X80607423Y-77894977D01*
X80959758Y-78130400D01*
X80607423Y-78365823D01*
X80290260Y-78840491D01*
X80178887Y-79400400D01*
X80290260Y-79960309D01*
X80607423Y-80434977D01*
X80959758Y-80670400D01*
X80607423Y-80905823D01*
X80591344Y-80929887D01*
X74898249Y-75236792D01*
X74854453Y-75171247D01*
X74594792Y-74997746D01*
X74365816Y-74952200D01*
X74365812Y-74952200D01*
X74288500Y-74936822D01*
X74211188Y-74952200D01*
X72298847Y-74952200D01*
X72312940Y-74931109D01*
X72424313Y-74371200D01*
X72312940Y-73811291D01*
X71995777Y-73336623D01*
X71643442Y-73101200D01*
X71995777Y-72865777D01*
X72312940Y-72391109D01*
X72424313Y-71831200D01*
X72312940Y-71271291D01*
X71995777Y-70796623D01*
X71643442Y-70561200D01*
X71995777Y-70325777D01*
X72312940Y-69851109D01*
X72424313Y-69291200D01*
X72312940Y-68731291D01*
X71995777Y-68256623D01*
X71643442Y-68021200D01*
X71995777Y-67785777D01*
X72312940Y-67311109D01*
X72424313Y-66751200D01*
X72312940Y-66191291D01*
X71995777Y-65716623D01*
X71639701Y-65478701D01*
X72065700Y-65136096D01*
X72335567Y-64643019D01*
X72353104Y-64560239D01*
X72231115Y-64338200D01*
X70688200Y-64338200D01*
X70688200Y-64358200D01*
X70434200Y-64358200D01*
X70434200Y-64338200D01*
X70414200Y-64338200D01*
X70414200Y-64084200D01*
X70434200Y-64084200D01*
X70434200Y-64064200D01*
X70688200Y-64064200D01*
X70688200Y-64084200D01*
X72231115Y-64084200D01*
X72353104Y-63862161D01*
X72340444Y-63802400D01*
X79023543Y-63802400D01*
X79881953Y-64660811D01*
X79925747Y-64726353D01*
X79991289Y-64770147D01*
X79991291Y-64770149D01*
X80185408Y-64899854D01*
X80414384Y-64945400D01*
X80414387Y-64945400D01*
X80444688Y-64951427D01*
X80607423Y-65194977D01*
X80959758Y-65430400D01*
X80607423Y-65665823D01*
X80290260Y-66140491D01*
X80178887Y-66700400D01*
X80290260Y-67260309D01*
X80607423Y-67734977D01*
X80959758Y-67970400D01*
X80607423Y-68205823D01*
X80290260Y-68680491D01*
X80178887Y-69240400D01*
X80290260Y-69800309D01*
X80607423Y-70274977D01*
X80959758Y-70510400D01*
X80607423Y-70745823D01*
X80290260Y-71220491D01*
X80178887Y-71780400D01*
X80290260Y-72340309D01*
X80607423Y-72814977D01*
X80963499Y-73052899D01*
X80537500Y-73395504D01*
X80267633Y-73888581D01*
X80250096Y-73971361D01*
X80372085Y-74193400D01*
X81915000Y-74193400D01*
X81915000Y-74173400D01*
X82169000Y-74173400D01*
X82169000Y-74193400D01*
X83711915Y-74193400D01*
X83833904Y-73971361D01*
X83816367Y-73888581D01*
X83546500Y-73395504D01*
X83120501Y-73052899D01*
X83476577Y-72814977D01*
X83793740Y-72340309D01*
X83905113Y-71780400D01*
X83793740Y-71220491D01*
X83476577Y-70745823D01*
X83124242Y-70510400D01*
X83476577Y-70274977D01*
X83793740Y-69800309D01*
X83905113Y-69240400D01*
X83793740Y-68680491D01*
X83476577Y-68205823D01*
X83124242Y-67970400D01*
X83476577Y-67734977D01*
X83793740Y-67260309D01*
X83905113Y-66700400D01*
X83793740Y-66140491D01*
X83476577Y-65665823D01*
X83124242Y-65430400D01*
X83476577Y-65194977D01*
X83793740Y-64720309D01*
X83905113Y-64160400D01*
X83793740Y-63600491D01*
X83476577Y-63125823D01*
X83124242Y-62890400D01*
X83476577Y-62654977D01*
X83793740Y-62180309D01*
X83905113Y-61620400D01*
X83793740Y-61060491D01*
X83476577Y-60585823D01*
X83124242Y-60350400D01*
X83476577Y-60114977D01*
X83793740Y-59640309D01*
X83905113Y-59080400D01*
X83793740Y-58520491D01*
X83476577Y-58045823D01*
X83124242Y-57810400D01*
X83476577Y-57574977D01*
X83793740Y-57100309D01*
X83905113Y-56540400D01*
X83793740Y-55980491D01*
X83476577Y-55505823D01*
X83124242Y-55270400D01*
X83476577Y-55034977D01*
X83793740Y-54560309D01*
X83905113Y-54000400D01*
X83793740Y-53440491D01*
X83476577Y-52965823D01*
X83124242Y-52730400D01*
X83476577Y-52494977D01*
X83793740Y-52020309D01*
X83905113Y-51460400D01*
X83793740Y-50900491D01*
X83476577Y-50425823D01*
X83124242Y-50190400D01*
X83476577Y-49954977D01*
X83793740Y-49480309D01*
X83905113Y-48920400D01*
X83793740Y-48360491D01*
X83476577Y-47885823D01*
X83124242Y-47650400D01*
X83476577Y-47414977D01*
X83793740Y-46940309D01*
X83905113Y-46380400D01*
X83793740Y-45820491D01*
X83476577Y-45345823D01*
X83124242Y-45110400D01*
X83476577Y-44874977D01*
X83793740Y-44400309D01*
X83905113Y-43840400D01*
X83793740Y-43280491D01*
X83476577Y-42805823D01*
X83124242Y-42570400D01*
X83476577Y-42334977D01*
X83793740Y-41860309D01*
X83905113Y-41300400D01*
X83793740Y-40740491D01*
X83476577Y-40265823D01*
X83124242Y-40030400D01*
X83476577Y-39794977D01*
X83793740Y-39320309D01*
X83905113Y-38760400D01*
X83793740Y-38200491D01*
X83476577Y-37725823D01*
X83124242Y-37490400D01*
X83476577Y-37254977D01*
X83793740Y-36780309D01*
X83905113Y-36220400D01*
X83793740Y-35660491D01*
X83476577Y-35185823D01*
X83001909Y-34868660D01*
X82583333Y-34785400D01*
X81500667Y-34785400D01*
X81082091Y-34868660D01*
X80607423Y-35185823D01*
X80290260Y-35660491D01*
X80178887Y-36220400D01*
X80290260Y-36780309D01*
X80607423Y-37254977D01*
X80959758Y-37490400D01*
X80607423Y-37725823D01*
X80290260Y-38200491D01*
X80178887Y-38760400D01*
X80290260Y-39320309D01*
X80607423Y-39794977D01*
X80959758Y-40030400D01*
X80607423Y-40265823D01*
X80290260Y-40740491D01*
X80178887Y-41300400D01*
X80290260Y-41860309D01*
X80607423Y-42334977D01*
X80959758Y-42570400D01*
X80695997Y-42746639D01*
X72896500Y-34947143D01*
X72896500Y-33808516D01*
X72911879Y-33731200D01*
X72850954Y-33424908D01*
X72677453Y-33165247D01*
X72417792Y-32991746D01*
X72188816Y-32946200D01*
X72158511Y-32940172D01*
X71995777Y-32696623D01*
X71643442Y-32461200D01*
X71995777Y-32225777D01*
X72312940Y-31751109D01*
X72424313Y-31191200D01*
X72312940Y-30631291D01*
X71995777Y-30156623D01*
X71643442Y-29921200D01*
X71995777Y-29685777D01*
X72312940Y-29211109D01*
X72424313Y-28651200D01*
X72312940Y-28091291D01*
X71995777Y-27616623D01*
X71643442Y-27381200D01*
X71995777Y-27145777D01*
X72312940Y-26671109D01*
X72424313Y-26111200D01*
X72312940Y-25551291D01*
X71995777Y-25076623D01*
X71521109Y-24759460D01*
X71102533Y-24676200D01*
X70019867Y-24676200D01*
X69601291Y-24759460D01*
X69126623Y-25076623D01*
X68963888Y-25320173D01*
X68933588Y-25326200D01*
X68933584Y-25326200D01*
X68704608Y-25371746D01*
X68585525Y-25451315D01*
X68510491Y-25501451D01*
X68510489Y-25501453D01*
X68444947Y-25545247D01*
X68401153Y-25610789D01*
X67535343Y-26476600D01*
X49548640Y-26476600D01*
X49548640Y-25311200D01*
X49499357Y-25063435D01*
X49359009Y-24853391D01*
X49148965Y-24713043D01*
X48901200Y-24663760D01*
X46501200Y-24663760D01*
X46253435Y-24713043D01*
X46043391Y-24853391D01*
X45903043Y-25063435D01*
X45853760Y-25311200D01*
X45853760Y-26911200D01*
X45890124Y-27094018D01*
X35051492Y-37932651D01*
X34985947Y-37976447D01*
X34812446Y-38236109D01*
X34766900Y-38465085D01*
X34766900Y-38465088D01*
X34751522Y-38542400D01*
X34766900Y-38619712D01*
X34766901Y-60154041D01*
X33852043Y-61068900D01*
X28173356Y-61068900D01*
X27967792Y-60931546D01*
X27738816Y-60886000D01*
X27738812Y-60886000D01*
X27708512Y-60879973D01*
X27545777Y-60636423D01*
X27193442Y-60401000D01*
X27545777Y-60165577D01*
X27862940Y-59690909D01*
X27974313Y-59131000D01*
X27862940Y-58571091D01*
X27545777Y-58096423D01*
X27193442Y-57861000D01*
X27545777Y-57625577D01*
X27862940Y-57150909D01*
X27974313Y-56591000D01*
X27862940Y-56031091D01*
X27545777Y-55556423D01*
X27189701Y-55318501D01*
X27615700Y-54975896D01*
X27885567Y-54482819D01*
X27903104Y-54400039D01*
X27781115Y-54178000D01*
X26238200Y-54178000D01*
X26238200Y-54198000D01*
X25984200Y-54198000D01*
X25984200Y-54178000D01*
X24441285Y-54178000D01*
X24319296Y-54400039D01*
X24336833Y-54482819D01*
X24606700Y-54975896D01*
X25032699Y-55318501D01*
X24676623Y-55556423D01*
X24359460Y-56031091D01*
X24248087Y-56591000D01*
X24161612Y-56591000D01*
X24163150Y-53701961D01*
X24319296Y-53701961D01*
X24441285Y-53924000D01*
X25984200Y-53924000D01*
X25984200Y-52616000D01*
X26238200Y-52616000D01*
X26238200Y-53924000D01*
X27781115Y-53924000D01*
X27903104Y-53701961D01*
X27885567Y-53619181D01*
X27615700Y-53126104D01*
X27177683Y-52773834D01*
X26638200Y-52616000D01*
X26238200Y-52616000D01*
X25984200Y-52616000D01*
X25584200Y-52616000D01*
X25044717Y-52773834D01*
X24606700Y-53126104D01*
X24336833Y-53619181D01*
X24319296Y-53701961D01*
X24163150Y-53701961D01*
X24179222Y-23519786D01*
X84278400Y-23569413D01*
G36*
X39916623Y-75405577D02*
X40268958Y-75641000D01*
X39916623Y-75876423D01*
X39599460Y-76351091D01*
X39488087Y-76911000D01*
X39599460Y-77470909D01*
X39916623Y-77945577D01*
X40268958Y-78181000D01*
X39916623Y-78416423D01*
X39753888Y-78659973D01*
X39723587Y-78666000D01*
X39723584Y-78666000D01*
X39494608Y-78711546D01*
X39234947Y-78885047D01*
X39191151Y-78950592D01*
X38800192Y-79341551D01*
X38734647Y-79385347D01*
X38561146Y-79645009D01*
X38515600Y-79873985D01*
X38515600Y-79873988D01*
X38500222Y-79951300D01*
X38515600Y-80028612D01*
X38515601Y-105963683D01*
X38500222Y-106041000D01*
X38561146Y-106347291D01*
X38690851Y-106541408D01*
X38690854Y-106541411D01*
X38734648Y-106606953D01*
X38800190Y-106650747D01*
X42392598Y-110243156D01*
X42392598Y-110308748D01*
X42233850Y-110150000D01*
X41543291Y-110150000D01*
X41309902Y-110246673D01*
X41131273Y-110425301D01*
X41034600Y-110658690D01*
X41034600Y-111474250D01*
X41193350Y-111633000D01*
X42392600Y-111633000D01*
X42392600Y-111613000D01*
X42646600Y-111613000D01*
X42646600Y-111633000D01*
X42666600Y-111633000D01*
X42666600Y-111887000D01*
X42646600Y-111887000D01*
X42646600Y-111907000D01*
X42392600Y-111907000D01*
X42392600Y-111887000D01*
X41193350Y-111887000D01*
X41034600Y-112045750D01*
X41034600Y-112678300D01*
X37297854Y-112678300D01*
X37311440Y-112610000D01*
X37311440Y-110910000D01*
X37262157Y-110662235D01*
X37121809Y-110452191D01*
X36911765Y-110311843D01*
X36664000Y-110262560D01*
X36599000Y-110262560D01*
X36599000Y-78683057D01*
X39900544Y-75381514D01*
X39916623Y-75405577D01*
X39916623Y-75405577D01*
G37*
X39916623Y-75405577D02*
X40268958Y-75641000D01*
X39916623Y-75876423D01*
X39599460Y-76351091D01*
X39488087Y-76911000D01*
X39599460Y-77470909D01*
X39916623Y-77945577D01*
X40268958Y-78181000D01*
X39916623Y-78416423D01*
X39753888Y-78659973D01*
X39723587Y-78666000D01*
X39723584Y-78666000D01*
X39494608Y-78711546D01*
X39234947Y-78885047D01*
X39191151Y-78950592D01*
X38800192Y-79341551D01*
X38734647Y-79385347D01*
X38561146Y-79645009D01*
X38515600Y-79873985D01*
X38515600Y-79873988D01*
X38500222Y-79951300D01*
X38515600Y-80028612D01*
X38515601Y-105963683D01*
X38500222Y-106041000D01*
X38561146Y-106347291D01*
X38690851Y-106541408D01*
X38690854Y-106541411D01*
X38734648Y-106606953D01*
X38800190Y-106650747D01*
X42392598Y-110243156D01*
X42392598Y-110308748D01*
X42233850Y-110150000D01*
X41543291Y-110150000D01*
X41309902Y-110246673D01*
X41131273Y-110425301D01*
X41034600Y-110658690D01*
X41034600Y-111474250D01*
X41193350Y-111633000D01*
X42392600Y-111633000D01*
X42392600Y-111613000D01*
X42646600Y-111613000D01*
X42646600Y-111633000D01*
X42666600Y-111633000D01*
X42666600Y-111887000D01*
X42646600Y-111887000D01*
X42646600Y-111907000D01*
X42392600Y-111907000D01*
X42392600Y-111887000D01*
X41193350Y-111887000D01*
X41034600Y-112045750D01*
X41034600Y-112678300D01*
X37297854Y-112678300D01*
X37311440Y-112610000D01*
X37311440Y-110910000D01*
X37262157Y-110662235D01*
X37121809Y-110452191D01*
X36911765Y-110311843D01*
X36664000Y-110262560D01*
X36599000Y-110262560D01*
X36599000Y-78683057D01*
X39900544Y-75381514D01*
X39916623Y-75405577D01*
G36*
X69126623Y-39845777D02*
X69478958Y-40081200D01*
X69126623Y-40316623D01*
X68809460Y-40791291D01*
X68698087Y-41351200D01*
X68809460Y-41911109D01*
X69126623Y-42385777D01*
X69478958Y-42621200D01*
X69126623Y-42856623D01*
X68809460Y-43331291D01*
X68698087Y-43891200D01*
X68809460Y-44451109D01*
X69126623Y-44925777D01*
X69478958Y-45161200D01*
X69126623Y-45396623D01*
X68809460Y-45871291D01*
X68698087Y-46431200D01*
X68809460Y-46991109D01*
X69126623Y-47465777D01*
X69478958Y-47701200D01*
X69126623Y-47936623D01*
X68809460Y-48411291D01*
X68698087Y-48971200D01*
X68809460Y-49531109D01*
X69126623Y-50005777D01*
X69478958Y-50241200D01*
X69126623Y-50476623D01*
X68809460Y-50951291D01*
X68698087Y-51511200D01*
X68809460Y-52071109D01*
X69126623Y-52545777D01*
X69478958Y-52781200D01*
X69126623Y-53016623D01*
X68963889Y-53260172D01*
X68933584Y-53266200D01*
X68704608Y-53311746D01*
X68444947Y-53485247D01*
X68271446Y-53744908D01*
X68210521Y-54051200D01*
X68225900Y-54128516D01*
X68225901Y-62940079D01*
X68210521Y-63017400D01*
X68225900Y-63094716D01*
X68225901Y-65716641D01*
X60632656Y-73309887D01*
X60616577Y-73285823D01*
X60264242Y-73050400D01*
X60616577Y-72814977D01*
X60933740Y-72340309D01*
X61045113Y-71780400D01*
X60933740Y-71220491D01*
X60616577Y-70745823D01*
X60260501Y-70507901D01*
X60686500Y-70165296D01*
X60956367Y-69672219D01*
X60973904Y-69589439D01*
X60851915Y-69367400D01*
X59309000Y-69367400D01*
X59309000Y-69387400D01*
X59055000Y-69387400D01*
X59055000Y-69367400D01*
X57512085Y-69367400D01*
X57390096Y-69589439D01*
X57407633Y-69672219D01*
X57677500Y-70165296D01*
X58103499Y-70507901D01*
X57747423Y-70745823D01*
X57430260Y-71220491D01*
X57318887Y-71780400D01*
X57430260Y-72340309D01*
X57747423Y-72814977D01*
X58099758Y-73050400D01*
X57747423Y-73285823D01*
X57430260Y-73760491D01*
X57318887Y-74320400D01*
X57430260Y-74880309D01*
X57747423Y-75354977D01*
X58099758Y-75590400D01*
X57747423Y-75825823D01*
X57430260Y-76300491D01*
X57318887Y-76860400D01*
X57430260Y-77420309D01*
X57747423Y-77894977D01*
X58099758Y-78130400D01*
X57747423Y-78365823D01*
X57731344Y-78389886D01*
X50036500Y-70695043D01*
X50036500Y-69368516D01*
X50051879Y-69291200D01*
X49990954Y-68984908D01*
X49817453Y-68725247D01*
X49557792Y-68551746D01*
X49328816Y-68506200D01*
X49298511Y-68500172D01*
X49135777Y-68256623D01*
X48783442Y-68021200D01*
X49135777Y-67785777D01*
X49452940Y-67311109D01*
X49564313Y-66751200D01*
X49452940Y-66191291D01*
X49135777Y-65716623D01*
X48783442Y-65481200D01*
X49135777Y-65245777D01*
X49452940Y-64771109D01*
X49564313Y-64211200D01*
X49452940Y-63651291D01*
X49135777Y-63176623D01*
X48783442Y-62941200D01*
X49135777Y-62705777D01*
X49452940Y-62231109D01*
X49564313Y-61671200D01*
X49452940Y-61111291D01*
X49135777Y-60636623D01*
X48779701Y-60398701D01*
X49205700Y-60056096D01*
X49475567Y-59563019D01*
X49493104Y-59480239D01*
X49371115Y-59258200D01*
X47828200Y-59258200D01*
X47828200Y-59278200D01*
X47574200Y-59278200D01*
X47574200Y-59258200D01*
X47554200Y-59258200D01*
X47554200Y-59004200D01*
X47574200Y-59004200D01*
X47574200Y-58984200D01*
X47828200Y-58984200D01*
X47828200Y-59004200D01*
X49371115Y-59004200D01*
X49414442Y-58925337D01*
X49579726Y-58993800D01*
X49991474Y-58993800D01*
X50371880Y-58836231D01*
X50663031Y-58545080D01*
X50820600Y-58164674D01*
X50820600Y-57752926D01*
X50663031Y-57372520D01*
X50570600Y-57280089D01*
X50570600Y-56539157D01*
X57510044Y-49599713D01*
X57747423Y-49954977D01*
X58099758Y-50190400D01*
X57747423Y-50425823D01*
X57430260Y-50900491D01*
X57318887Y-51460400D01*
X57430260Y-52020309D01*
X57747423Y-52494977D01*
X58099758Y-52730400D01*
X57747423Y-52965823D01*
X57430260Y-53440491D01*
X57318887Y-54000400D01*
X57430260Y-54560309D01*
X57747423Y-55034977D01*
X58099758Y-55270400D01*
X57747423Y-55505823D01*
X57430260Y-55980491D01*
X57318887Y-56540400D01*
X57430260Y-57100309D01*
X57747423Y-57574977D01*
X58099758Y-57810400D01*
X57747423Y-58045823D01*
X57430260Y-58520491D01*
X57318887Y-59080400D01*
X57430260Y-59640309D01*
X57747423Y-60114977D01*
X58099758Y-60350400D01*
X57747423Y-60585823D01*
X57430260Y-61060491D01*
X57318887Y-61620400D01*
X57430260Y-62180309D01*
X57747423Y-62654977D01*
X58099758Y-62890400D01*
X57747423Y-63125823D01*
X57430260Y-63600491D01*
X57318887Y-64160400D01*
X57430260Y-64720309D01*
X57747423Y-65194977D01*
X58099758Y-65430400D01*
X57747423Y-65665823D01*
X57430260Y-66140491D01*
X57318887Y-66700400D01*
X57430260Y-67260309D01*
X57747423Y-67734977D01*
X58103499Y-67972899D01*
X57677500Y-68315504D01*
X57407633Y-68808581D01*
X57390096Y-68891361D01*
X57512085Y-69113400D01*
X59055000Y-69113400D01*
X59055000Y-69093400D01*
X59309000Y-69093400D01*
X59309000Y-69113400D01*
X60851915Y-69113400D01*
X60973904Y-68891361D01*
X60956367Y-68808581D01*
X60686500Y-68315504D01*
X60260501Y-67972899D01*
X60616577Y-67734977D01*
X60933740Y-67260309D01*
X61045113Y-66700400D01*
X60933740Y-66140491D01*
X60616577Y-65665823D01*
X60264242Y-65430400D01*
X60616577Y-65194977D01*
X60933740Y-64720309D01*
X61045113Y-64160400D01*
X60933740Y-63600491D01*
X60616577Y-63125823D01*
X60264242Y-62890400D01*
X60616577Y-62654977D01*
X60933740Y-62180309D01*
X61045113Y-61620400D01*
X60933740Y-61060491D01*
X60616577Y-60585823D01*
X60264242Y-60350400D01*
X60616577Y-60114977D01*
X60933740Y-59640309D01*
X61045113Y-59080400D01*
X60933740Y-58520491D01*
X60616577Y-58045823D01*
X60264242Y-57810400D01*
X60616577Y-57574977D01*
X60933740Y-57100309D01*
X61045113Y-56540400D01*
X60933740Y-55980491D01*
X60616577Y-55505823D01*
X60264242Y-55270400D01*
X60616577Y-55034977D01*
X60933740Y-54560309D01*
X61045113Y-54000400D01*
X60933740Y-53440491D01*
X60616577Y-52965823D01*
X60264242Y-52730400D01*
X60616577Y-52494977D01*
X60933740Y-52020309D01*
X61045113Y-51460400D01*
X60933740Y-50900491D01*
X60616577Y-50425823D01*
X60264242Y-50190400D01*
X60616577Y-49954977D01*
X60933740Y-49480309D01*
X61045113Y-48920400D01*
X60933740Y-48360491D01*
X60788754Y-48143503D01*
X69110544Y-39821714D01*
X69126623Y-39845777D01*
X69126623Y-39845777D01*
G37*
X69126623Y-39845777D02*
X69478958Y-40081200D01*
X69126623Y-40316623D01*
X68809460Y-40791291D01*
X68698087Y-41351200D01*
X68809460Y-41911109D01*
X69126623Y-42385777D01*
X69478958Y-42621200D01*
X69126623Y-42856623D01*
X68809460Y-43331291D01*
X68698087Y-43891200D01*
X68809460Y-44451109D01*
X69126623Y-44925777D01*
X69478958Y-45161200D01*
X69126623Y-45396623D01*
X68809460Y-45871291D01*
X68698087Y-46431200D01*
X68809460Y-46991109D01*
X69126623Y-47465777D01*
X69478958Y-47701200D01*
X69126623Y-47936623D01*
X68809460Y-48411291D01*
X68698087Y-48971200D01*
X68809460Y-49531109D01*
X69126623Y-50005777D01*
X69478958Y-50241200D01*
X69126623Y-50476623D01*
X68809460Y-50951291D01*
X68698087Y-51511200D01*
X68809460Y-52071109D01*
X69126623Y-52545777D01*
X69478958Y-52781200D01*
X69126623Y-53016623D01*
X68963889Y-53260172D01*
X68933584Y-53266200D01*
X68704608Y-53311746D01*
X68444947Y-53485247D01*
X68271446Y-53744908D01*
X68210521Y-54051200D01*
X68225900Y-54128516D01*
X68225901Y-62940079D01*
X68210521Y-63017400D01*
X68225900Y-63094716D01*
X68225901Y-65716641D01*
X60632656Y-73309887D01*
X60616577Y-73285823D01*
X60264242Y-73050400D01*
X60616577Y-72814977D01*
X60933740Y-72340309D01*
X61045113Y-71780400D01*
X60933740Y-71220491D01*
X60616577Y-70745823D01*
X60260501Y-70507901D01*
X60686500Y-70165296D01*
X60956367Y-69672219D01*
X60973904Y-69589439D01*
X60851915Y-69367400D01*
X59309000Y-69367400D01*
X59309000Y-69387400D01*
X59055000Y-69387400D01*
X59055000Y-69367400D01*
X57512085Y-69367400D01*
X57390096Y-69589439D01*
X57407633Y-69672219D01*
X57677500Y-70165296D01*
X58103499Y-70507901D01*
X57747423Y-70745823D01*
X57430260Y-71220491D01*
X57318887Y-71780400D01*
X57430260Y-72340309D01*
X57747423Y-72814977D01*
X58099758Y-73050400D01*
X57747423Y-73285823D01*
X57430260Y-73760491D01*
X57318887Y-74320400D01*
X57430260Y-74880309D01*
X57747423Y-75354977D01*
X58099758Y-75590400D01*
X57747423Y-75825823D01*
X57430260Y-76300491D01*
X57318887Y-76860400D01*
X57430260Y-77420309D01*
X57747423Y-77894977D01*
X58099758Y-78130400D01*
X57747423Y-78365823D01*
X57731344Y-78389886D01*
X50036500Y-70695043D01*
X50036500Y-69368516D01*
X50051879Y-69291200D01*
X49990954Y-68984908D01*
X49817453Y-68725247D01*
X49557792Y-68551746D01*
X49328816Y-68506200D01*
X49298511Y-68500172D01*
X49135777Y-68256623D01*
X48783442Y-68021200D01*
X49135777Y-67785777D01*
X49452940Y-67311109D01*
X49564313Y-66751200D01*
X49452940Y-66191291D01*
X49135777Y-65716623D01*
X48783442Y-65481200D01*
X49135777Y-65245777D01*
X49452940Y-64771109D01*
X49564313Y-64211200D01*
X49452940Y-63651291D01*
X49135777Y-63176623D01*
X48783442Y-62941200D01*
X49135777Y-62705777D01*
X49452940Y-62231109D01*
X49564313Y-61671200D01*
X49452940Y-61111291D01*
X49135777Y-60636623D01*
X48779701Y-60398701D01*
X49205700Y-60056096D01*
X49475567Y-59563019D01*
X49493104Y-59480239D01*
X49371115Y-59258200D01*
X47828200Y-59258200D01*
X47828200Y-59278200D01*
X47574200Y-59278200D01*
X47574200Y-59258200D01*
X47554200Y-59258200D01*
X47554200Y-59004200D01*
X47574200Y-59004200D01*
X47574200Y-58984200D01*
X47828200Y-58984200D01*
X47828200Y-59004200D01*
X49371115Y-59004200D01*
X49414442Y-58925337D01*
X49579726Y-58993800D01*
X49991474Y-58993800D01*
X50371880Y-58836231D01*
X50663031Y-58545080D01*
X50820600Y-58164674D01*
X50820600Y-57752926D01*
X50663031Y-57372520D01*
X50570600Y-57280089D01*
X50570600Y-56539157D01*
X57510044Y-49599713D01*
X57747423Y-49954977D01*
X58099758Y-50190400D01*
X57747423Y-50425823D01*
X57430260Y-50900491D01*
X57318887Y-51460400D01*
X57430260Y-52020309D01*
X57747423Y-52494977D01*
X58099758Y-52730400D01*
X57747423Y-52965823D01*
X57430260Y-53440491D01*
X57318887Y-54000400D01*
X57430260Y-54560309D01*
X57747423Y-55034977D01*
X58099758Y-55270400D01*
X57747423Y-55505823D01*
X57430260Y-55980491D01*
X57318887Y-56540400D01*
X57430260Y-57100309D01*
X57747423Y-57574977D01*
X58099758Y-57810400D01*
X57747423Y-58045823D01*
X57430260Y-58520491D01*
X57318887Y-59080400D01*
X57430260Y-59640309D01*
X57747423Y-60114977D01*
X58099758Y-60350400D01*
X57747423Y-60585823D01*
X57430260Y-61060491D01*
X57318887Y-61620400D01*
X57430260Y-62180309D01*
X57747423Y-62654977D01*
X58099758Y-62890400D01*
X57747423Y-63125823D01*
X57430260Y-63600491D01*
X57318887Y-64160400D01*
X57430260Y-64720309D01*
X57747423Y-65194977D01*
X58099758Y-65430400D01*
X57747423Y-65665823D01*
X57430260Y-66140491D01*
X57318887Y-66700400D01*
X57430260Y-67260309D01*
X57747423Y-67734977D01*
X58103499Y-67972899D01*
X57677500Y-68315504D01*
X57407633Y-68808581D01*
X57390096Y-68891361D01*
X57512085Y-69113400D01*
X59055000Y-69113400D01*
X59055000Y-69093400D01*
X59309000Y-69093400D01*
X59309000Y-69113400D01*
X60851915Y-69113400D01*
X60973904Y-68891361D01*
X60956367Y-68808581D01*
X60686500Y-68315504D01*
X60260501Y-67972899D01*
X60616577Y-67734977D01*
X60933740Y-67260309D01*
X61045113Y-66700400D01*
X60933740Y-66140491D01*
X60616577Y-65665823D01*
X60264242Y-65430400D01*
X60616577Y-65194977D01*
X60933740Y-64720309D01*
X61045113Y-64160400D01*
X60933740Y-63600491D01*
X60616577Y-63125823D01*
X60264242Y-62890400D01*
X60616577Y-62654977D01*
X60933740Y-62180309D01*
X61045113Y-61620400D01*
X60933740Y-61060491D01*
X60616577Y-60585823D01*
X60264242Y-60350400D01*
X60616577Y-60114977D01*
X60933740Y-59640309D01*
X61045113Y-59080400D01*
X60933740Y-58520491D01*
X60616577Y-58045823D01*
X60264242Y-57810400D01*
X60616577Y-57574977D01*
X60933740Y-57100309D01*
X61045113Y-56540400D01*
X60933740Y-55980491D01*
X60616577Y-55505823D01*
X60264242Y-55270400D01*
X60616577Y-55034977D01*
X60933740Y-54560309D01*
X61045113Y-54000400D01*
X60933740Y-53440491D01*
X60616577Y-52965823D01*
X60264242Y-52730400D01*
X60616577Y-52494977D01*
X60933740Y-52020309D01*
X61045113Y-51460400D01*
X60933740Y-50900491D01*
X60616577Y-50425823D01*
X60264242Y-50190400D01*
X60616577Y-49954977D01*
X60933740Y-49480309D01*
X61045113Y-48920400D01*
X60933740Y-48360491D01*
X60788754Y-48143503D01*
X69110544Y-39821714D01*
X69126623Y-39845777D01*
G04 #@! TD*
M02*
