M48
;DRILL file {KiCad 5.0.2-bee76a0~70~ubuntu18.10.1} date dom 17 mar 2019 01:37:20 CET
;FORMAT={-:-/ absolute / metric / decimal}
FMAT,2
METRIC,TZ
T1C0.400
T2C0.800
T3C0.950
T4C1.000
%
G90
G05
T1
X33.919Y-61.051
X49.786Y-57.959
T2
X26.111Y-54.051
X26.111Y-56.591
X26.111Y-59.131
X26.111Y-61.671
X26.111Y-64.211
X26.111Y-66.751
X26.111Y-69.291
X26.111Y-71.831
X26.111Y-74.371
X26.111Y-76.911
X26.111Y-79.451
X26.111Y-81.991
X26.111Y-84.531
X26.111Y-87.071
X26.111Y-89.611
X26.111Y-92.151
X26.111Y-94.691
X26.111Y-97.231
X26.111Y-99.771
X26.111Y-102.311
X26.111Y-104.851
X41.351Y-54.051
X41.351Y-56.591
X41.351Y-59.131
X41.351Y-61.671
X41.351Y-64.211
X41.351Y-66.751
X41.351Y-69.291
X41.351Y-71.831
X41.351Y-74.371
X41.351Y-76.911
X41.351Y-79.451
X41.351Y-81.991
X41.351Y-84.531
X41.351Y-87.071
X41.351Y-89.611
X41.351Y-92.151
X41.351Y-94.691
X41.351Y-97.231
X41.351Y-99.771
X41.351Y-102.311
X41.351Y-104.851
X47.701Y-26.111
X47.701Y-28.651
X47.701Y-31.191
X47.701Y-33.731
X47.701Y-36.271
X47.701Y-38.811
X47.701Y-41.351
X47.701Y-43.891
X47.701Y-46.431
X47.701Y-48.971
X47.701Y-51.511
X47.701Y-54.051
X47.701Y-56.591
X47.701Y-59.131
X47.701Y-61.671
X47.701Y-64.211
X47.701Y-66.751
X47.701Y-69.291
X47.701Y-71.831
X47.701Y-74.371
X47.701Y-76.911
X47.701Y-79.451
X47.701Y-81.991
X47.701Y-84.531
X47.701Y-87.071
X47.701Y-89.611
X47.701Y-92.151
X47.701Y-94.691
X47.701Y-97.231
X47.701Y-99.771
X47.701Y-102.311
X47.701Y-104.851
X70.561Y-26.111
X70.561Y-28.651
X70.561Y-31.191
X70.561Y-33.731
X70.561Y-36.271
X70.561Y-38.811
X70.561Y-41.351
X70.561Y-43.891
X70.561Y-46.431
X70.561Y-48.971
X70.561Y-51.511
X70.561Y-54.051
X70.561Y-56.591
X70.561Y-59.131
X70.561Y-61.671
X70.561Y-64.211
X70.561Y-66.751
X70.561Y-69.291
X70.561Y-71.831
X70.561Y-74.371
X70.561Y-76.911
X70.561Y-79.451
X70.561Y-81.991
X70.561Y-84.531
X70.561Y-87.071
X70.561Y-89.611
X70.561Y-92.151
X70.561Y-94.691
X70.561Y-97.231
X70.561Y-99.771
X70.561Y-102.311
X70.561Y-104.851
X59.182Y-36.22
X59.182Y-38.76
X59.182Y-41.3
X59.182Y-43.84
X59.182Y-46.38
X59.182Y-48.92
X59.182Y-51.46
X59.182Y-54.
X59.182Y-56.54
X59.182Y-59.08
X59.182Y-61.62
X59.182Y-64.16
X59.182Y-66.7
X59.182Y-69.24
X59.182Y-71.78
X59.182Y-74.32
X59.182Y-76.86
X59.182Y-79.4
X59.182Y-81.94
X59.182Y-84.48
X59.182Y-87.02
X59.182Y-89.56
X59.182Y-92.1
X59.182Y-94.64
X59.182Y-97.18
X59.182Y-99.72
X59.182Y-102.26
X59.182Y-104.8
X59.182Y-107.34
X59.182Y-109.88
X59.182Y-112.42
X59.182Y-114.96
X82.042Y-36.22
X82.042Y-38.76
X82.042Y-41.3
X82.042Y-43.84
X82.042Y-46.38
X82.042Y-48.92
X82.042Y-51.46
X82.042Y-54.
X82.042Y-56.54
X82.042Y-59.08
X82.042Y-61.62
X82.042Y-64.16
X82.042Y-66.7
X82.042Y-69.24
X82.042Y-71.78
X82.042Y-74.32
X82.042Y-76.86
X82.042Y-79.4
X82.042Y-81.94
X82.042Y-84.48
X82.042Y-87.02
X82.042Y-89.56
X82.042Y-92.1
X82.042Y-94.64
X82.042Y-97.18
X82.042Y-99.72
X82.042Y-102.26
X82.042Y-104.8
X82.042Y-107.34
X82.042Y-109.88
X82.042Y-112.42
X82.042Y-114.96
T3
X42.52Y-111.76
X45.02Y-111.76
X47.52Y-111.76
X50.02Y-111.76
T4
X35.814Y-111.76
T0
M30
