G04 #@! TF.GenerationSoftware,KiCad,Pcbnew,5.0.2-bee76a0~70~ubuntu18.10.1*
G04 #@! TF.CreationDate,2019-03-17T01:32:55+01:00*
G04 #@! TF.ProjectId,Relocator Rotary,52656c6f-6361-4746-9f72-20526f746172,rev?*
G04 #@! TF.SameCoordinates,Original*
G04 #@! TF.FileFunction,Paste,Top*
G04 #@! TF.FilePolarity,Positive*
%FSLAX46Y46*%
G04 Gerber Fmt 4.6, Leading zero omitted, Abs format (unit mm)*
G04 Created by KiCad (PCBNEW 5.0.2-bee76a0~70~ubuntu18.10.1) date dom 17 mar 2019 01:32:55 CET*
%MOMM*%
%LPD*%
G01*
G04 APERTURE LIST*
%ADD10C,0.100000*%
%ADD11C,1.250000*%
G04 APERTURE END LIST*
D10*
G04 #@! TO.C,R2*
G36*
X38800304Y-44864604D02*
X38824573Y-44868204D01*
X38848371Y-44874165D01*
X38871471Y-44882430D01*
X38893649Y-44892920D01*
X38914693Y-44905533D01*
X38934398Y-44920147D01*
X38952577Y-44936623D01*
X38969053Y-44954802D01*
X38983667Y-44974507D01*
X38996280Y-44995551D01*
X39006770Y-45017729D01*
X39015035Y-45040829D01*
X39020996Y-45064627D01*
X39024596Y-45088896D01*
X39025800Y-45113400D01*
X39025800Y-45863400D01*
X39024596Y-45887904D01*
X39020996Y-45912173D01*
X39015035Y-45935971D01*
X39006770Y-45959071D01*
X38996280Y-45981249D01*
X38983667Y-46002293D01*
X38969053Y-46021998D01*
X38952577Y-46040177D01*
X38934398Y-46056653D01*
X38914693Y-46071267D01*
X38893649Y-46083880D01*
X38871471Y-46094370D01*
X38848371Y-46102635D01*
X38824573Y-46108596D01*
X38800304Y-46112196D01*
X38775800Y-46113400D01*
X37525800Y-46113400D01*
X37501296Y-46112196D01*
X37477027Y-46108596D01*
X37453229Y-46102635D01*
X37430129Y-46094370D01*
X37407951Y-46083880D01*
X37386907Y-46071267D01*
X37367202Y-46056653D01*
X37349023Y-46040177D01*
X37332547Y-46021998D01*
X37317933Y-46002293D01*
X37305320Y-45981249D01*
X37294830Y-45959071D01*
X37286565Y-45935971D01*
X37280604Y-45912173D01*
X37277004Y-45887904D01*
X37275800Y-45863400D01*
X37275800Y-45113400D01*
X37277004Y-45088896D01*
X37280604Y-45064627D01*
X37286565Y-45040829D01*
X37294830Y-45017729D01*
X37305320Y-44995551D01*
X37317933Y-44974507D01*
X37332547Y-44954802D01*
X37349023Y-44936623D01*
X37367202Y-44920147D01*
X37386907Y-44905533D01*
X37407951Y-44892920D01*
X37430129Y-44882430D01*
X37453229Y-44874165D01*
X37477027Y-44868204D01*
X37501296Y-44864604D01*
X37525800Y-44863400D01*
X38775800Y-44863400D01*
X38800304Y-44864604D01*
X38800304Y-44864604D01*
G37*
D11*
X38150800Y-45488400D03*
D10*
G36*
X38800304Y-47664604D02*
X38824573Y-47668204D01*
X38848371Y-47674165D01*
X38871471Y-47682430D01*
X38893649Y-47692920D01*
X38914693Y-47705533D01*
X38934398Y-47720147D01*
X38952577Y-47736623D01*
X38969053Y-47754802D01*
X38983667Y-47774507D01*
X38996280Y-47795551D01*
X39006770Y-47817729D01*
X39015035Y-47840829D01*
X39020996Y-47864627D01*
X39024596Y-47888896D01*
X39025800Y-47913400D01*
X39025800Y-48663400D01*
X39024596Y-48687904D01*
X39020996Y-48712173D01*
X39015035Y-48735971D01*
X39006770Y-48759071D01*
X38996280Y-48781249D01*
X38983667Y-48802293D01*
X38969053Y-48821998D01*
X38952577Y-48840177D01*
X38934398Y-48856653D01*
X38914693Y-48871267D01*
X38893649Y-48883880D01*
X38871471Y-48894370D01*
X38848371Y-48902635D01*
X38824573Y-48908596D01*
X38800304Y-48912196D01*
X38775800Y-48913400D01*
X37525800Y-48913400D01*
X37501296Y-48912196D01*
X37477027Y-48908596D01*
X37453229Y-48902635D01*
X37430129Y-48894370D01*
X37407951Y-48883880D01*
X37386907Y-48871267D01*
X37367202Y-48856653D01*
X37349023Y-48840177D01*
X37332547Y-48821998D01*
X37317933Y-48802293D01*
X37305320Y-48781249D01*
X37294830Y-48759071D01*
X37286565Y-48735971D01*
X37280604Y-48712173D01*
X37277004Y-48687904D01*
X37275800Y-48663400D01*
X37275800Y-47913400D01*
X37277004Y-47888896D01*
X37280604Y-47864627D01*
X37286565Y-47840829D01*
X37294830Y-47817729D01*
X37305320Y-47795551D01*
X37317933Y-47774507D01*
X37332547Y-47754802D01*
X37349023Y-47736623D01*
X37367202Y-47720147D01*
X37386907Y-47705533D01*
X37407951Y-47692920D01*
X37430129Y-47682430D01*
X37453229Y-47674165D01*
X37477027Y-47668204D01*
X37501296Y-47664604D01*
X37525800Y-47663400D01*
X38775800Y-47663400D01*
X38800304Y-47664604D01*
X38800304Y-47664604D01*
G37*
D11*
X38150800Y-48288400D03*
G04 #@! TD*
D10*
G04 #@! TO.C,R1*
G36*
X35853904Y-47664604D02*
X35878173Y-47668204D01*
X35901971Y-47674165D01*
X35925071Y-47682430D01*
X35947249Y-47692920D01*
X35968293Y-47705533D01*
X35987998Y-47720147D01*
X36006177Y-47736623D01*
X36022653Y-47754802D01*
X36037267Y-47774507D01*
X36049880Y-47795551D01*
X36060370Y-47817729D01*
X36068635Y-47840829D01*
X36074596Y-47864627D01*
X36078196Y-47888896D01*
X36079400Y-47913400D01*
X36079400Y-48663400D01*
X36078196Y-48687904D01*
X36074596Y-48712173D01*
X36068635Y-48735971D01*
X36060370Y-48759071D01*
X36049880Y-48781249D01*
X36037267Y-48802293D01*
X36022653Y-48821998D01*
X36006177Y-48840177D01*
X35987998Y-48856653D01*
X35968293Y-48871267D01*
X35947249Y-48883880D01*
X35925071Y-48894370D01*
X35901971Y-48902635D01*
X35878173Y-48908596D01*
X35853904Y-48912196D01*
X35829400Y-48913400D01*
X34579400Y-48913400D01*
X34554896Y-48912196D01*
X34530627Y-48908596D01*
X34506829Y-48902635D01*
X34483729Y-48894370D01*
X34461551Y-48883880D01*
X34440507Y-48871267D01*
X34420802Y-48856653D01*
X34402623Y-48840177D01*
X34386147Y-48821998D01*
X34371533Y-48802293D01*
X34358920Y-48781249D01*
X34348430Y-48759071D01*
X34340165Y-48735971D01*
X34334204Y-48712173D01*
X34330604Y-48687904D01*
X34329400Y-48663400D01*
X34329400Y-47913400D01*
X34330604Y-47888896D01*
X34334204Y-47864627D01*
X34340165Y-47840829D01*
X34348430Y-47817729D01*
X34358920Y-47795551D01*
X34371533Y-47774507D01*
X34386147Y-47754802D01*
X34402623Y-47736623D01*
X34420802Y-47720147D01*
X34440507Y-47705533D01*
X34461551Y-47692920D01*
X34483729Y-47682430D01*
X34506829Y-47674165D01*
X34530627Y-47668204D01*
X34554896Y-47664604D01*
X34579400Y-47663400D01*
X35829400Y-47663400D01*
X35853904Y-47664604D01*
X35853904Y-47664604D01*
G37*
D11*
X35204400Y-48288400D03*
D10*
G36*
X35853904Y-44864604D02*
X35878173Y-44868204D01*
X35901971Y-44874165D01*
X35925071Y-44882430D01*
X35947249Y-44892920D01*
X35968293Y-44905533D01*
X35987998Y-44920147D01*
X36006177Y-44936623D01*
X36022653Y-44954802D01*
X36037267Y-44974507D01*
X36049880Y-44995551D01*
X36060370Y-45017729D01*
X36068635Y-45040829D01*
X36074596Y-45064627D01*
X36078196Y-45088896D01*
X36079400Y-45113400D01*
X36079400Y-45863400D01*
X36078196Y-45887904D01*
X36074596Y-45912173D01*
X36068635Y-45935971D01*
X36060370Y-45959071D01*
X36049880Y-45981249D01*
X36037267Y-46002293D01*
X36022653Y-46021998D01*
X36006177Y-46040177D01*
X35987998Y-46056653D01*
X35968293Y-46071267D01*
X35947249Y-46083880D01*
X35925071Y-46094370D01*
X35901971Y-46102635D01*
X35878173Y-46108596D01*
X35853904Y-46112196D01*
X35829400Y-46113400D01*
X34579400Y-46113400D01*
X34554896Y-46112196D01*
X34530627Y-46108596D01*
X34506829Y-46102635D01*
X34483729Y-46094370D01*
X34461551Y-46083880D01*
X34440507Y-46071267D01*
X34420802Y-46056653D01*
X34402623Y-46040177D01*
X34386147Y-46021998D01*
X34371533Y-46002293D01*
X34358920Y-45981249D01*
X34348430Y-45959071D01*
X34340165Y-45935971D01*
X34334204Y-45912173D01*
X34330604Y-45887904D01*
X34329400Y-45863400D01*
X34329400Y-45113400D01*
X34330604Y-45088896D01*
X34334204Y-45064627D01*
X34340165Y-45040829D01*
X34348430Y-45017729D01*
X34358920Y-44995551D01*
X34371533Y-44974507D01*
X34386147Y-44954802D01*
X34402623Y-44936623D01*
X34420802Y-44920147D01*
X34440507Y-44905533D01*
X34461551Y-44892920D01*
X34483729Y-44882430D01*
X34506829Y-44874165D01*
X34530627Y-44868204D01*
X34554896Y-44864604D01*
X34579400Y-44863400D01*
X35829400Y-44863400D01*
X35853904Y-44864604D01*
X35853904Y-44864604D01*
G37*
D11*
X35204400Y-45488400D03*
G04 #@! TD*
M02*
