G04 #@! TF.GenerationSoftware,KiCad,Pcbnew,5.0.2-bee76a0~70~ubuntu18.10.1*
G04 #@! TF.CreationDate,2019-03-17T01:32:55+01:00*
G04 #@! TF.ProjectId,Relocator Rotary,52656c6f-6361-4746-9f72-20526f746172,rev?*
G04 #@! TF.SameCoordinates,Original*
G04 #@! TF.FileFunction,Legend,Bot*
G04 #@! TF.FilePolarity,Positive*
%FSLAX46Y46*%
G04 Gerber Fmt 4.6, Leading zero omitted, Abs format (unit mm)*
G04 Created by KiCad (PCBNEW 5.0.2-bee76a0~70~ubuntu18.10.1) date dom 17 mar 2019 01:32:55 CET*
%MOMM*%
%LPD*%
G01*
G04 APERTURE LIST*
%ADD10C,0.010000*%
G04 APERTURE END LIST*
D10*
G04 #@! TO.C,G\002A\002A\002A*
G36*
X38552121Y-45763893D02*
X38552125Y-46125661D01*
X38552135Y-46471245D01*
X38552150Y-46801021D01*
X38552171Y-47115364D01*
X38552201Y-47414648D01*
X38552240Y-47699249D01*
X38552290Y-47969541D01*
X38552351Y-48225901D01*
X38552424Y-48468702D01*
X38552512Y-48698319D01*
X38552615Y-48915128D01*
X38552733Y-49119504D01*
X38552870Y-49311821D01*
X38553024Y-49492455D01*
X38553199Y-49661781D01*
X38553394Y-49820173D01*
X38553611Y-49968007D01*
X38553852Y-50105657D01*
X38554117Y-50233499D01*
X38554407Y-50351908D01*
X38554724Y-50461258D01*
X38555070Y-50561925D01*
X38555444Y-50654283D01*
X38555848Y-50738708D01*
X38556283Y-50815574D01*
X38556752Y-50885257D01*
X38557253Y-50948132D01*
X38557790Y-51004573D01*
X38558363Y-51054956D01*
X38558973Y-51099655D01*
X38559621Y-51139046D01*
X38560309Y-51173504D01*
X38561037Y-51203402D01*
X38561808Y-51229118D01*
X38562621Y-51251025D01*
X38563479Y-51269498D01*
X38564382Y-51284914D01*
X38565331Y-51297645D01*
X38566329Y-51308068D01*
X38567375Y-51316558D01*
X38568471Y-51323489D01*
X38569618Y-51329237D01*
X38570616Y-51333400D01*
X38614929Y-51467513D01*
X38676211Y-51592780D01*
X38753610Y-51708492D01*
X38846273Y-51813937D01*
X38953349Y-51908407D01*
X39073985Y-51991189D01*
X39207328Y-52061576D01*
X39352527Y-52118855D01*
X39508729Y-52162318D01*
X39583360Y-52177353D01*
X39596556Y-52179552D01*
X39610954Y-52181532D01*
X39627630Y-52183304D01*
X39647659Y-52184881D01*
X39672115Y-52186273D01*
X39702075Y-52187492D01*
X39738612Y-52188549D01*
X39782803Y-52189455D01*
X39835722Y-52190223D01*
X39898444Y-52190863D01*
X39972045Y-52191387D01*
X40057600Y-52191806D01*
X40156183Y-52192132D01*
X40268871Y-52192376D01*
X40396738Y-52192550D01*
X40540859Y-52192664D01*
X40702309Y-52192731D01*
X40882164Y-52192761D01*
X41036240Y-52192767D01*
X41231227Y-52192757D01*
X41406970Y-52192720D01*
X41564544Y-52192644D01*
X41705022Y-52192517D01*
X41829482Y-52192329D01*
X41938997Y-52192069D01*
X42034642Y-52191723D01*
X42117494Y-52191282D01*
X42188627Y-52190734D01*
X42249116Y-52190067D01*
X42300037Y-52189270D01*
X42342464Y-52188331D01*
X42377473Y-52187240D01*
X42406138Y-52185984D01*
X42429536Y-52184553D01*
X42448740Y-52182934D01*
X42464827Y-52181117D01*
X42478871Y-52179091D01*
X42489120Y-52177353D01*
X42650532Y-52140433D01*
X42801259Y-52089260D01*
X42940948Y-52023991D01*
X43069243Y-51944786D01*
X43149245Y-51883505D01*
X43252921Y-51786015D01*
X43340674Y-51679341D01*
X43413074Y-51562605D01*
X43470692Y-51434931D01*
X43501590Y-51341867D01*
X43502773Y-51337331D01*
X43503905Y-51331843D01*
X43504986Y-51325028D01*
X43506018Y-51316511D01*
X43507003Y-51305917D01*
X43507941Y-51292872D01*
X43508834Y-51277001D01*
X43509683Y-51257930D01*
X43510490Y-51235283D01*
X43511255Y-51208686D01*
X43511980Y-51177764D01*
X43512666Y-51142143D01*
X43513315Y-51101447D01*
X43513927Y-51055303D01*
X43514505Y-51003335D01*
X43515049Y-50945169D01*
X43515560Y-50880430D01*
X43516040Y-50808743D01*
X43516490Y-50729734D01*
X43516912Y-50643027D01*
X43517307Y-50548249D01*
X43517675Y-50445025D01*
X43518018Y-50332979D01*
X43518338Y-50211737D01*
X43518636Y-50080925D01*
X43518913Y-49940167D01*
X43519170Y-49789089D01*
X43519408Y-49627317D01*
X43519629Y-49454475D01*
X43519835Y-49270189D01*
X43520026Y-49074084D01*
X43520203Y-48865785D01*
X43520369Y-48644919D01*
X43520523Y-48411109D01*
X43520668Y-48163982D01*
X43520805Y-47903162D01*
X43520935Y-47628276D01*
X43521059Y-47338947D01*
X43521179Y-47034802D01*
X43521295Y-46715466D01*
X43521410Y-46380564D01*
X43521524Y-46029722D01*
X43521639Y-45662564D01*
X43521714Y-45415200D01*
X43521826Y-45025271D01*
X43521920Y-44651944D01*
X43521996Y-44294892D01*
X43522053Y-43953783D01*
X43522090Y-43628288D01*
X43522107Y-43318078D01*
X43522103Y-43022821D01*
X43522078Y-42742189D01*
X43522031Y-42475852D01*
X43521961Y-42223479D01*
X43521867Y-41984741D01*
X43521750Y-41759309D01*
X43521608Y-41546851D01*
X43521441Y-41347039D01*
X43521248Y-41159542D01*
X43521029Y-40984031D01*
X43520782Y-40820176D01*
X43520508Y-40667646D01*
X43520206Y-40526113D01*
X43519875Y-40395246D01*
X43519514Y-40274716D01*
X43519123Y-40164192D01*
X43518701Y-40063345D01*
X43518247Y-39971845D01*
X43517762Y-39889361D01*
X43517244Y-39815566D01*
X43516693Y-39750127D01*
X43516107Y-39692716D01*
X43515487Y-39643003D01*
X43514832Y-39600657D01*
X43514141Y-39565350D01*
X43513414Y-39536750D01*
X43512650Y-39514529D01*
X43511848Y-39498356D01*
X43511008Y-39487902D01*
X43510497Y-39484300D01*
X43475282Y-39351856D01*
X43422316Y-39226400D01*
X43352592Y-39108918D01*
X43267102Y-39000394D01*
X43166839Y-38901813D01*
X43052794Y-38814161D01*
X42925962Y-38738422D01*
X42787333Y-38675582D01*
X42649610Y-38629836D01*
X42624264Y-38622689D01*
X42601391Y-38616235D01*
X42579888Y-38610438D01*
X42558651Y-38605264D01*
X42536579Y-38600676D01*
X42512566Y-38596639D01*
X42485511Y-38593120D01*
X42454309Y-38590081D01*
X42417859Y-38587489D01*
X42375055Y-38585307D01*
X42324796Y-38583501D01*
X42265978Y-38582036D01*
X42197498Y-38580875D01*
X42118252Y-38579985D01*
X42027137Y-38579330D01*
X41923051Y-38578875D01*
X41804889Y-38578584D01*
X41671549Y-38578422D01*
X41521927Y-38578354D01*
X41354921Y-38578346D01*
X41169426Y-38578361D01*
X41082883Y-38578364D01*
X41082883Y-38644803D01*
X41232967Y-38644916D01*
X41381107Y-38645168D01*
X41525819Y-38645559D01*
X41665619Y-38646089D01*
X41799022Y-38646759D01*
X41924545Y-38647567D01*
X42040702Y-38648515D01*
X42146011Y-38649602D01*
X42238986Y-38650828D01*
X42318143Y-38652194D01*
X42381999Y-38653698D01*
X42429068Y-38655342D01*
X42457868Y-38657125D01*
X42463720Y-38657840D01*
X42617162Y-38691159D01*
X42759860Y-38738787D01*
X42892395Y-38800974D01*
X43015348Y-38877970D01*
X43066985Y-38916940D01*
X43175989Y-39014438D01*
X43266281Y-39118410D01*
X43338123Y-39229280D01*
X43391780Y-39347469D01*
X43427517Y-39473398D01*
X43432863Y-39501404D01*
X43433357Y-39512655D01*
X43433838Y-39540437D01*
X43434305Y-39584349D01*
X43434758Y-39643988D01*
X43435197Y-39718952D01*
X43435621Y-39808839D01*
X43436030Y-39913248D01*
X43436423Y-40031776D01*
X43436799Y-40164021D01*
X43437159Y-40309581D01*
X43437501Y-40468054D01*
X43437826Y-40639038D01*
X43438132Y-40822132D01*
X43438420Y-41016932D01*
X43438688Y-41223038D01*
X43438936Y-41440047D01*
X43439164Y-41667557D01*
X43439372Y-41905165D01*
X43439558Y-42152471D01*
X43439722Y-42409072D01*
X43439864Y-42674565D01*
X43439984Y-42948550D01*
X43440080Y-43230624D01*
X43440153Y-43520384D01*
X43440201Y-43817429D01*
X43440225Y-44121358D01*
X43440223Y-44431767D01*
X43440196Y-44748255D01*
X43440143Y-45070419D01*
X43440063Y-45397859D01*
X43440058Y-45415200D01*
X43439948Y-45793637D01*
X43439838Y-46155514D01*
X43439726Y-46501203D01*
X43439613Y-46831079D01*
X43439496Y-47145512D01*
X43439375Y-47444878D01*
X43439247Y-47729548D01*
X43439113Y-47999896D01*
X43438970Y-48256294D01*
X43438818Y-48499116D01*
X43438655Y-48728735D01*
X43438481Y-48945523D01*
X43438293Y-49149854D01*
X43438091Y-49342100D01*
X43437874Y-49522636D01*
X43437640Y-49691833D01*
X43437388Y-49850064D01*
X43437117Y-49997703D01*
X43436825Y-50135123D01*
X43436513Y-50262696D01*
X43436177Y-50380796D01*
X43435818Y-50489796D01*
X43435433Y-50590068D01*
X43435023Y-50681986D01*
X43434584Y-50765923D01*
X43434117Y-50842251D01*
X43433621Y-50911344D01*
X43433093Y-50973574D01*
X43432532Y-51029315D01*
X43431938Y-51078940D01*
X43431310Y-51122821D01*
X43430645Y-51161332D01*
X43429944Y-51194845D01*
X43429204Y-51223734D01*
X43428424Y-51248372D01*
X43427604Y-51269131D01*
X43426742Y-51286385D01*
X43425836Y-51300506D01*
X43424887Y-51311868D01*
X43423891Y-51320844D01*
X43422849Y-51327806D01*
X43421759Y-51333128D01*
X43420946Y-51336145D01*
X43382352Y-51447013D01*
X43336500Y-51544970D01*
X43281040Y-51633537D01*
X43213624Y-51716237D01*
X43131904Y-51796588D01*
X43089189Y-51833458D01*
X42988416Y-51910637D01*
X42887550Y-51973427D01*
X42782402Y-52024026D01*
X42668778Y-52064629D01*
X42622879Y-52077794D01*
X42598660Y-52084392D01*
X42576625Y-52090346D01*
X42555667Y-52095689D01*
X42534677Y-52100454D01*
X42512547Y-52104675D01*
X42488169Y-52108384D01*
X42460435Y-52111614D01*
X42428237Y-52114398D01*
X42390466Y-52116769D01*
X42346015Y-52118761D01*
X42293775Y-52120405D01*
X42232638Y-52121736D01*
X42161497Y-52122786D01*
X42079243Y-52123588D01*
X41984768Y-52124176D01*
X41876963Y-52124581D01*
X41754722Y-52124837D01*
X41616935Y-52124978D01*
X41462494Y-52125036D01*
X41290292Y-52125044D01*
X41099220Y-52125035D01*
X41036240Y-52125033D01*
X40839118Y-52125041D01*
X40661207Y-52125042D01*
X40501401Y-52125003D01*
X40358590Y-52124892D01*
X40231667Y-52124674D01*
X40119523Y-52124319D01*
X40021051Y-52123791D01*
X39935141Y-52123059D01*
X39860687Y-52122089D01*
X39796580Y-52120848D01*
X39741711Y-52119304D01*
X39694974Y-52117423D01*
X39655258Y-52115172D01*
X39621458Y-52112519D01*
X39592464Y-52109430D01*
X39567168Y-52105873D01*
X39544462Y-52101814D01*
X39523238Y-52097220D01*
X39502388Y-52092059D01*
X39480804Y-52086297D01*
X39457378Y-52079902D01*
X39449600Y-52077794D01*
X39331692Y-52040388D01*
X39223841Y-51993816D01*
X39121853Y-51935880D01*
X39021537Y-51864384D01*
X38983290Y-51833458D01*
X38880797Y-51738663D01*
X38797104Y-51640077D01*
X38730780Y-51535478D01*
X38680391Y-51422644D01*
X38647487Y-51312233D01*
X38646514Y-51299693D01*
X38645571Y-51270748D01*
X38644659Y-51225927D01*
X38643777Y-51165758D01*
X38642927Y-51090770D01*
X38642108Y-51001491D01*
X38641319Y-50898451D01*
X38640561Y-50782177D01*
X38639835Y-50653198D01*
X38639139Y-50512043D01*
X38638474Y-50359240D01*
X38637840Y-50195317D01*
X38637236Y-50020804D01*
X38636664Y-49836229D01*
X38636122Y-49642121D01*
X38635612Y-49439007D01*
X38635132Y-49227417D01*
X38634683Y-49007879D01*
X38634265Y-48780921D01*
X38633878Y-48547073D01*
X38633522Y-48306862D01*
X38633196Y-48060818D01*
X38632902Y-47809468D01*
X38632638Y-47553342D01*
X38632406Y-47292968D01*
X38632204Y-47028875D01*
X38632033Y-46761590D01*
X38631893Y-46491643D01*
X38631783Y-46219562D01*
X38631705Y-45945876D01*
X38631658Y-45671113D01*
X38631641Y-45395802D01*
X38631655Y-45120471D01*
X38631700Y-44845649D01*
X38631776Y-44571865D01*
X38631883Y-44299647D01*
X38632021Y-44029523D01*
X38632190Y-43762022D01*
X38632389Y-43497673D01*
X38632620Y-43237004D01*
X38632881Y-42980544D01*
X38633173Y-42728822D01*
X38633496Y-42482365D01*
X38633850Y-42241702D01*
X38634235Y-42007363D01*
X38634651Y-41779875D01*
X38635098Y-41559767D01*
X38635575Y-41347568D01*
X38636083Y-41143806D01*
X38636623Y-40949010D01*
X38637193Y-40763708D01*
X38637794Y-40588429D01*
X38638426Y-40423702D01*
X38639088Y-40270054D01*
X38639782Y-40128015D01*
X38640506Y-39998113D01*
X38641262Y-39880876D01*
X38642048Y-39776834D01*
X38642865Y-39686514D01*
X38643713Y-39610446D01*
X38644592Y-39549157D01*
X38645502Y-39503177D01*
X38646442Y-39473034D01*
X38647414Y-39459256D01*
X38647487Y-39458900D01*
X38684761Y-39336754D01*
X38736681Y-39224844D01*
X38804680Y-39120948D01*
X38890191Y-39022842D01*
X38983290Y-38937675D01*
X39097045Y-38852264D01*
X39215347Y-38782521D01*
X39340866Y-38727250D01*
X39476267Y-38685260D01*
X39608760Y-38657840D01*
X39630215Y-38656004D01*
X39670506Y-38654307D01*
X39728148Y-38652750D01*
X39801657Y-38651331D01*
X39889548Y-38650052D01*
X39990337Y-38648912D01*
X40102540Y-38647912D01*
X40224674Y-38647050D01*
X40355252Y-38646327D01*
X40492793Y-38645744D01*
X40635810Y-38645300D01*
X40782820Y-38644995D01*
X40932339Y-38644830D01*
X41082883Y-38644803D01*
X41082883Y-38578364D01*
X41036240Y-38578367D01*
X40841252Y-38578377D01*
X40665509Y-38578414D01*
X40507935Y-38578490D01*
X40367457Y-38578616D01*
X40242997Y-38578804D01*
X40133482Y-38579065D01*
X40037837Y-38579410D01*
X39954985Y-38579852D01*
X39883852Y-38580400D01*
X39823363Y-38581067D01*
X39772442Y-38581864D01*
X39730015Y-38582803D01*
X39695006Y-38583894D01*
X39666341Y-38585150D01*
X39642943Y-38586581D01*
X39623739Y-38588199D01*
X39607652Y-38590016D01*
X39593608Y-38592043D01*
X39583360Y-38593780D01*
X39422424Y-38630708D01*
X39272103Y-38681777D01*
X39133250Y-38746276D01*
X39006715Y-38823495D01*
X38893352Y-38912725D01*
X38794012Y-39013255D01*
X38709549Y-39124374D01*
X38640813Y-39245373D01*
X38588659Y-39375541D01*
X38570616Y-39437734D01*
X38569425Y-39442780D01*
X38568286Y-39448698D01*
X38567198Y-39455860D01*
X38566161Y-39464643D01*
X38565171Y-39475422D01*
X38564230Y-39488571D01*
X38563334Y-39504465D01*
X38562484Y-39523480D01*
X38561678Y-39545990D01*
X38560914Y-39572370D01*
X38560193Y-39602996D01*
X38559511Y-39638242D01*
X38558869Y-39678484D01*
X38558266Y-39724096D01*
X38557699Y-39775453D01*
X38557168Y-39832931D01*
X38556672Y-39896904D01*
X38556209Y-39967747D01*
X38555779Y-40045836D01*
X38555380Y-40131545D01*
X38555011Y-40225250D01*
X38554670Y-40327324D01*
X38554358Y-40438145D01*
X38554071Y-40558085D01*
X38553811Y-40687521D01*
X38553574Y-40826827D01*
X38553360Y-40976378D01*
X38553169Y-41136550D01*
X38552998Y-41307717D01*
X38552846Y-41490255D01*
X38552713Y-41684538D01*
X38552597Y-41890941D01*
X38552497Y-42109839D01*
X38552411Y-42341608D01*
X38552340Y-42586622D01*
X38552281Y-42845256D01*
X38552233Y-43117885D01*
X38552196Y-43404885D01*
X38552167Y-43706630D01*
X38552147Y-44023496D01*
X38552133Y-44355856D01*
X38552124Y-44704087D01*
X38552120Y-45068563D01*
X38552120Y-45385567D01*
X38552121Y-45763893D01*
X38552121Y-45763893D01*
G37*
X38552121Y-45763893D02*
X38552125Y-46125661D01*
X38552135Y-46471245D01*
X38552150Y-46801021D01*
X38552171Y-47115364D01*
X38552201Y-47414648D01*
X38552240Y-47699249D01*
X38552290Y-47969541D01*
X38552351Y-48225901D01*
X38552424Y-48468702D01*
X38552512Y-48698319D01*
X38552615Y-48915128D01*
X38552733Y-49119504D01*
X38552870Y-49311821D01*
X38553024Y-49492455D01*
X38553199Y-49661781D01*
X38553394Y-49820173D01*
X38553611Y-49968007D01*
X38553852Y-50105657D01*
X38554117Y-50233499D01*
X38554407Y-50351908D01*
X38554724Y-50461258D01*
X38555070Y-50561925D01*
X38555444Y-50654283D01*
X38555848Y-50738708D01*
X38556283Y-50815574D01*
X38556752Y-50885257D01*
X38557253Y-50948132D01*
X38557790Y-51004573D01*
X38558363Y-51054956D01*
X38558973Y-51099655D01*
X38559621Y-51139046D01*
X38560309Y-51173504D01*
X38561037Y-51203402D01*
X38561808Y-51229118D01*
X38562621Y-51251025D01*
X38563479Y-51269498D01*
X38564382Y-51284914D01*
X38565331Y-51297645D01*
X38566329Y-51308068D01*
X38567375Y-51316558D01*
X38568471Y-51323489D01*
X38569618Y-51329237D01*
X38570616Y-51333400D01*
X38614929Y-51467513D01*
X38676211Y-51592780D01*
X38753610Y-51708492D01*
X38846273Y-51813937D01*
X38953349Y-51908407D01*
X39073985Y-51991189D01*
X39207328Y-52061576D01*
X39352527Y-52118855D01*
X39508729Y-52162318D01*
X39583360Y-52177353D01*
X39596556Y-52179552D01*
X39610954Y-52181532D01*
X39627630Y-52183304D01*
X39647659Y-52184881D01*
X39672115Y-52186273D01*
X39702075Y-52187492D01*
X39738612Y-52188549D01*
X39782803Y-52189455D01*
X39835722Y-52190223D01*
X39898444Y-52190863D01*
X39972045Y-52191387D01*
X40057600Y-52191806D01*
X40156183Y-52192132D01*
X40268871Y-52192376D01*
X40396738Y-52192550D01*
X40540859Y-52192664D01*
X40702309Y-52192731D01*
X40882164Y-52192761D01*
X41036240Y-52192767D01*
X41231227Y-52192757D01*
X41406970Y-52192720D01*
X41564544Y-52192644D01*
X41705022Y-52192517D01*
X41829482Y-52192329D01*
X41938997Y-52192069D01*
X42034642Y-52191723D01*
X42117494Y-52191282D01*
X42188627Y-52190734D01*
X42249116Y-52190067D01*
X42300037Y-52189270D01*
X42342464Y-52188331D01*
X42377473Y-52187240D01*
X42406138Y-52185984D01*
X42429536Y-52184553D01*
X42448740Y-52182934D01*
X42464827Y-52181117D01*
X42478871Y-52179091D01*
X42489120Y-52177353D01*
X42650532Y-52140433D01*
X42801259Y-52089260D01*
X42940948Y-52023991D01*
X43069243Y-51944786D01*
X43149245Y-51883505D01*
X43252921Y-51786015D01*
X43340674Y-51679341D01*
X43413074Y-51562605D01*
X43470692Y-51434931D01*
X43501590Y-51341867D01*
X43502773Y-51337331D01*
X43503905Y-51331843D01*
X43504986Y-51325028D01*
X43506018Y-51316511D01*
X43507003Y-51305917D01*
X43507941Y-51292872D01*
X43508834Y-51277001D01*
X43509683Y-51257930D01*
X43510490Y-51235283D01*
X43511255Y-51208686D01*
X43511980Y-51177764D01*
X43512666Y-51142143D01*
X43513315Y-51101447D01*
X43513927Y-51055303D01*
X43514505Y-51003335D01*
X43515049Y-50945169D01*
X43515560Y-50880430D01*
X43516040Y-50808743D01*
X43516490Y-50729734D01*
X43516912Y-50643027D01*
X43517307Y-50548249D01*
X43517675Y-50445025D01*
X43518018Y-50332979D01*
X43518338Y-50211737D01*
X43518636Y-50080925D01*
X43518913Y-49940167D01*
X43519170Y-49789089D01*
X43519408Y-49627317D01*
X43519629Y-49454475D01*
X43519835Y-49270189D01*
X43520026Y-49074084D01*
X43520203Y-48865785D01*
X43520369Y-48644919D01*
X43520523Y-48411109D01*
X43520668Y-48163982D01*
X43520805Y-47903162D01*
X43520935Y-47628276D01*
X43521059Y-47338947D01*
X43521179Y-47034802D01*
X43521295Y-46715466D01*
X43521410Y-46380564D01*
X43521524Y-46029722D01*
X43521639Y-45662564D01*
X43521714Y-45415200D01*
X43521826Y-45025271D01*
X43521920Y-44651944D01*
X43521996Y-44294892D01*
X43522053Y-43953783D01*
X43522090Y-43628288D01*
X43522107Y-43318078D01*
X43522103Y-43022821D01*
X43522078Y-42742189D01*
X43522031Y-42475852D01*
X43521961Y-42223479D01*
X43521867Y-41984741D01*
X43521750Y-41759309D01*
X43521608Y-41546851D01*
X43521441Y-41347039D01*
X43521248Y-41159542D01*
X43521029Y-40984031D01*
X43520782Y-40820176D01*
X43520508Y-40667646D01*
X43520206Y-40526113D01*
X43519875Y-40395246D01*
X43519514Y-40274716D01*
X43519123Y-40164192D01*
X43518701Y-40063345D01*
X43518247Y-39971845D01*
X43517762Y-39889361D01*
X43517244Y-39815566D01*
X43516693Y-39750127D01*
X43516107Y-39692716D01*
X43515487Y-39643003D01*
X43514832Y-39600657D01*
X43514141Y-39565350D01*
X43513414Y-39536750D01*
X43512650Y-39514529D01*
X43511848Y-39498356D01*
X43511008Y-39487902D01*
X43510497Y-39484300D01*
X43475282Y-39351856D01*
X43422316Y-39226400D01*
X43352592Y-39108918D01*
X43267102Y-39000394D01*
X43166839Y-38901813D01*
X43052794Y-38814161D01*
X42925962Y-38738422D01*
X42787333Y-38675582D01*
X42649610Y-38629836D01*
X42624264Y-38622689D01*
X42601391Y-38616235D01*
X42579888Y-38610438D01*
X42558651Y-38605264D01*
X42536579Y-38600676D01*
X42512566Y-38596639D01*
X42485511Y-38593120D01*
X42454309Y-38590081D01*
X42417859Y-38587489D01*
X42375055Y-38585307D01*
X42324796Y-38583501D01*
X42265978Y-38582036D01*
X42197498Y-38580875D01*
X42118252Y-38579985D01*
X42027137Y-38579330D01*
X41923051Y-38578875D01*
X41804889Y-38578584D01*
X41671549Y-38578422D01*
X41521927Y-38578354D01*
X41354921Y-38578346D01*
X41169426Y-38578361D01*
X41082883Y-38578364D01*
X41082883Y-38644803D01*
X41232967Y-38644916D01*
X41381107Y-38645168D01*
X41525819Y-38645559D01*
X41665619Y-38646089D01*
X41799022Y-38646759D01*
X41924545Y-38647567D01*
X42040702Y-38648515D01*
X42146011Y-38649602D01*
X42238986Y-38650828D01*
X42318143Y-38652194D01*
X42381999Y-38653698D01*
X42429068Y-38655342D01*
X42457868Y-38657125D01*
X42463720Y-38657840D01*
X42617162Y-38691159D01*
X42759860Y-38738787D01*
X42892395Y-38800974D01*
X43015348Y-38877970D01*
X43066985Y-38916940D01*
X43175989Y-39014438D01*
X43266281Y-39118410D01*
X43338123Y-39229280D01*
X43391780Y-39347469D01*
X43427517Y-39473398D01*
X43432863Y-39501404D01*
X43433357Y-39512655D01*
X43433838Y-39540437D01*
X43434305Y-39584349D01*
X43434758Y-39643988D01*
X43435197Y-39718952D01*
X43435621Y-39808839D01*
X43436030Y-39913248D01*
X43436423Y-40031776D01*
X43436799Y-40164021D01*
X43437159Y-40309581D01*
X43437501Y-40468054D01*
X43437826Y-40639038D01*
X43438132Y-40822132D01*
X43438420Y-41016932D01*
X43438688Y-41223038D01*
X43438936Y-41440047D01*
X43439164Y-41667557D01*
X43439372Y-41905165D01*
X43439558Y-42152471D01*
X43439722Y-42409072D01*
X43439864Y-42674565D01*
X43439984Y-42948550D01*
X43440080Y-43230624D01*
X43440153Y-43520384D01*
X43440201Y-43817429D01*
X43440225Y-44121358D01*
X43440223Y-44431767D01*
X43440196Y-44748255D01*
X43440143Y-45070419D01*
X43440063Y-45397859D01*
X43440058Y-45415200D01*
X43439948Y-45793637D01*
X43439838Y-46155514D01*
X43439726Y-46501203D01*
X43439613Y-46831079D01*
X43439496Y-47145512D01*
X43439375Y-47444878D01*
X43439247Y-47729548D01*
X43439113Y-47999896D01*
X43438970Y-48256294D01*
X43438818Y-48499116D01*
X43438655Y-48728735D01*
X43438481Y-48945523D01*
X43438293Y-49149854D01*
X43438091Y-49342100D01*
X43437874Y-49522636D01*
X43437640Y-49691833D01*
X43437388Y-49850064D01*
X43437117Y-49997703D01*
X43436825Y-50135123D01*
X43436513Y-50262696D01*
X43436177Y-50380796D01*
X43435818Y-50489796D01*
X43435433Y-50590068D01*
X43435023Y-50681986D01*
X43434584Y-50765923D01*
X43434117Y-50842251D01*
X43433621Y-50911344D01*
X43433093Y-50973574D01*
X43432532Y-51029315D01*
X43431938Y-51078940D01*
X43431310Y-51122821D01*
X43430645Y-51161332D01*
X43429944Y-51194845D01*
X43429204Y-51223734D01*
X43428424Y-51248372D01*
X43427604Y-51269131D01*
X43426742Y-51286385D01*
X43425836Y-51300506D01*
X43424887Y-51311868D01*
X43423891Y-51320844D01*
X43422849Y-51327806D01*
X43421759Y-51333128D01*
X43420946Y-51336145D01*
X43382352Y-51447013D01*
X43336500Y-51544970D01*
X43281040Y-51633537D01*
X43213624Y-51716237D01*
X43131904Y-51796588D01*
X43089189Y-51833458D01*
X42988416Y-51910637D01*
X42887550Y-51973427D01*
X42782402Y-52024026D01*
X42668778Y-52064629D01*
X42622879Y-52077794D01*
X42598660Y-52084392D01*
X42576625Y-52090346D01*
X42555667Y-52095689D01*
X42534677Y-52100454D01*
X42512547Y-52104675D01*
X42488169Y-52108384D01*
X42460435Y-52111614D01*
X42428237Y-52114398D01*
X42390466Y-52116769D01*
X42346015Y-52118761D01*
X42293775Y-52120405D01*
X42232638Y-52121736D01*
X42161497Y-52122786D01*
X42079243Y-52123588D01*
X41984768Y-52124176D01*
X41876963Y-52124581D01*
X41754722Y-52124837D01*
X41616935Y-52124978D01*
X41462494Y-52125036D01*
X41290292Y-52125044D01*
X41099220Y-52125035D01*
X41036240Y-52125033D01*
X40839118Y-52125041D01*
X40661207Y-52125042D01*
X40501401Y-52125003D01*
X40358590Y-52124892D01*
X40231667Y-52124674D01*
X40119523Y-52124319D01*
X40021051Y-52123791D01*
X39935141Y-52123059D01*
X39860687Y-52122089D01*
X39796580Y-52120848D01*
X39741711Y-52119304D01*
X39694974Y-52117423D01*
X39655258Y-52115172D01*
X39621458Y-52112519D01*
X39592464Y-52109430D01*
X39567168Y-52105873D01*
X39544462Y-52101814D01*
X39523238Y-52097220D01*
X39502388Y-52092059D01*
X39480804Y-52086297D01*
X39457378Y-52079902D01*
X39449600Y-52077794D01*
X39331692Y-52040388D01*
X39223841Y-51993816D01*
X39121853Y-51935880D01*
X39021537Y-51864384D01*
X38983290Y-51833458D01*
X38880797Y-51738663D01*
X38797104Y-51640077D01*
X38730780Y-51535478D01*
X38680391Y-51422644D01*
X38647487Y-51312233D01*
X38646514Y-51299693D01*
X38645571Y-51270748D01*
X38644659Y-51225927D01*
X38643777Y-51165758D01*
X38642927Y-51090770D01*
X38642108Y-51001491D01*
X38641319Y-50898451D01*
X38640561Y-50782177D01*
X38639835Y-50653198D01*
X38639139Y-50512043D01*
X38638474Y-50359240D01*
X38637840Y-50195317D01*
X38637236Y-50020804D01*
X38636664Y-49836229D01*
X38636122Y-49642121D01*
X38635612Y-49439007D01*
X38635132Y-49227417D01*
X38634683Y-49007879D01*
X38634265Y-48780921D01*
X38633878Y-48547073D01*
X38633522Y-48306862D01*
X38633196Y-48060818D01*
X38632902Y-47809468D01*
X38632638Y-47553342D01*
X38632406Y-47292968D01*
X38632204Y-47028875D01*
X38632033Y-46761590D01*
X38631893Y-46491643D01*
X38631783Y-46219562D01*
X38631705Y-45945876D01*
X38631658Y-45671113D01*
X38631641Y-45395802D01*
X38631655Y-45120471D01*
X38631700Y-44845649D01*
X38631776Y-44571865D01*
X38631883Y-44299647D01*
X38632021Y-44029523D01*
X38632190Y-43762022D01*
X38632389Y-43497673D01*
X38632620Y-43237004D01*
X38632881Y-42980544D01*
X38633173Y-42728822D01*
X38633496Y-42482365D01*
X38633850Y-42241702D01*
X38634235Y-42007363D01*
X38634651Y-41779875D01*
X38635098Y-41559767D01*
X38635575Y-41347568D01*
X38636083Y-41143806D01*
X38636623Y-40949010D01*
X38637193Y-40763708D01*
X38637794Y-40588429D01*
X38638426Y-40423702D01*
X38639088Y-40270054D01*
X38639782Y-40128015D01*
X38640506Y-39998113D01*
X38641262Y-39880876D01*
X38642048Y-39776834D01*
X38642865Y-39686514D01*
X38643713Y-39610446D01*
X38644592Y-39549157D01*
X38645502Y-39503177D01*
X38646442Y-39473034D01*
X38647414Y-39459256D01*
X38647487Y-39458900D01*
X38684761Y-39336754D01*
X38736681Y-39224844D01*
X38804680Y-39120948D01*
X38890191Y-39022842D01*
X38983290Y-38937675D01*
X39097045Y-38852264D01*
X39215347Y-38782521D01*
X39340866Y-38727250D01*
X39476267Y-38685260D01*
X39608760Y-38657840D01*
X39630215Y-38656004D01*
X39670506Y-38654307D01*
X39728148Y-38652750D01*
X39801657Y-38651331D01*
X39889548Y-38650052D01*
X39990337Y-38648912D01*
X40102540Y-38647912D01*
X40224674Y-38647050D01*
X40355252Y-38646327D01*
X40492793Y-38645744D01*
X40635810Y-38645300D01*
X40782820Y-38644995D01*
X40932339Y-38644830D01*
X41082883Y-38644803D01*
X41082883Y-38578364D01*
X41036240Y-38578367D01*
X40841252Y-38578377D01*
X40665509Y-38578414D01*
X40507935Y-38578490D01*
X40367457Y-38578616D01*
X40242997Y-38578804D01*
X40133482Y-38579065D01*
X40037837Y-38579410D01*
X39954985Y-38579852D01*
X39883852Y-38580400D01*
X39823363Y-38581067D01*
X39772442Y-38581864D01*
X39730015Y-38582803D01*
X39695006Y-38583894D01*
X39666341Y-38585150D01*
X39642943Y-38586581D01*
X39623739Y-38588199D01*
X39607652Y-38590016D01*
X39593608Y-38592043D01*
X39583360Y-38593780D01*
X39422424Y-38630708D01*
X39272103Y-38681777D01*
X39133250Y-38746276D01*
X39006715Y-38823495D01*
X38893352Y-38912725D01*
X38794012Y-39013255D01*
X38709549Y-39124374D01*
X38640813Y-39245373D01*
X38588659Y-39375541D01*
X38570616Y-39437734D01*
X38569425Y-39442780D01*
X38568286Y-39448698D01*
X38567198Y-39455860D01*
X38566161Y-39464643D01*
X38565171Y-39475422D01*
X38564230Y-39488571D01*
X38563334Y-39504465D01*
X38562484Y-39523480D01*
X38561678Y-39545990D01*
X38560914Y-39572370D01*
X38560193Y-39602996D01*
X38559511Y-39638242D01*
X38558869Y-39678484D01*
X38558266Y-39724096D01*
X38557699Y-39775453D01*
X38557168Y-39832931D01*
X38556672Y-39896904D01*
X38556209Y-39967747D01*
X38555779Y-40045836D01*
X38555380Y-40131545D01*
X38555011Y-40225250D01*
X38554670Y-40327324D01*
X38554358Y-40438145D01*
X38554071Y-40558085D01*
X38553811Y-40687521D01*
X38553574Y-40826827D01*
X38553360Y-40976378D01*
X38553169Y-41136550D01*
X38552998Y-41307717D01*
X38552846Y-41490255D01*
X38552713Y-41684538D01*
X38552597Y-41890941D01*
X38552497Y-42109839D01*
X38552411Y-42341608D01*
X38552340Y-42586622D01*
X38552281Y-42845256D01*
X38552233Y-43117885D01*
X38552196Y-43404885D01*
X38552167Y-43706630D01*
X38552147Y-44023496D01*
X38552133Y-44355856D01*
X38552124Y-44704087D01*
X38552120Y-45068563D01*
X38552120Y-45385567D01*
X38552121Y-45763893D01*
G36*
X39096759Y-40733903D02*
X39100331Y-40811239D01*
X39106781Y-40879623D01*
X39111257Y-40909847D01*
X39149725Y-41075140D01*
X39206592Y-41235030D01*
X39281103Y-41388437D01*
X39372507Y-41534279D01*
X39480050Y-41671473D01*
X39602980Y-41798939D01*
X39740545Y-41915595D01*
X39878000Y-42011565D01*
X39940976Y-42050709D01*
X39991336Y-42079900D01*
X40031726Y-42100365D01*
X40064797Y-42113326D01*
X40093198Y-42120009D01*
X40116271Y-42121667D01*
X40162480Y-42121667D01*
X40162480Y-41346471D01*
X40593000Y-41025341D01*
X40672463Y-40966144D01*
X40747503Y-40910389D01*
X40816738Y-40859092D01*
X40878788Y-40813269D01*
X40932273Y-40773936D01*
X40975810Y-40742110D01*
X41008020Y-40718805D01*
X41027522Y-40705038D01*
X41032973Y-40701585D01*
X41042213Y-40706463D01*
X41065414Y-40721439D01*
X41101165Y-40745533D01*
X41148057Y-40777767D01*
X41204681Y-40817162D01*
X41269627Y-40862737D01*
X41341486Y-40913516D01*
X41418848Y-40968517D01*
X41476212Y-41009501D01*
X41910000Y-41320042D01*
X41910000Y-42119692D01*
X41931947Y-42124475D01*
X41950317Y-42124291D01*
X41976289Y-42116581D01*
X42011611Y-42100512D01*
X42058034Y-42075250D01*
X42117306Y-42039964D01*
X42143680Y-42023680D01*
X42298107Y-41917206D01*
X42437792Y-41799434D01*
X42562116Y-41671239D01*
X42670459Y-41533499D01*
X42762202Y-41387089D01*
X42836726Y-41232886D01*
X42893412Y-41071765D01*
X42930742Y-40909847D01*
X42937735Y-40855249D01*
X42942423Y-40788696D01*
X42944813Y-40714819D01*
X42944914Y-40638248D01*
X42942735Y-40563615D01*
X42938286Y-40495550D01*
X42931574Y-40438684D01*
X42929830Y-40428333D01*
X42893684Y-40273560D01*
X42841733Y-40125886D01*
X42772334Y-39981010D01*
X42732745Y-39911867D01*
X42634425Y-39766502D01*
X42521331Y-39631894D01*
X42394489Y-39508681D01*
X42254927Y-39397503D01*
X42103674Y-39298998D01*
X41941755Y-39213805D01*
X41770200Y-39142563D01*
X41590036Y-39085910D01*
X41402290Y-39044486D01*
X41315640Y-39030988D01*
X41210796Y-39020396D01*
X41094007Y-39014842D01*
X40972727Y-39014325D01*
X40854411Y-39018847D01*
X40746512Y-39028407D01*
X40726360Y-39030988D01*
X40536743Y-39065123D01*
X40354678Y-39114466D01*
X40181081Y-39178219D01*
X40016865Y-39255585D01*
X39862947Y-39345768D01*
X39720241Y-39447969D01*
X39589663Y-39561392D01*
X39472128Y-39685239D01*
X39368550Y-39818714D01*
X39279846Y-39961019D01*
X39206929Y-40111358D01*
X39150716Y-40268932D01*
X39112121Y-40432945D01*
X39111257Y-40437887D01*
X39103315Y-40499605D01*
X39098251Y-40572942D01*
X39096066Y-40652756D01*
X39096759Y-40733903D01*
X39096759Y-40733903D01*
G37*
X39096759Y-40733903D02*
X39100331Y-40811239D01*
X39106781Y-40879623D01*
X39111257Y-40909847D01*
X39149725Y-41075140D01*
X39206592Y-41235030D01*
X39281103Y-41388437D01*
X39372507Y-41534279D01*
X39480050Y-41671473D01*
X39602980Y-41798939D01*
X39740545Y-41915595D01*
X39878000Y-42011565D01*
X39940976Y-42050709D01*
X39991336Y-42079900D01*
X40031726Y-42100365D01*
X40064797Y-42113326D01*
X40093198Y-42120009D01*
X40116271Y-42121667D01*
X40162480Y-42121667D01*
X40162480Y-41346471D01*
X40593000Y-41025341D01*
X40672463Y-40966144D01*
X40747503Y-40910389D01*
X40816738Y-40859092D01*
X40878788Y-40813269D01*
X40932273Y-40773936D01*
X40975810Y-40742110D01*
X41008020Y-40718805D01*
X41027522Y-40705038D01*
X41032973Y-40701585D01*
X41042213Y-40706463D01*
X41065414Y-40721439D01*
X41101165Y-40745533D01*
X41148057Y-40777767D01*
X41204681Y-40817162D01*
X41269627Y-40862737D01*
X41341486Y-40913516D01*
X41418848Y-40968517D01*
X41476212Y-41009501D01*
X41910000Y-41320042D01*
X41910000Y-42119692D01*
X41931947Y-42124475D01*
X41950317Y-42124291D01*
X41976289Y-42116581D01*
X42011611Y-42100512D01*
X42058034Y-42075250D01*
X42117306Y-42039964D01*
X42143680Y-42023680D01*
X42298107Y-41917206D01*
X42437792Y-41799434D01*
X42562116Y-41671239D01*
X42670459Y-41533499D01*
X42762202Y-41387089D01*
X42836726Y-41232886D01*
X42893412Y-41071765D01*
X42930742Y-40909847D01*
X42937735Y-40855249D01*
X42942423Y-40788696D01*
X42944813Y-40714819D01*
X42944914Y-40638248D01*
X42942735Y-40563615D01*
X42938286Y-40495550D01*
X42931574Y-40438684D01*
X42929830Y-40428333D01*
X42893684Y-40273560D01*
X42841733Y-40125886D01*
X42772334Y-39981010D01*
X42732745Y-39911867D01*
X42634425Y-39766502D01*
X42521331Y-39631894D01*
X42394489Y-39508681D01*
X42254927Y-39397503D01*
X42103674Y-39298998D01*
X41941755Y-39213805D01*
X41770200Y-39142563D01*
X41590036Y-39085910D01*
X41402290Y-39044486D01*
X41315640Y-39030988D01*
X41210796Y-39020396D01*
X41094007Y-39014842D01*
X40972727Y-39014325D01*
X40854411Y-39018847D01*
X40746512Y-39028407D01*
X40726360Y-39030988D01*
X40536743Y-39065123D01*
X40354678Y-39114466D01*
X40181081Y-39178219D01*
X40016865Y-39255585D01*
X39862947Y-39345768D01*
X39720241Y-39447969D01*
X39589663Y-39561392D01*
X39472128Y-39685239D01*
X39368550Y-39818714D01*
X39279846Y-39961019D01*
X39206929Y-40111358D01*
X39150716Y-40268932D01*
X39112121Y-40432945D01*
X39111257Y-40437887D01*
X39103315Y-40499605D01*
X39098251Y-40572942D01*
X39096066Y-40652756D01*
X39096759Y-40733903D01*
G36*
X40673511Y-50071867D02*
X40677518Y-50115433D01*
X40683803Y-50161424D01*
X40691646Y-50206293D01*
X40700324Y-50246497D01*
X40709117Y-50278489D01*
X40717303Y-50298725D01*
X40720558Y-50303018D01*
X40732086Y-50304408D01*
X40761780Y-50305584D01*
X40807486Y-50306522D01*
X40867051Y-50307203D01*
X40938321Y-50307605D01*
X41019144Y-50307708D01*
X41107366Y-50307490D01*
X41154109Y-50307251D01*
X41579800Y-50304700D01*
X41643274Y-50280270D01*
X41707453Y-50247832D01*
X41761811Y-50205071D01*
X41801683Y-50155835D01*
X41808261Y-50144103D01*
X41830880Y-50084527D01*
X41844280Y-50014229D01*
X41848117Y-49937722D01*
X41842046Y-49859519D01*
X41833498Y-49813633D01*
X41822762Y-49768843D01*
X41813966Y-49738184D01*
X41805649Y-49719091D01*
X41796351Y-49709001D01*
X41784613Y-49705349D01*
X41771853Y-49705379D01*
X41747063Y-49708123D01*
X41710429Y-49713574D01*
X41669898Y-49720551D01*
X41597436Y-49733911D01*
X41617790Y-49786472D01*
X41629459Y-49826739D01*
X41637037Y-49873854D01*
X41640443Y-49923315D01*
X41639594Y-49970622D01*
X41634410Y-50011274D01*
X41624807Y-50040768D01*
X41622486Y-50044725D01*
X41590005Y-50077544D01*
X41545460Y-50098649D01*
X41496430Y-50105702D01*
X41453701Y-50105733D01*
X41468490Y-50070802D01*
X41477935Y-50035556D01*
X41482523Y-49990183D01*
X41482306Y-49940989D01*
X41477332Y-49894280D01*
X41467651Y-49856363D01*
X41466777Y-49854146D01*
X41432139Y-49792732D01*
X41383291Y-49743328D01*
X41320491Y-49706056D01*
X41243998Y-49681035D01*
X41154069Y-49668388D01*
X41091848Y-49667720D01*
X41091848Y-49872900D01*
X41159594Y-49876916D01*
X41211375Y-49889457D01*
X41249272Y-49911260D01*
X41271529Y-49936696D01*
X41285876Y-49973149D01*
X41289574Y-50016538D01*
X41282405Y-50059266D01*
X41275518Y-50076372D01*
X41260796Y-50105733D01*
X41068423Y-50105733D01*
X41001534Y-50105681D01*
X40952182Y-50105346D01*
X40917584Y-50104462D01*
X40894959Y-50102760D01*
X40881522Y-50099975D01*
X40874491Y-50095839D01*
X40871084Y-50090086D01*
X40869923Y-50086683D01*
X40863282Y-50039738D01*
X40870369Y-49990765D01*
X40887067Y-49952756D01*
X40919424Y-49916518D01*
X40964128Y-49891527D01*
X41022700Y-49877191D01*
X41091848Y-49872900D01*
X41091848Y-49667720D01*
X41067254Y-49667455D01*
X40983125Y-49674755D01*
X40913140Y-49690240D01*
X40852863Y-49715246D01*
X40803637Y-49746701D01*
X40748267Y-49798327D01*
X40708186Y-49859162D01*
X40683067Y-49930023D01*
X40672582Y-50011729D01*
X40673511Y-50071867D01*
X40673511Y-50071867D01*
G37*
X40673511Y-50071867D02*
X40677518Y-50115433D01*
X40683803Y-50161424D01*
X40691646Y-50206293D01*
X40700324Y-50246497D01*
X40709117Y-50278489D01*
X40717303Y-50298725D01*
X40720558Y-50303018D01*
X40732086Y-50304408D01*
X40761780Y-50305584D01*
X40807486Y-50306522D01*
X40867051Y-50307203D01*
X40938321Y-50307605D01*
X41019144Y-50307708D01*
X41107366Y-50307490D01*
X41154109Y-50307251D01*
X41579800Y-50304700D01*
X41643274Y-50280270D01*
X41707453Y-50247832D01*
X41761811Y-50205071D01*
X41801683Y-50155835D01*
X41808261Y-50144103D01*
X41830880Y-50084527D01*
X41844280Y-50014229D01*
X41848117Y-49937722D01*
X41842046Y-49859519D01*
X41833498Y-49813633D01*
X41822762Y-49768843D01*
X41813966Y-49738184D01*
X41805649Y-49719091D01*
X41796351Y-49709001D01*
X41784613Y-49705349D01*
X41771853Y-49705379D01*
X41747063Y-49708123D01*
X41710429Y-49713574D01*
X41669898Y-49720551D01*
X41597436Y-49733911D01*
X41617790Y-49786472D01*
X41629459Y-49826739D01*
X41637037Y-49873854D01*
X41640443Y-49923315D01*
X41639594Y-49970622D01*
X41634410Y-50011274D01*
X41624807Y-50040768D01*
X41622486Y-50044725D01*
X41590005Y-50077544D01*
X41545460Y-50098649D01*
X41496430Y-50105702D01*
X41453701Y-50105733D01*
X41468490Y-50070802D01*
X41477935Y-50035556D01*
X41482523Y-49990183D01*
X41482306Y-49940989D01*
X41477332Y-49894280D01*
X41467651Y-49856363D01*
X41466777Y-49854146D01*
X41432139Y-49792732D01*
X41383291Y-49743328D01*
X41320491Y-49706056D01*
X41243998Y-49681035D01*
X41154069Y-49668388D01*
X41091848Y-49667720D01*
X41091848Y-49872900D01*
X41159594Y-49876916D01*
X41211375Y-49889457D01*
X41249272Y-49911260D01*
X41271529Y-49936696D01*
X41285876Y-49973149D01*
X41289574Y-50016538D01*
X41282405Y-50059266D01*
X41275518Y-50076372D01*
X41260796Y-50105733D01*
X41068423Y-50105733D01*
X41001534Y-50105681D01*
X40952182Y-50105346D01*
X40917584Y-50104462D01*
X40894959Y-50102760D01*
X40881522Y-50099975D01*
X40874491Y-50095839D01*
X40871084Y-50090086D01*
X40869923Y-50086683D01*
X40863282Y-50039738D01*
X40870369Y-49990765D01*
X40887067Y-49952756D01*
X40919424Y-49916518D01*
X40964128Y-49891527D01*
X41022700Y-49877191D01*
X41091848Y-49872900D01*
X41091848Y-49667720D01*
X41067254Y-49667455D01*
X40983125Y-49674755D01*
X40913140Y-49690240D01*
X40852863Y-49715246D01*
X40803637Y-49746701D01*
X40748267Y-49798327D01*
X40708186Y-49859162D01*
X40683067Y-49930023D01*
X40672582Y-50011729D01*
X40673511Y-50071867D01*
G36*
X40673118Y-43116589D02*
X40677662Y-43141097D01*
X40685242Y-43166298D01*
X40689961Y-43179612D01*
X40707127Y-43219524D01*
X40727363Y-43249528D01*
X40755375Y-43276592D01*
X40755522Y-43276714D01*
X40777413Y-43294203D01*
X40798441Y-43308390D01*
X40820991Y-43319645D01*
X40847443Y-43328339D01*
X40880179Y-43334842D01*
X40921583Y-43339525D01*
X40974037Y-43342759D01*
X41039922Y-43344914D01*
X41121620Y-43346360D01*
X41209733Y-43347353D01*
X41520386Y-43350417D01*
X41537245Y-43271559D01*
X41546852Y-43216611D01*
X41554003Y-43155497D01*
X41558452Y-43092935D01*
X41559949Y-43033645D01*
X41558248Y-42982346D01*
X41554187Y-42948995D01*
X41534423Y-42880434D01*
X41503562Y-42825929D01*
X41461099Y-42785083D01*
X41406526Y-42757498D01*
X41339339Y-42742780D01*
X41287295Y-42739919D01*
X41253047Y-42742704D01*
X41253047Y-42937639D01*
X41296449Y-42938022D01*
X41300467Y-42938713D01*
X41330210Y-42949034D01*
X41351129Y-42968681D01*
X41364235Y-42999619D01*
X41370541Y-43043812D01*
X41371482Y-43076601D01*
X41371520Y-43155236D01*
X41277540Y-43152801D01*
X41183560Y-43150367D01*
X41180606Y-43080405D01*
X41183198Y-43023475D01*
X41196250Y-42980569D01*
X41219590Y-42951889D01*
X41253047Y-42937639D01*
X41253047Y-42742704D01*
X41212539Y-42746000D01*
X41150627Y-42765018D01*
X41100499Y-42797561D01*
X41061093Y-42844216D01*
X41044283Y-42874679D01*
X41034862Y-42896727D01*
X41028426Y-42918991D01*
X41024418Y-42945445D01*
X41022283Y-42980066D01*
X41021465Y-43026828D01*
X41021409Y-43038178D01*
X41021145Y-43084530D01*
X41020377Y-43116584D01*
X41018573Y-43136978D01*
X41015197Y-43148348D01*
X41009715Y-43153331D01*
X41001593Y-43154562D01*
X40997813Y-43154595D01*
X40955436Y-43147832D01*
X40916755Y-43129990D01*
X40889583Y-43104769D01*
X40888222Y-43102677D01*
X40879072Y-43077637D01*
X40873445Y-43040854D01*
X40871462Y-42997279D01*
X40873246Y-42951864D01*
X40878917Y-42909560D01*
X40883041Y-42891868D01*
X40891023Y-42861446D01*
X40892486Y-42841964D01*
X40884348Y-42830292D01*
X40863528Y-42823295D01*
X40826944Y-42817843D01*
X40807878Y-42815477D01*
X40767896Y-42810779D01*
X40735761Y-42807486D01*
X40716637Y-42806108D01*
X40713898Y-42806185D01*
X40704298Y-42815990D01*
X40695155Y-42840519D01*
X40686921Y-42877561D01*
X40680046Y-42924907D01*
X40674983Y-42980347D01*
X40673619Y-43003258D01*
X40671503Y-43052066D01*
X40671201Y-43088378D01*
X40673118Y-43116589D01*
X40673118Y-43116589D01*
G37*
X40673118Y-43116589D02*
X40677662Y-43141097D01*
X40685242Y-43166298D01*
X40689961Y-43179612D01*
X40707127Y-43219524D01*
X40727363Y-43249528D01*
X40755375Y-43276592D01*
X40755522Y-43276714D01*
X40777413Y-43294203D01*
X40798441Y-43308390D01*
X40820991Y-43319645D01*
X40847443Y-43328339D01*
X40880179Y-43334842D01*
X40921583Y-43339525D01*
X40974037Y-43342759D01*
X41039922Y-43344914D01*
X41121620Y-43346360D01*
X41209733Y-43347353D01*
X41520386Y-43350417D01*
X41537245Y-43271559D01*
X41546852Y-43216611D01*
X41554003Y-43155497D01*
X41558452Y-43092935D01*
X41559949Y-43033645D01*
X41558248Y-42982346D01*
X41554187Y-42948995D01*
X41534423Y-42880434D01*
X41503562Y-42825929D01*
X41461099Y-42785083D01*
X41406526Y-42757498D01*
X41339339Y-42742780D01*
X41287295Y-42739919D01*
X41253047Y-42742704D01*
X41253047Y-42937639D01*
X41296449Y-42938022D01*
X41300467Y-42938713D01*
X41330210Y-42949034D01*
X41351129Y-42968681D01*
X41364235Y-42999619D01*
X41370541Y-43043812D01*
X41371482Y-43076601D01*
X41371520Y-43155236D01*
X41277540Y-43152801D01*
X41183560Y-43150367D01*
X41180606Y-43080405D01*
X41183198Y-43023475D01*
X41196250Y-42980569D01*
X41219590Y-42951889D01*
X41253047Y-42937639D01*
X41253047Y-42742704D01*
X41212539Y-42746000D01*
X41150627Y-42765018D01*
X41100499Y-42797561D01*
X41061093Y-42844216D01*
X41044283Y-42874679D01*
X41034862Y-42896727D01*
X41028426Y-42918991D01*
X41024418Y-42945445D01*
X41022283Y-42980066D01*
X41021465Y-43026828D01*
X41021409Y-43038178D01*
X41021145Y-43084530D01*
X41020377Y-43116584D01*
X41018573Y-43136978D01*
X41015197Y-43148348D01*
X41009715Y-43153331D01*
X41001593Y-43154562D01*
X40997813Y-43154595D01*
X40955436Y-43147832D01*
X40916755Y-43129990D01*
X40889583Y-43104769D01*
X40888222Y-43102677D01*
X40879072Y-43077637D01*
X40873445Y-43040854D01*
X40871462Y-42997279D01*
X40873246Y-42951864D01*
X40878917Y-42909560D01*
X40883041Y-42891868D01*
X40891023Y-42861446D01*
X40892486Y-42841964D01*
X40884348Y-42830292D01*
X40863528Y-42823295D01*
X40826944Y-42817843D01*
X40807878Y-42815477D01*
X40767896Y-42810779D01*
X40735761Y-42807486D01*
X40716637Y-42806108D01*
X40713898Y-42806185D01*
X40704298Y-42815990D01*
X40695155Y-42840519D01*
X40686921Y-42877561D01*
X40680046Y-42924907D01*
X40674983Y-42980347D01*
X40673619Y-43003258D01*
X40671503Y-43052066D01*
X40671201Y-43088378D01*
X40673118Y-43116589D01*
G36*
X40673216Y-43890550D02*
X40677459Y-43934365D01*
X40684519Y-43976199D01*
X40693510Y-44012816D01*
X40703548Y-44040984D01*
X40713747Y-44057467D01*
X40719695Y-44060402D01*
X40731874Y-44058216D01*
X40758741Y-44052486D01*
X40795424Y-44044266D01*
X40812720Y-44040293D01*
X40860551Y-44027912D01*
X40888560Y-44017451D01*
X40897094Y-44008779D01*
X40897078Y-44008675D01*
X40894270Y-43994709D01*
X40888914Y-43969743D01*
X40882797Y-43942000D01*
X40875726Y-43877557D01*
X40885172Y-43822806D01*
X40910823Y-43778101D01*
X40952364Y-43743796D01*
X41009482Y-43720244D01*
X41081862Y-43707800D01*
X41091097Y-43707101D01*
X41164941Y-43707833D01*
X41230152Y-43719759D01*
X41284040Y-43741972D01*
X41323918Y-43773564D01*
X41336099Y-43789825D01*
X41351383Y-43828296D01*
X41357876Y-43877462D01*
X41355297Y-43932644D01*
X41347207Y-43975295D01*
X41340259Y-44005963D01*
X41336459Y-44029770D01*
X41336477Y-44042304D01*
X41336944Y-44043028D01*
X41348894Y-44046523D01*
X41376054Y-44051835D01*
X41413578Y-44058061D01*
X41433478Y-44061055D01*
X41524269Y-44074276D01*
X41540515Y-44031421D01*
X41550215Y-43994936D01*
X41556979Y-43947624D01*
X41560639Y-43894758D01*
X41561029Y-43841609D01*
X41557980Y-43793446D01*
X41551326Y-43755541D01*
X41549459Y-43749389D01*
X41516197Y-43676451D01*
X41469755Y-43616304D01*
X41410019Y-43568882D01*
X41336873Y-43534118D01*
X41250203Y-43511946D01*
X41149895Y-43502299D01*
X41121130Y-43501834D01*
X41019774Y-43508646D01*
X40929363Y-43529125D01*
X40850592Y-43562988D01*
X40784157Y-43609950D01*
X40740198Y-43656968D01*
X40707926Y-43703575D01*
X40686757Y-43748008D01*
X40675227Y-43795364D01*
X40671875Y-43850742D01*
X40673216Y-43890550D01*
X40673216Y-43890550D01*
G37*
X40673216Y-43890550D02*
X40677459Y-43934365D01*
X40684519Y-43976199D01*
X40693510Y-44012816D01*
X40703548Y-44040984D01*
X40713747Y-44057467D01*
X40719695Y-44060402D01*
X40731874Y-44058216D01*
X40758741Y-44052486D01*
X40795424Y-44044266D01*
X40812720Y-44040293D01*
X40860551Y-44027912D01*
X40888560Y-44017451D01*
X40897094Y-44008779D01*
X40897078Y-44008675D01*
X40894270Y-43994709D01*
X40888914Y-43969743D01*
X40882797Y-43942000D01*
X40875726Y-43877557D01*
X40885172Y-43822806D01*
X40910823Y-43778101D01*
X40952364Y-43743796D01*
X41009482Y-43720244D01*
X41081862Y-43707800D01*
X41091097Y-43707101D01*
X41164941Y-43707833D01*
X41230152Y-43719759D01*
X41284040Y-43741972D01*
X41323918Y-43773564D01*
X41336099Y-43789825D01*
X41351383Y-43828296D01*
X41357876Y-43877462D01*
X41355297Y-43932644D01*
X41347207Y-43975295D01*
X41340259Y-44005963D01*
X41336459Y-44029770D01*
X41336477Y-44042304D01*
X41336944Y-44043028D01*
X41348894Y-44046523D01*
X41376054Y-44051835D01*
X41413578Y-44058061D01*
X41433478Y-44061055D01*
X41524269Y-44074276D01*
X41540515Y-44031421D01*
X41550215Y-43994936D01*
X41556979Y-43947624D01*
X41560639Y-43894758D01*
X41561029Y-43841609D01*
X41557980Y-43793446D01*
X41551326Y-43755541D01*
X41549459Y-43749389D01*
X41516197Y-43676451D01*
X41469755Y-43616304D01*
X41410019Y-43568882D01*
X41336873Y-43534118D01*
X41250203Y-43511946D01*
X41149895Y-43502299D01*
X41121130Y-43501834D01*
X41019774Y-43508646D01*
X40929363Y-43529125D01*
X40850592Y-43562988D01*
X40784157Y-43609950D01*
X40740198Y-43656968D01*
X40707926Y-43703575D01*
X40686757Y-43748008D01*
X40675227Y-43795364D01*
X40671875Y-43850742D01*
X40673216Y-43890550D01*
G36*
X40675929Y-45300786D02*
X40677776Y-45330840D01*
X40682207Y-45353895D01*
X40690329Y-45374917D01*
X40703249Y-45398873D01*
X40708953Y-45408605D01*
X40747361Y-45462263D01*
X40793325Y-45504131D01*
X40849168Y-45535259D01*
X40917210Y-45556700D01*
X40999772Y-45569505D01*
X41074340Y-45574130D01*
X41198800Y-45578111D01*
X41198800Y-45347583D01*
X41198897Y-45278833D01*
X41199275Y-45225234D01*
X41200060Y-45185006D01*
X41201379Y-45156368D01*
X41203359Y-45137538D01*
X41206127Y-45126737D01*
X41209810Y-45122181D01*
X41214536Y-45122092D01*
X41214870Y-45122194D01*
X41233719Y-45126750D01*
X41239491Y-45127334D01*
X41252030Y-45132345D01*
X41272812Y-45144840D01*
X41279745Y-45149565D01*
X41320635Y-45189185D01*
X41346697Y-45240110D01*
X41357842Y-45301991D01*
X41353985Y-45374478D01*
X41346262Y-45415200D01*
X41338494Y-45449389D01*
X41332172Y-45478002D01*
X41328326Y-45496345D01*
X41327752Y-45499489D01*
X41332500Y-45506732D01*
X41350971Y-45513289D01*
X41385784Y-45519924D01*
X41410147Y-45523510D01*
X41450473Y-45528423D01*
X41483812Y-45531238D01*
X41504558Y-45531523D01*
X41507607Y-45531015D01*
X41521002Y-45518605D01*
X41533084Y-45492307D01*
X41543513Y-45455148D01*
X41551952Y-45410153D01*
X41558062Y-45360350D01*
X41561505Y-45308764D01*
X41561943Y-45258422D01*
X41559037Y-45212349D01*
X41552450Y-45173572D01*
X41548920Y-45161405D01*
X41515922Y-45090632D01*
X41468683Y-45030863D01*
X41408225Y-44983213D01*
X41364257Y-44960115D01*
X41309732Y-44938582D01*
X41258105Y-44924635D01*
X41202321Y-44916963D01*
X41135327Y-44914254D01*
X41117226Y-44914196D01*
X41026080Y-44920383D01*
X41026080Y-45118544D01*
X41026080Y-45383549D01*
X40991340Y-45378851D01*
X40940184Y-45364363D01*
X40901884Y-45337405D01*
X40878007Y-45299584D01*
X40870107Y-45254334D01*
X40879195Y-45207595D01*
X40905411Y-45169080D01*
X40947180Y-45140392D01*
X40998140Y-45124026D01*
X41026080Y-45118544D01*
X41026080Y-44920383D01*
X41014339Y-44921181D01*
X40923366Y-44941597D01*
X40844650Y-44975279D01*
X40778539Y-45022060D01*
X40725379Y-45081776D01*
X40707154Y-45110400D01*
X40693061Y-45136168D01*
X40683917Y-45157844D01*
X40678661Y-45180408D01*
X40676234Y-45208840D01*
X40675573Y-45248120D01*
X40675560Y-45258768D01*
X40675929Y-45300786D01*
X40675929Y-45300786D01*
G37*
X40675929Y-45300786D02*
X40677776Y-45330840D01*
X40682207Y-45353895D01*
X40690329Y-45374917D01*
X40703249Y-45398873D01*
X40708953Y-45408605D01*
X40747361Y-45462263D01*
X40793325Y-45504131D01*
X40849168Y-45535259D01*
X40917210Y-45556700D01*
X40999772Y-45569505D01*
X41074340Y-45574130D01*
X41198800Y-45578111D01*
X41198800Y-45347583D01*
X41198897Y-45278833D01*
X41199275Y-45225234D01*
X41200060Y-45185006D01*
X41201379Y-45156368D01*
X41203359Y-45137538D01*
X41206127Y-45126737D01*
X41209810Y-45122181D01*
X41214536Y-45122092D01*
X41214870Y-45122194D01*
X41233719Y-45126750D01*
X41239491Y-45127334D01*
X41252030Y-45132345D01*
X41272812Y-45144840D01*
X41279745Y-45149565D01*
X41320635Y-45189185D01*
X41346697Y-45240110D01*
X41357842Y-45301991D01*
X41353985Y-45374478D01*
X41346262Y-45415200D01*
X41338494Y-45449389D01*
X41332172Y-45478002D01*
X41328326Y-45496345D01*
X41327752Y-45499489D01*
X41332500Y-45506732D01*
X41350971Y-45513289D01*
X41385784Y-45519924D01*
X41410147Y-45523510D01*
X41450473Y-45528423D01*
X41483812Y-45531238D01*
X41504558Y-45531523D01*
X41507607Y-45531015D01*
X41521002Y-45518605D01*
X41533084Y-45492307D01*
X41543513Y-45455148D01*
X41551952Y-45410153D01*
X41558062Y-45360350D01*
X41561505Y-45308764D01*
X41561943Y-45258422D01*
X41559037Y-45212349D01*
X41552450Y-45173572D01*
X41548920Y-45161405D01*
X41515922Y-45090632D01*
X41468683Y-45030863D01*
X41408225Y-44983213D01*
X41364257Y-44960115D01*
X41309732Y-44938582D01*
X41258105Y-44924635D01*
X41202321Y-44916963D01*
X41135327Y-44914254D01*
X41117226Y-44914196D01*
X41026080Y-44920383D01*
X41026080Y-45118544D01*
X41026080Y-45383549D01*
X40991340Y-45378851D01*
X40940184Y-45364363D01*
X40901884Y-45337405D01*
X40878007Y-45299584D01*
X40870107Y-45254334D01*
X40879195Y-45207595D01*
X40905411Y-45169080D01*
X40947180Y-45140392D01*
X40998140Y-45124026D01*
X41026080Y-45118544D01*
X41026080Y-44920383D01*
X41014339Y-44921181D01*
X40923366Y-44941597D01*
X40844650Y-44975279D01*
X40778539Y-45022060D01*
X40725379Y-45081776D01*
X40707154Y-45110400D01*
X40693061Y-45136168D01*
X40683917Y-45157844D01*
X40678661Y-45180408D01*
X40676234Y-45208840D01*
X40675573Y-45248120D01*
X40675560Y-45258768D01*
X40675929Y-45300786D01*
G36*
X40676272Y-48230607D02*
X40696993Y-48300080D01*
X40734241Y-48359711D01*
X40787999Y-48409480D01*
X40858252Y-48449365D01*
X40902374Y-48466559D01*
X40934987Y-48475020D01*
X40977591Y-48481036D01*
X41034182Y-48485075D01*
X41074340Y-48486675D01*
X41198800Y-48490644D01*
X41198800Y-48261022D01*
X41199170Y-48182179D01*
X41200289Y-48120067D01*
X41202164Y-48074494D01*
X41204804Y-48045269D01*
X41208218Y-48032201D01*
X41209464Y-48031400D01*
X41231779Y-48036755D01*
X41260558Y-48050199D01*
X41287954Y-48067805D01*
X41296671Y-48075046D01*
X41332439Y-48119694D01*
X41353002Y-48174417D01*
X41358446Y-48239663D01*
X41348862Y-48315883D01*
X41346262Y-48327734D01*
X41338494Y-48361922D01*
X41332172Y-48390535D01*
X41328326Y-48408878D01*
X41327752Y-48412023D01*
X41332500Y-48419266D01*
X41350971Y-48425823D01*
X41385784Y-48432457D01*
X41410147Y-48436043D01*
X41450473Y-48440956D01*
X41483812Y-48443771D01*
X41504558Y-48444056D01*
X41507607Y-48443548D01*
X41520868Y-48431192D01*
X41532881Y-48404957D01*
X41543300Y-48367880D01*
X41551778Y-48322999D01*
X41557970Y-48273351D01*
X41561531Y-48221973D01*
X41562116Y-48171902D01*
X41559378Y-48126177D01*
X41552973Y-48087834D01*
X41549455Y-48075682D01*
X41515799Y-48002387D01*
X41468643Y-47941729D01*
X41408093Y-47893769D01*
X41334257Y-47858571D01*
X41247243Y-47836197D01*
X41147157Y-47826707D01*
X41117327Y-47826365D01*
X41026080Y-47832793D01*
X41026080Y-48031078D01*
X41026080Y-48296082D01*
X40991340Y-48291385D01*
X40940164Y-48276916D01*
X40901905Y-48249963D01*
X40878014Y-48212021D01*
X40869939Y-48166204D01*
X40878880Y-48119911D01*
X40905007Y-48081602D01*
X40946637Y-48052980D01*
X40998140Y-48036483D01*
X41026080Y-48031078D01*
X41026080Y-47832793D01*
X41014161Y-47833633D01*
X40923025Y-47854260D01*
X40844253Y-47888086D01*
X40778179Y-47934951D01*
X40725139Y-47994693D01*
X40707203Y-48022934D01*
X40690130Y-48055853D01*
X40679816Y-48085798D01*
X40674258Y-48120088D01*
X40672091Y-48151314D01*
X40676272Y-48230607D01*
X40676272Y-48230607D01*
G37*
X40676272Y-48230607D02*
X40696993Y-48300080D01*
X40734241Y-48359711D01*
X40787999Y-48409480D01*
X40858252Y-48449365D01*
X40902374Y-48466559D01*
X40934987Y-48475020D01*
X40977591Y-48481036D01*
X41034182Y-48485075D01*
X41074340Y-48486675D01*
X41198800Y-48490644D01*
X41198800Y-48261022D01*
X41199170Y-48182179D01*
X41200289Y-48120067D01*
X41202164Y-48074494D01*
X41204804Y-48045269D01*
X41208218Y-48032201D01*
X41209464Y-48031400D01*
X41231779Y-48036755D01*
X41260558Y-48050199D01*
X41287954Y-48067805D01*
X41296671Y-48075046D01*
X41332439Y-48119694D01*
X41353002Y-48174417D01*
X41358446Y-48239663D01*
X41348862Y-48315883D01*
X41346262Y-48327734D01*
X41338494Y-48361922D01*
X41332172Y-48390535D01*
X41328326Y-48408878D01*
X41327752Y-48412023D01*
X41332500Y-48419266D01*
X41350971Y-48425823D01*
X41385784Y-48432457D01*
X41410147Y-48436043D01*
X41450473Y-48440956D01*
X41483812Y-48443771D01*
X41504558Y-48444056D01*
X41507607Y-48443548D01*
X41520868Y-48431192D01*
X41532881Y-48404957D01*
X41543300Y-48367880D01*
X41551778Y-48322999D01*
X41557970Y-48273351D01*
X41561531Y-48221973D01*
X41562116Y-48171902D01*
X41559378Y-48126177D01*
X41552973Y-48087834D01*
X41549455Y-48075682D01*
X41515799Y-48002387D01*
X41468643Y-47941729D01*
X41408093Y-47893769D01*
X41334257Y-47858571D01*
X41247243Y-47836197D01*
X41147157Y-47826707D01*
X41117327Y-47826365D01*
X41026080Y-47832793D01*
X41026080Y-48031078D01*
X41026080Y-48296082D01*
X40991340Y-48291385D01*
X40940164Y-48276916D01*
X40901905Y-48249963D01*
X40878014Y-48212021D01*
X40869939Y-48166204D01*
X40878880Y-48119911D01*
X40905007Y-48081602D01*
X40946637Y-48052980D01*
X40998140Y-48036483D01*
X41026080Y-48031078D01*
X41026080Y-47832793D01*
X41014161Y-47833633D01*
X40923025Y-47854260D01*
X40844253Y-47888086D01*
X40778179Y-47934951D01*
X40725139Y-47994693D01*
X40707203Y-48022934D01*
X40690130Y-48055853D01*
X40679816Y-48085798D01*
X40674258Y-48120088D01*
X40672091Y-48151314D01*
X40676272Y-48230607D01*
G36*
X40672759Y-48965346D02*
X40680505Y-49023806D01*
X40684896Y-49043749D01*
X40693512Y-49075704D01*
X40701613Y-49101017D01*
X40707745Y-49115260D01*
X40708826Y-49116594D01*
X40720724Y-49117204D01*
X40746711Y-49114697D01*
X40781135Y-49109982D01*
X40818347Y-49103967D01*
X40852697Y-49097559D01*
X40878534Y-49091666D01*
X40889907Y-49087500D01*
X40890070Y-49077968D01*
X40886079Y-49056711D01*
X40879134Y-49029574D01*
X40869220Y-48983432D01*
X40864668Y-48937091D01*
X40865548Y-48895327D01*
X40871927Y-48862918D01*
X40876605Y-48852667D01*
X40897394Y-48834759D01*
X40926430Y-48828316D01*
X40955884Y-48834444D01*
X40965334Y-48840129D01*
X40977106Y-48853919D01*
X40993291Y-48879317D01*
X41011283Y-48912037D01*
X41021089Y-48931780D01*
X41056007Y-48999350D01*
X41089784Y-49052006D01*
X41124310Y-49091580D01*
X41161471Y-49119902D01*
X41203156Y-49138803D01*
X41245193Y-49149117D01*
X41320136Y-49154867D01*
X41387110Y-49145139D01*
X41445328Y-49120297D01*
X41494004Y-49080704D01*
X41532353Y-49026720D01*
X41539047Y-49013534D01*
X41548518Y-48983634D01*
X41555590Y-48941389D01*
X41560103Y-48891286D01*
X41561899Y-48837810D01*
X41560815Y-48785446D01*
X41556692Y-48738681D01*
X41550089Y-48704500D01*
X41537330Y-48661530D01*
X41526391Y-48632936D01*
X41515807Y-48616382D01*
X41504113Y-48609535D01*
X41490747Y-48609872D01*
X41468651Y-48613882D01*
X41434906Y-48619604D01*
X41406008Y-48624319D01*
X41364333Y-48631394D01*
X41339685Y-48638444D01*
X41329170Y-48648786D01*
X41329894Y-48665737D01*
X41338965Y-48692613D01*
X41341205Y-48698611D01*
X41357740Y-48752625D01*
X41367178Y-48805065D01*
X41369677Y-48853289D01*
X41365398Y-48894655D01*
X41354500Y-48926522D01*
X41337143Y-48946246D01*
X41325956Y-48950757D01*
X41309649Y-48953473D01*
X41295763Y-48952941D01*
X41282820Y-48947444D01*
X41269339Y-48935267D01*
X41253842Y-48914693D01*
X41234851Y-48884005D01*
X41210885Y-48841486D01*
X41180465Y-48785420D01*
X41175429Y-48776060D01*
X41137334Y-48717758D01*
X41093624Y-48674916D01*
X41043035Y-48646454D01*
X41012414Y-48636684D01*
X40937680Y-48625790D01*
X40868605Y-48630842D01*
X40806765Y-48651241D01*
X40753736Y-48686390D01*
X40711094Y-48735693D01*
X40699390Y-48755300D01*
X40684560Y-48794895D01*
X40675021Y-48846217D01*
X40671009Y-48904592D01*
X40672759Y-48965346D01*
X40672759Y-48965346D01*
G37*
X40672759Y-48965346D02*
X40680505Y-49023806D01*
X40684896Y-49043749D01*
X40693512Y-49075704D01*
X40701613Y-49101017D01*
X40707745Y-49115260D01*
X40708826Y-49116594D01*
X40720724Y-49117204D01*
X40746711Y-49114697D01*
X40781135Y-49109982D01*
X40818347Y-49103967D01*
X40852697Y-49097559D01*
X40878534Y-49091666D01*
X40889907Y-49087500D01*
X40890070Y-49077968D01*
X40886079Y-49056711D01*
X40879134Y-49029574D01*
X40869220Y-48983432D01*
X40864668Y-48937091D01*
X40865548Y-48895327D01*
X40871927Y-48862918D01*
X40876605Y-48852667D01*
X40897394Y-48834759D01*
X40926430Y-48828316D01*
X40955884Y-48834444D01*
X40965334Y-48840129D01*
X40977106Y-48853919D01*
X40993291Y-48879317D01*
X41011283Y-48912037D01*
X41021089Y-48931780D01*
X41056007Y-48999350D01*
X41089784Y-49052006D01*
X41124310Y-49091580D01*
X41161471Y-49119902D01*
X41203156Y-49138803D01*
X41245193Y-49149117D01*
X41320136Y-49154867D01*
X41387110Y-49145139D01*
X41445328Y-49120297D01*
X41494004Y-49080704D01*
X41532353Y-49026720D01*
X41539047Y-49013534D01*
X41548518Y-48983634D01*
X41555590Y-48941389D01*
X41560103Y-48891286D01*
X41561899Y-48837810D01*
X41560815Y-48785446D01*
X41556692Y-48738681D01*
X41550089Y-48704500D01*
X41537330Y-48661530D01*
X41526391Y-48632936D01*
X41515807Y-48616382D01*
X41504113Y-48609535D01*
X41490747Y-48609872D01*
X41468651Y-48613882D01*
X41434906Y-48619604D01*
X41406008Y-48624319D01*
X41364333Y-48631394D01*
X41339685Y-48638444D01*
X41329170Y-48648786D01*
X41329894Y-48665737D01*
X41338965Y-48692613D01*
X41341205Y-48698611D01*
X41357740Y-48752625D01*
X41367178Y-48805065D01*
X41369677Y-48853289D01*
X41365398Y-48894655D01*
X41354500Y-48926522D01*
X41337143Y-48946246D01*
X41325956Y-48950757D01*
X41309649Y-48953473D01*
X41295763Y-48952941D01*
X41282820Y-48947444D01*
X41269339Y-48935267D01*
X41253842Y-48914693D01*
X41234851Y-48884005D01*
X41210885Y-48841486D01*
X41180465Y-48785420D01*
X41175429Y-48776060D01*
X41137334Y-48717758D01*
X41093624Y-48674916D01*
X41043035Y-48646454D01*
X41012414Y-48636684D01*
X40937680Y-48625790D01*
X40868605Y-48630842D01*
X40806765Y-48651241D01*
X40753736Y-48686390D01*
X40711094Y-48735693D01*
X40699390Y-48755300D01*
X40684560Y-48794895D01*
X40675021Y-48846217D01*
X40671009Y-48904592D01*
X40672759Y-48965346D01*
G36*
X40673214Y-51621278D02*
X40681924Y-51680882D01*
X40684896Y-51693816D01*
X40693618Y-51725891D01*
X40701980Y-51751434D01*
X40708472Y-51765959D01*
X40709636Y-51767351D01*
X40721805Y-51768138D01*
X40747982Y-51765671D01*
X40782487Y-51760882D01*
X40819640Y-51754705D01*
X40853760Y-51748074D01*
X40879166Y-51741922D01*
X40889665Y-51737767D01*
X40889951Y-51728128D01*
X40886044Y-51706789D01*
X40879134Y-51679641D01*
X40869220Y-51633501D01*
X40864668Y-51587160D01*
X40865547Y-51545396D01*
X40871925Y-51512985D01*
X40876601Y-51502733D01*
X40897278Y-51484931D01*
X40926083Y-51478329D01*
X40955027Y-51483830D01*
X40968134Y-51492365D01*
X40979036Y-51506638D01*
X40994825Y-51532607D01*
X41013107Y-51566156D01*
X41026257Y-51592259D01*
X41062064Y-51659603D01*
X41097349Y-51711854D01*
X41134095Y-51750726D01*
X41174287Y-51777931D01*
X41219908Y-51795181D01*
X41271677Y-51804066D01*
X41344145Y-51803967D01*
X41408247Y-51788983D01*
X41462711Y-51759480D01*
X41481692Y-51743527D01*
X41507870Y-51714540D01*
X41530417Y-51682437D01*
X41539484Y-51665247D01*
X41548629Y-51633739D01*
X41555439Y-51590029D01*
X41559755Y-51538749D01*
X41561419Y-51484533D01*
X41560273Y-51432014D01*
X41556159Y-51385826D01*
X41550089Y-51354567D01*
X41537499Y-51312070D01*
X41526766Y-51283886D01*
X41516378Y-51267631D01*
X41504828Y-51260918D01*
X41491062Y-51261272D01*
X41469469Y-51265220D01*
X41435526Y-51271179D01*
X41398887Y-51277466D01*
X41363884Y-51283777D01*
X41337641Y-51289205D01*
X41325650Y-51292612D01*
X41325548Y-51292687D01*
X41326165Y-51301911D01*
X41331801Y-51322745D01*
X41341238Y-51350685D01*
X41341270Y-51350771D01*
X41352611Y-51388736D01*
X41362313Y-51433218D01*
X41367673Y-51469627D01*
X41369383Y-51525016D01*
X41361763Y-51565480D01*
X41344768Y-51591156D01*
X41323438Y-51601351D01*
X41304479Y-51603527D01*
X41287834Y-51600207D01*
X41271864Y-51589581D01*
X41254924Y-51569841D01*
X41235375Y-51539178D01*
X41211575Y-51495782D01*
X41190478Y-51454837D01*
X41157576Y-51396348D01*
X41124540Y-51352342D01*
X41088571Y-51320516D01*
X41046872Y-51298565D01*
X40996643Y-51284185D01*
X40979312Y-51280972D01*
X40908241Y-51277038D01*
X40842042Y-51288810D01*
X40783268Y-51315173D01*
X40734471Y-51355010D01*
X40700409Y-51402931D01*
X40684814Y-51444969D01*
X40674913Y-51498552D01*
X40670962Y-51558912D01*
X40673214Y-51621278D01*
X40673214Y-51621278D01*
G37*
X40673214Y-51621278D02*
X40681924Y-51680882D01*
X40684896Y-51693816D01*
X40693618Y-51725891D01*
X40701980Y-51751434D01*
X40708472Y-51765959D01*
X40709636Y-51767351D01*
X40721805Y-51768138D01*
X40747982Y-51765671D01*
X40782487Y-51760882D01*
X40819640Y-51754705D01*
X40853760Y-51748074D01*
X40879166Y-51741922D01*
X40889665Y-51737767D01*
X40889951Y-51728128D01*
X40886044Y-51706789D01*
X40879134Y-51679641D01*
X40869220Y-51633501D01*
X40864668Y-51587160D01*
X40865547Y-51545396D01*
X40871925Y-51512985D01*
X40876601Y-51502733D01*
X40897278Y-51484931D01*
X40926083Y-51478329D01*
X40955027Y-51483830D01*
X40968134Y-51492365D01*
X40979036Y-51506638D01*
X40994825Y-51532607D01*
X41013107Y-51566156D01*
X41026257Y-51592259D01*
X41062064Y-51659603D01*
X41097349Y-51711854D01*
X41134095Y-51750726D01*
X41174287Y-51777931D01*
X41219908Y-51795181D01*
X41271677Y-51804066D01*
X41344145Y-51803967D01*
X41408247Y-51788983D01*
X41462711Y-51759480D01*
X41481692Y-51743527D01*
X41507870Y-51714540D01*
X41530417Y-51682437D01*
X41539484Y-51665247D01*
X41548629Y-51633739D01*
X41555439Y-51590029D01*
X41559755Y-51538749D01*
X41561419Y-51484533D01*
X41560273Y-51432014D01*
X41556159Y-51385826D01*
X41550089Y-51354567D01*
X41537499Y-51312070D01*
X41526766Y-51283886D01*
X41516378Y-51267631D01*
X41504828Y-51260918D01*
X41491062Y-51261272D01*
X41469469Y-51265220D01*
X41435526Y-51271179D01*
X41398887Y-51277466D01*
X41363884Y-51283777D01*
X41337641Y-51289205D01*
X41325650Y-51292612D01*
X41325548Y-51292687D01*
X41326165Y-51301911D01*
X41331801Y-51322745D01*
X41341238Y-51350685D01*
X41341270Y-51350771D01*
X41352611Y-51388736D01*
X41362313Y-51433218D01*
X41367673Y-51469627D01*
X41369383Y-51525016D01*
X41361763Y-51565480D01*
X41344768Y-51591156D01*
X41323438Y-51601351D01*
X41304479Y-51603527D01*
X41287834Y-51600207D01*
X41271864Y-51589581D01*
X41254924Y-51569841D01*
X41235375Y-51539178D01*
X41211575Y-51495782D01*
X41190478Y-51454837D01*
X41157576Y-51396348D01*
X41124540Y-51352342D01*
X41088571Y-51320516D01*
X41046872Y-51298565D01*
X40996643Y-51284185D01*
X40979312Y-51280972D01*
X40908241Y-51277038D01*
X40842042Y-51288810D01*
X40783268Y-51315173D01*
X40734471Y-51355010D01*
X40700409Y-51402931D01*
X40684814Y-51444969D01*
X40674913Y-51498552D01*
X40670962Y-51558912D01*
X40673214Y-51621278D01*
G36*
X40413186Y-47237285D02*
X40415005Y-47275406D01*
X40418149Y-47305723D01*
X40422848Y-47331274D01*
X40429335Y-47355099D01*
X40430344Y-47358300D01*
X40466741Y-47444641D01*
X40516578Y-47518307D01*
X40579667Y-47579183D01*
X40655818Y-47627152D01*
X40744841Y-47662097D01*
X40846547Y-47683904D01*
X40960747Y-47692455D01*
X40975954Y-47692586D01*
X41066580Y-47689419D01*
X41144965Y-47678854D01*
X41217725Y-47659796D01*
X41254680Y-47646500D01*
X41337943Y-47606060D01*
X41407061Y-47554786D01*
X41463164Y-47491568D01*
X41507379Y-47415292D01*
X41520627Y-47384364D01*
X41530214Y-47358872D01*
X41537301Y-47335854D01*
X41542322Y-47311951D01*
X41545709Y-47283809D01*
X41547893Y-47248070D01*
X41549307Y-47201377D01*
X41550155Y-47155100D01*
X41550425Y-47099530D01*
X41549590Y-47045107D01*
X41547792Y-46995935D01*
X41545173Y-46956116D01*
X41542423Y-46932778D01*
X41532134Y-46871322D01*
X41343660Y-46872072D01*
X41343660Y-47082914D01*
X41338651Y-47174041D01*
X41333594Y-47231076D01*
X41324971Y-47275694D01*
X41311932Y-47312259D01*
X41311618Y-47312943D01*
X41279651Y-47361248D01*
X41232765Y-47404672D01*
X41176356Y-47438771D01*
X41142633Y-47452133D01*
X41113791Y-47459774D01*
X41080870Y-47464700D01*
X41038783Y-47467388D01*
X40982443Y-47468317D01*
X40970200Y-47468334D01*
X40915501Y-47467915D01*
X40875849Y-47466290D01*
X40845986Y-47462852D01*
X40820652Y-47456996D01*
X40794586Y-47448115D01*
X40794557Y-47448104D01*
X40734932Y-47416939D01*
X40685656Y-47373756D01*
X40650872Y-47322498D01*
X40643109Y-47304005D01*
X40633381Y-47264777D01*
X40627280Y-47214345D01*
X40625526Y-47172034D01*
X40624760Y-47087367D01*
X40984210Y-47085141D01*
X41343660Y-47082914D01*
X41343660Y-46872072D01*
X40432280Y-46875700D01*
X40423033Y-46913800D01*
X40420131Y-46933971D01*
X40417479Y-46967784D01*
X40415240Y-47011948D01*
X40413577Y-47063173D01*
X40412651Y-47118167D01*
X40412593Y-47125467D01*
X40412459Y-47188319D01*
X40413186Y-47237285D01*
X40413186Y-47237285D01*
G37*
X40413186Y-47237285D02*
X40415005Y-47275406D01*
X40418149Y-47305723D01*
X40422848Y-47331274D01*
X40429335Y-47355099D01*
X40430344Y-47358300D01*
X40466741Y-47444641D01*
X40516578Y-47518307D01*
X40579667Y-47579183D01*
X40655818Y-47627152D01*
X40744841Y-47662097D01*
X40846547Y-47683904D01*
X40960747Y-47692455D01*
X40975954Y-47692586D01*
X41066580Y-47689419D01*
X41144965Y-47678854D01*
X41217725Y-47659796D01*
X41254680Y-47646500D01*
X41337943Y-47606060D01*
X41407061Y-47554786D01*
X41463164Y-47491568D01*
X41507379Y-47415292D01*
X41520627Y-47384364D01*
X41530214Y-47358872D01*
X41537301Y-47335854D01*
X41542322Y-47311951D01*
X41545709Y-47283809D01*
X41547893Y-47248070D01*
X41549307Y-47201377D01*
X41550155Y-47155100D01*
X41550425Y-47099530D01*
X41549590Y-47045107D01*
X41547792Y-46995935D01*
X41545173Y-46956116D01*
X41542423Y-46932778D01*
X41532134Y-46871322D01*
X41343660Y-46872072D01*
X41343660Y-47082914D01*
X41338651Y-47174041D01*
X41333594Y-47231076D01*
X41324971Y-47275694D01*
X41311932Y-47312259D01*
X41311618Y-47312943D01*
X41279651Y-47361248D01*
X41232765Y-47404672D01*
X41176356Y-47438771D01*
X41142633Y-47452133D01*
X41113791Y-47459774D01*
X41080870Y-47464700D01*
X41038783Y-47467388D01*
X40982443Y-47468317D01*
X40970200Y-47468334D01*
X40915501Y-47467915D01*
X40875849Y-47466290D01*
X40845986Y-47462852D01*
X40820652Y-47456996D01*
X40794586Y-47448115D01*
X40794557Y-47448104D01*
X40734932Y-47416939D01*
X40685656Y-47373756D01*
X40650872Y-47322498D01*
X40643109Y-47304005D01*
X40633381Y-47264777D01*
X40627280Y-47214345D01*
X40625526Y-47172034D01*
X40624760Y-47087367D01*
X40984210Y-47085141D01*
X41343660Y-47082914D01*
X41343660Y-46872072D01*
X40432280Y-46875700D01*
X40423033Y-46913800D01*
X40420131Y-46933971D01*
X40417479Y-46967784D01*
X40415240Y-47011948D01*
X40413577Y-47063173D01*
X40412651Y-47118167D01*
X40412593Y-47125467D01*
X40412459Y-47188319D01*
X40413186Y-47237285D01*
G36*
X40679904Y-42601057D02*
X40691586Y-42649929D01*
X40700071Y-42673498D01*
X40708960Y-42684010D01*
X40721793Y-42685138D01*
X40725000Y-42684589D01*
X40745357Y-42680883D01*
X40778758Y-42675016D01*
X40818335Y-42668191D01*
X40822307Y-42667513D01*
X40858701Y-42661098D01*
X40886245Y-42655855D01*
X40899878Y-42652757D01*
X40900476Y-42652492D01*
X40899914Y-42643782D01*
X40895579Y-42624149D01*
X40892492Y-42612504D01*
X40887585Y-42586801D01*
X40884185Y-42553344D01*
X40882396Y-42516879D01*
X40882321Y-42482149D01*
X40884063Y-42453899D01*
X40887727Y-42436873D01*
X40888626Y-42435329D01*
X40901079Y-42432474D01*
X40933707Y-42430168D01*
X40986375Y-42428414D01*
X41058951Y-42427217D01*
X41151300Y-42426579D01*
X41219719Y-42426467D01*
X41544240Y-42426467D01*
X41544240Y-42223267D01*
X40733666Y-42223267D01*
X40711048Y-42293117D01*
X40682919Y-42403568D01*
X40672534Y-42506276D01*
X40679904Y-42601057D01*
X40679904Y-42601057D01*
G37*
X40679904Y-42601057D02*
X40691586Y-42649929D01*
X40700071Y-42673498D01*
X40708960Y-42684010D01*
X40721793Y-42685138D01*
X40725000Y-42684589D01*
X40745357Y-42680883D01*
X40778758Y-42675016D01*
X40818335Y-42668191D01*
X40822307Y-42667513D01*
X40858701Y-42661098D01*
X40886245Y-42655855D01*
X40899878Y-42652757D01*
X40900476Y-42652492D01*
X40899914Y-42643782D01*
X40895579Y-42624149D01*
X40892492Y-42612504D01*
X40887585Y-42586801D01*
X40884185Y-42553344D01*
X40882396Y-42516879D01*
X40882321Y-42482149D01*
X40884063Y-42453899D01*
X40887727Y-42436873D01*
X40888626Y-42435329D01*
X40901079Y-42432474D01*
X40933707Y-42430168D01*
X40986375Y-42428414D01*
X41058951Y-42427217D01*
X41151300Y-42426579D01*
X41219719Y-42426467D01*
X41544240Y-42426467D01*
X41544240Y-42223267D01*
X40733666Y-42223267D01*
X40711048Y-42293117D01*
X40682919Y-42403568D01*
X40672534Y-42506276D01*
X40679904Y-42601057D01*
G36*
X40289062Y-44400034D02*
X40302625Y-44402421D01*
X40327345Y-44404293D01*
X40364847Y-44405699D01*
X40416756Y-44406689D01*
X40484696Y-44407312D01*
X40570292Y-44407616D01*
X40634920Y-44407667D01*
X40717021Y-44407867D01*
X40792292Y-44408437D01*
X40858416Y-44409328D01*
X40913077Y-44410494D01*
X40953959Y-44411887D01*
X40978747Y-44413459D01*
X40985440Y-44414856D01*
X40978212Y-44422179D01*
X40958480Y-44438349D01*
X40929169Y-44461196D01*
X40893206Y-44488551D01*
X40853518Y-44518243D01*
X40813029Y-44548102D01*
X40774667Y-44575958D01*
X40741358Y-44599642D01*
X40716027Y-44616982D01*
X40701602Y-44625810D01*
X40700198Y-44626389D01*
X40696866Y-44635399D01*
X40694053Y-44658273D01*
X40691990Y-44691943D01*
X40690907Y-44733341D01*
X40690800Y-44751900D01*
X40690800Y-44874589D01*
X40810180Y-44785659D01*
X40857939Y-44749630D01*
X40906478Y-44712230D01*
X40950941Y-44677254D01*
X40986469Y-44648493D01*
X40994797Y-44641526D01*
X41060034Y-44586323D01*
X41120666Y-44633102D01*
X41188107Y-44682216D01*
X41265076Y-44733485D01*
X41344724Y-44782586D01*
X41420202Y-44825195D01*
X41447118Y-44839164D01*
X41483903Y-44857378D01*
X41513988Y-44871712D01*
X41533299Y-44880252D01*
X41538030Y-44881800D01*
X41540309Y-44873850D01*
X41542211Y-44852065D01*
X41543569Y-44819543D01*
X41544211Y-44779382D01*
X41544240Y-44768442D01*
X41544240Y-44655084D01*
X41429940Y-44591568D01*
X41382349Y-44563986D01*
X41333927Y-44533948D01*
X41287513Y-44503440D01*
X41245941Y-44474450D01*
X41212050Y-44448966D01*
X41188676Y-44428976D01*
X41178655Y-44416466D01*
X41178480Y-44415383D01*
X41188148Y-44412835D01*
X41215192Y-44410665D01*
X41256668Y-44409000D01*
X41309636Y-44407962D01*
X41361360Y-44407667D01*
X41544240Y-44407667D01*
X41544240Y-44212801D01*
X40320504Y-44217167D01*
X40303083Y-44301833D01*
X40295667Y-44338585D01*
X40289686Y-44369557D01*
X40285921Y-44390635D01*
X40285031Y-44397083D01*
X40289062Y-44400034D01*
X40289062Y-44400034D01*
G37*
X40289062Y-44400034D02*
X40302625Y-44402421D01*
X40327345Y-44404293D01*
X40364847Y-44405699D01*
X40416756Y-44406689D01*
X40484696Y-44407312D01*
X40570292Y-44407616D01*
X40634920Y-44407667D01*
X40717021Y-44407867D01*
X40792292Y-44408437D01*
X40858416Y-44409328D01*
X40913077Y-44410494D01*
X40953959Y-44411887D01*
X40978747Y-44413459D01*
X40985440Y-44414856D01*
X40978212Y-44422179D01*
X40958480Y-44438349D01*
X40929169Y-44461196D01*
X40893206Y-44488551D01*
X40853518Y-44518243D01*
X40813029Y-44548102D01*
X40774667Y-44575958D01*
X40741358Y-44599642D01*
X40716027Y-44616982D01*
X40701602Y-44625810D01*
X40700198Y-44626389D01*
X40696866Y-44635399D01*
X40694053Y-44658273D01*
X40691990Y-44691943D01*
X40690907Y-44733341D01*
X40690800Y-44751900D01*
X40690800Y-44874589D01*
X40810180Y-44785659D01*
X40857939Y-44749630D01*
X40906478Y-44712230D01*
X40950941Y-44677254D01*
X40986469Y-44648493D01*
X40994797Y-44641526D01*
X41060034Y-44586323D01*
X41120666Y-44633102D01*
X41188107Y-44682216D01*
X41265076Y-44733485D01*
X41344724Y-44782586D01*
X41420202Y-44825195D01*
X41447118Y-44839164D01*
X41483903Y-44857378D01*
X41513988Y-44871712D01*
X41533299Y-44880252D01*
X41538030Y-44881800D01*
X41540309Y-44873850D01*
X41542211Y-44852065D01*
X41543569Y-44819543D01*
X41544211Y-44779382D01*
X41544240Y-44768442D01*
X41544240Y-44655084D01*
X41429940Y-44591568D01*
X41382349Y-44563986D01*
X41333927Y-44533948D01*
X41287513Y-44503440D01*
X41245941Y-44474450D01*
X41212050Y-44448966D01*
X41188676Y-44428976D01*
X41178655Y-44416466D01*
X41178480Y-44415383D01*
X41188148Y-44412835D01*
X41215192Y-44410665D01*
X41256668Y-44409000D01*
X41309636Y-44407962D01*
X41361360Y-44407667D01*
X41544240Y-44407667D01*
X41544240Y-44212801D01*
X40320504Y-44217167D01*
X40303083Y-44301833D01*
X40295667Y-44338585D01*
X40289686Y-44369557D01*
X40285921Y-44390635D01*
X40285031Y-44397083D01*
X40289062Y-44400034D01*
G36*
X40709494Y-46205325D02*
X40737059Y-46245705D01*
X40766975Y-46275135D01*
X40790646Y-46291363D01*
X40816835Y-46306327D01*
X40842530Y-46318451D01*
X40870251Y-46328075D01*
X40902520Y-46335538D01*
X40941858Y-46341179D01*
X40990788Y-46345336D01*
X41051830Y-46348349D01*
X41127506Y-46350556D01*
X41220337Y-46352296D01*
X41247060Y-46352706D01*
X41544240Y-46357130D01*
X41544240Y-46151800D01*
X41301786Y-46151800D01*
X41205025Y-46151361D01*
X41126361Y-46149917D01*
X41063594Y-46147279D01*
X41014524Y-46143255D01*
X40976951Y-46137657D01*
X40948677Y-46130294D01*
X40927501Y-46120976D01*
X40924480Y-46119203D01*
X40896242Y-46091880D01*
X40879805Y-46053104D01*
X40876204Y-46005780D01*
X40878039Y-45988575D01*
X40885302Y-45940134D01*
X41544240Y-45940134D01*
X41544240Y-45736744D01*
X41130249Y-45738955D01*
X40716259Y-45741167D01*
X40697617Y-45808900D01*
X40688450Y-45850564D01*
X40682197Y-45899794D01*
X40678518Y-45960001D01*
X40677268Y-46012237D01*
X40675560Y-46147841D01*
X40709494Y-46205325D01*
X40709494Y-46205325D01*
G37*
X40709494Y-46205325D02*
X40737059Y-46245705D01*
X40766975Y-46275135D01*
X40790646Y-46291363D01*
X40816835Y-46306327D01*
X40842530Y-46318451D01*
X40870251Y-46328075D01*
X40902520Y-46335538D01*
X40941858Y-46341179D01*
X40990788Y-46345336D01*
X41051830Y-46348349D01*
X41127506Y-46350556D01*
X41220337Y-46352296D01*
X41247060Y-46352706D01*
X41544240Y-46357130D01*
X41544240Y-46151800D01*
X41301786Y-46151800D01*
X41205025Y-46151361D01*
X41126361Y-46149917D01*
X41063594Y-46147279D01*
X41014524Y-46143255D01*
X40976951Y-46137657D01*
X40948677Y-46130294D01*
X40927501Y-46120976D01*
X40924480Y-46119203D01*
X40896242Y-46091880D01*
X40879805Y-46053104D01*
X40876204Y-46005780D01*
X40878039Y-45988575D01*
X40885302Y-45940134D01*
X41544240Y-45940134D01*
X41544240Y-45736744D01*
X41130249Y-45738955D01*
X40716259Y-45741167D01*
X40697617Y-45808900D01*
X40688450Y-45850564D01*
X40682197Y-45899794D01*
X40678518Y-45960001D01*
X40677268Y-46012237D01*
X40675560Y-46147841D01*
X40709494Y-46205325D01*
G36*
X41544240Y-49504600D02*
X41544240Y-49301400D01*
X40690800Y-49301400D01*
X40690800Y-49504600D01*
X41544240Y-49504600D01*
X41544240Y-49504600D01*
G37*
X41544240Y-49504600D02*
X41544240Y-49301400D01*
X40690800Y-49301400D01*
X40690800Y-49504600D01*
X41544240Y-49504600D01*
G36*
X40709191Y-50971560D02*
X40738342Y-51013667D01*
X40771987Y-51045435D01*
X40815824Y-51071354D01*
X40858999Y-51089729D01*
X40873835Y-51095141D01*
X40888716Y-51099462D01*
X40906093Y-51102839D01*
X40928412Y-51105418D01*
X40958122Y-51107346D01*
X40997672Y-51108768D01*
X41049510Y-51109832D01*
X41116084Y-51110683D01*
X41199843Y-51111467D01*
X41226740Y-51111695D01*
X41544240Y-51114356D01*
X41544240Y-50918533D01*
X41333420Y-50918469D01*
X41220618Y-50917626D01*
X41127069Y-50915120D01*
X41051795Y-50910873D01*
X40993819Y-50904809D01*
X40952162Y-50896850D01*
X40925846Y-50886919D01*
X40924587Y-50886169D01*
X40898384Y-50860278D01*
X40881841Y-50822941D01*
X40876356Y-50778185D01*
X40878379Y-50753040D01*
X40885302Y-50706867D01*
X41544240Y-50706867D01*
X41544240Y-50503477D01*
X41130249Y-50505689D01*
X40716259Y-50507900D01*
X40697436Y-50575633D01*
X40688415Y-50615674D01*
X40682242Y-50662171D01*
X40678555Y-50718751D01*
X40677086Y-50778985D01*
X40675560Y-50914603D01*
X40709191Y-50971560D01*
X40709191Y-50971560D01*
G37*
X40709191Y-50971560D02*
X40738342Y-51013667D01*
X40771987Y-51045435D01*
X40815824Y-51071354D01*
X40858999Y-51089729D01*
X40873835Y-51095141D01*
X40888716Y-51099462D01*
X40906093Y-51102839D01*
X40928412Y-51105418D01*
X40958122Y-51107346D01*
X40997672Y-51108768D01*
X41049510Y-51109832D01*
X41116084Y-51110683D01*
X41199843Y-51111467D01*
X41226740Y-51111695D01*
X41544240Y-51114356D01*
X41544240Y-50918533D01*
X41333420Y-50918469D01*
X41220618Y-50917626D01*
X41127069Y-50915120D01*
X41051795Y-50910873D01*
X40993819Y-50904809D01*
X40952162Y-50896850D01*
X40925846Y-50886919D01*
X40924587Y-50886169D01*
X40898384Y-50860278D01*
X40881841Y-50822941D01*
X40876356Y-50778185D01*
X40878379Y-50753040D01*
X40885302Y-50706867D01*
X41544240Y-50706867D01*
X41544240Y-50503477D01*
X41130249Y-50505689D01*
X40716259Y-50507900D01*
X40697436Y-50575633D01*
X40688415Y-50615674D01*
X40682242Y-50662171D01*
X40678555Y-50718751D01*
X40677086Y-50778985D01*
X40675560Y-50914603D01*
X40709191Y-50971560D01*
G36*
X40315343Y-49461237D02*
X40325118Y-49476159D01*
X40354777Y-49501005D01*
X40396222Y-49516948D01*
X40443237Y-49522941D01*
X40489607Y-49517934D01*
X40516242Y-49508391D01*
X40553067Y-49481065D01*
X40575633Y-49444545D01*
X40582269Y-49402929D01*
X40574076Y-49366456D01*
X40552727Y-49329282D01*
X40523190Y-49305131D01*
X40486925Y-49291765D01*
X40435158Y-49286303D01*
X40388720Y-49295012D01*
X40349866Y-49315323D01*
X40320848Y-49344669D01*
X40303919Y-49380482D01*
X40301333Y-49420194D01*
X40315343Y-49461237D01*
X40315343Y-49461237D01*
G37*
X40315343Y-49461237D02*
X40325118Y-49476159D01*
X40354777Y-49501005D01*
X40396222Y-49516948D01*
X40443237Y-49522941D01*
X40489607Y-49517934D01*
X40516242Y-49508391D01*
X40553067Y-49481065D01*
X40575633Y-49444545D01*
X40582269Y-49402929D01*
X40574076Y-49366456D01*
X40552727Y-49329282D01*
X40523190Y-49305131D01*
X40486925Y-49291765D01*
X40435158Y-49286303D01*
X40388720Y-49295012D01*
X40349866Y-49315323D01*
X40320848Y-49344669D01*
X40303919Y-49380482D01*
X40301333Y-49420194D01*
X40315343Y-49461237D01*
G04 #@! TD*
M02*
