G04 #@! TF.GenerationSoftware,KiCad,Pcbnew,5.0.2-bee76a0~70~ubuntu18.10.1*
G04 #@! TF.CreationDate,2019-03-17T01:28:34+01:00*
G04 #@! TF.ProjectId,27c160 Kickstart,32376331-3630-4204-9b69-636b73746172,rev?*
G04 #@! TF.SameCoordinates,Original*
G04 #@! TF.FileFunction,Legend,Top*
G04 #@! TF.FilePolarity,Positive*
%FSLAX46Y46*%
G04 Gerber Fmt 4.6, Leading zero omitted, Abs format (unit mm)*
G04 Created by KiCad (PCBNEW 5.0.2-bee76a0~70~ubuntu18.10.1) date dom 17 mar 2019 01:28:34 CET*
%MOMM*%
%LPD*%
G01*
G04 APERTURE LIST*
%ADD10C,0.150000*%
%ADD11C,0.120000*%
G04 APERTURE END LIST*
D10*
X33559714Y-70619880D02*
X32988285Y-70619880D01*
X33274000Y-70619880D02*
X33274000Y-69619880D01*
X33178761Y-69762738D01*
X33083523Y-69857976D01*
X32988285Y-69905595D01*
X38306380Y-69619880D02*
X38401619Y-69619880D01*
X38496857Y-69667500D01*
X38544476Y-69715119D01*
X38592095Y-69810357D01*
X38639714Y-70000833D01*
X38639714Y-70238928D01*
X38592095Y-70429404D01*
X38544476Y-70524642D01*
X38496857Y-70572261D01*
X38401619Y-70619880D01*
X38306380Y-70619880D01*
X38211142Y-70572261D01*
X38163523Y-70524642D01*
X38115904Y-70429404D01*
X38068285Y-70238928D01*
X38068285Y-70000833D01*
X38115904Y-69810357D01*
X38163523Y-69715119D01*
X38211142Y-69667500D01*
X38306380Y-69619880D01*
X23094914Y-70607180D02*
X22523485Y-70607180D01*
X22809200Y-70607180D02*
X22809200Y-69607180D01*
X22713961Y-69750038D01*
X22618723Y-69845276D01*
X22523485Y-69892895D01*
X17681580Y-69607180D02*
X17776819Y-69607180D01*
X17872057Y-69654800D01*
X17919676Y-69702419D01*
X17967295Y-69797657D01*
X18014914Y-69988133D01*
X18014914Y-70226228D01*
X17967295Y-70416704D01*
X17919676Y-70511942D01*
X17872057Y-70559561D01*
X17776819Y-70607180D01*
X17681580Y-70607180D01*
X17586342Y-70559561D01*
X17538723Y-70511942D01*
X17491104Y-70416704D01*
X17443485Y-70226228D01*
X17443485Y-69988133D01*
X17491104Y-69797657D01*
X17538723Y-69702419D01*
X17586342Y-69654800D01*
X17681580Y-69607180D01*
X34623523Y-70321466D02*
X35099714Y-70321466D01*
X34528285Y-70607180D02*
X34861619Y-69607180D01*
X35194952Y-70607180D01*
X36052095Y-70607180D02*
X35480666Y-70607180D01*
X35766380Y-70607180D02*
X35766380Y-69607180D01*
X35671142Y-69750038D01*
X35575904Y-69845276D01*
X35480666Y-69892895D01*
X36528285Y-70607180D02*
X36718761Y-70607180D01*
X36814000Y-70559561D01*
X36861619Y-70511942D01*
X36956857Y-70369085D01*
X37004476Y-70178609D01*
X37004476Y-69797657D01*
X36956857Y-69702419D01*
X36909238Y-69654800D01*
X36814000Y-69607180D01*
X36623523Y-69607180D01*
X36528285Y-69654800D01*
X36480666Y-69702419D01*
X36433047Y-69797657D01*
X36433047Y-70035752D01*
X36480666Y-70130990D01*
X36528285Y-70178609D01*
X36623523Y-70226228D01*
X36814000Y-70226228D01*
X36909238Y-70178609D01*
X36956857Y-70130990D01*
X37004476Y-70035752D01*
X19078723Y-70321466D02*
X19554914Y-70321466D01*
X18983485Y-70607180D02*
X19316819Y-69607180D01*
X19650152Y-70607180D01*
X20507295Y-70607180D02*
X19935866Y-70607180D01*
X20221580Y-70607180D02*
X20221580Y-69607180D01*
X20126342Y-69750038D01*
X20031104Y-69845276D01*
X19935866Y-69892895D01*
X21078723Y-70035752D02*
X20983485Y-69988133D01*
X20935866Y-69940514D01*
X20888247Y-69845276D01*
X20888247Y-69797657D01*
X20935866Y-69702419D01*
X20983485Y-69654800D01*
X21078723Y-69607180D01*
X21269200Y-69607180D01*
X21364438Y-69654800D01*
X21412057Y-69702419D01*
X21459676Y-69797657D01*
X21459676Y-69845276D01*
X21412057Y-69940514D01*
X21364438Y-69988133D01*
X21269200Y-70035752D01*
X21078723Y-70035752D01*
X20983485Y-70083371D01*
X20935866Y-70130990D01*
X20888247Y-70226228D01*
X20888247Y-70416704D01*
X20935866Y-70511942D01*
X20983485Y-70559561D01*
X21078723Y-70607180D01*
X21269200Y-70607180D01*
X21364438Y-70559561D01*
X21412057Y-70511942D01*
X21459676Y-70416704D01*
X21459676Y-70226228D01*
X21412057Y-70130990D01*
X21364438Y-70083371D01*
X21269200Y-70035752D01*
D11*
G04 #@! TO.C,U1*
X25942800Y-15738800D02*
G75*
G02X23942800Y-15738800I-1000000J0D01*
G01*
X23942800Y-15738800D02*
X18882800Y-15738800D01*
X18882800Y-15738800D02*
X18882800Y-66658800D01*
X18882800Y-66658800D02*
X31002800Y-66658800D01*
X31002800Y-66658800D02*
X31002800Y-15738800D01*
X31002800Y-15738800D02*
X25942800Y-15738800D01*
X15882800Y-15678800D02*
X15882800Y-66718800D01*
X15882800Y-66718800D02*
X34002800Y-66718800D01*
X34002800Y-66718800D02*
X34002800Y-15678800D01*
X34002800Y-15678800D02*
X15882800Y-15678800D01*
G04 #@! TO.C,U2*
X32140400Y-15738800D02*
G75*
G02X30140400Y-15738800I-1000000J0D01*
G01*
X30140400Y-15738800D02*
X25080400Y-15738800D01*
X25080400Y-15738800D02*
X25080400Y-69198800D01*
X25080400Y-69198800D02*
X37200400Y-69198800D01*
X37200400Y-69198800D02*
X37200400Y-15738800D01*
X37200400Y-15738800D02*
X32140400Y-15738800D01*
G04 #@! TO.C,SW2*
X31944000Y-73821600D02*
X31944000Y-72491600D01*
X33274000Y-73821600D02*
X31944000Y-73821600D01*
X34544000Y-73821600D02*
X34544000Y-71161600D01*
X34544000Y-71161600D02*
X39684000Y-71161600D01*
X34544000Y-73821600D02*
X39684000Y-73821600D01*
X39684000Y-73821600D02*
X39684000Y-71161600D01*
G04 #@! TO.C,SW1*
X16399200Y-71161600D02*
X16399200Y-73821600D01*
X21539200Y-71161600D02*
X16399200Y-71161600D01*
X21539200Y-73821600D02*
X16399200Y-73821600D01*
X21539200Y-71161600D02*
X21539200Y-73821600D01*
X22809200Y-71161600D02*
X24139200Y-71161600D01*
X24139200Y-71161600D02*
X24139200Y-72491600D01*
G04 #@! TO.C,R2*
D10*
X29957733Y-71318380D02*
X29624400Y-70842190D01*
X29386304Y-71318380D02*
X29386304Y-70318380D01*
X29767257Y-70318380D01*
X29862495Y-70366000D01*
X29910114Y-70413619D01*
X29957733Y-70508857D01*
X29957733Y-70651714D01*
X29910114Y-70746952D01*
X29862495Y-70794571D01*
X29767257Y-70842190D01*
X29386304Y-70842190D01*
X30338685Y-70413619D02*
X30386304Y-70366000D01*
X30481542Y-70318380D01*
X30719638Y-70318380D01*
X30814876Y-70366000D01*
X30862495Y-70413619D01*
X30910114Y-70508857D01*
X30910114Y-70604095D01*
X30862495Y-70746952D01*
X30291066Y-71318380D01*
X30910114Y-71318380D01*
G04 #@! TO.C,R1*
X25842933Y-71267580D02*
X25509600Y-70791390D01*
X25271504Y-71267580D02*
X25271504Y-70267580D01*
X25652457Y-70267580D01*
X25747695Y-70315200D01*
X25795314Y-70362819D01*
X25842933Y-70458057D01*
X25842933Y-70600914D01*
X25795314Y-70696152D01*
X25747695Y-70743771D01*
X25652457Y-70791390D01*
X25271504Y-70791390D01*
X26795314Y-71267580D02*
X26223885Y-71267580D01*
X26509600Y-71267580D02*
X26509600Y-70267580D01*
X26414361Y-70410438D01*
X26319123Y-70505676D01*
X26223885Y-70553295D01*
G04 #@! TD*
M02*
