G04 #@! TF.GenerationSoftware,KiCad,Pcbnew,5.0.2-bee76a0~70~ubuntu18.10.1*
G04 #@! TF.CreationDate,2019-03-17T01:28:34+01:00*
G04 #@! TF.ProjectId,27c160 Kickstart,32376331-3630-4204-9b69-636b73746172,rev?*
G04 #@! TF.SameCoordinates,Original*
G04 #@! TF.FileFunction,Legend,Bot*
G04 #@! TF.FilePolarity,Positive*
%FSLAX46Y46*%
G04 Gerber Fmt 4.6, Leading zero omitted, Abs format (unit mm)*
G04 Created by KiCad (PCBNEW 5.0.2-bee76a0~70~ubuntu18.10.1) date dom 17 mar 2019 01:28:34 CET*
%MOMM*%
%LPD*%
G01*
G04 APERTURE LIST*
%ADD10C,0.010000*%
G04 APERTURE END LIST*
D10*
G04 #@! TO.C,G\002A\002A\002A*
G36*
X30574081Y-66797768D02*
X30302755Y-66797772D01*
X30043567Y-66797780D01*
X29796235Y-66797792D01*
X29560478Y-66797810D01*
X29336015Y-66797835D01*
X29122564Y-66797868D01*
X28919845Y-66797909D01*
X28727575Y-66797960D01*
X28545474Y-66798021D01*
X28373261Y-66798094D01*
X28210655Y-66798179D01*
X28057373Y-66798278D01*
X27913135Y-66798392D01*
X27777659Y-66798521D01*
X27650665Y-66798666D01*
X27531871Y-66798829D01*
X27420996Y-66799010D01*
X27317758Y-66799211D01*
X27221876Y-66799431D01*
X27133070Y-66799673D01*
X27051057Y-66799938D01*
X26975557Y-66800225D01*
X26906288Y-66800537D01*
X26842970Y-66800874D01*
X26785320Y-66801237D01*
X26733058Y-66801627D01*
X26685902Y-66802045D01*
X26643571Y-66802492D01*
X26605784Y-66802970D01*
X26572259Y-66803478D01*
X26542716Y-66804018D01*
X26516873Y-66804591D01*
X26494449Y-66805198D01*
X26475162Y-66805840D01*
X26458732Y-66806518D01*
X26444877Y-66807233D01*
X26433315Y-66807985D01*
X26423767Y-66808777D01*
X26415949Y-66809608D01*
X26409582Y-66810479D01*
X26404384Y-66811393D01*
X26400073Y-66812349D01*
X26396950Y-66813180D01*
X26296366Y-66850108D01*
X26202415Y-66901177D01*
X26115632Y-66965676D01*
X26036548Y-67042895D01*
X25965696Y-67132125D01*
X25903609Y-67232655D01*
X25850819Y-67343774D01*
X25807859Y-67464773D01*
X25775262Y-67594941D01*
X25763986Y-67657134D01*
X25762337Y-67668130D01*
X25760852Y-67680129D01*
X25759522Y-67694026D01*
X25758340Y-67710716D01*
X25757296Y-67731097D01*
X25756382Y-67756063D01*
X25755589Y-67786511D01*
X25754909Y-67823336D01*
X25754333Y-67867435D01*
X25753853Y-67919704D01*
X25753460Y-67981038D01*
X25753146Y-68052334D01*
X25752901Y-68134487D01*
X25752718Y-68228393D01*
X25752588Y-68334949D01*
X25752503Y-68455050D01*
X25752453Y-68589592D01*
X25752430Y-68739471D01*
X25752425Y-68867867D01*
X25752433Y-69030357D01*
X25752461Y-69176809D01*
X25752518Y-69308120D01*
X25752613Y-69425186D01*
X25752754Y-69528902D01*
X25752949Y-69620164D01*
X25753208Y-69699869D01*
X25753539Y-69768912D01*
X25753950Y-69828190D01*
X25754451Y-69878597D01*
X25755048Y-69921031D01*
X25755752Y-69956387D01*
X25756571Y-69985561D01*
X25757513Y-70009449D01*
X25758586Y-70028947D01*
X25759800Y-70044951D01*
X25761163Y-70058356D01*
X25762683Y-70070060D01*
X25763986Y-70078600D01*
X25791676Y-70213110D01*
X25830056Y-70338717D01*
X25879007Y-70455124D01*
X25938411Y-70562037D01*
X25984372Y-70628705D01*
X26057490Y-70715102D01*
X26137495Y-70788229D01*
X26225047Y-70848562D01*
X26320802Y-70896577D01*
X26390600Y-70922326D01*
X26394002Y-70923312D01*
X26398118Y-70924255D01*
X26403230Y-70925156D01*
X26409618Y-70926016D01*
X26417563Y-70926836D01*
X26427347Y-70927618D01*
X26439250Y-70928362D01*
X26453553Y-70929070D01*
X26470539Y-70929742D01*
X26490486Y-70930379D01*
X26513678Y-70930984D01*
X26540394Y-70931556D01*
X26570915Y-70932096D01*
X26605523Y-70932607D01*
X26644499Y-70933088D01*
X26688124Y-70933541D01*
X26736678Y-70933967D01*
X26790443Y-70934367D01*
X26849700Y-70934743D01*
X26914730Y-70935094D01*
X26985814Y-70935423D01*
X27063232Y-70935730D01*
X27147267Y-70936016D01*
X27238198Y-70936282D01*
X27336307Y-70936530D01*
X27441875Y-70936761D01*
X27555184Y-70936975D01*
X27676513Y-70937174D01*
X27806145Y-70937358D01*
X27944359Y-70937530D01*
X28091438Y-70937689D01*
X28247662Y-70937837D01*
X28413312Y-70937975D01*
X28588669Y-70938103D01*
X28774014Y-70938224D01*
X28969629Y-70938338D01*
X29175794Y-70938447D01*
X29392790Y-70938550D01*
X29620899Y-70938650D01*
X29860401Y-70938747D01*
X30111578Y-70938842D01*
X30374709Y-70938937D01*
X30650078Y-70939033D01*
X30835600Y-70939096D01*
X31128048Y-70939189D01*
X31408042Y-70939267D01*
X31675832Y-70939330D01*
X31931663Y-70939378D01*
X32175784Y-70939409D01*
X32408442Y-70939423D01*
X32629885Y-70939420D01*
X32840359Y-70939399D01*
X33040112Y-70939359D01*
X33229391Y-70939301D01*
X33408445Y-70939223D01*
X33577519Y-70939125D01*
X33736862Y-70939007D01*
X33886722Y-70938868D01*
X34027344Y-70938707D01*
X34158977Y-70938525D01*
X34281869Y-70938319D01*
X34396266Y-70938091D01*
X34502416Y-70937839D01*
X34600566Y-70937563D01*
X34690964Y-70937262D01*
X34773857Y-70936936D01*
X34849492Y-70936585D01*
X34918117Y-70936207D01*
X34979980Y-70935802D01*
X35035326Y-70935371D01*
X35084405Y-70934911D01*
X35127464Y-70934423D01*
X35164749Y-70933907D01*
X35196508Y-70933361D01*
X35222988Y-70932785D01*
X35244438Y-70932179D01*
X35261104Y-70931542D01*
X35273233Y-70930874D01*
X35281074Y-70930174D01*
X35283775Y-70929748D01*
X35383108Y-70900402D01*
X35477200Y-70856264D01*
X35565312Y-70798161D01*
X35646705Y-70726919D01*
X35720641Y-70643366D01*
X35786380Y-70548329D01*
X35843184Y-70442635D01*
X35890314Y-70327111D01*
X35924624Y-70212342D01*
X35929984Y-70191220D01*
X35934824Y-70172159D01*
X35939172Y-70154240D01*
X35943053Y-70136543D01*
X35946494Y-70118149D01*
X35949521Y-70098139D01*
X35952161Y-70075593D01*
X35954440Y-70049592D01*
X35956384Y-70019216D01*
X35958020Y-69983547D01*
X35959375Y-69941664D01*
X35960474Y-69892649D01*
X35961344Y-69835582D01*
X35962012Y-69769544D01*
X35962503Y-69693615D01*
X35962845Y-69606876D01*
X35963063Y-69508408D01*
X35963184Y-69397292D01*
X35963235Y-69272607D01*
X35963241Y-69133435D01*
X35963230Y-68978856D01*
X35963227Y-68906736D01*
X35913398Y-68906736D01*
X35913314Y-69031806D01*
X35913125Y-69155256D01*
X35912832Y-69275850D01*
X35912434Y-69392350D01*
X35911932Y-69503519D01*
X35911325Y-69608121D01*
X35910614Y-69704919D01*
X35909799Y-69792676D01*
X35908879Y-69870155D01*
X35907855Y-69936120D01*
X35906727Y-69989333D01*
X35905494Y-70028558D01*
X35904157Y-70052557D01*
X35903621Y-70057434D01*
X35878631Y-70185302D01*
X35842910Y-70304217D01*
X35796270Y-70414663D01*
X35738523Y-70517124D01*
X35709295Y-70560155D01*
X35636172Y-70650992D01*
X35558193Y-70726235D01*
X35475041Y-70786103D01*
X35386399Y-70830817D01*
X35291952Y-70860598D01*
X35270948Y-70865053D01*
X35262509Y-70865465D01*
X35241673Y-70865865D01*
X35208739Y-70866255D01*
X35164010Y-70866632D01*
X35107787Y-70866998D01*
X35040371Y-70867352D01*
X34962065Y-70867692D01*
X34873169Y-70868020D01*
X34773985Y-70868333D01*
X34664815Y-70868633D01*
X34545960Y-70868918D01*
X34417722Y-70869189D01*
X34280402Y-70869444D01*
X34134301Y-70869684D01*
X33979722Y-70869907D01*
X33816966Y-70870114D01*
X33646333Y-70870304D01*
X33468127Y-70870477D01*
X33282647Y-70870632D01*
X33090197Y-70870769D01*
X32891077Y-70870888D01*
X32685588Y-70870987D01*
X32474033Y-70871067D01*
X32256713Y-70871128D01*
X32033929Y-70871168D01*
X31805982Y-70871188D01*
X31573176Y-70871187D01*
X31335810Y-70871164D01*
X31094186Y-70871120D01*
X30848607Y-70871053D01*
X30835600Y-70871049D01*
X30551773Y-70870957D01*
X30280365Y-70870865D01*
X30021098Y-70870773D01*
X29773692Y-70870678D01*
X29537866Y-70870581D01*
X29313342Y-70870479D01*
X29099840Y-70870373D01*
X28897079Y-70870261D01*
X28704780Y-70870142D01*
X28522664Y-70870016D01*
X28350450Y-70869880D01*
X28187858Y-70869734D01*
X28034610Y-70869578D01*
X27890425Y-70869410D01*
X27755024Y-70869229D01*
X27628126Y-70869034D01*
X27509453Y-70868824D01*
X27398723Y-70868598D01*
X27295658Y-70868355D01*
X27199978Y-70868094D01*
X27111403Y-70867815D01*
X27029654Y-70867515D01*
X26954449Y-70867195D01*
X26885511Y-70866853D01*
X26822559Y-70866488D01*
X26765312Y-70866098D01*
X26713493Y-70865684D01*
X26666820Y-70865244D01*
X26625014Y-70864777D01*
X26587796Y-70864283D01*
X26554885Y-70863759D01*
X26526002Y-70863205D01*
X26500867Y-70862620D01*
X26479200Y-70862004D01*
X26460722Y-70861354D01*
X26445152Y-70860671D01*
X26432212Y-70859952D01*
X26421621Y-70859198D01*
X26413099Y-70858406D01*
X26406368Y-70857577D01*
X26401146Y-70856708D01*
X26397155Y-70855800D01*
X26394892Y-70855123D01*
X26311741Y-70822961D01*
X26238273Y-70784750D01*
X26171848Y-70738534D01*
X26109823Y-70682354D01*
X26049559Y-70614254D01*
X26021907Y-70578658D01*
X25964023Y-70494680D01*
X25916930Y-70410626D01*
X25878981Y-70323002D01*
X25848529Y-70228315D01*
X25838655Y-70190067D01*
X25833707Y-70169884D01*
X25829241Y-70151522D01*
X25825234Y-70134057D01*
X25821660Y-70116565D01*
X25818495Y-70098123D01*
X25815713Y-70077808D01*
X25813290Y-70054696D01*
X25811202Y-70027864D01*
X25809424Y-69996389D01*
X25807930Y-69959346D01*
X25806697Y-69915813D01*
X25805699Y-69864866D01*
X25804911Y-69805582D01*
X25804309Y-69737036D01*
X25803869Y-69658307D01*
X25803565Y-69568470D01*
X25803373Y-69466602D01*
X25803267Y-69351780D01*
X25803224Y-69223079D01*
X25803218Y-69079577D01*
X25803225Y-68920351D01*
X25803225Y-68867867D01*
X25803220Y-68703599D01*
X25803219Y-68555340D01*
X25803248Y-68422168D01*
X25803332Y-68303159D01*
X25803495Y-68197390D01*
X25803762Y-68103937D01*
X25804157Y-68021876D01*
X25804707Y-67950285D01*
X25805434Y-67888240D01*
X25806365Y-67834817D01*
X25807523Y-67789093D01*
X25808933Y-67750145D01*
X25810621Y-67717049D01*
X25812611Y-67688882D01*
X25814928Y-67664720D01*
X25817596Y-67643640D01*
X25820640Y-67624719D01*
X25824085Y-67607032D01*
X25827956Y-67589657D01*
X25832278Y-67571671D01*
X25837074Y-67552149D01*
X25838655Y-67545667D01*
X25866709Y-67447411D01*
X25901639Y-67357534D01*
X25945091Y-67272545D01*
X25998713Y-67188948D01*
X26021907Y-67157075D01*
X26093004Y-67071664D01*
X26166943Y-67001921D01*
X26245392Y-66946650D01*
X26330018Y-66904660D01*
X26412825Y-66877240D01*
X26422231Y-66876429D01*
X26443939Y-66875643D01*
X26477555Y-66874883D01*
X26522682Y-66874148D01*
X26578923Y-66873440D01*
X26645882Y-66872757D01*
X26723162Y-66872100D01*
X26810368Y-66871468D01*
X26907102Y-66870863D01*
X27012969Y-66870283D01*
X27127571Y-66869729D01*
X27250513Y-66869200D01*
X27381397Y-66868698D01*
X27519829Y-66868221D01*
X27665410Y-66867769D01*
X27817745Y-66867344D01*
X27976438Y-66866944D01*
X28141092Y-66866570D01*
X28311310Y-66866222D01*
X28486696Y-66865899D01*
X28666854Y-66865602D01*
X28851387Y-66865331D01*
X29039899Y-66865085D01*
X29231994Y-66864866D01*
X29427275Y-66864672D01*
X29625345Y-66864504D01*
X29825808Y-66864361D01*
X30028268Y-66864244D01*
X30232329Y-66864153D01*
X30437594Y-66864088D01*
X30643666Y-66864049D01*
X30850149Y-66864035D01*
X31056647Y-66864047D01*
X31262764Y-66864084D01*
X31468102Y-66864148D01*
X31672266Y-66864237D01*
X31874859Y-66864352D01*
X32075484Y-66864492D01*
X32273746Y-66864658D01*
X32469247Y-66864850D01*
X32661592Y-66865068D01*
X32850384Y-66865312D01*
X33035227Y-66865581D01*
X33215724Y-66865876D01*
X33391478Y-66866197D01*
X33562094Y-66866543D01*
X33727175Y-66866915D01*
X33886324Y-66867313D01*
X34039146Y-66867737D01*
X34185243Y-66868186D01*
X34324219Y-66868661D01*
X34455679Y-66869162D01*
X34579224Y-66869689D01*
X34694460Y-66870241D01*
X34800989Y-66870819D01*
X34898416Y-66871423D01*
X34986343Y-66872052D01*
X35064375Y-66872707D01*
X35132115Y-66873388D01*
X35189166Y-66874095D01*
X35235133Y-66874827D01*
X35269618Y-66875585D01*
X35292225Y-66876369D01*
X35302558Y-66877179D01*
X35302825Y-66877240D01*
X35394435Y-66908301D01*
X35478368Y-66951568D01*
X35556290Y-67008234D01*
X35629869Y-67079493D01*
X35693744Y-67157075D01*
X35757802Y-67251871D01*
X35810110Y-67350457D01*
X35851563Y-67455055D01*
X35883056Y-67567890D01*
X35903621Y-67678300D01*
X35904998Y-67696180D01*
X35906270Y-67729756D01*
X35907438Y-67777791D01*
X35908502Y-67839048D01*
X35909461Y-67912290D01*
X35910316Y-67996282D01*
X35911067Y-68089784D01*
X35911713Y-68191562D01*
X35912255Y-68300378D01*
X35912692Y-68414994D01*
X35913025Y-68534176D01*
X35913254Y-68656684D01*
X35913378Y-68781283D01*
X35913398Y-68906736D01*
X35963227Y-68906736D01*
X35963225Y-68867867D01*
X35963218Y-68705377D01*
X35963190Y-68558924D01*
X35963133Y-68427613D01*
X35963038Y-68310548D01*
X35962897Y-68206832D01*
X35962702Y-68115569D01*
X35962443Y-68035864D01*
X35962112Y-67966821D01*
X35961701Y-67907544D01*
X35961200Y-67857136D01*
X35960603Y-67814702D01*
X35959899Y-67779346D01*
X35959080Y-67750173D01*
X35958138Y-67726285D01*
X35957065Y-67706787D01*
X35955851Y-67690783D01*
X35954488Y-67677377D01*
X35952968Y-67665674D01*
X35951665Y-67657134D01*
X35923970Y-67523021D01*
X35885668Y-67397753D01*
X35837294Y-67282042D01*
X35779379Y-67176596D01*
X35712457Y-67082127D01*
X35637060Y-66999344D01*
X35553720Y-66928958D01*
X35462971Y-66871678D01*
X35365345Y-66828216D01*
X35318700Y-66813180D01*
X35314915Y-66812188D01*
X35310477Y-66811239D01*
X35305105Y-66810333D01*
X35298518Y-66809468D01*
X35290434Y-66808643D01*
X35280573Y-66807859D01*
X35268652Y-66807112D01*
X35254391Y-66806404D01*
X35237508Y-66805732D01*
X35217723Y-66805096D01*
X35194754Y-66804494D01*
X35168319Y-66803927D01*
X35138138Y-66803392D01*
X35103929Y-66802889D01*
X35065411Y-66802416D01*
X35022303Y-66801974D01*
X34974323Y-66801561D01*
X34921190Y-66801175D01*
X34862624Y-66800816D01*
X34798342Y-66800484D01*
X34728063Y-66800176D01*
X34651507Y-66799892D01*
X34568392Y-66799632D01*
X34478437Y-66799393D01*
X34381360Y-66799176D01*
X34276880Y-66798979D01*
X34164717Y-66798801D01*
X34044588Y-66798641D01*
X33916213Y-66798499D01*
X33779310Y-66798372D01*
X33633597Y-66798261D01*
X33478795Y-66798164D01*
X33314621Y-66798081D01*
X33140795Y-66798010D01*
X32957034Y-66797950D01*
X32763059Y-66797901D01*
X32558587Y-66797862D01*
X32343337Y-66797830D01*
X32117028Y-66797807D01*
X31879379Y-66797790D01*
X31630109Y-66797778D01*
X31368935Y-66797771D01*
X31095578Y-66797768D01*
X30857825Y-66797767D01*
X30574081Y-66797768D01*
X30574081Y-66797768D01*
G37*
X30574081Y-66797768D02*
X30302755Y-66797772D01*
X30043567Y-66797780D01*
X29796235Y-66797792D01*
X29560478Y-66797810D01*
X29336015Y-66797835D01*
X29122564Y-66797868D01*
X28919845Y-66797909D01*
X28727575Y-66797960D01*
X28545474Y-66798021D01*
X28373261Y-66798094D01*
X28210655Y-66798179D01*
X28057373Y-66798278D01*
X27913135Y-66798392D01*
X27777659Y-66798521D01*
X27650665Y-66798666D01*
X27531871Y-66798829D01*
X27420996Y-66799010D01*
X27317758Y-66799211D01*
X27221876Y-66799431D01*
X27133070Y-66799673D01*
X27051057Y-66799938D01*
X26975557Y-66800225D01*
X26906288Y-66800537D01*
X26842970Y-66800874D01*
X26785320Y-66801237D01*
X26733058Y-66801627D01*
X26685902Y-66802045D01*
X26643571Y-66802492D01*
X26605784Y-66802970D01*
X26572259Y-66803478D01*
X26542716Y-66804018D01*
X26516873Y-66804591D01*
X26494449Y-66805198D01*
X26475162Y-66805840D01*
X26458732Y-66806518D01*
X26444877Y-66807233D01*
X26433315Y-66807985D01*
X26423767Y-66808777D01*
X26415949Y-66809608D01*
X26409582Y-66810479D01*
X26404384Y-66811393D01*
X26400073Y-66812349D01*
X26396950Y-66813180D01*
X26296366Y-66850108D01*
X26202415Y-66901177D01*
X26115632Y-66965676D01*
X26036548Y-67042895D01*
X25965696Y-67132125D01*
X25903609Y-67232655D01*
X25850819Y-67343774D01*
X25807859Y-67464773D01*
X25775262Y-67594941D01*
X25763986Y-67657134D01*
X25762337Y-67668130D01*
X25760852Y-67680129D01*
X25759522Y-67694026D01*
X25758340Y-67710716D01*
X25757296Y-67731097D01*
X25756382Y-67756063D01*
X25755589Y-67786511D01*
X25754909Y-67823336D01*
X25754333Y-67867435D01*
X25753853Y-67919704D01*
X25753460Y-67981038D01*
X25753146Y-68052334D01*
X25752901Y-68134487D01*
X25752718Y-68228393D01*
X25752588Y-68334949D01*
X25752503Y-68455050D01*
X25752453Y-68589592D01*
X25752430Y-68739471D01*
X25752425Y-68867867D01*
X25752433Y-69030357D01*
X25752461Y-69176809D01*
X25752518Y-69308120D01*
X25752613Y-69425186D01*
X25752754Y-69528902D01*
X25752949Y-69620164D01*
X25753208Y-69699869D01*
X25753539Y-69768912D01*
X25753950Y-69828190D01*
X25754451Y-69878597D01*
X25755048Y-69921031D01*
X25755752Y-69956387D01*
X25756571Y-69985561D01*
X25757513Y-70009449D01*
X25758586Y-70028947D01*
X25759800Y-70044951D01*
X25761163Y-70058356D01*
X25762683Y-70070060D01*
X25763986Y-70078600D01*
X25791676Y-70213110D01*
X25830056Y-70338717D01*
X25879007Y-70455124D01*
X25938411Y-70562037D01*
X25984372Y-70628705D01*
X26057490Y-70715102D01*
X26137495Y-70788229D01*
X26225047Y-70848562D01*
X26320802Y-70896577D01*
X26390600Y-70922326D01*
X26394002Y-70923312D01*
X26398118Y-70924255D01*
X26403230Y-70925156D01*
X26409618Y-70926016D01*
X26417563Y-70926836D01*
X26427347Y-70927618D01*
X26439250Y-70928362D01*
X26453553Y-70929070D01*
X26470539Y-70929742D01*
X26490486Y-70930379D01*
X26513678Y-70930984D01*
X26540394Y-70931556D01*
X26570915Y-70932096D01*
X26605523Y-70932607D01*
X26644499Y-70933088D01*
X26688124Y-70933541D01*
X26736678Y-70933967D01*
X26790443Y-70934367D01*
X26849700Y-70934743D01*
X26914730Y-70935094D01*
X26985814Y-70935423D01*
X27063232Y-70935730D01*
X27147267Y-70936016D01*
X27238198Y-70936282D01*
X27336307Y-70936530D01*
X27441875Y-70936761D01*
X27555184Y-70936975D01*
X27676513Y-70937174D01*
X27806145Y-70937358D01*
X27944359Y-70937530D01*
X28091438Y-70937689D01*
X28247662Y-70937837D01*
X28413312Y-70937975D01*
X28588669Y-70938103D01*
X28774014Y-70938224D01*
X28969629Y-70938338D01*
X29175794Y-70938447D01*
X29392790Y-70938550D01*
X29620899Y-70938650D01*
X29860401Y-70938747D01*
X30111578Y-70938842D01*
X30374709Y-70938937D01*
X30650078Y-70939033D01*
X30835600Y-70939096D01*
X31128048Y-70939189D01*
X31408042Y-70939267D01*
X31675832Y-70939330D01*
X31931663Y-70939378D01*
X32175784Y-70939409D01*
X32408442Y-70939423D01*
X32629885Y-70939420D01*
X32840359Y-70939399D01*
X33040112Y-70939359D01*
X33229391Y-70939301D01*
X33408445Y-70939223D01*
X33577519Y-70939125D01*
X33736862Y-70939007D01*
X33886722Y-70938868D01*
X34027344Y-70938707D01*
X34158977Y-70938525D01*
X34281869Y-70938319D01*
X34396266Y-70938091D01*
X34502416Y-70937839D01*
X34600566Y-70937563D01*
X34690964Y-70937262D01*
X34773857Y-70936936D01*
X34849492Y-70936585D01*
X34918117Y-70936207D01*
X34979980Y-70935802D01*
X35035326Y-70935371D01*
X35084405Y-70934911D01*
X35127464Y-70934423D01*
X35164749Y-70933907D01*
X35196508Y-70933361D01*
X35222988Y-70932785D01*
X35244438Y-70932179D01*
X35261104Y-70931542D01*
X35273233Y-70930874D01*
X35281074Y-70930174D01*
X35283775Y-70929748D01*
X35383108Y-70900402D01*
X35477200Y-70856264D01*
X35565312Y-70798161D01*
X35646705Y-70726919D01*
X35720641Y-70643366D01*
X35786380Y-70548329D01*
X35843184Y-70442635D01*
X35890314Y-70327111D01*
X35924624Y-70212342D01*
X35929984Y-70191220D01*
X35934824Y-70172159D01*
X35939172Y-70154240D01*
X35943053Y-70136543D01*
X35946494Y-70118149D01*
X35949521Y-70098139D01*
X35952161Y-70075593D01*
X35954440Y-70049592D01*
X35956384Y-70019216D01*
X35958020Y-69983547D01*
X35959375Y-69941664D01*
X35960474Y-69892649D01*
X35961344Y-69835582D01*
X35962012Y-69769544D01*
X35962503Y-69693615D01*
X35962845Y-69606876D01*
X35963063Y-69508408D01*
X35963184Y-69397292D01*
X35963235Y-69272607D01*
X35963241Y-69133435D01*
X35963230Y-68978856D01*
X35963227Y-68906736D01*
X35913398Y-68906736D01*
X35913314Y-69031806D01*
X35913125Y-69155256D01*
X35912832Y-69275850D01*
X35912434Y-69392350D01*
X35911932Y-69503519D01*
X35911325Y-69608121D01*
X35910614Y-69704919D01*
X35909799Y-69792676D01*
X35908879Y-69870155D01*
X35907855Y-69936120D01*
X35906727Y-69989333D01*
X35905494Y-70028558D01*
X35904157Y-70052557D01*
X35903621Y-70057434D01*
X35878631Y-70185302D01*
X35842910Y-70304217D01*
X35796270Y-70414663D01*
X35738523Y-70517124D01*
X35709295Y-70560155D01*
X35636172Y-70650992D01*
X35558193Y-70726235D01*
X35475041Y-70786103D01*
X35386399Y-70830817D01*
X35291952Y-70860598D01*
X35270948Y-70865053D01*
X35262509Y-70865465D01*
X35241673Y-70865865D01*
X35208739Y-70866255D01*
X35164010Y-70866632D01*
X35107787Y-70866998D01*
X35040371Y-70867352D01*
X34962065Y-70867692D01*
X34873169Y-70868020D01*
X34773985Y-70868333D01*
X34664815Y-70868633D01*
X34545960Y-70868918D01*
X34417722Y-70869189D01*
X34280402Y-70869444D01*
X34134301Y-70869684D01*
X33979722Y-70869907D01*
X33816966Y-70870114D01*
X33646333Y-70870304D01*
X33468127Y-70870477D01*
X33282647Y-70870632D01*
X33090197Y-70870769D01*
X32891077Y-70870888D01*
X32685588Y-70870987D01*
X32474033Y-70871067D01*
X32256713Y-70871128D01*
X32033929Y-70871168D01*
X31805982Y-70871188D01*
X31573176Y-70871187D01*
X31335810Y-70871164D01*
X31094186Y-70871120D01*
X30848607Y-70871053D01*
X30835600Y-70871049D01*
X30551773Y-70870957D01*
X30280365Y-70870865D01*
X30021098Y-70870773D01*
X29773692Y-70870678D01*
X29537866Y-70870581D01*
X29313342Y-70870479D01*
X29099840Y-70870373D01*
X28897079Y-70870261D01*
X28704780Y-70870142D01*
X28522664Y-70870016D01*
X28350450Y-70869880D01*
X28187858Y-70869734D01*
X28034610Y-70869578D01*
X27890425Y-70869410D01*
X27755024Y-70869229D01*
X27628126Y-70869034D01*
X27509453Y-70868824D01*
X27398723Y-70868598D01*
X27295658Y-70868355D01*
X27199978Y-70868094D01*
X27111403Y-70867815D01*
X27029654Y-70867515D01*
X26954449Y-70867195D01*
X26885511Y-70866853D01*
X26822559Y-70866488D01*
X26765312Y-70866098D01*
X26713493Y-70865684D01*
X26666820Y-70865244D01*
X26625014Y-70864777D01*
X26587796Y-70864283D01*
X26554885Y-70863759D01*
X26526002Y-70863205D01*
X26500867Y-70862620D01*
X26479200Y-70862004D01*
X26460722Y-70861354D01*
X26445152Y-70860671D01*
X26432212Y-70859952D01*
X26421621Y-70859198D01*
X26413099Y-70858406D01*
X26406368Y-70857577D01*
X26401146Y-70856708D01*
X26397155Y-70855800D01*
X26394892Y-70855123D01*
X26311741Y-70822961D01*
X26238273Y-70784750D01*
X26171848Y-70738534D01*
X26109823Y-70682354D01*
X26049559Y-70614254D01*
X26021907Y-70578658D01*
X25964023Y-70494680D01*
X25916930Y-70410626D01*
X25878981Y-70323002D01*
X25848529Y-70228315D01*
X25838655Y-70190067D01*
X25833707Y-70169884D01*
X25829241Y-70151522D01*
X25825234Y-70134057D01*
X25821660Y-70116565D01*
X25818495Y-70098123D01*
X25815713Y-70077808D01*
X25813290Y-70054696D01*
X25811202Y-70027864D01*
X25809424Y-69996389D01*
X25807930Y-69959346D01*
X25806697Y-69915813D01*
X25805699Y-69864866D01*
X25804911Y-69805582D01*
X25804309Y-69737036D01*
X25803869Y-69658307D01*
X25803565Y-69568470D01*
X25803373Y-69466602D01*
X25803267Y-69351780D01*
X25803224Y-69223079D01*
X25803218Y-69079577D01*
X25803225Y-68920351D01*
X25803225Y-68867867D01*
X25803220Y-68703599D01*
X25803219Y-68555340D01*
X25803248Y-68422168D01*
X25803332Y-68303159D01*
X25803495Y-68197390D01*
X25803762Y-68103937D01*
X25804157Y-68021876D01*
X25804707Y-67950285D01*
X25805434Y-67888240D01*
X25806365Y-67834817D01*
X25807523Y-67789093D01*
X25808933Y-67750145D01*
X25810621Y-67717049D01*
X25812611Y-67688882D01*
X25814928Y-67664720D01*
X25817596Y-67643640D01*
X25820640Y-67624719D01*
X25824085Y-67607032D01*
X25827956Y-67589657D01*
X25832278Y-67571671D01*
X25837074Y-67552149D01*
X25838655Y-67545667D01*
X25866709Y-67447411D01*
X25901639Y-67357534D01*
X25945091Y-67272545D01*
X25998713Y-67188948D01*
X26021907Y-67157075D01*
X26093004Y-67071664D01*
X26166943Y-67001921D01*
X26245392Y-66946650D01*
X26330018Y-66904660D01*
X26412825Y-66877240D01*
X26422231Y-66876429D01*
X26443939Y-66875643D01*
X26477555Y-66874883D01*
X26522682Y-66874148D01*
X26578923Y-66873440D01*
X26645882Y-66872757D01*
X26723162Y-66872100D01*
X26810368Y-66871468D01*
X26907102Y-66870863D01*
X27012969Y-66870283D01*
X27127571Y-66869729D01*
X27250513Y-66869200D01*
X27381397Y-66868698D01*
X27519829Y-66868221D01*
X27665410Y-66867769D01*
X27817745Y-66867344D01*
X27976438Y-66866944D01*
X28141092Y-66866570D01*
X28311310Y-66866222D01*
X28486696Y-66865899D01*
X28666854Y-66865602D01*
X28851387Y-66865331D01*
X29039899Y-66865085D01*
X29231994Y-66864866D01*
X29427275Y-66864672D01*
X29625345Y-66864504D01*
X29825808Y-66864361D01*
X30028268Y-66864244D01*
X30232329Y-66864153D01*
X30437594Y-66864088D01*
X30643666Y-66864049D01*
X30850149Y-66864035D01*
X31056647Y-66864047D01*
X31262764Y-66864084D01*
X31468102Y-66864148D01*
X31672266Y-66864237D01*
X31874859Y-66864352D01*
X32075484Y-66864492D01*
X32273746Y-66864658D01*
X32469247Y-66864850D01*
X32661592Y-66865068D01*
X32850384Y-66865312D01*
X33035227Y-66865581D01*
X33215724Y-66865876D01*
X33391478Y-66866197D01*
X33562094Y-66866543D01*
X33727175Y-66866915D01*
X33886324Y-66867313D01*
X34039146Y-66867737D01*
X34185243Y-66868186D01*
X34324219Y-66868661D01*
X34455679Y-66869162D01*
X34579224Y-66869689D01*
X34694460Y-66870241D01*
X34800989Y-66870819D01*
X34898416Y-66871423D01*
X34986343Y-66872052D01*
X35064375Y-66872707D01*
X35132115Y-66873388D01*
X35189166Y-66874095D01*
X35235133Y-66874827D01*
X35269618Y-66875585D01*
X35292225Y-66876369D01*
X35302558Y-66877179D01*
X35302825Y-66877240D01*
X35394435Y-66908301D01*
X35478368Y-66951568D01*
X35556290Y-67008234D01*
X35629869Y-67079493D01*
X35693744Y-67157075D01*
X35757802Y-67251871D01*
X35810110Y-67350457D01*
X35851563Y-67455055D01*
X35883056Y-67567890D01*
X35903621Y-67678300D01*
X35904998Y-67696180D01*
X35906270Y-67729756D01*
X35907438Y-67777791D01*
X35908502Y-67839048D01*
X35909461Y-67912290D01*
X35910316Y-67996282D01*
X35911067Y-68089784D01*
X35911713Y-68191562D01*
X35912255Y-68300378D01*
X35912692Y-68414994D01*
X35913025Y-68534176D01*
X35913254Y-68656684D01*
X35913378Y-68781283D01*
X35913398Y-68906736D01*
X35963227Y-68906736D01*
X35963225Y-68867867D01*
X35963218Y-68705377D01*
X35963190Y-68558924D01*
X35963133Y-68427613D01*
X35963038Y-68310548D01*
X35962897Y-68206832D01*
X35962702Y-68115569D01*
X35962443Y-68035864D01*
X35962112Y-67966821D01*
X35961701Y-67907544D01*
X35961200Y-67857136D01*
X35960603Y-67814702D01*
X35959899Y-67779346D01*
X35959080Y-67750173D01*
X35958138Y-67726285D01*
X35957065Y-67706787D01*
X35955851Y-67690783D01*
X35954488Y-67677377D01*
X35952968Y-67665674D01*
X35951665Y-67657134D01*
X35923970Y-67523021D01*
X35885668Y-67397753D01*
X35837294Y-67282042D01*
X35779379Y-67176596D01*
X35712457Y-67082127D01*
X35637060Y-66999344D01*
X35553720Y-66928958D01*
X35462971Y-66871678D01*
X35365345Y-66828216D01*
X35318700Y-66813180D01*
X35314915Y-66812188D01*
X35310477Y-66811239D01*
X35305105Y-66810333D01*
X35298518Y-66809468D01*
X35290434Y-66808643D01*
X35280573Y-66807859D01*
X35268652Y-66807112D01*
X35254391Y-66806404D01*
X35237508Y-66805732D01*
X35217723Y-66805096D01*
X35194754Y-66804494D01*
X35168319Y-66803927D01*
X35138138Y-66803392D01*
X35103929Y-66802889D01*
X35065411Y-66802416D01*
X35022303Y-66801974D01*
X34974323Y-66801561D01*
X34921190Y-66801175D01*
X34862624Y-66800816D01*
X34798342Y-66800484D01*
X34728063Y-66800176D01*
X34651507Y-66799892D01*
X34568392Y-66799632D01*
X34478437Y-66799393D01*
X34381360Y-66799176D01*
X34276880Y-66798979D01*
X34164717Y-66798801D01*
X34044588Y-66798641D01*
X33916213Y-66798499D01*
X33779310Y-66798372D01*
X33633597Y-66798261D01*
X33478795Y-66798164D01*
X33314621Y-66798081D01*
X33140795Y-66798010D01*
X32957034Y-66797950D01*
X32763059Y-66797901D01*
X32558587Y-66797862D01*
X32343337Y-66797830D01*
X32117028Y-66797807D01*
X31879379Y-66797790D01*
X31630109Y-66797778D01*
X31368935Y-66797771D01*
X31095578Y-66797768D01*
X30857825Y-66797767D01*
X30574081Y-66797768D01*
G36*
X34346573Y-67251633D02*
X34288571Y-67254609D01*
X34237284Y-67259985D01*
X34214615Y-67263715D01*
X34090646Y-67295772D01*
X33970728Y-67343160D01*
X33855673Y-67405253D01*
X33746292Y-67481423D01*
X33643396Y-67571042D01*
X33547796Y-67673484D01*
X33460304Y-67788121D01*
X33388327Y-67902667D01*
X33358969Y-67955148D01*
X33337075Y-67997114D01*
X33321727Y-68030773D01*
X33312006Y-68058332D01*
X33306994Y-68081999D01*
X33305750Y-68101227D01*
X33305750Y-68139734D01*
X33887148Y-68139734D01*
X34127995Y-68498500D01*
X34172393Y-68564720D01*
X34214209Y-68627253D01*
X34252681Y-68684949D01*
X34287049Y-68736658D01*
X34316548Y-68781228D01*
X34340418Y-68817509D01*
X34357897Y-68844351D01*
X34368222Y-68860603D01*
X34370812Y-68865144D01*
X34367153Y-68872845D01*
X34355922Y-68892179D01*
X34337851Y-68921972D01*
X34313675Y-68961048D01*
X34284129Y-69008235D01*
X34249948Y-69062357D01*
X34211864Y-69122239D01*
X34170613Y-69186707D01*
X34139875Y-69234511D01*
X33906969Y-69596000D01*
X33307232Y-69596000D01*
X33303645Y-69614290D01*
X33303782Y-69629598D01*
X33309565Y-69651241D01*
X33321617Y-69680677D01*
X33340563Y-69719362D01*
X33367028Y-69768755D01*
X33379241Y-69790734D01*
X33459096Y-69919423D01*
X33547425Y-70035828D01*
X33643571Y-70139431D01*
X33746877Y-70229717D01*
X33856684Y-70306169D01*
X33972336Y-70368273D01*
X34093177Y-70415511D01*
X34214615Y-70446619D01*
X34255564Y-70452447D01*
X34305478Y-70456353D01*
X34360886Y-70458344D01*
X34418314Y-70458429D01*
X34474289Y-70456613D01*
X34525338Y-70452906D01*
X34567988Y-70447312D01*
X34575750Y-70445859D01*
X34691830Y-70415738D01*
X34802586Y-70372444D01*
X34911243Y-70314612D01*
X34963100Y-70281621D01*
X35072124Y-70199688D01*
X35173080Y-70105443D01*
X35265490Y-69999741D01*
X35348873Y-69883440D01*
X35422752Y-69757395D01*
X35486647Y-69622463D01*
X35540079Y-69479501D01*
X35582568Y-69329364D01*
X35613636Y-69172909D01*
X35623759Y-69100700D01*
X35631704Y-69013331D01*
X35635869Y-68916007D01*
X35636257Y-68814940D01*
X35632865Y-68716343D01*
X35625696Y-68626427D01*
X35623759Y-68609634D01*
X35598158Y-68451620D01*
X35561151Y-68299899D01*
X35513336Y-68155234D01*
X35455312Y-68018388D01*
X35387675Y-67890123D01*
X35311024Y-67771202D01*
X35225957Y-67662387D01*
X35133071Y-67564441D01*
X35032965Y-67478126D01*
X34926236Y-67404205D01*
X34813482Y-67343442D01*
X34695302Y-67296597D01*
X34572292Y-67264435D01*
X34568586Y-67263715D01*
X34522297Y-67257096D01*
X34467294Y-67252876D01*
X34407433Y-67251055D01*
X34346573Y-67251633D01*
X34346573Y-67251633D01*
G37*
X34346573Y-67251633D02*
X34288571Y-67254609D01*
X34237284Y-67259985D01*
X34214615Y-67263715D01*
X34090646Y-67295772D01*
X33970728Y-67343160D01*
X33855673Y-67405253D01*
X33746292Y-67481423D01*
X33643396Y-67571042D01*
X33547796Y-67673484D01*
X33460304Y-67788121D01*
X33388327Y-67902667D01*
X33358969Y-67955148D01*
X33337075Y-67997114D01*
X33321727Y-68030773D01*
X33312006Y-68058332D01*
X33306994Y-68081999D01*
X33305750Y-68101227D01*
X33305750Y-68139734D01*
X33887148Y-68139734D01*
X34127995Y-68498500D01*
X34172393Y-68564720D01*
X34214209Y-68627253D01*
X34252681Y-68684949D01*
X34287049Y-68736658D01*
X34316548Y-68781228D01*
X34340418Y-68817509D01*
X34357897Y-68844351D01*
X34368222Y-68860603D01*
X34370812Y-68865144D01*
X34367153Y-68872845D01*
X34355922Y-68892179D01*
X34337851Y-68921972D01*
X34313675Y-68961048D01*
X34284129Y-69008235D01*
X34249948Y-69062357D01*
X34211864Y-69122239D01*
X34170613Y-69186707D01*
X34139875Y-69234511D01*
X33906969Y-69596000D01*
X33307232Y-69596000D01*
X33303645Y-69614290D01*
X33303782Y-69629598D01*
X33309565Y-69651241D01*
X33321617Y-69680677D01*
X33340563Y-69719362D01*
X33367028Y-69768755D01*
X33379241Y-69790734D01*
X33459096Y-69919423D01*
X33547425Y-70035828D01*
X33643571Y-70139431D01*
X33746877Y-70229717D01*
X33856684Y-70306169D01*
X33972336Y-70368273D01*
X34093177Y-70415511D01*
X34214615Y-70446619D01*
X34255564Y-70452447D01*
X34305478Y-70456353D01*
X34360886Y-70458344D01*
X34418314Y-70458429D01*
X34474289Y-70456613D01*
X34525338Y-70452906D01*
X34567988Y-70447312D01*
X34575750Y-70445859D01*
X34691830Y-70415738D01*
X34802586Y-70372444D01*
X34911243Y-70314612D01*
X34963100Y-70281621D01*
X35072124Y-70199688D01*
X35173080Y-70105443D01*
X35265490Y-69999741D01*
X35348873Y-69883440D01*
X35422752Y-69757395D01*
X35486647Y-69622463D01*
X35540079Y-69479501D01*
X35582568Y-69329364D01*
X35613636Y-69172909D01*
X35623759Y-69100700D01*
X35631704Y-69013331D01*
X35635869Y-68916007D01*
X35636257Y-68814940D01*
X35632865Y-68716343D01*
X35625696Y-68626427D01*
X35623759Y-68609634D01*
X35598158Y-68451620D01*
X35561151Y-68299899D01*
X35513336Y-68155234D01*
X35455312Y-68018388D01*
X35387675Y-67890123D01*
X35311024Y-67771202D01*
X35225957Y-67662387D01*
X35133071Y-67564441D01*
X35032965Y-67478126D01*
X34926236Y-67404205D01*
X34813482Y-67343442D01*
X34695302Y-67296597D01*
X34572292Y-67264435D01*
X34568586Y-67263715D01*
X34522297Y-67257096D01*
X34467294Y-67252876D01*
X34407433Y-67251055D01*
X34346573Y-67251633D01*
G36*
X27343100Y-68565593D02*
X27310426Y-68568932D01*
X27275933Y-68574170D01*
X27242281Y-68580705D01*
X27212128Y-68587937D01*
X27188134Y-68595265D01*
X27172957Y-68602087D01*
X27169737Y-68604799D01*
X27168694Y-68614406D01*
X27167813Y-68639151D01*
X27167109Y-68677239D01*
X27166598Y-68726876D01*
X27166297Y-68786268D01*
X27166220Y-68853621D01*
X27166383Y-68927139D01*
X27166562Y-68966091D01*
X27168475Y-69320833D01*
X27186798Y-69373729D01*
X27211126Y-69427212D01*
X27243197Y-69472509D01*
X27280124Y-69505736D01*
X27288923Y-69511218D01*
X27333606Y-69530067D01*
X27386329Y-69541234D01*
X27443709Y-69544431D01*
X27502362Y-69539372D01*
X27536775Y-69532249D01*
X27570368Y-69523303D01*
X27593363Y-69515972D01*
X27607683Y-69509042D01*
X27615250Y-69501293D01*
X27617989Y-69491511D01*
X27617967Y-69480878D01*
X27615909Y-69460220D01*
X27611820Y-69429691D01*
X27606588Y-69395915D01*
X27596567Y-69335530D01*
X27557146Y-69352492D01*
X27526946Y-69362216D01*
X27491610Y-69368531D01*
X27454514Y-69371369D01*
X27419034Y-69370662D01*
X27388545Y-69366342D01*
X27366425Y-69358340D01*
X27363457Y-69356406D01*
X27338842Y-69329338D01*
X27323014Y-69292217D01*
X27317724Y-69251359D01*
X27317700Y-69215751D01*
X27343899Y-69228076D01*
X27370334Y-69235946D01*
X27404363Y-69239770D01*
X27441259Y-69239589D01*
X27476290Y-69235444D01*
X27504729Y-69227377D01*
X27506391Y-69226648D01*
X27552452Y-69197783D01*
X27589505Y-69157076D01*
X27617459Y-69104743D01*
X27636224Y-69040999D01*
X27645710Y-68966058D01*
X27646210Y-68914207D01*
X27492325Y-68914207D01*
X27489314Y-68970662D01*
X27479908Y-69013813D01*
X27463556Y-69045394D01*
X27444479Y-69063941D01*
X27417139Y-69075897D01*
X27384597Y-69078979D01*
X27352551Y-69073005D01*
X27339722Y-69067266D01*
X27317700Y-69054998D01*
X27317700Y-68894686D01*
X27317740Y-68838945D01*
X27317991Y-68797819D01*
X27318654Y-68768987D01*
X27319930Y-68750133D01*
X27322019Y-68738935D01*
X27325121Y-68733077D01*
X27329436Y-68730238D01*
X27331988Y-68729270D01*
X27367197Y-68723736D01*
X27403927Y-68729641D01*
X27432433Y-68743556D01*
X27459612Y-68770520D01*
X27478355Y-68807774D01*
X27489107Y-68856584D01*
X27492325Y-68914207D01*
X27646210Y-68914207D01*
X27646409Y-68893713D01*
X27640935Y-68823604D01*
X27629320Y-68765284D01*
X27610566Y-68715053D01*
X27586975Y-68674031D01*
X27548255Y-68627890D01*
X27502629Y-68594489D01*
X27449483Y-68573556D01*
X27388204Y-68564819D01*
X27343100Y-68565593D01*
X27343100Y-68565593D01*
G37*
X27343100Y-68565593D02*
X27310426Y-68568932D01*
X27275933Y-68574170D01*
X27242281Y-68580705D01*
X27212128Y-68587937D01*
X27188134Y-68595265D01*
X27172957Y-68602087D01*
X27169737Y-68604799D01*
X27168694Y-68614406D01*
X27167813Y-68639151D01*
X27167109Y-68677239D01*
X27166598Y-68726876D01*
X27166297Y-68786268D01*
X27166220Y-68853621D01*
X27166383Y-68927139D01*
X27166562Y-68966091D01*
X27168475Y-69320833D01*
X27186798Y-69373729D01*
X27211126Y-69427212D01*
X27243197Y-69472509D01*
X27280124Y-69505736D01*
X27288923Y-69511218D01*
X27333606Y-69530067D01*
X27386329Y-69541234D01*
X27443709Y-69544431D01*
X27502362Y-69539372D01*
X27536775Y-69532249D01*
X27570368Y-69523303D01*
X27593363Y-69515972D01*
X27607683Y-69509042D01*
X27615250Y-69501293D01*
X27617989Y-69491511D01*
X27617967Y-69480878D01*
X27615909Y-69460220D01*
X27611820Y-69429691D01*
X27606588Y-69395915D01*
X27596567Y-69335530D01*
X27557146Y-69352492D01*
X27526946Y-69362216D01*
X27491610Y-69368531D01*
X27454514Y-69371369D01*
X27419034Y-69370662D01*
X27388545Y-69366342D01*
X27366425Y-69358340D01*
X27363457Y-69356406D01*
X27338842Y-69329338D01*
X27323014Y-69292217D01*
X27317724Y-69251359D01*
X27317700Y-69215751D01*
X27343899Y-69228076D01*
X27370334Y-69235946D01*
X27404363Y-69239770D01*
X27441259Y-69239589D01*
X27476290Y-69235444D01*
X27504729Y-69227377D01*
X27506391Y-69226648D01*
X27552452Y-69197783D01*
X27589505Y-69157076D01*
X27617459Y-69104743D01*
X27636224Y-69040999D01*
X27645710Y-68966058D01*
X27646210Y-68914207D01*
X27492325Y-68914207D01*
X27489314Y-68970662D01*
X27479908Y-69013813D01*
X27463556Y-69045394D01*
X27444479Y-69063941D01*
X27417139Y-69075897D01*
X27384597Y-69078979D01*
X27352551Y-69073005D01*
X27339722Y-69067266D01*
X27317700Y-69054998D01*
X27317700Y-68894686D01*
X27317740Y-68838945D01*
X27317991Y-68797819D01*
X27318654Y-68768987D01*
X27319930Y-68750133D01*
X27322019Y-68738935D01*
X27325121Y-68733077D01*
X27329436Y-68730238D01*
X27331988Y-68729270D01*
X27367197Y-68723736D01*
X27403927Y-68729641D01*
X27432433Y-68743556D01*
X27459612Y-68770520D01*
X27478355Y-68807774D01*
X27489107Y-68856584D01*
X27492325Y-68914207D01*
X27646210Y-68914207D01*
X27646409Y-68893713D01*
X27640935Y-68823604D01*
X27629320Y-68765284D01*
X27610566Y-68715053D01*
X27586975Y-68674031D01*
X27548255Y-68627890D01*
X27502629Y-68594489D01*
X27449483Y-68573556D01*
X27388204Y-68564819D01*
X27343100Y-68565593D01*
G36*
X32559559Y-68565265D02*
X32541178Y-68569052D01*
X32522277Y-68575369D01*
X32512292Y-68579301D01*
X32482357Y-68593607D01*
X32459855Y-68610470D01*
X32439557Y-68633813D01*
X32439465Y-68633936D01*
X32426348Y-68652178D01*
X32415708Y-68669702D01*
X32407267Y-68688493D01*
X32400747Y-68710536D01*
X32395869Y-68737817D01*
X32392357Y-68772320D01*
X32389931Y-68816031D01*
X32388315Y-68870935D01*
X32387231Y-68939017D01*
X32386486Y-69012444D01*
X32384188Y-69271322D01*
X32443332Y-69285371D01*
X32484542Y-69293377D01*
X32530378Y-69299337D01*
X32577299Y-69303044D01*
X32621767Y-69304291D01*
X32660241Y-69302874D01*
X32685255Y-69299489D01*
X32736675Y-69283020D01*
X32777554Y-69257302D01*
X32808189Y-69221916D01*
X32828877Y-69176439D01*
X32839916Y-69120449D01*
X32842061Y-69077080D01*
X32839972Y-69048540D01*
X32693771Y-69048540D01*
X32693484Y-69084708D01*
X32692966Y-69088057D01*
X32685225Y-69112843D01*
X32670490Y-69130275D01*
X32647287Y-69141197D01*
X32614142Y-69146452D01*
X32589550Y-69147235D01*
X32530574Y-69147267D01*
X32532400Y-69068950D01*
X32534225Y-68990633D01*
X32586697Y-68988173D01*
X32629394Y-68990332D01*
X32661574Y-69001209D01*
X32683084Y-69020659D01*
X32693771Y-69048540D01*
X32839972Y-69048540D01*
X32837500Y-69014783D01*
X32823237Y-68963190D01*
X32798830Y-68921416D01*
X32763839Y-68888578D01*
X32740991Y-68874570D01*
X32724455Y-68866719D01*
X32707757Y-68861355D01*
X32687917Y-68858016D01*
X32661951Y-68856237D01*
X32626879Y-68855555D01*
X32618367Y-68855508D01*
X32583603Y-68855288D01*
X32559562Y-68854648D01*
X32544267Y-68853145D01*
X32535739Y-68850331D01*
X32532002Y-68845763D01*
X32531079Y-68838995D01*
X32531054Y-68835845D01*
X32536127Y-68800530D01*
X32549508Y-68768297D01*
X32568424Y-68745653D01*
X32569993Y-68744519D01*
X32588773Y-68736894D01*
X32616360Y-68732205D01*
X32649042Y-68730553D01*
X32683103Y-68732039D01*
X32714831Y-68736765D01*
X32728099Y-68740201D01*
X32750916Y-68746853D01*
X32765527Y-68748072D01*
X32774282Y-68741291D01*
X32779529Y-68723941D01*
X32783618Y-68693454D01*
X32785393Y-68677565D01*
X32788916Y-68644247D01*
X32791386Y-68617468D01*
X32792419Y-68601531D01*
X32792362Y-68599249D01*
X32785008Y-68591249D01*
X32766611Y-68583630D01*
X32738830Y-68576768D01*
X32703320Y-68571039D01*
X32661740Y-68566820D01*
X32644557Y-68565683D01*
X32607951Y-68563920D01*
X32580717Y-68563668D01*
X32559559Y-68565265D01*
X32559559Y-68565265D01*
G37*
X32559559Y-68565265D02*
X32541178Y-68569052D01*
X32522277Y-68575369D01*
X32512292Y-68579301D01*
X32482357Y-68593607D01*
X32459855Y-68610470D01*
X32439557Y-68633813D01*
X32439465Y-68633936D01*
X32426348Y-68652178D01*
X32415708Y-68669702D01*
X32407267Y-68688493D01*
X32400747Y-68710536D01*
X32395869Y-68737817D01*
X32392357Y-68772320D01*
X32389931Y-68816031D01*
X32388315Y-68870935D01*
X32387231Y-68939017D01*
X32386486Y-69012444D01*
X32384188Y-69271322D01*
X32443332Y-69285371D01*
X32484542Y-69293377D01*
X32530378Y-69299337D01*
X32577299Y-69303044D01*
X32621767Y-69304291D01*
X32660241Y-69302874D01*
X32685255Y-69299489D01*
X32736675Y-69283020D01*
X32777554Y-69257302D01*
X32808189Y-69221916D01*
X32828877Y-69176439D01*
X32839916Y-69120449D01*
X32842061Y-69077080D01*
X32839972Y-69048540D01*
X32693771Y-69048540D01*
X32693484Y-69084708D01*
X32692966Y-69088057D01*
X32685225Y-69112843D01*
X32670490Y-69130275D01*
X32647287Y-69141197D01*
X32614142Y-69146452D01*
X32589550Y-69147235D01*
X32530574Y-69147267D01*
X32532400Y-69068950D01*
X32534225Y-68990633D01*
X32586697Y-68988173D01*
X32629394Y-68990332D01*
X32661574Y-69001209D01*
X32683084Y-69020659D01*
X32693771Y-69048540D01*
X32839972Y-69048540D01*
X32837500Y-69014783D01*
X32823237Y-68963190D01*
X32798830Y-68921416D01*
X32763839Y-68888578D01*
X32740991Y-68874570D01*
X32724455Y-68866719D01*
X32707757Y-68861355D01*
X32687917Y-68858016D01*
X32661951Y-68856237D01*
X32626879Y-68855555D01*
X32618367Y-68855508D01*
X32583603Y-68855288D01*
X32559562Y-68854648D01*
X32544267Y-68853145D01*
X32535739Y-68850331D01*
X32532002Y-68845763D01*
X32531079Y-68838995D01*
X32531054Y-68835845D01*
X32536127Y-68800530D01*
X32549508Y-68768297D01*
X32568424Y-68745653D01*
X32569993Y-68744519D01*
X32588773Y-68736894D01*
X32616360Y-68732205D01*
X32649042Y-68730553D01*
X32683103Y-68732039D01*
X32714831Y-68736765D01*
X32728099Y-68740201D01*
X32750916Y-68746853D01*
X32765527Y-68748072D01*
X32774282Y-68741291D01*
X32779529Y-68723941D01*
X32783618Y-68693454D01*
X32785393Y-68677565D01*
X32788916Y-68644247D01*
X32791386Y-68617468D01*
X32792419Y-68601531D01*
X32792362Y-68599249D01*
X32785008Y-68591249D01*
X32766611Y-68583630D01*
X32738830Y-68576768D01*
X32703320Y-68571039D01*
X32661740Y-68566820D01*
X32644557Y-68565683D01*
X32607951Y-68563920D01*
X32580717Y-68563668D01*
X32559559Y-68565265D01*
G36*
X31979088Y-68565347D02*
X31946227Y-68568883D01*
X31914852Y-68574766D01*
X31887388Y-68582259D01*
X31866263Y-68590624D01*
X31853900Y-68599123D01*
X31851699Y-68604079D01*
X31853339Y-68614229D01*
X31857636Y-68636618D01*
X31863801Y-68667187D01*
X31866781Y-68681600D01*
X31876066Y-68721460D01*
X31883912Y-68744800D01*
X31890417Y-68751913D01*
X31890495Y-68751899D01*
X31900969Y-68749559D01*
X31919693Y-68745096D01*
X31940500Y-68739998D01*
X31988833Y-68734105D01*
X32029896Y-68741978D01*
X32063425Y-68763353D01*
X32089154Y-68797971D01*
X32106817Y-68845569D01*
X32116150Y-68905886D01*
X32116675Y-68913581D01*
X32116126Y-68975118D01*
X32107181Y-69029461D01*
X32090522Y-69074368D01*
X32066827Y-69107599D01*
X32054632Y-69117750D01*
X32025779Y-69130487D01*
X31988904Y-69135897D01*
X31947518Y-69133748D01*
X31915530Y-69127007D01*
X31892529Y-69121216D01*
X31874673Y-69118050D01*
X31865273Y-69118064D01*
X31864730Y-69118454D01*
X31862109Y-69128412D01*
X31858124Y-69151045D01*
X31853455Y-69182315D01*
X31851210Y-69198899D01*
X31841294Y-69274558D01*
X31873435Y-69288096D01*
X31900799Y-69296180D01*
X31936282Y-69301817D01*
X31975932Y-69304867D01*
X32015794Y-69305191D01*
X32051916Y-69302651D01*
X32080345Y-69297106D01*
X32084959Y-69295550D01*
X32139662Y-69267831D01*
X32184772Y-69229130D01*
X32220339Y-69179349D01*
X32246412Y-69118395D01*
X32263041Y-69046170D01*
X32270276Y-68962580D01*
X32270625Y-68938609D01*
X32265516Y-68854146D01*
X32250157Y-68778803D01*
X32224760Y-68713161D01*
X32189538Y-68657798D01*
X32154275Y-68621165D01*
X32119320Y-68594273D01*
X32085995Y-68576631D01*
X32050478Y-68567023D01*
X32008944Y-68564229D01*
X31979088Y-68565347D01*
X31979088Y-68565347D01*
G37*
X31979088Y-68565347D02*
X31946227Y-68568883D01*
X31914852Y-68574766D01*
X31887388Y-68582259D01*
X31866263Y-68590624D01*
X31853900Y-68599123D01*
X31851699Y-68604079D01*
X31853339Y-68614229D01*
X31857636Y-68636618D01*
X31863801Y-68667187D01*
X31866781Y-68681600D01*
X31876066Y-68721460D01*
X31883912Y-68744800D01*
X31890417Y-68751913D01*
X31890495Y-68751899D01*
X31900969Y-68749559D01*
X31919693Y-68745096D01*
X31940500Y-68739998D01*
X31988833Y-68734105D01*
X32029896Y-68741978D01*
X32063425Y-68763353D01*
X32089154Y-68797971D01*
X32106817Y-68845569D01*
X32116150Y-68905886D01*
X32116675Y-68913581D01*
X32116126Y-68975118D01*
X32107181Y-69029461D01*
X32090522Y-69074368D01*
X32066827Y-69107599D01*
X32054632Y-69117750D01*
X32025779Y-69130487D01*
X31988904Y-69135897D01*
X31947518Y-69133748D01*
X31915530Y-69127007D01*
X31892529Y-69121216D01*
X31874673Y-69118050D01*
X31865273Y-69118064D01*
X31864730Y-69118454D01*
X31862109Y-69128412D01*
X31858124Y-69151045D01*
X31853455Y-69182315D01*
X31851210Y-69198899D01*
X31841294Y-69274558D01*
X31873435Y-69288096D01*
X31900799Y-69296180D01*
X31936282Y-69301817D01*
X31975932Y-69304867D01*
X32015794Y-69305191D01*
X32051916Y-69302651D01*
X32080345Y-69297106D01*
X32084959Y-69295550D01*
X32139662Y-69267831D01*
X32184772Y-69229130D01*
X32220339Y-69179349D01*
X32246412Y-69118395D01*
X32263041Y-69046170D01*
X32270276Y-68962580D01*
X32270625Y-68938609D01*
X32265516Y-68854146D01*
X32250157Y-68778803D01*
X32224760Y-68713161D01*
X32189538Y-68657798D01*
X32154275Y-68621165D01*
X32119320Y-68594273D01*
X32085995Y-68576631D01*
X32050478Y-68567023D01*
X32008944Y-68564229D01*
X31979088Y-68565347D01*
G36*
X30921411Y-68567608D02*
X30898870Y-68569148D01*
X30881579Y-68572840D01*
X30865813Y-68579608D01*
X30847846Y-68590374D01*
X30840547Y-68595128D01*
X30800303Y-68627134D01*
X30768902Y-68665438D01*
X30745556Y-68711974D01*
X30729475Y-68768675D01*
X30719872Y-68837477D01*
X30716403Y-68899617D01*
X30713417Y-69003333D01*
X30886313Y-69003333D01*
X30937876Y-69003415D01*
X30978075Y-69003730D01*
X31008246Y-69004384D01*
X31029725Y-69005483D01*
X31043847Y-69007133D01*
X31051948Y-69009440D01*
X31055365Y-69012509D01*
X31055432Y-69016447D01*
X31055355Y-69016726D01*
X31051938Y-69032433D01*
X31051500Y-69037243D01*
X31047742Y-69047693D01*
X31038370Y-69065010D01*
X31034827Y-69070788D01*
X31005112Y-69104863D01*
X30966918Y-69126581D01*
X30920507Y-69135869D01*
X30866142Y-69132654D01*
X30835600Y-69126219D01*
X30809959Y-69119746D01*
X30788499Y-69114477D01*
X30774742Y-69111272D01*
X30772384Y-69110794D01*
X30766951Y-69114750D01*
X30762034Y-69130143D01*
X30757058Y-69159154D01*
X30754368Y-69179457D01*
X30750684Y-69213061D01*
X30748572Y-69240844D01*
X30748358Y-69258133D01*
X30748740Y-69260673D01*
X30758047Y-69271836D01*
X30777771Y-69281904D01*
X30805640Y-69290595D01*
X30839386Y-69297627D01*
X30876738Y-69302719D01*
X30915428Y-69305588D01*
X30953184Y-69305953D01*
X30987739Y-69303532D01*
X31016822Y-69298042D01*
X31025947Y-69295100D01*
X31079027Y-69267602D01*
X31123853Y-69228237D01*
X31159591Y-69177855D01*
X31176915Y-69141215D01*
X31193064Y-69095777D01*
X31203524Y-69052755D01*
X31209279Y-69006268D01*
X31211310Y-68950440D01*
X31211354Y-68935355D01*
X31206713Y-68859400D01*
X31058092Y-68859400D01*
X30859339Y-68859400D01*
X30862862Y-68830451D01*
X30873728Y-68787820D01*
X30893947Y-68755904D01*
X30922312Y-68736006D01*
X30956250Y-68729423D01*
X30991305Y-68736996D01*
X31020190Y-68758843D01*
X31041706Y-68793651D01*
X31053981Y-68836117D01*
X31058092Y-68859400D01*
X31206713Y-68859400D01*
X31206115Y-68849617D01*
X31190803Y-68773805D01*
X31165542Y-68708209D01*
X31130456Y-68653117D01*
X31085669Y-68608816D01*
X31064200Y-68593629D01*
X31044875Y-68581885D01*
X31028618Y-68574265D01*
X31011695Y-68569885D01*
X30990371Y-68567862D01*
X30960911Y-68567311D01*
X30952925Y-68567300D01*
X30921411Y-68567608D01*
X30921411Y-68567608D01*
G37*
X30921411Y-68567608D02*
X30898870Y-68569148D01*
X30881579Y-68572840D01*
X30865813Y-68579608D01*
X30847846Y-68590374D01*
X30840547Y-68595128D01*
X30800303Y-68627134D01*
X30768902Y-68665438D01*
X30745556Y-68711974D01*
X30729475Y-68768675D01*
X30719872Y-68837477D01*
X30716403Y-68899617D01*
X30713417Y-69003333D01*
X30886313Y-69003333D01*
X30937876Y-69003415D01*
X30978075Y-69003730D01*
X31008246Y-69004384D01*
X31029725Y-69005483D01*
X31043847Y-69007133D01*
X31051948Y-69009440D01*
X31055365Y-69012509D01*
X31055432Y-69016447D01*
X31055355Y-69016726D01*
X31051938Y-69032433D01*
X31051500Y-69037243D01*
X31047742Y-69047693D01*
X31038370Y-69065010D01*
X31034827Y-69070788D01*
X31005112Y-69104863D01*
X30966918Y-69126581D01*
X30920507Y-69135869D01*
X30866142Y-69132654D01*
X30835600Y-69126219D01*
X30809959Y-69119746D01*
X30788499Y-69114477D01*
X30774742Y-69111272D01*
X30772384Y-69110794D01*
X30766951Y-69114750D01*
X30762034Y-69130143D01*
X30757058Y-69159154D01*
X30754368Y-69179457D01*
X30750684Y-69213061D01*
X30748572Y-69240844D01*
X30748358Y-69258133D01*
X30748740Y-69260673D01*
X30758047Y-69271836D01*
X30777771Y-69281904D01*
X30805640Y-69290595D01*
X30839386Y-69297627D01*
X30876738Y-69302719D01*
X30915428Y-69305588D01*
X30953184Y-69305953D01*
X30987739Y-69303532D01*
X31016822Y-69298042D01*
X31025947Y-69295100D01*
X31079027Y-69267602D01*
X31123853Y-69228237D01*
X31159591Y-69177855D01*
X31176915Y-69141215D01*
X31193064Y-69095777D01*
X31203524Y-69052755D01*
X31209279Y-69006268D01*
X31211310Y-68950440D01*
X31211354Y-68935355D01*
X31206713Y-68859400D01*
X31058092Y-68859400D01*
X30859339Y-68859400D01*
X30862862Y-68830451D01*
X30873728Y-68787820D01*
X30893947Y-68755904D01*
X30922312Y-68736006D01*
X30956250Y-68729423D01*
X30991305Y-68736996D01*
X31020190Y-68758843D01*
X31041706Y-68793651D01*
X31053981Y-68836117D01*
X31058092Y-68859400D01*
X31206713Y-68859400D01*
X31206115Y-68849617D01*
X31190803Y-68773805D01*
X31165542Y-68708209D01*
X31130456Y-68653117D01*
X31085669Y-68608816D01*
X31064200Y-68593629D01*
X31044875Y-68581885D01*
X31028618Y-68574265D01*
X31011695Y-68569885D01*
X30990371Y-68567862D01*
X30960911Y-68567311D01*
X30952925Y-68567300D01*
X30921411Y-68567608D01*
G36*
X28724045Y-68567894D02*
X28671941Y-68585162D01*
X28627217Y-68616201D01*
X28589891Y-68661000D01*
X28559977Y-68719544D01*
X28547081Y-68756312D01*
X28540736Y-68783490D01*
X28536223Y-68818993D01*
X28533195Y-68866152D01*
X28531995Y-68899617D01*
X28529017Y-69003333D01*
X28701234Y-69003333D01*
X28760366Y-69003643D01*
X28806951Y-69004575D01*
X28841130Y-69006137D01*
X28863049Y-69008337D01*
X28872850Y-69011182D01*
X28873450Y-69012221D01*
X28869435Y-69030816D01*
X28859351Y-69054799D01*
X28846147Y-69077629D01*
X28840716Y-69084893D01*
X28807230Y-69114700D01*
X28766188Y-69131835D01*
X28717253Y-69136373D01*
X28660088Y-69128386D01*
X28651200Y-69126219D01*
X28625559Y-69119746D01*
X28604099Y-69114477D01*
X28590342Y-69111272D01*
X28587984Y-69110794D01*
X28582551Y-69114750D01*
X28577634Y-69130143D01*
X28572658Y-69159154D01*
X28569968Y-69179457D01*
X28566284Y-69213061D01*
X28564172Y-69240844D01*
X28563958Y-69258133D01*
X28564340Y-69260673D01*
X28573606Y-69271724D01*
X28593283Y-69281735D01*
X28621090Y-69290417D01*
X28654751Y-69297482D01*
X28691988Y-69302642D01*
X28730521Y-69305610D01*
X28768074Y-69306097D01*
X28802368Y-69303816D01*
X28831125Y-69298478D01*
X28840239Y-69295546D01*
X28895211Y-69267500D01*
X28940704Y-69228203D01*
X28976674Y-69177745D01*
X29003072Y-69116215D01*
X29019853Y-69043703D01*
X29026970Y-68960298D01*
X29027227Y-68935440D01*
X29022406Y-68859400D01*
X28873692Y-68859400D01*
X28674939Y-68859400D01*
X28678462Y-68830451D01*
X28689314Y-68787804D01*
X28709529Y-68755921D01*
X28737985Y-68736012D01*
X28772348Y-68729283D01*
X28807067Y-68736734D01*
X28835799Y-68758507D01*
X28857265Y-68793198D01*
X28869639Y-68836117D01*
X28873692Y-68859400D01*
X29022406Y-68859400D01*
X29021776Y-68849468D01*
X29006306Y-68773521D01*
X28980936Y-68707878D01*
X28945788Y-68652817D01*
X28900981Y-68608617D01*
X28879800Y-68593670D01*
X28855111Y-68579442D01*
X28832652Y-68570847D01*
X28806935Y-68566216D01*
X28783515Y-68564410D01*
X28724045Y-68567894D01*
X28724045Y-68567894D01*
G37*
X28724045Y-68567894D02*
X28671941Y-68585162D01*
X28627217Y-68616201D01*
X28589891Y-68661000D01*
X28559977Y-68719544D01*
X28547081Y-68756312D01*
X28540736Y-68783490D01*
X28536223Y-68818993D01*
X28533195Y-68866152D01*
X28531995Y-68899617D01*
X28529017Y-69003333D01*
X28701234Y-69003333D01*
X28760366Y-69003643D01*
X28806951Y-69004575D01*
X28841130Y-69006137D01*
X28863049Y-69008337D01*
X28872850Y-69011182D01*
X28873450Y-69012221D01*
X28869435Y-69030816D01*
X28859351Y-69054799D01*
X28846147Y-69077629D01*
X28840716Y-69084893D01*
X28807230Y-69114700D01*
X28766188Y-69131835D01*
X28717253Y-69136373D01*
X28660088Y-69128386D01*
X28651200Y-69126219D01*
X28625559Y-69119746D01*
X28604099Y-69114477D01*
X28590342Y-69111272D01*
X28587984Y-69110794D01*
X28582551Y-69114750D01*
X28577634Y-69130143D01*
X28572658Y-69159154D01*
X28569968Y-69179457D01*
X28566284Y-69213061D01*
X28564172Y-69240844D01*
X28563958Y-69258133D01*
X28564340Y-69260673D01*
X28573606Y-69271724D01*
X28593283Y-69281735D01*
X28621090Y-69290417D01*
X28654751Y-69297482D01*
X28691988Y-69302642D01*
X28730521Y-69305610D01*
X28768074Y-69306097D01*
X28802368Y-69303816D01*
X28831125Y-69298478D01*
X28840239Y-69295546D01*
X28895211Y-69267500D01*
X28940704Y-69228203D01*
X28976674Y-69177745D01*
X29003072Y-69116215D01*
X29019853Y-69043703D01*
X29026970Y-68960298D01*
X29027227Y-68935440D01*
X29022406Y-68859400D01*
X28873692Y-68859400D01*
X28674939Y-68859400D01*
X28678462Y-68830451D01*
X28689314Y-68787804D01*
X28709529Y-68755921D01*
X28737985Y-68736012D01*
X28772348Y-68729283D01*
X28807067Y-68736734D01*
X28835799Y-68758507D01*
X28857265Y-68793198D01*
X28869639Y-68836117D01*
X28873692Y-68859400D01*
X29022406Y-68859400D01*
X29021776Y-68849468D01*
X29006306Y-68773521D01*
X28980936Y-68707878D01*
X28945788Y-68652817D01*
X28900981Y-68608617D01*
X28879800Y-68593670D01*
X28855111Y-68579442D01*
X28832652Y-68570847D01*
X28806935Y-68566216D01*
X28783515Y-68564410D01*
X28724045Y-68567894D01*
G36*
X28172991Y-68564966D02*
X28129146Y-68571422D01*
X28114189Y-68575081D01*
X28090223Y-68582260D01*
X28071238Y-68589011D01*
X28060555Y-68594122D01*
X28059555Y-68595022D01*
X28059098Y-68604938D01*
X28060978Y-68626593D01*
X28064514Y-68655280D01*
X28069025Y-68686290D01*
X28073831Y-68714915D01*
X28078251Y-68736446D01*
X28081376Y-68745923D01*
X28088525Y-68746059D01*
X28104467Y-68742733D01*
X28124820Y-68736946D01*
X28159426Y-68728684D01*
X28194182Y-68724891D01*
X28225505Y-68725624D01*
X28249812Y-68730940D01*
X28257500Y-68734838D01*
X28270931Y-68752162D01*
X28275764Y-68776359D01*
X28271168Y-68800904D01*
X28266904Y-68808779D01*
X28256561Y-68818589D01*
X28237513Y-68832077D01*
X28212973Y-68847069D01*
X28198166Y-68855241D01*
X28147488Y-68884339D01*
X28107996Y-68912488D01*
X28078316Y-68941259D01*
X28057074Y-68972227D01*
X28042898Y-69006964D01*
X28035163Y-69041995D01*
X28030851Y-69104448D01*
X28038146Y-69160259D01*
X28056778Y-69208774D01*
X28086473Y-69249337D01*
X28126961Y-69281295D01*
X28136850Y-69286873D01*
X28159275Y-69294765D01*
X28190959Y-69300659D01*
X28228536Y-69304420D01*
X28268643Y-69305916D01*
X28307916Y-69305013D01*
X28342990Y-69301577D01*
X28368625Y-69296075D01*
X28400853Y-69285443D01*
X28422299Y-69276327D01*
X28434714Y-69267506D01*
X28439850Y-69257761D01*
X28439597Y-69246623D01*
X28436589Y-69228210D01*
X28432297Y-69200089D01*
X28428762Y-69176007D01*
X28423455Y-69141278D01*
X28418168Y-69120738D01*
X28410411Y-69111975D01*
X28397698Y-69112579D01*
X28377541Y-69120138D01*
X28373042Y-69122005D01*
X28332532Y-69135784D01*
X28293202Y-69143649D01*
X28257034Y-69145732D01*
X28226009Y-69142166D01*
X28202109Y-69133084D01*
X28187316Y-69118620D01*
X28183933Y-69109298D01*
X28181896Y-69095708D01*
X28182295Y-69084137D01*
X28186417Y-69073350D01*
X28195550Y-69062116D01*
X28210981Y-69049203D01*
X28233997Y-69033376D01*
X28265886Y-69013404D01*
X28307935Y-68988055D01*
X28314956Y-68983858D01*
X28358682Y-68952113D01*
X28390814Y-68915688D01*
X28412160Y-68873530D01*
X28419488Y-68848012D01*
X28427658Y-68785734D01*
X28423869Y-68728172D01*
X28408570Y-68676638D01*
X28382208Y-68632448D01*
X28345231Y-68596913D01*
X28330525Y-68587159D01*
X28300829Y-68574800D01*
X28262338Y-68566852D01*
X28218557Y-68563508D01*
X28172991Y-68564966D01*
X28172991Y-68564966D01*
G37*
X28172991Y-68564966D02*
X28129146Y-68571422D01*
X28114189Y-68575081D01*
X28090223Y-68582260D01*
X28071238Y-68589011D01*
X28060555Y-68594122D01*
X28059555Y-68595022D01*
X28059098Y-68604938D01*
X28060978Y-68626593D01*
X28064514Y-68655280D01*
X28069025Y-68686290D01*
X28073831Y-68714915D01*
X28078251Y-68736446D01*
X28081376Y-68745923D01*
X28088525Y-68746059D01*
X28104467Y-68742733D01*
X28124820Y-68736946D01*
X28159426Y-68728684D01*
X28194182Y-68724891D01*
X28225505Y-68725624D01*
X28249812Y-68730940D01*
X28257500Y-68734838D01*
X28270931Y-68752162D01*
X28275764Y-68776359D01*
X28271168Y-68800904D01*
X28266904Y-68808779D01*
X28256561Y-68818589D01*
X28237513Y-68832077D01*
X28212973Y-68847069D01*
X28198166Y-68855241D01*
X28147488Y-68884339D01*
X28107996Y-68912488D01*
X28078316Y-68941259D01*
X28057074Y-68972227D01*
X28042898Y-69006964D01*
X28035163Y-69041995D01*
X28030851Y-69104448D01*
X28038146Y-69160259D01*
X28056778Y-69208774D01*
X28086473Y-69249337D01*
X28126961Y-69281295D01*
X28136850Y-69286873D01*
X28159275Y-69294765D01*
X28190959Y-69300659D01*
X28228536Y-69304420D01*
X28268643Y-69305916D01*
X28307916Y-69305013D01*
X28342990Y-69301577D01*
X28368625Y-69296075D01*
X28400853Y-69285443D01*
X28422299Y-69276327D01*
X28434714Y-69267506D01*
X28439850Y-69257761D01*
X28439597Y-69246623D01*
X28436589Y-69228210D01*
X28432297Y-69200089D01*
X28428762Y-69176007D01*
X28423455Y-69141278D01*
X28418168Y-69120738D01*
X28410411Y-69111975D01*
X28397698Y-69112579D01*
X28377541Y-69120138D01*
X28373042Y-69122005D01*
X28332532Y-69135784D01*
X28293202Y-69143649D01*
X28257034Y-69145732D01*
X28226009Y-69142166D01*
X28202109Y-69133084D01*
X28187316Y-69118620D01*
X28183933Y-69109298D01*
X28181896Y-69095708D01*
X28182295Y-69084137D01*
X28186417Y-69073350D01*
X28195550Y-69062116D01*
X28210981Y-69049203D01*
X28233997Y-69033376D01*
X28265886Y-69013404D01*
X28307935Y-68988055D01*
X28314956Y-68983858D01*
X28358682Y-68952113D01*
X28390814Y-68915688D01*
X28412160Y-68873530D01*
X28419488Y-68848012D01*
X28427658Y-68785734D01*
X28423869Y-68728172D01*
X28408570Y-68676638D01*
X28382208Y-68632448D01*
X28345231Y-68596913D01*
X28330525Y-68587159D01*
X28300829Y-68574800D01*
X28262338Y-68566852D01*
X28218557Y-68563508D01*
X28172991Y-68564966D01*
G36*
X26181042Y-68565345D02*
X26136339Y-68572604D01*
X26126639Y-68575081D01*
X26102582Y-68582349D01*
X26083425Y-68589317D01*
X26072532Y-68594727D01*
X26071488Y-68595697D01*
X26070897Y-68605838D01*
X26072747Y-68627652D01*
X26076339Y-68656407D01*
X26080972Y-68687367D01*
X26085945Y-68715800D01*
X26090559Y-68736972D01*
X26093675Y-68745722D01*
X26100904Y-68745960D01*
X26116909Y-68742704D01*
X26137270Y-68736946D01*
X26171875Y-68728684D01*
X26206630Y-68724891D01*
X26237954Y-68725623D01*
X26262262Y-68730938D01*
X26269950Y-68734835D01*
X26283302Y-68752065D01*
X26288254Y-68776070D01*
X26284128Y-68800190D01*
X26277727Y-68811113D01*
X26267022Y-68820198D01*
X26247546Y-68833355D01*
X26222383Y-68848590D01*
X26202806Y-68859548D01*
X26152299Y-68889388D01*
X26113110Y-68918791D01*
X26083956Y-68949413D01*
X26063552Y-68982906D01*
X26050615Y-69020924D01*
X26043951Y-69064065D01*
X26044025Y-69124455D01*
X26055263Y-69177873D01*
X26077390Y-69223260D01*
X26089355Y-69239077D01*
X26111096Y-69260893D01*
X26135173Y-69279681D01*
X26148065Y-69287237D01*
X26171696Y-69294858D01*
X26204479Y-69300533D01*
X26242939Y-69304130D01*
X26283601Y-69305516D01*
X26322990Y-69304561D01*
X26357631Y-69301133D01*
X26381075Y-69296075D01*
X26412948Y-69285583D01*
X26434086Y-69276639D01*
X26446278Y-69267983D01*
X26451312Y-69258357D01*
X26451047Y-69246885D01*
X26448086Y-69228892D01*
X26443616Y-69200606D01*
X26438901Y-69170073D01*
X26434168Y-69140904D01*
X26430097Y-69119035D01*
X26427541Y-69109042D01*
X26427485Y-69108957D01*
X26420567Y-69109471D01*
X26404942Y-69114168D01*
X26383987Y-69122032D01*
X26383922Y-69122059D01*
X26355449Y-69131510D01*
X26322087Y-69139595D01*
X26294780Y-69144062D01*
X26253239Y-69145486D01*
X26222891Y-69139136D01*
X26203634Y-69124974D01*
X26195988Y-69107199D01*
X26194355Y-69091399D01*
X26196845Y-69077529D01*
X26204815Y-69064220D01*
X26219620Y-69050104D01*
X26242617Y-69033813D01*
X26275164Y-69013980D01*
X26305873Y-68996399D01*
X26349740Y-68968981D01*
X26382744Y-68941451D01*
X26406614Y-68911477D01*
X26423077Y-68876727D01*
X26433862Y-68834870D01*
X26436271Y-68820427D01*
X26439222Y-68761201D01*
X26430393Y-68706035D01*
X26410621Y-68657057D01*
X26380743Y-68616393D01*
X26344802Y-68588008D01*
X26313274Y-68575012D01*
X26273087Y-68566762D01*
X26227817Y-68563469D01*
X26181042Y-68565345D01*
X26181042Y-68565345D01*
G37*
X26181042Y-68565345D02*
X26136339Y-68572604D01*
X26126639Y-68575081D01*
X26102582Y-68582349D01*
X26083425Y-68589317D01*
X26072532Y-68594727D01*
X26071488Y-68595697D01*
X26070897Y-68605838D01*
X26072747Y-68627652D01*
X26076339Y-68656407D01*
X26080972Y-68687367D01*
X26085945Y-68715800D01*
X26090559Y-68736972D01*
X26093675Y-68745722D01*
X26100904Y-68745960D01*
X26116909Y-68742704D01*
X26137270Y-68736946D01*
X26171875Y-68728684D01*
X26206630Y-68724891D01*
X26237954Y-68725623D01*
X26262262Y-68730938D01*
X26269950Y-68734835D01*
X26283302Y-68752065D01*
X26288254Y-68776070D01*
X26284128Y-68800190D01*
X26277727Y-68811113D01*
X26267022Y-68820198D01*
X26247546Y-68833355D01*
X26222383Y-68848590D01*
X26202806Y-68859548D01*
X26152299Y-68889388D01*
X26113110Y-68918791D01*
X26083956Y-68949413D01*
X26063552Y-68982906D01*
X26050615Y-69020924D01*
X26043951Y-69064065D01*
X26044025Y-69124455D01*
X26055263Y-69177873D01*
X26077390Y-69223260D01*
X26089355Y-69239077D01*
X26111096Y-69260893D01*
X26135173Y-69279681D01*
X26148065Y-69287237D01*
X26171696Y-69294858D01*
X26204479Y-69300533D01*
X26242939Y-69304130D01*
X26283601Y-69305516D01*
X26322990Y-69304561D01*
X26357631Y-69301133D01*
X26381075Y-69296075D01*
X26412948Y-69285583D01*
X26434086Y-69276639D01*
X26446278Y-69267983D01*
X26451312Y-69258357D01*
X26451047Y-69246885D01*
X26448086Y-69228892D01*
X26443616Y-69200606D01*
X26438901Y-69170073D01*
X26434168Y-69140904D01*
X26430097Y-69119035D01*
X26427541Y-69109042D01*
X26427485Y-69108957D01*
X26420567Y-69109471D01*
X26404942Y-69114168D01*
X26383987Y-69122032D01*
X26383922Y-69122059D01*
X26355449Y-69131510D01*
X26322087Y-69139595D01*
X26294780Y-69144062D01*
X26253239Y-69145486D01*
X26222891Y-69139136D01*
X26203634Y-69124974D01*
X26195988Y-69107199D01*
X26194355Y-69091399D01*
X26196845Y-69077529D01*
X26204815Y-69064220D01*
X26219620Y-69050104D01*
X26242617Y-69033813D01*
X26275164Y-69013980D01*
X26305873Y-68996399D01*
X26349740Y-68968981D01*
X26382744Y-68941451D01*
X26406614Y-68911477D01*
X26423077Y-68876727D01*
X26433862Y-68834870D01*
X26436271Y-68820427D01*
X26439222Y-68761201D01*
X26430393Y-68706035D01*
X26410621Y-68657057D01*
X26380743Y-68616393D01*
X26344802Y-68588008D01*
X26313274Y-68575012D01*
X26273087Y-68566762D01*
X26227817Y-68563469D01*
X26181042Y-68565345D01*
G36*
X29469037Y-68348656D02*
X29440446Y-68350172D01*
X29417709Y-68352791D01*
X29398545Y-68356707D01*
X29380676Y-68362113D01*
X29378275Y-68362954D01*
X29313520Y-68393285D01*
X29258270Y-68434816D01*
X29212613Y-68487390D01*
X29176637Y-68550849D01*
X29150428Y-68625035D01*
X29134073Y-68709790D01*
X29127659Y-68804956D01*
X29127561Y-68817629D01*
X29129936Y-68893151D01*
X29137860Y-68958472D01*
X29152154Y-69019105D01*
X29162126Y-69049900D01*
X29192456Y-69119286D01*
X29230911Y-69176885D01*
X29278325Y-69223637D01*
X29335532Y-69260483D01*
X29358728Y-69271523D01*
X29377847Y-69279512D01*
X29395110Y-69285418D01*
X29413037Y-69289602D01*
X29434144Y-69292424D01*
X29460948Y-69294244D01*
X29495968Y-69295423D01*
X29530675Y-69296130D01*
X29572353Y-69296355D01*
X29613170Y-69295659D01*
X29650050Y-69294160D01*
X29679914Y-69291978D01*
X29697417Y-69289687D01*
X29743509Y-69281112D01*
X29742947Y-69124051D01*
X29584815Y-69124051D01*
X29516470Y-69119877D01*
X29473694Y-69115663D01*
X29440230Y-69108477D01*
X29412806Y-69097611D01*
X29412293Y-69097349D01*
X29376064Y-69070709D01*
X29343496Y-69031638D01*
X29317922Y-68984631D01*
X29307901Y-68956528D01*
X29302170Y-68932493D01*
X29298475Y-68905059D01*
X29296459Y-68869986D01*
X29295763Y-68823037D01*
X29295750Y-68812833D01*
X29296064Y-68767251D01*
X29297283Y-68734208D01*
X29299862Y-68709322D01*
X29304254Y-68688210D01*
X29310914Y-68666489D01*
X29310922Y-68666465D01*
X29334296Y-68616778D01*
X29366684Y-68575714D01*
X29405127Y-68546727D01*
X29418997Y-68540258D01*
X29448418Y-68532151D01*
X29486242Y-68527068D01*
X29517975Y-68525606D01*
X29581475Y-68524967D01*
X29584815Y-69124051D01*
X29742947Y-69124051D01*
X29741867Y-68822839D01*
X29740225Y-68364567D01*
X29711650Y-68356861D01*
X29696523Y-68354443D01*
X29671163Y-68352233D01*
X29638040Y-68350368D01*
X29599621Y-68348981D01*
X29558375Y-68348210D01*
X29552900Y-68348161D01*
X29505762Y-68348050D01*
X29469037Y-68348656D01*
X29469037Y-68348656D01*
G37*
X29469037Y-68348656D02*
X29440446Y-68350172D01*
X29417709Y-68352791D01*
X29398545Y-68356707D01*
X29380676Y-68362113D01*
X29378275Y-68362954D01*
X29313520Y-68393285D01*
X29258270Y-68434816D01*
X29212613Y-68487390D01*
X29176637Y-68550849D01*
X29150428Y-68625035D01*
X29134073Y-68709790D01*
X29127659Y-68804956D01*
X29127561Y-68817629D01*
X29129936Y-68893151D01*
X29137860Y-68958472D01*
X29152154Y-69019105D01*
X29162126Y-69049900D01*
X29192456Y-69119286D01*
X29230911Y-69176885D01*
X29278325Y-69223637D01*
X29335532Y-69260483D01*
X29358728Y-69271523D01*
X29377847Y-69279512D01*
X29395110Y-69285418D01*
X29413037Y-69289602D01*
X29434144Y-69292424D01*
X29460948Y-69294244D01*
X29495968Y-69295423D01*
X29530675Y-69296130D01*
X29572353Y-69296355D01*
X29613170Y-69295659D01*
X29650050Y-69294160D01*
X29679914Y-69291978D01*
X29697417Y-69289687D01*
X29743509Y-69281112D01*
X29742947Y-69124051D01*
X29584815Y-69124051D01*
X29516470Y-69119877D01*
X29473694Y-69115663D01*
X29440230Y-69108477D01*
X29412806Y-69097611D01*
X29412293Y-69097349D01*
X29376064Y-69070709D01*
X29343496Y-69031638D01*
X29317922Y-68984631D01*
X29307901Y-68956528D01*
X29302170Y-68932493D01*
X29298475Y-68905059D01*
X29296459Y-68869986D01*
X29295763Y-68823037D01*
X29295750Y-68812833D01*
X29296064Y-68767251D01*
X29297283Y-68734208D01*
X29299862Y-68709322D01*
X29304254Y-68688210D01*
X29310914Y-68666489D01*
X29310922Y-68666465D01*
X29334296Y-68616778D01*
X29366684Y-68575714D01*
X29405127Y-68546727D01*
X29418997Y-68540258D01*
X29448418Y-68532151D01*
X29486242Y-68527068D01*
X29517975Y-68525606D01*
X29581475Y-68524967D01*
X29584815Y-69124051D01*
X29742947Y-69124051D01*
X29741867Y-68822839D01*
X29740225Y-68364567D01*
X29711650Y-68356861D01*
X29696523Y-68354443D01*
X29671163Y-68352233D01*
X29638040Y-68350368D01*
X29599621Y-68348981D01*
X29558375Y-68348210D01*
X29552900Y-68348161D01*
X29505762Y-68348050D01*
X29469037Y-68348656D01*
G36*
X32946208Y-68570921D02*
X32909554Y-68580656D01*
X32891877Y-68587727D01*
X32883993Y-68595134D01*
X32883147Y-68605828D01*
X32883559Y-68608500D01*
X32886338Y-68625465D01*
X32890739Y-68653299D01*
X32895857Y-68686280D01*
X32896366Y-68689590D01*
X32901177Y-68719918D01*
X32905109Y-68742872D01*
X32907433Y-68754232D01*
X32907632Y-68754730D01*
X32914164Y-68754262D01*
X32928889Y-68750650D01*
X32937623Y-68748078D01*
X32956900Y-68743988D01*
X32981992Y-68741155D01*
X33009341Y-68739664D01*
X33035389Y-68739601D01*
X33056576Y-68741053D01*
X33069346Y-68744107D01*
X33070504Y-68744856D01*
X33072645Y-68755233D01*
X33074375Y-68782423D01*
X33075690Y-68826313D01*
X33076588Y-68886793D01*
X33077066Y-68963750D01*
X33077150Y-69020767D01*
X33077150Y-69291200D01*
X33229550Y-69291200D01*
X33229550Y-68615722D01*
X33177163Y-68596874D01*
X33094324Y-68573433D01*
X33017293Y-68564779D01*
X32946208Y-68570921D01*
X32946208Y-68570921D01*
G37*
X32946208Y-68570921D02*
X32909554Y-68580656D01*
X32891877Y-68587727D01*
X32883993Y-68595134D01*
X32883147Y-68605828D01*
X32883559Y-68608500D01*
X32886338Y-68625465D01*
X32890739Y-68653299D01*
X32895857Y-68686280D01*
X32896366Y-68689590D01*
X32901177Y-68719918D01*
X32905109Y-68742872D01*
X32907433Y-68754232D01*
X32907632Y-68754730D01*
X32914164Y-68754262D01*
X32928889Y-68750650D01*
X32937623Y-68748078D01*
X32956900Y-68743988D01*
X32981992Y-68741155D01*
X33009341Y-68739664D01*
X33035389Y-68739601D01*
X33056576Y-68741053D01*
X33069346Y-68744107D01*
X33070504Y-68744856D01*
X33072645Y-68755233D01*
X33074375Y-68782423D01*
X33075690Y-68826313D01*
X33076588Y-68886793D01*
X33077066Y-68963750D01*
X33077150Y-69020767D01*
X33077150Y-69291200D01*
X33229550Y-69291200D01*
X33229550Y-68615722D01*
X33177163Y-68596874D01*
X33094324Y-68573433D01*
X33017293Y-68564779D01*
X32946208Y-68570921D01*
G36*
X31596975Y-68245219D02*
X31595185Y-68256521D01*
X31593781Y-68277122D01*
X31592726Y-68308373D01*
X31591984Y-68351631D01*
X31591517Y-68408248D01*
X31591288Y-68479578D01*
X31591250Y-68533434D01*
X31591100Y-68601852D01*
X31590673Y-68664577D01*
X31590004Y-68719680D01*
X31589130Y-68765231D01*
X31588086Y-68799300D01*
X31586907Y-68819956D01*
X31585859Y-68825533D01*
X31580367Y-68819510D01*
X31568239Y-68803067D01*
X31551103Y-68778641D01*
X31530587Y-68748672D01*
X31508318Y-68715599D01*
X31485924Y-68681858D01*
X31465032Y-68649890D01*
X31447269Y-68622132D01*
X31434264Y-68601023D01*
X31427643Y-68589002D01*
X31427209Y-68587833D01*
X31420451Y-68585055D01*
X31403296Y-68582712D01*
X31378043Y-68580993D01*
X31346995Y-68580090D01*
X31333076Y-68580000D01*
X31241059Y-68580000D01*
X31307756Y-68679484D01*
X31334778Y-68719283D01*
X31362828Y-68759733D01*
X31389060Y-68796785D01*
X31410631Y-68826391D01*
X31415856Y-68833331D01*
X31457258Y-68887695D01*
X31422174Y-68938222D01*
X31385338Y-68994423D01*
X31346887Y-69058564D01*
X31310061Y-69124937D01*
X31278105Y-69187836D01*
X31267627Y-69210266D01*
X31253967Y-69240919D01*
X31243217Y-69265991D01*
X31236812Y-69282083D01*
X31235650Y-69286026D01*
X31241613Y-69287925D01*
X31257952Y-69289510D01*
X31282343Y-69290641D01*
X31312464Y-69291176D01*
X31320669Y-69291200D01*
X31405687Y-69291200D01*
X31453325Y-69195950D01*
X31474011Y-69156291D01*
X31496540Y-69115940D01*
X31519421Y-69077261D01*
X31541163Y-69042618D01*
X31560276Y-69014375D01*
X31575269Y-68994897D01*
X31584651Y-68986547D01*
X31585463Y-68986400D01*
X31587375Y-68994457D01*
X31589002Y-69016994D01*
X31590251Y-69051558D01*
X31591029Y-69095697D01*
X31591250Y-69138800D01*
X31591250Y-69291200D01*
X31737400Y-69291200D01*
X31735763Y-68781310D01*
X31734125Y-68271421D01*
X31670625Y-68256903D01*
X31643062Y-68250723D01*
X31619833Y-68245739D01*
X31604025Y-68242602D01*
X31599188Y-68241860D01*
X31596975Y-68245219D01*
X31596975Y-68245219D01*
G37*
X31596975Y-68245219D02*
X31595185Y-68256521D01*
X31593781Y-68277122D01*
X31592726Y-68308373D01*
X31591984Y-68351631D01*
X31591517Y-68408248D01*
X31591288Y-68479578D01*
X31591250Y-68533434D01*
X31591100Y-68601852D01*
X31590673Y-68664577D01*
X31590004Y-68719680D01*
X31589130Y-68765231D01*
X31588086Y-68799300D01*
X31586907Y-68819956D01*
X31585859Y-68825533D01*
X31580367Y-68819510D01*
X31568239Y-68803067D01*
X31551103Y-68778641D01*
X31530587Y-68748672D01*
X31508318Y-68715599D01*
X31485924Y-68681858D01*
X31465032Y-68649890D01*
X31447269Y-68622132D01*
X31434264Y-68601023D01*
X31427643Y-68589002D01*
X31427209Y-68587833D01*
X31420451Y-68585055D01*
X31403296Y-68582712D01*
X31378043Y-68580993D01*
X31346995Y-68580090D01*
X31333076Y-68580000D01*
X31241059Y-68580000D01*
X31307756Y-68679484D01*
X31334778Y-68719283D01*
X31362828Y-68759733D01*
X31389060Y-68796785D01*
X31410631Y-68826391D01*
X31415856Y-68833331D01*
X31457258Y-68887695D01*
X31422174Y-68938222D01*
X31385338Y-68994423D01*
X31346887Y-69058564D01*
X31310061Y-69124937D01*
X31278105Y-69187836D01*
X31267627Y-69210266D01*
X31253967Y-69240919D01*
X31243217Y-69265991D01*
X31236812Y-69282083D01*
X31235650Y-69286026D01*
X31241613Y-69287925D01*
X31257952Y-69289510D01*
X31282343Y-69290641D01*
X31312464Y-69291176D01*
X31320669Y-69291200D01*
X31405687Y-69291200D01*
X31453325Y-69195950D01*
X31474011Y-69156291D01*
X31496540Y-69115940D01*
X31519421Y-69077261D01*
X31541163Y-69042618D01*
X31560276Y-69014375D01*
X31575269Y-68994897D01*
X31584651Y-68986547D01*
X31585463Y-68986400D01*
X31587375Y-68994457D01*
X31589002Y-69016994D01*
X31590251Y-69051558D01*
X31591029Y-69095697D01*
X31591250Y-69138800D01*
X31591250Y-69291200D01*
X31737400Y-69291200D01*
X31735763Y-68781310D01*
X31734125Y-68271421D01*
X31670625Y-68256903D01*
X31643062Y-68250723D01*
X31619833Y-68245739D01*
X31604025Y-68242602D01*
X31599188Y-68241860D01*
X31596975Y-68245219D01*
G36*
X30243007Y-68595579D02*
X30212722Y-68618550D01*
X30190649Y-68643480D01*
X30178478Y-68663205D01*
X30167256Y-68685030D01*
X30158162Y-68706442D01*
X30150944Y-68729543D01*
X30145347Y-68756434D01*
X30141116Y-68789216D01*
X30137998Y-68829991D01*
X30135739Y-68880859D01*
X30134084Y-68943922D01*
X30132778Y-69021282D01*
X30132471Y-69043550D01*
X30129153Y-69291200D01*
X30283150Y-69291200D01*
X30283150Y-69089156D01*
X30283480Y-69008522D01*
X30284563Y-68942968D01*
X30286541Y-68890662D01*
X30289559Y-68849770D01*
X30293758Y-68818460D01*
X30299280Y-68794898D01*
X30306269Y-68777251D01*
X30307599Y-68774733D01*
X30328090Y-68751202D01*
X30357173Y-68737505D01*
X30392666Y-68734504D01*
X30405570Y-68736033D01*
X30441900Y-68742085D01*
X30441900Y-69291200D01*
X30594443Y-69291200D01*
X30591125Y-68601216D01*
X30540325Y-68585682D01*
X30509078Y-68578042D01*
X30472155Y-68572832D01*
X30427000Y-68569765D01*
X30387823Y-68568724D01*
X30286120Y-68567300D01*
X30243007Y-68595579D01*
X30243007Y-68595579D01*
G37*
X30243007Y-68595579D02*
X30212722Y-68618550D01*
X30190649Y-68643480D01*
X30178478Y-68663205D01*
X30167256Y-68685030D01*
X30158162Y-68706442D01*
X30150944Y-68729543D01*
X30145347Y-68756434D01*
X30141116Y-68789216D01*
X30137998Y-68829991D01*
X30135739Y-68880859D01*
X30134084Y-68943922D01*
X30132778Y-69021282D01*
X30132471Y-69043550D01*
X30129153Y-69291200D01*
X30283150Y-69291200D01*
X30283150Y-69089156D01*
X30283480Y-69008522D01*
X30284563Y-68942968D01*
X30286541Y-68890662D01*
X30289559Y-68849770D01*
X30293758Y-68818460D01*
X30299280Y-68794898D01*
X30306269Y-68777251D01*
X30307599Y-68774733D01*
X30328090Y-68751202D01*
X30357173Y-68737505D01*
X30392666Y-68734504D01*
X30405570Y-68736033D01*
X30441900Y-68742085D01*
X30441900Y-69291200D01*
X30594443Y-69291200D01*
X30591125Y-68601216D01*
X30540325Y-68585682D01*
X30509078Y-68578042D01*
X30472155Y-68572832D01*
X30427000Y-68569765D01*
X30387823Y-68568724D01*
X30286120Y-68567300D01*
X30243007Y-68595579D01*
G36*
X27768550Y-69291200D02*
X27920950Y-69291200D01*
X27920950Y-68580000D01*
X27768550Y-68580000D01*
X27768550Y-69291200D01*
X27768550Y-69291200D01*
G37*
X27768550Y-69291200D02*
X27920950Y-69291200D01*
X27920950Y-68580000D01*
X27768550Y-68580000D01*
X27768550Y-69291200D01*
G36*
X26668331Y-68595327D02*
X26636750Y-68619619D01*
X26612925Y-68647657D01*
X26593485Y-68684187D01*
X26579704Y-68720166D01*
X26575645Y-68732529D01*
X26572404Y-68744931D01*
X26569872Y-68759411D01*
X26567937Y-68778010D01*
X26566491Y-68802769D01*
X26565424Y-68835727D01*
X26564627Y-68878925D01*
X26563989Y-68934404D01*
X26563401Y-69004203D01*
X26563230Y-69026617D01*
X26561234Y-69291200D01*
X26708100Y-69291200D01*
X26708149Y-69115517D01*
X26708781Y-69021515D01*
X26710661Y-68943558D01*
X26713846Y-68880830D01*
X26718394Y-68832516D01*
X26724363Y-68797802D01*
X26731811Y-68775873D01*
X26732374Y-68774823D01*
X26751792Y-68752987D01*
X26779795Y-68739202D01*
X26813362Y-68734631D01*
X26832220Y-68736316D01*
X26866850Y-68742085D01*
X26866850Y-69291200D01*
X27019393Y-69291200D01*
X27016075Y-68601216D01*
X26965275Y-68585530D01*
X26935245Y-68578013D01*
X26900372Y-68572869D01*
X26857937Y-68569796D01*
X26812762Y-68568572D01*
X26711048Y-68567300D01*
X26668331Y-68595327D01*
X26668331Y-68595327D01*
G37*
X26668331Y-68595327D02*
X26636750Y-68619619D01*
X26612925Y-68647657D01*
X26593485Y-68684187D01*
X26579704Y-68720166D01*
X26575645Y-68732529D01*
X26572404Y-68744931D01*
X26569872Y-68759411D01*
X26567937Y-68778010D01*
X26566491Y-68802769D01*
X26565424Y-68835727D01*
X26564627Y-68878925D01*
X26563989Y-68934404D01*
X26563401Y-69004203D01*
X26563230Y-69026617D01*
X26561234Y-69291200D01*
X26708100Y-69291200D01*
X26708149Y-69115517D01*
X26708781Y-69021515D01*
X26710661Y-68943558D01*
X26713846Y-68880830D01*
X26718394Y-68832516D01*
X26724363Y-68797802D01*
X26731811Y-68775873D01*
X26732374Y-68774823D01*
X26751792Y-68752987D01*
X26779795Y-68739202D01*
X26813362Y-68734631D01*
X26832220Y-68736316D01*
X26866850Y-68742085D01*
X26866850Y-69291200D01*
X27019393Y-69291200D01*
X27016075Y-68601216D01*
X26965275Y-68585530D01*
X26935245Y-68578013D01*
X26900372Y-68572869D01*
X26857937Y-68569796D01*
X26812762Y-68568572D01*
X26711048Y-68567300D01*
X26668331Y-68595327D01*
G36*
X27801073Y-68267120D02*
X27789881Y-68275266D01*
X27771247Y-68299981D01*
X27759290Y-68334519D01*
X27754795Y-68373698D01*
X27758550Y-68412340D01*
X27765707Y-68434535D01*
X27786202Y-68465223D01*
X27813592Y-68484028D01*
X27844804Y-68489558D01*
X27872158Y-68482730D01*
X27900039Y-68464940D01*
X27918152Y-68440326D01*
X27928177Y-68410105D01*
X27932273Y-68366966D01*
X27925742Y-68328268D01*
X27910508Y-68295889D01*
X27888499Y-68271707D01*
X27861639Y-68257600D01*
X27831855Y-68255445D01*
X27801073Y-68267120D01*
X27801073Y-68267120D01*
G37*
X27801073Y-68267120D02*
X27789881Y-68275266D01*
X27771247Y-68299981D01*
X27759290Y-68334519D01*
X27754795Y-68373698D01*
X27758550Y-68412340D01*
X27765707Y-68434535D01*
X27786202Y-68465223D01*
X27813592Y-68484028D01*
X27844804Y-68489558D01*
X27872158Y-68482730D01*
X27900039Y-68464940D01*
X27918152Y-68440326D01*
X27928177Y-68410105D01*
X27932273Y-68366966D01*
X27925742Y-68328268D01*
X27910508Y-68295889D01*
X27888499Y-68271707D01*
X27861639Y-68257600D01*
X27831855Y-68255445D01*
X27801073Y-68267120D01*
G04 #@! TD*
M02*
