M48
;DRILL file {KiCad 5.0.2-bee76a0~70~ubuntu18.10.1} date dom 17 mar 2019 01:28:39 CET
;FORMAT={-:-/ absolute / metric / decimal}
FMAT,2
METRIC,TZ
T1C0.400
T2C0.800
T3C1.000
%
G90
G05
T1
X34.809Y-51.158
T2
X17.323Y-17.069
X17.323Y-19.609
X17.323Y-22.149
X17.323Y-24.689
X17.323Y-27.229
X17.323Y-29.769
X17.323Y-32.309
X17.323Y-34.849
X17.323Y-37.389
X17.323Y-39.929
X17.323Y-42.469
X17.323Y-45.009
X17.323Y-47.549
X17.323Y-50.089
X17.323Y-52.629
X17.323Y-55.169
X17.323Y-57.709
X17.323Y-60.249
X17.323Y-62.789
X17.323Y-65.329
X32.563Y-17.069
X32.563Y-19.609
X32.563Y-22.149
X32.563Y-24.689
X32.563Y-27.229
X32.563Y-29.769
X32.563Y-32.309
X32.563Y-34.849
X32.563Y-37.389
X32.563Y-39.929
X32.563Y-42.469
X32.563Y-45.009
X32.563Y-47.549
X32.563Y-50.089
X32.563Y-52.629
X32.563Y-55.169
X32.563Y-57.709
X32.563Y-60.249
X32.563Y-62.789
X32.563Y-65.329
X23.52Y-17.069
X23.52Y-19.609
X23.52Y-22.149
X23.52Y-24.689
X23.52Y-27.229
X23.52Y-29.769
X23.52Y-32.309
X23.52Y-34.849
X23.52Y-37.389
X23.52Y-39.929
X23.52Y-42.469
X23.52Y-45.009
X23.52Y-47.549
X23.52Y-50.089
X23.52Y-52.629
X23.52Y-55.169
X23.52Y-57.709
X23.52Y-60.249
X23.52Y-62.789
X23.52Y-65.329
X23.52Y-67.869
X38.76Y-17.069
X38.76Y-19.609
X38.76Y-22.149
X38.76Y-24.689
X38.76Y-27.229
X38.76Y-29.769
X38.76Y-32.309
X38.76Y-34.849
X38.76Y-37.389
X38.76Y-39.929
X38.76Y-42.469
X38.76Y-45.009
X38.76Y-47.549
X38.76Y-50.089
X38.76Y-52.629
X38.76Y-55.169
X38.76Y-57.709
X38.76Y-60.249
X38.76Y-62.789
X38.76Y-65.329
X38.76Y-67.869
T3
X33.274Y-72.492
X35.814Y-72.492
X38.354Y-72.492
X17.729Y-72.492
X20.269Y-72.492
X22.809Y-72.492
T0
M30
