G04 #@! TF.GenerationSoftware,KiCad,Pcbnew,5.0.2-bee76a0~70~ubuntu18.10.1*
G04 #@! TF.CreationDate,2019-03-17T01:28:34+01:00*
G04 #@! TF.ProjectId,27c160 Kickstart,32376331-3630-4204-9b69-636b73746172,rev?*
G04 #@! TF.SameCoordinates,Original*
G04 #@! TF.FileFunction,Soldermask,Bot*
G04 #@! TF.FilePolarity,Negative*
%FSLAX46Y46*%
G04 Gerber Fmt 4.6, Leading zero omitted, Abs format (unit mm)*
G04 Created by KiCad (PCBNEW 5.0.2-bee76a0~70~ubuntu18.10.1) date dom 17 mar 2019 01:28:34 CET*
%MOMM*%
%LPD*%
G01*
G04 APERTURE LIST*
%ADD10C,0.100000*%
G04 APERTURE END LIST*
D10*
G36*
X17839643Y-71597119D02*
X17905827Y-71603637D01*
X18019053Y-71637984D01*
X18075667Y-71655157D01*
X18214287Y-71729252D01*
X18232191Y-71738822D01*
X18267929Y-71768152D01*
X18369386Y-71851414D01*
X18452648Y-71952871D01*
X18481978Y-71988609D01*
X18481979Y-71988611D01*
X18565643Y-72145133D01*
X18565643Y-72145134D01*
X18617163Y-72314973D01*
X18634559Y-72491600D01*
X18617163Y-72668227D01*
X18591019Y-72754412D01*
X18565643Y-72838067D01*
X18522713Y-72918382D01*
X18481978Y-72994591D01*
X18452648Y-73030329D01*
X18369386Y-73131786D01*
X18296680Y-73191453D01*
X18232191Y-73244378D01*
X18232189Y-73244379D01*
X18075667Y-73328043D01*
X18019053Y-73345216D01*
X17905827Y-73379563D01*
X17839643Y-73386081D01*
X17773460Y-73392600D01*
X17684940Y-73392600D01*
X17618757Y-73386081D01*
X17552573Y-73379563D01*
X17439347Y-73345216D01*
X17382733Y-73328043D01*
X17226211Y-73244379D01*
X17226209Y-73244378D01*
X17161720Y-73191453D01*
X17089014Y-73131786D01*
X17005752Y-73030329D01*
X16976422Y-72994591D01*
X16935687Y-72918382D01*
X16892757Y-72838067D01*
X16867381Y-72754412D01*
X16841237Y-72668227D01*
X16823841Y-72491600D01*
X16841237Y-72314973D01*
X16892757Y-72145134D01*
X16892757Y-72145133D01*
X16976421Y-71988611D01*
X16976422Y-71988609D01*
X17005752Y-71952871D01*
X17089014Y-71851414D01*
X17190471Y-71768152D01*
X17226209Y-71738822D01*
X17244113Y-71729252D01*
X17382733Y-71655157D01*
X17439347Y-71637984D01*
X17552573Y-71603637D01*
X17618757Y-71597119D01*
X17684940Y-71590600D01*
X17773460Y-71590600D01*
X17839643Y-71597119D01*
X17839643Y-71597119D01*
G37*
G36*
X20379643Y-71597119D02*
X20445827Y-71603637D01*
X20559053Y-71637984D01*
X20615667Y-71655157D01*
X20754287Y-71729252D01*
X20772191Y-71738822D01*
X20807929Y-71768152D01*
X20909386Y-71851414D01*
X20992648Y-71952871D01*
X21021978Y-71988609D01*
X21021979Y-71988611D01*
X21105643Y-72145133D01*
X21105643Y-72145134D01*
X21157163Y-72314973D01*
X21174559Y-72491600D01*
X21157163Y-72668227D01*
X21131019Y-72754412D01*
X21105643Y-72838067D01*
X21062713Y-72918382D01*
X21021978Y-72994591D01*
X20992648Y-73030329D01*
X20909386Y-73131786D01*
X20836680Y-73191453D01*
X20772191Y-73244378D01*
X20772189Y-73244379D01*
X20615667Y-73328043D01*
X20559053Y-73345216D01*
X20445827Y-73379563D01*
X20379643Y-73386081D01*
X20313460Y-73392600D01*
X20224940Y-73392600D01*
X20158757Y-73386081D01*
X20092573Y-73379563D01*
X19979347Y-73345216D01*
X19922733Y-73328043D01*
X19766211Y-73244379D01*
X19766209Y-73244378D01*
X19701720Y-73191453D01*
X19629014Y-73131786D01*
X19545752Y-73030329D01*
X19516422Y-72994591D01*
X19475687Y-72918382D01*
X19432757Y-72838067D01*
X19407381Y-72754412D01*
X19381237Y-72668227D01*
X19363841Y-72491600D01*
X19381237Y-72314973D01*
X19432757Y-72145134D01*
X19432757Y-72145133D01*
X19516421Y-71988611D01*
X19516422Y-71988609D01*
X19545752Y-71952871D01*
X19629014Y-71851414D01*
X19730471Y-71768152D01*
X19766209Y-71738822D01*
X19784113Y-71729252D01*
X19922733Y-71655157D01*
X19979347Y-71637984D01*
X20092573Y-71603637D01*
X20158757Y-71597119D01*
X20224940Y-71590600D01*
X20313460Y-71590600D01*
X20379643Y-71597119D01*
X20379643Y-71597119D01*
G37*
G36*
X23072012Y-71625224D02*
X23235984Y-71693144D01*
X23383554Y-71791747D01*
X23509053Y-71917246D01*
X23607656Y-72064816D01*
X23675576Y-72228788D01*
X23710200Y-72402859D01*
X23710200Y-72580341D01*
X23675576Y-72754412D01*
X23607656Y-72918384D01*
X23509053Y-73065954D01*
X23383554Y-73191453D01*
X23235984Y-73290056D01*
X23072012Y-73357976D01*
X22897941Y-73392600D01*
X22720459Y-73392600D01*
X22546388Y-73357976D01*
X22382416Y-73290056D01*
X22234846Y-73191453D01*
X22109347Y-73065954D01*
X22010744Y-72918384D01*
X21942824Y-72754412D01*
X21908200Y-72580341D01*
X21908200Y-72402859D01*
X21942824Y-72228788D01*
X22010744Y-72064816D01*
X22109347Y-71917246D01*
X22234846Y-71791747D01*
X22382416Y-71693144D01*
X22546388Y-71625224D01*
X22720459Y-71590600D01*
X22897941Y-71590600D01*
X23072012Y-71625224D01*
X23072012Y-71625224D01*
G37*
G36*
X33536812Y-71625224D02*
X33700784Y-71693144D01*
X33848354Y-71791747D01*
X33973853Y-71917246D01*
X34072456Y-72064816D01*
X34140376Y-72228788D01*
X34175000Y-72402859D01*
X34175000Y-72580341D01*
X34140376Y-72754412D01*
X34072456Y-72918384D01*
X33973853Y-73065954D01*
X33848354Y-73191453D01*
X33700784Y-73290056D01*
X33536812Y-73357976D01*
X33362741Y-73392600D01*
X33185259Y-73392600D01*
X33011188Y-73357976D01*
X32847216Y-73290056D01*
X32699646Y-73191453D01*
X32574147Y-73065954D01*
X32475544Y-72918384D01*
X32407624Y-72754412D01*
X32373000Y-72580341D01*
X32373000Y-72402859D01*
X32407624Y-72228788D01*
X32475544Y-72064816D01*
X32574147Y-71917246D01*
X32699646Y-71791747D01*
X32847216Y-71693144D01*
X33011188Y-71625224D01*
X33185259Y-71590600D01*
X33362741Y-71590600D01*
X33536812Y-71625224D01*
X33536812Y-71625224D01*
G37*
G36*
X38464443Y-71597119D02*
X38530627Y-71603637D01*
X38643853Y-71637984D01*
X38700467Y-71655157D01*
X38839087Y-71729252D01*
X38856991Y-71738822D01*
X38892729Y-71768152D01*
X38994186Y-71851414D01*
X39077448Y-71952871D01*
X39106778Y-71988609D01*
X39106779Y-71988611D01*
X39190443Y-72145133D01*
X39190443Y-72145134D01*
X39241963Y-72314973D01*
X39259359Y-72491600D01*
X39241963Y-72668227D01*
X39215819Y-72754412D01*
X39190443Y-72838067D01*
X39147513Y-72918382D01*
X39106778Y-72994591D01*
X39077448Y-73030329D01*
X38994186Y-73131786D01*
X38921480Y-73191453D01*
X38856991Y-73244378D01*
X38856989Y-73244379D01*
X38700467Y-73328043D01*
X38643853Y-73345216D01*
X38530627Y-73379563D01*
X38464443Y-73386081D01*
X38398260Y-73392600D01*
X38309740Y-73392600D01*
X38243557Y-73386081D01*
X38177373Y-73379563D01*
X38064147Y-73345216D01*
X38007533Y-73328043D01*
X37851011Y-73244379D01*
X37851009Y-73244378D01*
X37786520Y-73191453D01*
X37713814Y-73131786D01*
X37630552Y-73030329D01*
X37601222Y-72994591D01*
X37560487Y-72918382D01*
X37517557Y-72838067D01*
X37492181Y-72754412D01*
X37466037Y-72668227D01*
X37448641Y-72491600D01*
X37466037Y-72314973D01*
X37517557Y-72145134D01*
X37517557Y-72145133D01*
X37601221Y-71988611D01*
X37601222Y-71988609D01*
X37630552Y-71952871D01*
X37713814Y-71851414D01*
X37815271Y-71768152D01*
X37851009Y-71738822D01*
X37868913Y-71729252D01*
X38007533Y-71655157D01*
X38064147Y-71637984D01*
X38177373Y-71603637D01*
X38243557Y-71597119D01*
X38309740Y-71590600D01*
X38398260Y-71590600D01*
X38464443Y-71597119D01*
X38464443Y-71597119D01*
G37*
G36*
X35924443Y-71597119D02*
X35990627Y-71603637D01*
X36103853Y-71637984D01*
X36160467Y-71655157D01*
X36299087Y-71729252D01*
X36316991Y-71738822D01*
X36352729Y-71768152D01*
X36454186Y-71851414D01*
X36537448Y-71952871D01*
X36566778Y-71988609D01*
X36566779Y-71988611D01*
X36650443Y-72145133D01*
X36650443Y-72145134D01*
X36701963Y-72314973D01*
X36719359Y-72491600D01*
X36701963Y-72668227D01*
X36675819Y-72754412D01*
X36650443Y-72838067D01*
X36607513Y-72918382D01*
X36566778Y-72994591D01*
X36537448Y-73030329D01*
X36454186Y-73131786D01*
X36381480Y-73191453D01*
X36316991Y-73244378D01*
X36316989Y-73244379D01*
X36160467Y-73328043D01*
X36103853Y-73345216D01*
X35990627Y-73379563D01*
X35924443Y-73386081D01*
X35858260Y-73392600D01*
X35769740Y-73392600D01*
X35703557Y-73386081D01*
X35637373Y-73379563D01*
X35524147Y-73345216D01*
X35467533Y-73328043D01*
X35311011Y-73244379D01*
X35311009Y-73244378D01*
X35246520Y-73191453D01*
X35173814Y-73131786D01*
X35090552Y-73030329D01*
X35061222Y-72994591D01*
X35020487Y-72918382D01*
X34977557Y-72838067D01*
X34952181Y-72754412D01*
X34926037Y-72668227D01*
X34908641Y-72491600D01*
X34926037Y-72314973D01*
X34977557Y-72145134D01*
X34977557Y-72145133D01*
X35061221Y-71988611D01*
X35061222Y-71988609D01*
X35090552Y-71952871D01*
X35173814Y-71851414D01*
X35275271Y-71768152D01*
X35311009Y-71738822D01*
X35328913Y-71729252D01*
X35467533Y-71655157D01*
X35524147Y-71637984D01*
X35637373Y-71603637D01*
X35703557Y-71597119D01*
X35769740Y-71590600D01*
X35858260Y-71590600D01*
X35924443Y-71597119D01*
X35924443Y-71597119D01*
G37*
G36*
X24087221Y-67030113D02*
X24087224Y-67030114D01*
X24087225Y-67030114D01*
X24247639Y-67078775D01*
X24247641Y-67078776D01*
X24247644Y-67078777D01*
X24395478Y-67157795D01*
X24525059Y-67264141D01*
X24631405Y-67393722D01*
X24710423Y-67541556D01*
X24759087Y-67701979D01*
X24775517Y-67868800D01*
X24759087Y-68035621D01*
X24710423Y-68196044D01*
X24631405Y-68343878D01*
X24525059Y-68473459D01*
X24395478Y-68579805D01*
X24247644Y-68658823D01*
X24247641Y-68658824D01*
X24247639Y-68658825D01*
X24087225Y-68707486D01*
X24087224Y-68707486D01*
X24087221Y-68707487D01*
X23962204Y-68719800D01*
X23078596Y-68719800D01*
X22953579Y-68707487D01*
X22953576Y-68707486D01*
X22953575Y-68707486D01*
X22793161Y-68658825D01*
X22793159Y-68658824D01*
X22793156Y-68658823D01*
X22645322Y-68579805D01*
X22515741Y-68473459D01*
X22409395Y-68343878D01*
X22330377Y-68196044D01*
X22281713Y-68035621D01*
X22265283Y-67868800D01*
X22281713Y-67701979D01*
X22330377Y-67541556D01*
X22409395Y-67393722D01*
X22515741Y-67264141D01*
X22645322Y-67157795D01*
X22793156Y-67078777D01*
X22793159Y-67078776D01*
X22793161Y-67078775D01*
X22953575Y-67030114D01*
X22953576Y-67030114D01*
X22953579Y-67030113D01*
X23078596Y-67017800D01*
X23962204Y-67017800D01*
X24087221Y-67030113D01*
X24087221Y-67030113D01*
G37*
G36*
X39327221Y-67030113D02*
X39327224Y-67030114D01*
X39327225Y-67030114D01*
X39487639Y-67078775D01*
X39487641Y-67078776D01*
X39487644Y-67078777D01*
X39635478Y-67157795D01*
X39765059Y-67264141D01*
X39871405Y-67393722D01*
X39950423Y-67541556D01*
X39999087Y-67701979D01*
X40015517Y-67868800D01*
X39999087Y-68035621D01*
X39950423Y-68196044D01*
X39871405Y-68343878D01*
X39765059Y-68473459D01*
X39635478Y-68579805D01*
X39487644Y-68658823D01*
X39487641Y-68658824D01*
X39487639Y-68658825D01*
X39327225Y-68707486D01*
X39327224Y-68707486D01*
X39327221Y-68707487D01*
X39202204Y-68719800D01*
X38318596Y-68719800D01*
X38193579Y-68707487D01*
X38193576Y-68707486D01*
X38193575Y-68707486D01*
X38033161Y-68658825D01*
X38033159Y-68658824D01*
X38033156Y-68658823D01*
X37885322Y-68579805D01*
X37755741Y-68473459D01*
X37649395Y-68343878D01*
X37570377Y-68196044D01*
X37521713Y-68035621D01*
X37505283Y-67868800D01*
X37521713Y-67701979D01*
X37570377Y-67541556D01*
X37649395Y-67393722D01*
X37755741Y-67264141D01*
X37885322Y-67157795D01*
X38033156Y-67078777D01*
X38033159Y-67078776D01*
X38033161Y-67078775D01*
X38193575Y-67030114D01*
X38193576Y-67030114D01*
X38193579Y-67030113D01*
X38318596Y-67017800D01*
X39202204Y-67017800D01*
X39327221Y-67030113D01*
X39327221Y-67030113D01*
G37*
G36*
X33129621Y-64490113D02*
X33129624Y-64490114D01*
X33129625Y-64490114D01*
X33290039Y-64538775D01*
X33290041Y-64538776D01*
X33290044Y-64538777D01*
X33437878Y-64617795D01*
X33567459Y-64724141D01*
X33673805Y-64853722D01*
X33752823Y-65001556D01*
X33801487Y-65161979D01*
X33817917Y-65328800D01*
X33801487Y-65495621D01*
X33752823Y-65656044D01*
X33673805Y-65803878D01*
X33567459Y-65933459D01*
X33437878Y-66039805D01*
X33290044Y-66118823D01*
X33290041Y-66118824D01*
X33290039Y-66118825D01*
X33129625Y-66167486D01*
X33129624Y-66167486D01*
X33129621Y-66167487D01*
X33004604Y-66179800D01*
X32120996Y-66179800D01*
X31995979Y-66167487D01*
X31995976Y-66167486D01*
X31995975Y-66167486D01*
X31835561Y-66118825D01*
X31835559Y-66118824D01*
X31835556Y-66118823D01*
X31687722Y-66039805D01*
X31558141Y-65933459D01*
X31451795Y-65803878D01*
X31372777Y-65656044D01*
X31324113Y-65495621D01*
X31307683Y-65328800D01*
X31324113Y-65161979D01*
X31372777Y-65001556D01*
X31451795Y-64853722D01*
X31558141Y-64724141D01*
X31687722Y-64617795D01*
X31835556Y-64538777D01*
X31835559Y-64538776D01*
X31835561Y-64538775D01*
X31995975Y-64490114D01*
X31995976Y-64490114D01*
X31995979Y-64490113D01*
X32120996Y-64477800D01*
X33004604Y-64477800D01*
X33129621Y-64490113D01*
X33129621Y-64490113D01*
G37*
G36*
X17889621Y-64490113D02*
X17889624Y-64490114D01*
X17889625Y-64490114D01*
X18050039Y-64538775D01*
X18050041Y-64538776D01*
X18050044Y-64538777D01*
X18197878Y-64617795D01*
X18327459Y-64724141D01*
X18433805Y-64853722D01*
X18512823Y-65001556D01*
X18561487Y-65161979D01*
X18577917Y-65328800D01*
X18561487Y-65495621D01*
X18512823Y-65656044D01*
X18433805Y-65803878D01*
X18327459Y-65933459D01*
X18197878Y-66039805D01*
X18050044Y-66118823D01*
X18050041Y-66118824D01*
X18050039Y-66118825D01*
X17889625Y-66167486D01*
X17889624Y-66167486D01*
X17889621Y-66167487D01*
X17764604Y-66179800D01*
X16880996Y-66179800D01*
X16755979Y-66167487D01*
X16755976Y-66167486D01*
X16755975Y-66167486D01*
X16595561Y-66118825D01*
X16595559Y-66118824D01*
X16595556Y-66118823D01*
X16447722Y-66039805D01*
X16318141Y-65933459D01*
X16211795Y-65803878D01*
X16132777Y-65656044D01*
X16084113Y-65495621D01*
X16067683Y-65328800D01*
X16084113Y-65161979D01*
X16132777Y-65001556D01*
X16211795Y-64853722D01*
X16318141Y-64724141D01*
X16447722Y-64617795D01*
X16595556Y-64538777D01*
X16595559Y-64538776D01*
X16595561Y-64538775D01*
X16755975Y-64490114D01*
X16755976Y-64490114D01*
X16755979Y-64490113D01*
X16880996Y-64477800D01*
X17764604Y-64477800D01*
X17889621Y-64490113D01*
X17889621Y-64490113D01*
G37*
G36*
X24087221Y-64490113D02*
X24087224Y-64490114D01*
X24087225Y-64490114D01*
X24247639Y-64538775D01*
X24247641Y-64538776D01*
X24247644Y-64538777D01*
X24395478Y-64617795D01*
X24525059Y-64724141D01*
X24631405Y-64853722D01*
X24710423Y-65001556D01*
X24759087Y-65161979D01*
X24775517Y-65328800D01*
X24759087Y-65495621D01*
X24710423Y-65656044D01*
X24631405Y-65803878D01*
X24525059Y-65933459D01*
X24395478Y-66039805D01*
X24247644Y-66118823D01*
X24247641Y-66118824D01*
X24247639Y-66118825D01*
X24087225Y-66167486D01*
X24087224Y-66167486D01*
X24087221Y-66167487D01*
X23962204Y-66179800D01*
X23078596Y-66179800D01*
X22953579Y-66167487D01*
X22953576Y-66167486D01*
X22953575Y-66167486D01*
X22793161Y-66118825D01*
X22793159Y-66118824D01*
X22793156Y-66118823D01*
X22645322Y-66039805D01*
X22515741Y-65933459D01*
X22409395Y-65803878D01*
X22330377Y-65656044D01*
X22281713Y-65495621D01*
X22265283Y-65328800D01*
X22281713Y-65161979D01*
X22330377Y-65001556D01*
X22409395Y-64853722D01*
X22515741Y-64724141D01*
X22645322Y-64617795D01*
X22793156Y-64538777D01*
X22793159Y-64538776D01*
X22793161Y-64538775D01*
X22953575Y-64490114D01*
X22953576Y-64490114D01*
X22953579Y-64490113D01*
X23078596Y-64477800D01*
X23962204Y-64477800D01*
X24087221Y-64490113D01*
X24087221Y-64490113D01*
G37*
G36*
X39327221Y-64490113D02*
X39327224Y-64490114D01*
X39327225Y-64490114D01*
X39487639Y-64538775D01*
X39487641Y-64538776D01*
X39487644Y-64538777D01*
X39635478Y-64617795D01*
X39765059Y-64724141D01*
X39871405Y-64853722D01*
X39950423Y-65001556D01*
X39999087Y-65161979D01*
X40015517Y-65328800D01*
X39999087Y-65495621D01*
X39950423Y-65656044D01*
X39871405Y-65803878D01*
X39765059Y-65933459D01*
X39635478Y-66039805D01*
X39487644Y-66118823D01*
X39487641Y-66118824D01*
X39487639Y-66118825D01*
X39327225Y-66167486D01*
X39327224Y-66167486D01*
X39327221Y-66167487D01*
X39202204Y-66179800D01*
X38318596Y-66179800D01*
X38193579Y-66167487D01*
X38193576Y-66167486D01*
X38193575Y-66167486D01*
X38033161Y-66118825D01*
X38033159Y-66118824D01*
X38033156Y-66118823D01*
X37885322Y-66039805D01*
X37755741Y-65933459D01*
X37649395Y-65803878D01*
X37570377Y-65656044D01*
X37521713Y-65495621D01*
X37505283Y-65328800D01*
X37521713Y-65161979D01*
X37570377Y-65001556D01*
X37649395Y-64853722D01*
X37755741Y-64724141D01*
X37885322Y-64617795D01*
X38033156Y-64538777D01*
X38033159Y-64538776D01*
X38033161Y-64538775D01*
X38193575Y-64490114D01*
X38193576Y-64490114D01*
X38193579Y-64490113D01*
X38318596Y-64477800D01*
X39202204Y-64477800D01*
X39327221Y-64490113D01*
X39327221Y-64490113D01*
G37*
G36*
X39327221Y-61950113D02*
X39327224Y-61950114D01*
X39327225Y-61950114D01*
X39487639Y-61998775D01*
X39487641Y-61998776D01*
X39487644Y-61998777D01*
X39635478Y-62077795D01*
X39765059Y-62184141D01*
X39871405Y-62313722D01*
X39950423Y-62461556D01*
X39999087Y-62621979D01*
X40015517Y-62788800D01*
X39999087Y-62955621D01*
X39950423Y-63116044D01*
X39871405Y-63263878D01*
X39765059Y-63393459D01*
X39635478Y-63499805D01*
X39487644Y-63578823D01*
X39487641Y-63578824D01*
X39487639Y-63578825D01*
X39327225Y-63627486D01*
X39327224Y-63627486D01*
X39327221Y-63627487D01*
X39202204Y-63639800D01*
X38318596Y-63639800D01*
X38193579Y-63627487D01*
X38193576Y-63627486D01*
X38193575Y-63627486D01*
X38033161Y-63578825D01*
X38033159Y-63578824D01*
X38033156Y-63578823D01*
X37885322Y-63499805D01*
X37755741Y-63393459D01*
X37649395Y-63263878D01*
X37570377Y-63116044D01*
X37521713Y-62955621D01*
X37505283Y-62788800D01*
X37521713Y-62621979D01*
X37570377Y-62461556D01*
X37649395Y-62313722D01*
X37755741Y-62184141D01*
X37885322Y-62077795D01*
X38033156Y-61998777D01*
X38033159Y-61998776D01*
X38033161Y-61998775D01*
X38193575Y-61950114D01*
X38193576Y-61950114D01*
X38193579Y-61950113D01*
X38318596Y-61937800D01*
X39202204Y-61937800D01*
X39327221Y-61950113D01*
X39327221Y-61950113D01*
G37*
G36*
X33129621Y-61950113D02*
X33129624Y-61950114D01*
X33129625Y-61950114D01*
X33290039Y-61998775D01*
X33290041Y-61998776D01*
X33290044Y-61998777D01*
X33437878Y-62077795D01*
X33567459Y-62184141D01*
X33673805Y-62313722D01*
X33752823Y-62461556D01*
X33801487Y-62621979D01*
X33817917Y-62788800D01*
X33801487Y-62955621D01*
X33752823Y-63116044D01*
X33673805Y-63263878D01*
X33567459Y-63393459D01*
X33437878Y-63499805D01*
X33290044Y-63578823D01*
X33290041Y-63578824D01*
X33290039Y-63578825D01*
X33129625Y-63627486D01*
X33129624Y-63627486D01*
X33129621Y-63627487D01*
X33004604Y-63639800D01*
X32120996Y-63639800D01*
X31995979Y-63627487D01*
X31995976Y-63627486D01*
X31995975Y-63627486D01*
X31835561Y-63578825D01*
X31835559Y-63578824D01*
X31835556Y-63578823D01*
X31687722Y-63499805D01*
X31558141Y-63393459D01*
X31451795Y-63263878D01*
X31372777Y-63116044D01*
X31324113Y-62955621D01*
X31307683Y-62788800D01*
X31324113Y-62621979D01*
X31372777Y-62461556D01*
X31451795Y-62313722D01*
X31558141Y-62184141D01*
X31687722Y-62077795D01*
X31835556Y-61998777D01*
X31835559Y-61998776D01*
X31835561Y-61998775D01*
X31995975Y-61950114D01*
X31995976Y-61950114D01*
X31995979Y-61950113D01*
X32120996Y-61937800D01*
X33004604Y-61937800D01*
X33129621Y-61950113D01*
X33129621Y-61950113D01*
G37*
G36*
X24087221Y-61950113D02*
X24087224Y-61950114D01*
X24087225Y-61950114D01*
X24247639Y-61998775D01*
X24247641Y-61998776D01*
X24247644Y-61998777D01*
X24395478Y-62077795D01*
X24525059Y-62184141D01*
X24631405Y-62313722D01*
X24710423Y-62461556D01*
X24759087Y-62621979D01*
X24775517Y-62788800D01*
X24759087Y-62955621D01*
X24710423Y-63116044D01*
X24631405Y-63263878D01*
X24525059Y-63393459D01*
X24395478Y-63499805D01*
X24247644Y-63578823D01*
X24247641Y-63578824D01*
X24247639Y-63578825D01*
X24087225Y-63627486D01*
X24087224Y-63627486D01*
X24087221Y-63627487D01*
X23962204Y-63639800D01*
X23078596Y-63639800D01*
X22953579Y-63627487D01*
X22953576Y-63627486D01*
X22953575Y-63627486D01*
X22793161Y-63578825D01*
X22793159Y-63578824D01*
X22793156Y-63578823D01*
X22645322Y-63499805D01*
X22515741Y-63393459D01*
X22409395Y-63263878D01*
X22330377Y-63116044D01*
X22281713Y-62955621D01*
X22265283Y-62788800D01*
X22281713Y-62621979D01*
X22330377Y-62461556D01*
X22409395Y-62313722D01*
X22515741Y-62184141D01*
X22645322Y-62077795D01*
X22793156Y-61998777D01*
X22793159Y-61998776D01*
X22793161Y-61998775D01*
X22953575Y-61950114D01*
X22953576Y-61950114D01*
X22953579Y-61950113D01*
X23078596Y-61937800D01*
X23962204Y-61937800D01*
X24087221Y-61950113D01*
X24087221Y-61950113D01*
G37*
G36*
X17889621Y-61950113D02*
X17889624Y-61950114D01*
X17889625Y-61950114D01*
X18050039Y-61998775D01*
X18050041Y-61998776D01*
X18050044Y-61998777D01*
X18197878Y-62077795D01*
X18327459Y-62184141D01*
X18433805Y-62313722D01*
X18512823Y-62461556D01*
X18561487Y-62621979D01*
X18577917Y-62788800D01*
X18561487Y-62955621D01*
X18512823Y-63116044D01*
X18433805Y-63263878D01*
X18327459Y-63393459D01*
X18197878Y-63499805D01*
X18050044Y-63578823D01*
X18050041Y-63578824D01*
X18050039Y-63578825D01*
X17889625Y-63627486D01*
X17889624Y-63627486D01*
X17889621Y-63627487D01*
X17764604Y-63639800D01*
X16880996Y-63639800D01*
X16755979Y-63627487D01*
X16755976Y-63627486D01*
X16755975Y-63627486D01*
X16595561Y-63578825D01*
X16595559Y-63578824D01*
X16595556Y-63578823D01*
X16447722Y-63499805D01*
X16318141Y-63393459D01*
X16211795Y-63263878D01*
X16132777Y-63116044D01*
X16084113Y-62955621D01*
X16067683Y-62788800D01*
X16084113Y-62621979D01*
X16132777Y-62461556D01*
X16211795Y-62313722D01*
X16318141Y-62184141D01*
X16447722Y-62077795D01*
X16595556Y-61998777D01*
X16595559Y-61998776D01*
X16595561Y-61998775D01*
X16755975Y-61950114D01*
X16755976Y-61950114D01*
X16755979Y-61950113D01*
X16880996Y-61937800D01*
X17764604Y-61937800D01*
X17889621Y-61950113D01*
X17889621Y-61950113D01*
G37*
G36*
X33129621Y-59410113D02*
X33129624Y-59410114D01*
X33129625Y-59410114D01*
X33290039Y-59458775D01*
X33290041Y-59458776D01*
X33290044Y-59458777D01*
X33437878Y-59537795D01*
X33567459Y-59644141D01*
X33673805Y-59773722D01*
X33752823Y-59921556D01*
X33801487Y-60081979D01*
X33817917Y-60248800D01*
X33801487Y-60415621D01*
X33752823Y-60576044D01*
X33673805Y-60723878D01*
X33567459Y-60853459D01*
X33437878Y-60959805D01*
X33290044Y-61038823D01*
X33290041Y-61038824D01*
X33290039Y-61038825D01*
X33129625Y-61087486D01*
X33129624Y-61087486D01*
X33129621Y-61087487D01*
X33004604Y-61099800D01*
X32120996Y-61099800D01*
X31995979Y-61087487D01*
X31995976Y-61087486D01*
X31995975Y-61087486D01*
X31835561Y-61038825D01*
X31835559Y-61038824D01*
X31835556Y-61038823D01*
X31687722Y-60959805D01*
X31558141Y-60853459D01*
X31451795Y-60723878D01*
X31372777Y-60576044D01*
X31324113Y-60415621D01*
X31307683Y-60248800D01*
X31324113Y-60081979D01*
X31372777Y-59921556D01*
X31451795Y-59773722D01*
X31558141Y-59644141D01*
X31687722Y-59537795D01*
X31835556Y-59458777D01*
X31835559Y-59458776D01*
X31835561Y-59458775D01*
X31995975Y-59410114D01*
X31995976Y-59410114D01*
X31995979Y-59410113D01*
X32120996Y-59397800D01*
X33004604Y-59397800D01*
X33129621Y-59410113D01*
X33129621Y-59410113D01*
G37*
G36*
X17889621Y-59410113D02*
X17889624Y-59410114D01*
X17889625Y-59410114D01*
X18050039Y-59458775D01*
X18050041Y-59458776D01*
X18050044Y-59458777D01*
X18197878Y-59537795D01*
X18327459Y-59644141D01*
X18433805Y-59773722D01*
X18512823Y-59921556D01*
X18561487Y-60081979D01*
X18577917Y-60248800D01*
X18561487Y-60415621D01*
X18512823Y-60576044D01*
X18433805Y-60723878D01*
X18327459Y-60853459D01*
X18197878Y-60959805D01*
X18050044Y-61038823D01*
X18050041Y-61038824D01*
X18050039Y-61038825D01*
X17889625Y-61087486D01*
X17889624Y-61087486D01*
X17889621Y-61087487D01*
X17764604Y-61099800D01*
X16880996Y-61099800D01*
X16755979Y-61087487D01*
X16755976Y-61087486D01*
X16755975Y-61087486D01*
X16595561Y-61038825D01*
X16595559Y-61038824D01*
X16595556Y-61038823D01*
X16447722Y-60959805D01*
X16318141Y-60853459D01*
X16211795Y-60723878D01*
X16132777Y-60576044D01*
X16084113Y-60415621D01*
X16067683Y-60248800D01*
X16084113Y-60081979D01*
X16132777Y-59921556D01*
X16211795Y-59773722D01*
X16318141Y-59644141D01*
X16447722Y-59537795D01*
X16595556Y-59458777D01*
X16595559Y-59458776D01*
X16595561Y-59458775D01*
X16755975Y-59410114D01*
X16755976Y-59410114D01*
X16755979Y-59410113D01*
X16880996Y-59397800D01*
X17764604Y-59397800D01*
X17889621Y-59410113D01*
X17889621Y-59410113D01*
G37*
G36*
X24087221Y-59410113D02*
X24087224Y-59410114D01*
X24087225Y-59410114D01*
X24247639Y-59458775D01*
X24247641Y-59458776D01*
X24247644Y-59458777D01*
X24395478Y-59537795D01*
X24525059Y-59644141D01*
X24631405Y-59773722D01*
X24710423Y-59921556D01*
X24759087Y-60081979D01*
X24775517Y-60248800D01*
X24759087Y-60415621D01*
X24710423Y-60576044D01*
X24631405Y-60723878D01*
X24525059Y-60853459D01*
X24395478Y-60959805D01*
X24247644Y-61038823D01*
X24247641Y-61038824D01*
X24247639Y-61038825D01*
X24087225Y-61087486D01*
X24087224Y-61087486D01*
X24087221Y-61087487D01*
X23962204Y-61099800D01*
X23078596Y-61099800D01*
X22953579Y-61087487D01*
X22953576Y-61087486D01*
X22953575Y-61087486D01*
X22793161Y-61038825D01*
X22793159Y-61038824D01*
X22793156Y-61038823D01*
X22645322Y-60959805D01*
X22515741Y-60853459D01*
X22409395Y-60723878D01*
X22330377Y-60576044D01*
X22281713Y-60415621D01*
X22265283Y-60248800D01*
X22281713Y-60081979D01*
X22330377Y-59921556D01*
X22409395Y-59773722D01*
X22515741Y-59644141D01*
X22645322Y-59537795D01*
X22793156Y-59458777D01*
X22793159Y-59458776D01*
X22793161Y-59458775D01*
X22953575Y-59410114D01*
X22953576Y-59410114D01*
X22953579Y-59410113D01*
X23078596Y-59397800D01*
X23962204Y-59397800D01*
X24087221Y-59410113D01*
X24087221Y-59410113D01*
G37*
G36*
X39327221Y-59410113D02*
X39327224Y-59410114D01*
X39327225Y-59410114D01*
X39487639Y-59458775D01*
X39487641Y-59458776D01*
X39487644Y-59458777D01*
X39635478Y-59537795D01*
X39765059Y-59644141D01*
X39871405Y-59773722D01*
X39950423Y-59921556D01*
X39999087Y-60081979D01*
X40015517Y-60248800D01*
X39999087Y-60415621D01*
X39950423Y-60576044D01*
X39871405Y-60723878D01*
X39765059Y-60853459D01*
X39635478Y-60959805D01*
X39487644Y-61038823D01*
X39487641Y-61038824D01*
X39487639Y-61038825D01*
X39327225Y-61087486D01*
X39327224Y-61087486D01*
X39327221Y-61087487D01*
X39202204Y-61099800D01*
X38318596Y-61099800D01*
X38193579Y-61087487D01*
X38193576Y-61087486D01*
X38193575Y-61087486D01*
X38033161Y-61038825D01*
X38033159Y-61038824D01*
X38033156Y-61038823D01*
X37885322Y-60959805D01*
X37755741Y-60853459D01*
X37649395Y-60723878D01*
X37570377Y-60576044D01*
X37521713Y-60415621D01*
X37505283Y-60248800D01*
X37521713Y-60081979D01*
X37570377Y-59921556D01*
X37649395Y-59773722D01*
X37755741Y-59644141D01*
X37885322Y-59537795D01*
X38033156Y-59458777D01*
X38033159Y-59458776D01*
X38033161Y-59458775D01*
X38193575Y-59410114D01*
X38193576Y-59410114D01*
X38193579Y-59410113D01*
X38318596Y-59397800D01*
X39202204Y-59397800D01*
X39327221Y-59410113D01*
X39327221Y-59410113D01*
G37*
G36*
X17889621Y-56870113D02*
X17889624Y-56870114D01*
X17889625Y-56870114D01*
X18050039Y-56918775D01*
X18050041Y-56918776D01*
X18050044Y-56918777D01*
X18197878Y-56997795D01*
X18327459Y-57104141D01*
X18433805Y-57233722D01*
X18512823Y-57381556D01*
X18561487Y-57541979D01*
X18577917Y-57708800D01*
X18561487Y-57875621D01*
X18512823Y-58036044D01*
X18433805Y-58183878D01*
X18327459Y-58313459D01*
X18197878Y-58419805D01*
X18050044Y-58498823D01*
X18050041Y-58498824D01*
X18050039Y-58498825D01*
X17889625Y-58547486D01*
X17889624Y-58547486D01*
X17889621Y-58547487D01*
X17764604Y-58559800D01*
X16880996Y-58559800D01*
X16755979Y-58547487D01*
X16755976Y-58547486D01*
X16755975Y-58547486D01*
X16595561Y-58498825D01*
X16595559Y-58498824D01*
X16595556Y-58498823D01*
X16447722Y-58419805D01*
X16318141Y-58313459D01*
X16211795Y-58183878D01*
X16132777Y-58036044D01*
X16084113Y-57875621D01*
X16067683Y-57708800D01*
X16084113Y-57541979D01*
X16132777Y-57381556D01*
X16211795Y-57233722D01*
X16318141Y-57104141D01*
X16447722Y-56997795D01*
X16595556Y-56918777D01*
X16595559Y-56918776D01*
X16595561Y-56918775D01*
X16755975Y-56870114D01*
X16755976Y-56870114D01*
X16755979Y-56870113D01*
X16880996Y-56857800D01*
X17764604Y-56857800D01*
X17889621Y-56870113D01*
X17889621Y-56870113D01*
G37*
G36*
X33129621Y-56870113D02*
X33129624Y-56870114D01*
X33129625Y-56870114D01*
X33290039Y-56918775D01*
X33290041Y-56918776D01*
X33290044Y-56918777D01*
X33437878Y-56997795D01*
X33567459Y-57104141D01*
X33673805Y-57233722D01*
X33752823Y-57381556D01*
X33801487Y-57541979D01*
X33817917Y-57708800D01*
X33801487Y-57875621D01*
X33752823Y-58036044D01*
X33673805Y-58183878D01*
X33567459Y-58313459D01*
X33437878Y-58419805D01*
X33290044Y-58498823D01*
X33290041Y-58498824D01*
X33290039Y-58498825D01*
X33129625Y-58547486D01*
X33129624Y-58547486D01*
X33129621Y-58547487D01*
X33004604Y-58559800D01*
X32120996Y-58559800D01*
X31995979Y-58547487D01*
X31995976Y-58547486D01*
X31995975Y-58547486D01*
X31835561Y-58498825D01*
X31835559Y-58498824D01*
X31835556Y-58498823D01*
X31687722Y-58419805D01*
X31558141Y-58313459D01*
X31451795Y-58183878D01*
X31372777Y-58036044D01*
X31324113Y-57875621D01*
X31307683Y-57708800D01*
X31324113Y-57541979D01*
X31372777Y-57381556D01*
X31451795Y-57233722D01*
X31558141Y-57104141D01*
X31687722Y-56997795D01*
X31835556Y-56918777D01*
X31835559Y-56918776D01*
X31835561Y-56918775D01*
X31995975Y-56870114D01*
X31995976Y-56870114D01*
X31995979Y-56870113D01*
X32120996Y-56857800D01*
X33004604Y-56857800D01*
X33129621Y-56870113D01*
X33129621Y-56870113D01*
G37*
G36*
X39327221Y-56870113D02*
X39327224Y-56870114D01*
X39327225Y-56870114D01*
X39487639Y-56918775D01*
X39487641Y-56918776D01*
X39487644Y-56918777D01*
X39635478Y-56997795D01*
X39765059Y-57104141D01*
X39871405Y-57233722D01*
X39950423Y-57381556D01*
X39999087Y-57541979D01*
X40015517Y-57708800D01*
X39999087Y-57875621D01*
X39950423Y-58036044D01*
X39871405Y-58183878D01*
X39765059Y-58313459D01*
X39635478Y-58419805D01*
X39487644Y-58498823D01*
X39487641Y-58498824D01*
X39487639Y-58498825D01*
X39327225Y-58547486D01*
X39327224Y-58547486D01*
X39327221Y-58547487D01*
X39202204Y-58559800D01*
X38318596Y-58559800D01*
X38193579Y-58547487D01*
X38193576Y-58547486D01*
X38193575Y-58547486D01*
X38033161Y-58498825D01*
X38033159Y-58498824D01*
X38033156Y-58498823D01*
X37885322Y-58419805D01*
X37755741Y-58313459D01*
X37649395Y-58183878D01*
X37570377Y-58036044D01*
X37521713Y-57875621D01*
X37505283Y-57708800D01*
X37521713Y-57541979D01*
X37570377Y-57381556D01*
X37649395Y-57233722D01*
X37755741Y-57104141D01*
X37885322Y-56997795D01*
X38033156Y-56918777D01*
X38033159Y-56918776D01*
X38033161Y-56918775D01*
X38193575Y-56870114D01*
X38193576Y-56870114D01*
X38193579Y-56870113D01*
X38318596Y-56857800D01*
X39202204Y-56857800D01*
X39327221Y-56870113D01*
X39327221Y-56870113D01*
G37*
G36*
X24087221Y-56870113D02*
X24087224Y-56870114D01*
X24087225Y-56870114D01*
X24247639Y-56918775D01*
X24247641Y-56918776D01*
X24247644Y-56918777D01*
X24395478Y-56997795D01*
X24525059Y-57104141D01*
X24631405Y-57233722D01*
X24710423Y-57381556D01*
X24759087Y-57541979D01*
X24775517Y-57708800D01*
X24759087Y-57875621D01*
X24710423Y-58036044D01*
X24631405Y-58183878D01*
X24525059Y-58313459D01*
X24395478Y-58419805D01*
X24247644Y-58498823D01*
X24247641Y-58498824D01*
X24247639Y-58498825D01*
X24087225Y-58547486D01*
X24087224Y-58547486D01*
X24087221Y-58547487D01*
X23962204Y-58559800D01*
X23078596Y-58559800D01*
X22953579Y-58547487D01*
X22953576Y-58547486D01*
X22953575Y-58547486D01*
X22793161Y-58498825D01*
X22793159Y-58498824D01*
X22793156Y-58498823D01*
X22645322Y-58419805D01*
X22515741Y-58313459D01*
X22409395Y-58183878D01*
X22330377Y-58036044D01*
X22281713Y-57875621D01*
X22265283Y-57708800D01*
X22281713Y-57541979D01*
X22330377Y-57381556D01*
X22409395Y-57233722D01*
X22515741Y-57104141D01*
X22645322Y-56997795D01*
X22793156Y-56918777D01*
X22793159Y-56918776D01*
X22793161Y-56918775D01*
X22953575Y-56870114D01*
X22953576Y-56870114D01*
X22953579Y-56870113D01*
X23078596Y-56857800D01*
X23962204Y-56857800D01*
X24087221Y-56870113D01*
X24087221Y-56870113D01*
G37*
G36*
X33129621Y-54330113D02*
X33129624Y-54330114D01*
X33129625Y-54330114D01*
X33290039Y-54378775D01*
X33290041Y-54378776D01*
X33290044Y-54378777D01*
X33437878Y-54457795D01*
X33567459Y-54564141D01*
X33673805Y-54693722D01*
X33752823Y-54841556D01*
X33801487Y-55001979D01*
X33817917Y-55168800D01*
X33801487Y-55335621D01*
X33752823Y-55496044D01*
X33673805Y-55643878D01*
X33567459Y-55773459D01*
X33437878Y-55879805D01*
X33290044Y-55958823D01*
X33290041Y-55958824D01*
X33290039Y-55958825D01*
X33129625Y-56007486D01*
X33129624Y-56007486D01*
X33129621Y-56007487D01*
X33004604Y-56019800D01*
X32120996Y-56019800D01*
X31995979Y-56007487D01*
X31995976Y-56007486D01*
X31995975Y-56007486D01*
X31835561Y-55958825D01*
X31835559Y-55958824D01*
X31835556Y-55958823D01*
X31687722Y-55879805D01*
X31558141Y-55773459D01*
X31451795Y-55643878D01*
X31372777Y-55496044D01*
X31324113Y-55335621D01*
X31307683Y-55168800D01*
X31324113Y-55001979D01*
X31372777Y-54841556D01*
X31451795Y-54693722D01*
X31558141Y-54564141D01*
X31687722Y-54457795D01*
X31835556Y-54378777D01*
X31835559Y-54378776D01*
X31835561Y-54378775D01*
X31995975Y-54330114D01*
X31995976Y-54330114D01*
X31995979Y-54330113D01*
X32120996Y-54317800D01*
X33004604Y-54317800D01*
X33129621Y-54330113D01*
X33129621Y-54330113D01*
G37*
G36*
X17889621Y-54330113D02*
X17889624Y-54330114D01*
X17889625Y-54330114D01*
X18050039Y-54378775D01*
X18050041Y-54378776D01*
X18050044Y-54378777D01*
X18197878Y-54457795D01*
X18327459Y-54564141D01*
X18433805Y-54693722D01*
X18512823Y-54841556D01*
X18561487Y-55001979D01*
X18577917Y-55168800D01*
X18561487Y-55335621D01*
X18512823Y-55496044D01*
X18433805Y-55643878D01*
X18327459Y-55773459D01*
X18197878Y-55879805D01*
X18050044Y-55958823D01*
X18050041Y-55958824D01*
X18050039Y-55958825D01*
X17889625Y-56007486D01*
X17889624Y-56007486D01*
X17889621Y-56007487D01*
X17764604Y-56019800D01*
X16880996Y-56019800D01*
X16755979Y-56007487D01*
X16755976Y-56007486D01*
X16755975Y-56007486D01*
X16595561Y-55958825D01*
X16595559Y-55958824D01*
X16595556Y-55958823D01*
X16447722Y-55879805D01*
X16318141Y-55773459D01*
X16211795Y-55643878D01*
X16132777Y-55496044D01*
X16084113Y-55335621D01*
X16067683Y-55168800D01*
X16084113Y-55001979D01*
X16132777Y-54841556D01*
X16211795Y-54693722D01*
X16318141Y-54564141D01*
X16447722Y-54457795D01*
X16595556Y-54378777D01*
X16595559Y-54378776D01*
X16595561Y-54378775D01*
X16755975Y-54330114D01*
X16755976Y-54330114D01*
X16755979Y-54330113D01*
X16880996Y-54317800D01*
X17764604Y-54317800D01*
X17889621Y-54330113D01*
X17889621Y-54330113D01*
G37*
G36*
X24087221Y-54330113D02*
X24087224Y-54330114D01*
X24087225Y-54330114D01*
X24247639Y-54378775D01*
X24247641Y-54378776D01*
X24247644Y-54378777D01*
X24395478Y-54457795D01*
X24525059Y-54564141D01*
X24631405Y-54693722D01*
X24710423Y-54841556D01*
X24759087Y-55001979D01*
X24775517Y-55168800D01*
X24759087Y-55335621D01*
X24710423Y-55496044D01*
X24631405Y-55643878D01*
X24525059Y-55773459D01*
X24395478Y-55879805D01*
X24247644Y-55958823D01*
X24247641Y-55958824D01*
X24247639Y-55958825D01*
X24087225Y-56007486D01*
X24087224Y-56007486D01*
X24087221Y-56007487D01*
X23962204Y-56019800D01*
X23078596Y-56019800D01*
X22953579Y-56007487D01*
X22953576Y-56007486D01*
X22953575Y-56007486D01*
X22793161Y-55958825D01*
X22793159Y-55958824D01*
X22793156Y-55958823D01*
X22645322Y-55879805D01*
X22515741Y-55773459D01*
X22409395Y-55643878D01*
X22330377Y-55496044D01*
X22281713Y-55335621D01*
X22265283Y-55168800D01*
X22281713Y-55001979D01*
X22330377Y-54841556D01*
X22409395Y-54693722D01*
X22515741Y-54564141D01*
X22645322Y-54457795D01*
X22793156Y-54378777D01*
X22793159Y-54378776D01*
X22793161Y-54378775D01*
X22953575Y-54330114D01*
X22953576Y-54330114D01*
X22953579Y-54330113D01*
X23078596Y-54317800D01*
X23962204Y-54317800D01*
X24087221Y-54330113D01*
X24087221Y-54330113D01*
G37*
G36*
X39327221Y-54330113D02*
X39327224Y-54330114D01*
X39327225Y-54330114D01*
X39487639Y-54378775D01*
X39487641Y-54378776D01*
X39487644Y-54378777D01*
X39635478Y-54457795D01*
X39765059Y-54564141D01*
X39871405Y-54693722D01*
X39950423Y-54841556D01*
X39999087Y-55001979D01*
X40015517Y-55168800D01*
X39999087Y-55335621D01*
X39950423Y-55496044D01*
X39871405Y-55643878D01*
X39765059Y-55773459D01*
X39635478Y-55879805D01*
X39487644Y-55958823D01*
X39487641Y-55958824D01*
X39487639Y-55958825D01*
X39327225Y-56007486D01*
X39327224Y-56007486D01*
X39327221Y-56007487D01*
X39202204Y-56019800D01*
X38318596Y-56019800D01*
X38193579Y-56007487D01*
X38193576Y-56007486D01*
X38193575Y-56007486D01*
X38033161Y-55958825D01*
X38033159Y-55958824D01*
X38033156Y-55958823D01*
X37885322Y-55879805D01*
X37755741Y-55773459D01*
X37649395Y-55643878D01*
X37570377Y-55496044D01*
X37521713Y-55335621D01*
X37505283Y-55168800D01*
X37521713Y-55001979D01*
X37570377Y-54841556D01*
X37649395Y-54693722D01*
X37755741Y-54564141D01*
X37885322Y-54457795D01*
X38033156Y-54378777D01*
X38033159Y-54378776D01*
X38033161Y-54378775D01*
X38193575Y-54330114D01*
X38193576Y-54330114D01*
X38193579Y-54330113D01*
X38318596Y-54317800D01*
X39202204Y-54317800D01*
X39327221Y-54330113D01*
X39327221Y-54330113D01*
G37*
G36*
X33129621Y-51790113D02*
X33129624Y-51790114D01*
X33129625Y-51790114D01*
X33290039Y-51838775D01*
X33290041Y-51838776D01*
X33290044Y-51838777D01*
X33437878Y-51917795D01*
X33567459Y-52024141D01*
X33673805Y-52153722D01*
X33752823Y-52301556D01*
X33801487Y-52461979D01*
X33817917Y-52628800D01*
X33801487Y-52795621D01*
X33752823Y-52956044D01*
X33673805Y-53103878D01*
X33567459Y-53233459D01*
X33437878Y-53339805D01*
X33290044Y-53418823D01*
X33290041Y-53418824D01*
X33290039Y-53418825D01*
X33129625Y-53467486D01*
X33129624Y-53467486D01*
X33129621Y-53467487D01*
X33004604Y-53479800D01*
X32120996Y-53479800D01*
X31995979Y-53467487D01*
X31995976Y-53467486D01*
X31995975Y-53467486D01*
X31835561Y-53418825D01*
X31835559Y-53418824D01*
X31835556Y-53418823D01*
X31687722Y-53339805D01*
X31558141Y-53233459D01*
X31451795Y-53103878D01*
X31372777Y-52956044D01*
X31324113Y-52795621D01*
X31307683Y-52628800D01*
X31324113Y-52461979D01*
X31372777Y-52301556D01*
X31451795Y-52153722D01*
X31558141Y-52024141D01*
X31687722Y-51917795D01*
X31835556Y-51838777D01*
X31835559Y-51838776D01*
X31835561Y-51838775D01*
X31995975Y-51790114D01*
X31995976Y-51790114D01*
X31995979Y-51790113D01*
X32120996Y-51777800D01*
X33004604Y-51777800D01*
X33129621Y-51790113D01*
X33129621Y-51790113D01*
G37*
G36*
X39327221Y-51790113D02*
X39327224Y-51790114D01*
X39327225Y-51790114D01*
X39487639Y-51838775D01*
X39487641Y-51838776D01*
X39487644Y-51838777D01*
X39635478Y-51917795D01*
X39765059Y-52024141D01*
X39871405Y-52153722D01*
X39950423Y-52301556D01*
X39999087Y-52461979D01*
X40015517Y-52628800D01*
X39999087Y-52795621D01*
X39950423Y-52956044D01*
X39871405Y-53103878D01*
X39765059Y-53233459D01*
X39635478Y-53339805D01*
X39487644Y-53418823D01*
X39487641Y-53418824D01*
X39487639Y-53418825D01*
X39327225Y-53467486D01*
X39327224Y-53467486D01*
X39327221Y-53467487D01*
X39202204Y-53479800D01*
X38318596Y-53479800D01*
X38193579Y-53467487D01*
X38193576Y-53467486D01*
X38193575Y-53467486D01*
X38033161Y-53418825D01*
X38033159Y-53418824D01*
X38033156Y-53418823D01*
X37885322Y-53339805D01*
X37755741Y-53233459D01*
X37649395Y-53103878D01*
X37570377Y-52956044D01*
X37521713Y-52795621D01*
X37505283Y-52628800D01*
X37521713Y-52461979D01*
X37570377Y-52301556D01*
X37649395Y-52153722D01*
X37755741Y-52024141D01*
X37885322Y-51917795D01*
X38033156Y-51838777D01*
X38033159Y-51838776D01*
X38033161Y-51838775D01*
X38193575Y-51790114D01*
X38193576Y-51790114D01*
X38193579Y-51790113D01*
X38318596Y-51777800D01*
X39202204Y-51777800D01*
X39327221Y-51790113D01*
X39327221Y-51790113D01*
G37*
G36*
X17889621Y-51790113D02*
X17889624Y-51790114D01*
X17889625Y-51790114D01*
X18050039Y-51838775D01*
X18050041Y-51838776D01*
X18050044Y-51838777D01*
X18197878Y-51917795D01*
X18327459Y-52024141D01*
X18433805Y-52153722D01*
X18512823Y-52301556D01*
X18561487Y-52461979D01*
X18577917Y-52628800D01*
X18561487Y-52795621D01*
X18512823Y-52956044D01*
X18433805Y-53103878D01*
X18327459Y-53233459D01*
X18197878Y-53339805D01*
X18050044Y-53418823D01*
X18050041Y-53418824D01*
X18050039Y-53418825D01*
X17889625Y-53467486D01*
X17889624Y-53467486D01*
X17889621Y-53467487D01*
X17764604Y-53479800D01*
X16880996Y-53479800D01*
X16755979Y-53467487D01*
X16755976Y-53467486D01*
X16755975Y-53467486D01*
X16595561Y-53418825D01*
X16595559Y-53418824D01*
X16595556Y-53418823D01*
X16447722Y-53339805D01*
X16318141Y-53233459D01*
X16211795Y-53103878D01*
X16132777Y-52956044D01*
X16084113Y-52795621D01*
X16067683Y-52628800D01*
X16084113Y-52461979D01*
X16132777Y-52301556D01*
X16211795Y-52153722D01*
X16318141Y-52024141D01*
X16447722Y-51917795D01*
X16595556Y-51838777D01*
X16595559Y-51838776D01*
X16595561Y-51838775D01*
X16755975Y-51790114D01*
X16755976Y-51790114D01*
X16755979Y-51790113D01*
X16880996Y-51777800D01*
X17764604Y-51777800D01*
X17889621Y-51790113D01*
X17889621Y-51790113D01*
G37*
G36*
X24087221Y-51790113D02*
X24087224Y-51790114D01*
X24087225Y-51790114D01*
X24247639Y-51838775D01*
X24247641Y-51838776D01*
X24247644Y-51838777D01*
X24395478Y-51917795D01*
X24525059Y-52024141D01*
X24631405Y-52153722D01*
X24710423Y-52301556D01*
X24759087Y-52461979D01*
X24775517Y-52628800D01*
X24759087Y-52795621D01*
X24710423Y-52956044D01*
X24631405Y-53103878D01*
X24525059Y-53233459D01*
X24395478Y-53339805D01*
X24247644Y-53418823D01*
X24247641Y-53418824D01*
X24247639Y-53418825D01*
X24087225Y-53467486D01*
X24087224Y-53467486D01*
X24087221Y-53467487D01*
X23962204Y-53479800D01*
X23078596Y-53479800D01*
X22953579Y-53467487D01*
X22953576Y-53467486D01*
X22953575Y-53467486D01*
X22793161Y-53418825D01*
X22793159Y-53418824D01*
X22793156Y-53418823D01*
X22645322Y-53339805D01*
X22515741Y-53233459D01*
X22409395Y-53103878D01*
X22330377Y-52956044D01*
X22281713Y-52795621D01*
X22265283Y-52628800D01*
X22281713Y-52461979D01*
X22330377Y-52301556D01*
X22409395Y-52153722D01*
X22515741Y-52024141D01*
X22645322Y-51917795D01*
X22793156Y-51838777D01*
X22793159Y-51838776D01*
X22793161Y-51838775D01*
X22953575Y-51790114D01*
X22953576Y-51790114D01*
X22953579Y-51790113D01*
X23078596Y-51777800D01*
X23962204Y-51777800D01*
X24087221Y-51790113D01*
X24087221Y-51790113D01*
G37*
G36*
X24087221Y-49250113D02*
X24087224Y-49250114D01*
X24087225Y-49250114D01*
X24247639Y-49298775D01*
X24247641Y-49298776D01*
X24247644Y-49298777D01*
X24395478Y-49377795D01*
X24525059Y-49484141D01*
X24631405Y-49613722D01*
X24710423Y-49761556D01*
X24759087Y-49921979D01*
X24775517Y-50088800D01*
X24759087Y-50255621D01*
X24710423Y-50416044D01*
X24631405Y-50563878D01*
X24525059Y-50693459D01*
X24395478Y-50799805D01*
X24247644Y-50878823D01*
X24247641Y-50878824D01*
X24247639Y-50878825D01*
X24087225Y-50927486D01*
X24087224Y-50927486D01*
X24087221Y-50927487D01*
X23962204Y-50939800D01*
X23078596Y-50939800D01*
X22953579Y-50927487D01*
X22953576Y-50927486D01*
X22953575Y-50927486D01*
X22793161Y-50878825D01*
X22793159Y-50878824D01*
X22793156Y-50878823D01*
X22645322Y-50799805D01*
X22515741Y-50693459D01*
X22409395Y-50563878D01*
X22330377Y-50416044D01*
X22281713Y-50255621D01*
X22265283Y-50088800D01*
X22281713Y-49921979D01*
X22330377Y-49761556D01*
X22409395Y-49613722D01*
X22515741Y-49484141D01*
X22645322Y-49377795D01*
X22793156Y-49298777D01*
X22793159Y-49298776D01*
X22793161Y-49298775D01*
X22953575Y-49250114D01*
X22953576Y-49250114D01*
X22953579Y-49250113D01*
X23078596Y-49237800D01*
X23962204Y-49237800D01*
X24087221Y-49250113D01*
X24087221Y-49250113D01*
G37*
G36*
X39327221Y-49250113D02*
X39327224Y-49250114D01*
X39327225Y-49250114D01*
X39487639Y-49298775D01*
X39487641Y-49298776D01*
X39487644Y-49298777D01*
X39635478Y-49377795D01*
X39765059Y-49484141D01*
X39871405Y-49613722D01*
X39950423Y-49761556D01*
X39999087Y-49921979D01*
X40015517Y-50088800D01*
X39999087Y-50255621D01*
X39950423Y-50416044D01*
X39871405Y-50563878D01*
X39765059Y-50693459D01*
X39635478Y-50799805D01*
X39487644Y-50878823D01*
X39487641Y-50878824D01*
X39487639Y-50878825D01*
X39327225Y-50927486D01*
X39327224Y-50927486D01*
X39327221Y-50927487D01*
X39202204Y-50939800D01*
X38318596Y-50939800D01*
X38193579Y-50927487D01*
X38193576Y-50927486D01*
X38193575Y-50927486D01*
X38033161Y-50878825D01*
X38033159Y-50878824D01*
X38033156Y-50878823D01*
X37885322Y-50799805D01*
X37755741Y-50693459D01*
X37649395Y-50563878D01*
X37570377Y-50416044D01*
X37521713Y-50255621D01*
X37505283Y-50088800D01*
X37521713Y-49921979D01*
X37570377Y-49761556D01*
X37649395Y-49613722D01*
X37755741Y-49484141D01*
X37885322Y-49377795D01*
X38033156Y-49298777D01*
X38033159Y-49298776D01*
X38033161Y-49298775D01*
X38193575Y-49250114D01*
X38193576Y-49250114D01*
X38193579Y-49250113D01*
X38318596Y-49237800D01*
X39202204Y-49237800D01*
X39327221Y-49250113D01*
X39327221Y-49250113D01*
G37*
G36*
X33129621Y-49250113D02*
X33129624Y-49250114D01*
X33129625Y-49250114D01*
X33290039Y-49298775D01*
X33290041Y-49298776D01*
X33290044Y-49298777D01*
X33437878Y-49377795D01*
X33567459Y-49484141D01*
X33673805Y-49613722D01*
X33752823Y-49761556D01*
X33801487Y-49921979D01*
X33817917Y-50088800D01*
X33801487Y-50255621D01*
X33752823Y-50416044D01*
X33673805Y-50563878D01*
X33567459Y-50693459D01*
X33437878Y-50799805D01*
X33290044Y-50878823D01*
X33290041Y-50878824D01*
X33290039Y-50878825D01*
X33129625Y-50927486D01*
X33129624Y-50927486D01*
X33129621Y-50927487D01*
X33004604Y-50939800D01*
X32120996Y-50939800D01*
X31995979Y-50927487D01*
X31995976Y-50927486D01*
X31995975Y-50927486D01*
X31835561Y-50878825D01*
X31835559Y-50878824D01*
X31835556Y-50878823D01*
X31687722Y-50799805D01*
X31558141Y-50693459D01*
X31451795Y-50563878D01*
X31372777Y-50416044D01*
X31324113Y-50255621D01*
X31307683Y-50088800D01*
X31324113Y-49921979D01*
X31372777Y-49761556D01*
X31451795Y-49613722D01*
X31558141Y-49484141D01*
X31687722Y-49377795D01*
X31835556Y-49298777D01*
X31835559Y-49298776D01*
X31835561Y-49298775D01*
X31995975Y-49250114D01*
X31995976Y-49250114D01*
X31995979Y-49250113D01*
X32120996Y-49237800D01*
X33004604Y-49237800D01*
X33129621Y-49250113D01*
X33129621Y-49250113D01*
G37*
G36*
X17889621Y-49250113D02*
X17889624Y-49250114D01*
X17889625Y-49250114D01*
X18050039Y-49298775D01*
X18050041Y-49298776D01*
X18050044Y-49298777D01*
X18197878Y-49377795D01*
X18327459Y-49484141D01*
X18433805Y-49613722D01*
X18512823Y-49761556D01*
X18561487Y-49921979D01*
X18577917Y-50088800D01*
X18561487Y-50255621D01*
X18512823Y-50416044D01*
X18433805Y-50563878D01*
X18327459Y-50693459D01*
X18197878Y-50799805D01*
X18050044Y-50878823D01*
X18050041Y-50878824D01*
X18050039Y-50878825D01*
X17889625Y-50927486D01*
X17889624Y-50927486D01*
X17889621Y-50927487D01*
X17764604Y-50939800D01*
X16880996Y-50939800D01*
X16755979Y-50927487D01*
X16755976Y-50927486D01*
X16755975Y-50927486D01*
X16595561Y-50878825D01*
X16595559Y-50878824D01*
X16595556Y-50878823D01*
X16447722Y-50799805D01*
X16318141Y-50693459D01*
X16211795Y-50563878D01*
X16132777Y-50416044D01*
X16084113Y-50255621D01*
X16067683Y-50088800D01*
X16084113Y-49921979D01*
X16132777Y-49761556D01*
X16211795Y-49613722D01*
X16318141Y-49484141D01*
X16447722Y-49377795D01*
X16595556Y-49298777D01*
X16595559Y-49298776D01*
X16595561Y-49298775D01*
X16755975Y-49250114D01*
X16755976Y-49250114D01*
X16755979Y-49250113D01*
X16880996Y-49237800D01*
X17764604Y-49237800D01*
X17889621Y-49250113D01*
X17889621Y-49250113D01*
G37*
G36*
X39327221Y-46710113D02*
X39327224Y-46710114D01*
X39327225Y-46710114D01*
X39487639Y-46758775D01*
X39487641Y-46758776D01*
X39487644Y-46758777D01*
X39635478Y-46837795D01*
X39765059Y-46944141D01*
X39871405Y-47073722D01*
X39950423Y-47221556D01*
X39999087Y-47381979D01*
X40015517Y-47548800D01*
X39999087Y-47715621D01*
X39950423Y-47876044D01*
X39871405Y-48023878D01*
X39765059Y-48153459D01*
X39635478Y-48259805D01*
X39487644Y-48338823D01*
X39487641Y-48338824D01*
X39487639Y-48338825D01*
X39327225Y-48387486D01*
X39327224Y-48387486D01*
X39327221Y-48387487D01*
X39202204Y-48399800D01*
X38318596Y-48399800D01*
X38193579Y-48387487D01*
X38193576Y-48387486D01*
X38193575Y-48387486D01*
X38033161Y-48338825D01*
X38033159Y-48338824D01*
X38033156Y-48338823D01*
X37885322Y-48259805D01*
X37755741Y-48153459D01*
X37649395Y-48023878D01*
X37570377Y-47876044D01*
X37521713Y-47715621D01*
X37505283Y-47548800D01*
X37521713Y-47381979D01*
X37570377Y-47221556D01*
X37649395Y-47073722D01*
X37755741Y-46944141D01*
X37885322Y-46837795D01*
X38033156Y-46758777D01*
X38033159Y-46758776D01*
X38033161Y-46758775D01*
X38193575Y-46710114D01*
X38193576Y-46710114D01*
X38193579Y-46710113D01*
X38318596Y-46697800D01*
X39202204Y-46697800D01*
X39327221Y-46710113D01*
X39327221Y-46710113D01*
G37*
G36*
X33129621Y-46710113D02*
X33129624Y-46710114D01*
X33129625Y-46710114D01*
X33290039Y-46758775D01*
X33290041Y-46758776D01*
X33290044Y-46758777D01*
X33437878Y-46837795D01*
X33567459Y-46944141D01*
X33673805Y-47073722D01*
X33752823Y-47221556D01*
X33801487Y-47381979D01*
X33817917Y-47548800D01*
X33801487Y-47715621D01*
X33752823Y-47876044D01*
X33673805Y-48023878D01*
X33567459Y-48153459D01*
X33437878Y-48259805D01*
X33290044Y-48338823D01*
X33290041Y-48338824D01*
X33290039Y-48338825D01*
X33129625Y-48387486D01*
X33129624Y-48387486D01*
X33129621Y-48387487D01*
X33004604Y-48399800D01*
X32120996Y-48399800D01*
X31995979Y-48387487D01*
X31995976Y-48387486D01*
X31995975Y-48387486D01*
X31835561Y-48338825D01*
X31835559Y-48338824D01*
X31835556Y-48338823D01*
X31687722Y-48259805D01*
X31558141Y-48153459D01*
X31451795Y-48023878D01*
X31372777Y-47876044D01*
X31324113Y-47715621D01*
X31307683Y-47548800D01*
X31324113Y-47381979D01*
X31372777Y-47221556D01*
X31451795Y-47073722D01*
X31558141Y-46944141D01*
X31687722Y-46837795D01*
X31835556Y-46758777D01*
X31835559Y-46758776D01*
X31835561Y-46758775D01*
X31995975Y-46710114D01*
X31995976Y-46710114D01*
X31995979Y-46710113D01*
X32120996Y-46697800D01*
X33004604Y-46697800D01*
X33129621Y-46710113D01*
X33129621Y-46710113D01*
G37*
G36*
X24087221Y-46710113D02*
X24087224Y-46710114D01*
X24087225Y-46710114D01*
X24247639Y-46758775D01*
X24247641Y-46758776D01*
X24247644Y-46758777D01*
X24395478Y-46837795D01*
X24525059Y-46944141D01*
X24631405Y-47073722D01*
X24710423Y-47221556D01*
X24759087Y-47381979D01*
X24775517Y-47548800D01*
X24759087Y-47715621D01*
X24710423Y-47876044D01*
X24631405Y-48023878D01*
X24525059Y-48153459D01*
X24395478Y-48259805D01*
X24247644Y-48338823D01*
X24247641Y-48338824D01*
X24247639Y-48338825D01*
X24087225Y-48387486D01*
X24087224Y-48387486D01*
X24087221Y-48387487D01*
X23962204Y-48399800D01*
X23078596Y-48399800D01*
X22953579Y-48387487D01*
X22953576Y-48387486D01*
X22953575Y-48387486D01*
X22793161Y-48338825D01*
X22793159Y-48338824D01*
X22793156Y-48338823D01*
X22645322Y-48259805D01*
X22515741Y-48153459D01*
X22409395Y-48023878D01*
X22330377Y-47876044D01*
X22281713Y-47715621D01*
X22265283Y-47548800D01*
X22281713Y-47381979D01*
X22330377Y-47221556D01*
X22409395Y-47073722D01*
X22515741Y-46944141D01*
X22645322Y-46837795D01*
X22793156Y-46758777D01*
X22793159Y-46758776D01*
X22793161Y-46758775D01*
X22953575Y-46710114D01*
X22953576Y-46710114D01*
X22953579Y-46710113D01*
X23078596Y-46697800D01*
X23962204Y-46697800D01*
X24087221Y-46710113D01*
X24087221Y-46710113D01*
G37*
G36*
X17889621Y-46710113D02*
X17889624Y-46710114D01*
X17889625Y-46710114D01*
X18050039Y-46758775D01*
X18050041Y-46758776D01*
X18050044Y-46758777D01*
X18197878Y-46837795D01*
X18327459Y-46944141D01*
X18433805Y-47073722D01*
X18512823Y-47221556D01*
X18561487Y-47381979D01*
X18577917Y-47548800D01*
X18561487Y-47715621D01*
X18512823Y-47876044D01*
X18433805Y-48023878D01*
X18327459Y-48153459D01*
X18197878Y-48259805D01*
X18050044Y-48338823D01*
X18050041Y-48338824D01*
X18050039Y-48338825D01*
X17889625Y-48387486D01*
X17889624Y-48387486D01*
X17889621Y-48387487D01*
X17764604Y-48399800D01*
X16880996Y-48399800D01*
X16755979Y-48387487D01*
X16755976Y-48387486D01*
X16755975Y-48387486D01*
X16595561Y-48338825D01*
X16595559Y-48338824D01*
X16595556Y-48338823D01*
X16447722Y-48259805D01*
X16318141Y-48153459D01*
X16211795Y-48023878D01*
X16132777Y-47876044D01*
X16084113Y-47715621D01*
X16067683Y-47548800D01*
X16084113Y-47381979D01*
X16132777Y-47221556D01*
X16211795Y-47073722D01*
X16318141Y-46944141D01*
X16447722Y-46837795D01*
X16595556Y-46758777D01*
X16595559Y-46758776D01*
X16595561Y-46758775D01*
X16755975Y-46710114D01*
X16755976Y-46710114D01*
X16755979Y-46710113D01*
X16880996Y-46697800D01*
X17764604Y-46697800D01*
X17889621Y-46710113D01*
X17889621Y-46710113D01*
G37*
G36*
X17889621Y-44170113D02*
X17889624Y-44170114D01*
X17889625Y-44170114D01*
X18050039Y-44218775D01*
X18050041Y-44218776D01*
X18050044Y-44218777D01*
X18197878Y-44297795D01*
X18327459Y-44404141D01*
X18433805Y-44533722D01*
X18512823Y-44681556D01*
X18561487Y-44841979D01*
X18577917Y-45008800D01*
X18561487Y-45175621D01*
X18512823Y-45336044D01*
X18433805Y-45483878D01*
X18327459Y-45613459D01*
X18197878Y-45719805D01*
X18050044Y-45798823D01*
X18050041Y-45798824D01*
X18050039Y-45798825D01*
X17889625Y-45847486D01*
X17889624Y-45847486D01*
X17889621Y-45847487D01*
X17764604Y-45859800D01*
X16880996Y-45859800D01*
X16755979Y-45847487D01*
X16755976Y-45847486D01*
X16755975Y-45847486D01*
X16595561Y-45798825D01*
X16595559Y-45798824D01*
X16595556Y-45798823D01*
X16447722Y-45719805D01*
X16318141Y-45613459D01*
X16211795Y-45483878D01*
X16132777Y-45336044D01*
X16084113Y-45175621D01*
X16067683Y-45008800D01*
X16084113Y-44841979D01*
X16132777Y-44681556D01*
X16211795Y-44533722D01*
X16318141Y-44404141D01*
X16447722Y-44297795D01*
X16595556Y-44218777D01*
X16595559Y-44218776D01*
X16595561Y-44218775D01*
X16755975Y-44170114D01*
X16755976Y-44170114D01*
X16755979Y-44170113D01*
X16880996Y-44157800D01*
X17764604Y-44157800D01*
X17889621Y-44170113D01*
X17889621Y-44170113D01*
G37*
G36*
X24087221Y-44170113D02*
X24087224Y-44170114D01*
X24087225Y-44170114D01*
X24247639Y-44218775D01*
X24247641Y-44218776D01*
X24247644Y-44218777D01*
X24395478Y-44297795D01*
X24525059Y-44404141D01*
X24631405Y-44533722D01*
X24710423Y-44681556D01*
X24759087Y-44841979D01*
X24775517Y-45008800D01*
X24759087Y-45175621D01*
X24710423Y-45336044D01*
X24631405Y-45483878D01*
X24525059Y-45613459D01*
X24395478Y-45719805D01*
X24247644Y-45798823D01*
X24247641Y-45798824D01*
X24247639Y-45798825D01*
X24087225Y-45847486D01*
X24087224Y-45847486D01*
X24087221Y-45847487D01*
X23962204Y-45859800D01*
X23078596Y-45859800D01*
X22953579Y-45847487D01*
X22953576Y-45847486D01*
X22953575Y-45847486D01*
X22793161Y-45798825D01*
X22793159Y-45798824D01*
X22793156Y-45798823D01*
X22645322Y-45719805D01*
X22515741Y-45613459D01*
X22409395Y-45483878D01*
X22330377Y-45336044D01*
X22281713Y-45175621D01*
X22265283Y-45008800D01*
X22281713Y-44841979D01*
X22330377Y-44681556D01*
X22409395Y-44533722D01*
X22515741Y-44404141D01*
X22645322Y-44297795D01*
X22793156Y-44218777D01*
X22793159Y-44218776D01*
X22793161Y-44218775D01*
X22953575Y-44170114D01*
X22953576Y-44170114D01*
X22953579Y-44170113D01*
X23078596Y-44157800D01*
X23962204Y-44157800D01*
X24087221Y-44170113D01*
X24087221Y-44170113D01*
G37*
G36*
X33129621Y-44170113D02*
X33129624Y-44170114D01*
X33129625Y-44170114D01*
X33290039Y-44218775D01*
X33290041Y-44218776D01*
X33290044Y-44218777D01*
X33437878Y-44297795D01*
X33567459Y-44404141D01*
X33673805Y-44533722D01*
X33752823Y-44681556D01*
X33801487Y-44841979D01*
X33817917Y-45008800D01*
X33801487Y-45175621D01*
X33752823Y-45336044D01*
X33673805Y-45483878D01*
X33567459Y-45613459D01*
X33437878Y-45719805D01*
X33290044Y-45798823D01*
X33290041Y-45798824D01*
X33290039Y-45798825D01*
X33129625Y-45847486D01*
X33129624Y-45847486D01*
X33129621Y-45847487D01*
X33004604Y-45859800D01*
X32120996Y-45859800D01*
X31995979Y-45847487D01*
X31995976Y-45847486D01*
X31995975Y-45847486D01*
X31835561Y-45798825D01*
X31835559Y-45798824D01*
X31835556Y-45798823D01*
X31687722Y-45719805D01*
X31558141Y-45613459D01*
X31451795Y-45483878D01*
X31372777Y-45336044D01*
X31324113Y-45175621D01*
X31307683Y-45008800D01*
X31324113Y-44841979D01*
X31372777Y-44681556D01*
X31451795Y-44533722D01*
X31558141Y-44404141D01*
X31687722Y-44297795D01*
X31835556Y-44218777D01*
X31835559Y-44218776D01*
X31835561Y-44218775D01*
X31995975Y-44170114D01*
X31995976Y-44170114D01*
X31995979Y-44170113D01*
X32120996Y-44157800D01*
X33004604Y-44157800D01*
X33129621Y-44170113D01*
X33129621Y-44170113D01*
G37*
G36*
X39327221Y-44170113D02*
X39327224Y-44170114D01*
X39327225Y-44170114D01*
X39487639Y-44218775D01*
X39487641Y-44218776D01*
X39487644Y-44218777D01*
X39635478Y-44297795D01*
X39765059Y-44404141D01*
X39871405Y-44533722D01*
X39950423Y-44681556D01*
X39999087Y-44841979D01*
X40015517Y-45008800D01*
X39999087Y-45175621D01*
X39950423Y-45336044D01*
X39871405Y-45483878D01*
X39765059Y-45613459D01*
X39635478Y-45719805D01*
X39487644Y-45798823D01*
X39487641Y-45798824D01*
X39487639Y-45798825D01*
X39327225Y-45847486D01*
X39327224Y-45847486D01*
X39327221Y-45847487D01*
X39202204Y-45859800D01*
X38318596Y-45859800D01*
X38193579Y-45847487D01*
X38193576Y-45847486D01*
X38193575Y-45847486D01*
X38033161Y-45798825D01*
X38033159Y-45798824D01*
X38033156Y-45798823D01*
X37885322Y-45719805D01*
X37755741Y-45613459D01*
X37649395Y-45483878D01*
X37570377Y-45336044D01*
X37521713Y-45175621D01*
X37505283Y-45008800D01*
X37521713Y-44841979D01*
X37570377Y-44681556D01*
X37649395Y-44533722D01*
X37755741Y-44404141D01*
X37885322Y-44297795D01*
X38033156Y-44218777D01*
X38033159Y-44218776D01*
X38033161Y-44218775D01*
X38193575Y-44170114D01*
X38193576Y-44170114D01*
X38193579Y-44170113D01*
X38318596Y-44157800D01*
X39202204Y-44157800D01*
X39327221Y-44170113D01*
X39327221Y-44170113D01*
G37*
G36*
X24087221Y-41630113D02*
X24087224Y-41630114D01*
X24087225Y-41630114D01*
X24247639Y-41678775D01*
X24247641Y-41678776D01*
X24247644Y-41678777D01*
X24395478Y-41757795D01*
X24525059Y-41864141D01*
X24631405Y-41993722D01*
X24710423Y-42141556D01*
X24759087Y-42301979D01*
X24775517Y-42468800D01*
X24759087Y-42635621D01*
X24710423Y-42796044D01*
X24631405Y-42943878D01*
X24525059Y-43073459D01*
X24395478Y-43179805D01*
X24247644Y-43258823D01*
X24247641Y-43258824D01*
X24247639Y-43258825D01*
X24087225Y-43307486D01*
X24087224Y-43307486D01*
X24087221Y-43307487D01*
X23962204Y-43319800D01*
X23078596Y-43319800D01*
X22953579Y-43307487D01*
X22953576Y-43307486D01*
X22953575Y-43307486D01*
X22793161Y-43258825D01*
X22793159Y-43258824D01*
X22793156Y-43258823D01*
X22645322Y-43179805D01*
X22515741Y-43073459D01*
X22409395Y-42943878D01*
X22330377Y-42796044D01*
X22281713Y-42635621D01*
X22265283Y-42468800D01*
X22281713Y-42301979D01*
X22330377Y-42141556D01*
X22409395Y-41993722D01*
X22515741Y-41864141D01*
X22645322Y-41757795D01*
X22793156Y-41678777D01*
X22793159Y-41678776D01*
X22793161Y-41678775D01*
X22953575Y-41630114D01*
X22953576Y-41630114D01*
X22953579Y-41630113D01*
X23078596Y-41617800D01*
X23962204Y-41617800D01*
X24087221Y-41630113D01*
X24087221Y-41630113D01*
G37*
G36*
X17889621Y-41630113D02*
X17889624Y-41630114D01*
X17889625Y-41630114D01*
X18050039Y-41678775D01*
X18050041Y-41678776D01*
X18050044Y-41678777D01*
X18197878Y-41757795D01*
X18327459Y-41864141D01*
X18433805Y-41993722D01*
X18512823Y-42141556D01*
X18561487Y-42301979D01*
X18577917Y-42468800D01*
X18561487Y-42635621D01*
X18512823Y-42796044D01*
X18433805Y-42943878D01*
X18327459Y-43073459D01*
X18197878Y-43179805D01*
X18050044Y-43258823D01*
X18050041Y-43258824D01*
X18050039Y-43258825D01*
X17889625Y-43307486D01*
X17889624Y-43307486D01*
X17889621Y-43307487D01*
X17764604Y-43319800D01*
X16880996Y-43319800D01*
X16755979Y-43307487D01*
X16755976Y-43307486D01*
X16755975Y-43307486D01*
X16595561Y-43258825D01*
X16595559Y-43258824D01*
X16595556Y-43258823D01*
X16447722Y-43179805D01*
X16318141Y-43073459D01*
X16211795Y-42943878D01*
X16132777Y-42796044D01*
X16084113Y-42635621D01*
X16067683Y-42468800D01*
X16084113Y-42301979D01*
X16132777Y-42141556D01*
X16211795Y-41993722D01*
X16318141Y-41864141D01*
X16447722Y-41757795D01*
X16595556Y-41678777D01*
X16595559Y-41678776D01*
X16595561Y-41678775D01*
X16755975Y-41630114D01*
X16755976Y-41630114D01*
X16755979Y-41630113D01*
X16880996Y-41617800D01*
X17764604Y-41617800D01*
X17889621Y-41630113D01*
X17889621Y-41630113D01*
G37*
G36*
X33129621Y-41630113D02*
X33129624Y-41630114D01*
X33129625Y-41630114D01*
X33290039Y-41678775D01*
X33290041Y-41678776D01*
X33290044Y-41678777D01*
X33437878Y-41757795D01*
X33567459Y-41864141D01*
X33673805Y-41993722D01*
X33752823Y-42141556D01*
X33801487Y-42301979D01*
X33817917Y-42468800D01*
X33801487Y-42635621D01*
X33752823Y-42796044D01*
X33673805Y-42943878D01*
X33567459Y-43073459D01*
X33437878Y-43179805D01*
X33290044Y-43258823D01*
X33290041Y-43258824D01*
X33290039Y-43258825D01*
X33129625Y-43307486D01*
X33129624Y-43307486D01*
X33129621Y-43307487D01*
X33004604Y-43319800D01*
X32120996Y-43319800D01*
X31995979Y-43307487D01*
X31995976Y-43307486D01*
X31995975Y-43307486D01*
X31835561Y-43258825D01*
X31835559Y-43258824D01*
X31835556Y-43258823D01*
X31687722Y-43179805D01*
X31558141Y-43073459D01*
X31451795Y-42943878D01*
X31372777Y-42796044D01*
X31324113Y-42635621D01*
X31307683Y-42468800D01*
X31324113Y-42301979D01*
X31372777Y-42141556D01*
X31451795Y-41993722D01*
X31558141Y-41864141D01*
X31687722Y-41757795D01*
X31835556Y-41678777D01*
X31835559Y-41678776D01*
X31835561Y-41678775D01*
X31995975Y-41630114D01*
X31995976Y-41630114D01*
X31995979Y-41630113D01*
X32120996Y-41617800D01*
X33004604Y-41617800D01*
X33129621Y-41630113D01*
X33129621Y-41630113D01*
G37*
G36*
X39327221Y-41630113D02*
X39327224Y-41630114D01*
X39327225Y-41630114D01*
X39487639Y-41678775D01*
X39487641Y-41678776D01*
X39487644Y-41678777D01*
X39635478Y-41757795D01*
X39765059Y-41864141D01*
X39871405Y-41993722D01*
X39950423Y-42141556D01*
X39999087Y-42301979D01*
X40015517Y-42468800D01*
X39999087Y-42635621D01*
X39950423Y-42796044D01*
X39871405Y-42943878D01*
X39765059Y-43073459D01*
X39635478Y-43179805D01*
X39487644Y-43258823D01*
X39487641Y-43258824D01*
X39487639Y-43258825D01*
X39327225Y-43307486D01*
X39327224Y-43307486D01*
X39327221Y-43307487D01*
X39202204Y-43319800D01*
X38318596Y-43319800D01*
X38193579Y-43307487D01*
X38193576Y-43307486D01*
X38193575Y-43307486D01*
X38033161Y-43258825D01*
X38033159Y-43258824D01*
X38033156Y-43258823D01*
X37885322Y-43179805D01*
X37755741Y-43073459D01*
X37649395Y-42943878D01*
X37570377Y-42796044D01*
X37521713Y-42635621D01*
X37505283Y-42468800D01*
X37521713Y-42301979D01*
X37570377Y-42141556D01*
X37649395Y-41993722D01*
X37755741Y-41864141D01*
X37885322Y-41757795D01*
X38033156Y-41678777D01*
X38033159Y-41678776D01*
X38033161Y-41678775D01*
X38193575Y-41630114D01*
X38193576Y-41630114D01*
X38193579Y-41630113D01*
X38318596Y-41617800D01*
X39202204Y-41617800D01*
X39327221Y-41630113D01*
X39327221Y-41630113D01*
G37*
G36*
X39327221Y-39090113D02*
X39327224Y-39090114D01*
X39327225Y-39090114D01*
X39487639Y-39138775D01*
X39487641Y-39138776D01*
X39487644Y-39138777D01*
X39635478Y-39217795D01*
X39765059Y-39324141D01*
X39871405Y-39453722D01*
X39950423Y-39601556D01*
X39999087Y-39761979D01*
X40015517Y-39928800D01*
X39999087Y-40095621D01*
X39950423Y-40256044D01*
X39871405Y-40403878D01*
X39765059Y-40533459D01*
X39635478Y-40639805D01*
X39487644Y-40718823D01*
X39487641Y-40718824D01*
X39487639Y-40718825D01*
X39327225Y-40767486D01*
X39327224Y-40767486D01*
X39327221Y-40767487D01*
X39202204Y-40779800D01*
X38318596Y-40779800D01*
X38193579Y-40767487D01*
X38193576Y-40767486D01*
X38193575Y-40767486D01*
X38033161Y-40718825D01*
X38033159Y-40718824D01*
X38033156Y-40718823D01*
X37885322Y-40639805D01*
X37755741Y-40533459D01*
X37649395Y-40403878D01*
X37570377Y-40256044D01*
X37521713Y-40095621D01*
X37505283Y-39928800D01*
X37521713Y-39761979D01*
X37570377Y-39601556D01*
X37649395Y-39453722D01*
X37755741Y-39324141D01*
X37885322Y-39217795D01*
X38033156Y-39138777D01*
X38033159Y-39138776D01*
X38033161Y-39138775D01*
X38193575Y-39090114D01*
X38193576Y-39090114D01*
X38193579Y-39090113D01*
X38318596Y-39077800D01*
X39202204Y-39077800D01*
X39327221Y-39090113D01*
X39327221Y-39090113D01*
G37*
G36*
X24087221Y-39090113D02*
X24087224Y-39090114D01*
X24087225Y-39090114D01*
X24247639Y-39138775D01*
X24247641Y-39138776D01*
X24247644Y-39138777D01*
X24395478Y-39217795D01*
X24525059Y-39324141D01*
X24631405Y-39453722D01*
X24710423Y-39601556D01*
X24759087Y-39761979D01*
X24775517Y-39928800D01*
X24759087Y-40095621D01*
X24710423Y-40256044D01*
X24631405Y-40403878D01*
X24525059Y-40533459D01*
X24395478Y-40639805D01*
X24247644Y-40718823D01*
X24247641Y-40718824D01*
X24247639Y-40718825D01*
X24087225Y-40767486D01*
X24087224Y-40767486D01*
X24087221Y-40767487D01*
X23962204Y-40779800D01*
X23078596Y-40779800D01*
X22953579Y-40767487D01*
X22953576Y-40767486D01*
X22953575Y-40767486D01*
X22793161Y-40718825D01*
X22793159Y-40718824D01*
X22793156Y-40718823D01*
X22645322Y-40639805D01*
X22515741Y-40533459D01*
X22409395Y-40403878D01*
X22330377Y-40256044D01*
X22281713Y-40095621D01*
X22265283Y-39928800D01*
X22281713Y-39761979D01*
X22330377Y-39601556D01*
X22409395Y-39453722D01*
X22515741Y-39324141D01*
X22645322Y-39217795D01*
X22793156Y-39138777D01*
X22793159Y-39138776D01*
X22793161Y-39138775D01*
X22953575Y-39090114D01*
X22953576Y-39090114D01*
X22953579Y-39090113D01*
X23078596Y-39077800D01*
X23962204Y-39077800D01*
X24087221Y-39090113D01*
X24087221Y-39090113D01*
G37*
G36*
X33129621Y-39090113D02*
X33129624Y-39090114D01*
X33129625Y-39090114D01*
X33290039Y-39138775D01*
X33290041Y-39138776D01*
X33290044Y-39138777D01*
X33437878Y-39217795D01*
X33567459Y-39324141D01*
X33673805Y-39453722D01*
X33752823Y-39601556D01*
X33801487Y-39761979D01*
X33817917Y-39928800D01*
X33801487Y-40095621D01*
X33752823Y-40256044D01*
X33673805Y-40403878D01*
X33567459Y-40533459D01*
X33437878Y-40639805D01*
X33290044Y-40718823D01*
X33290041Y-40718824D01*
X33290039Y-40718825D01*
X33129625Y-40767486D01*
X33129624Y-40767486D01*
X33129621Y-40767487D01*
X33004604Y-40779800D01*
X32120996Y-40779800D01*
X31995979Y-40767487D01*
X31995976Y-40767486D01*
X31995975Y-40767486D01*
X31835561Y-40718825D01*
X31835559Y-40718824D01*
X31835556Y-40718823D01*
X31687722Y-40639805D01*
X31558141Y-40533459D01*
X31451795Y-40403878D01*
X31372777Y-40256044D01*
X31324113Y-40095621D01*
X31307683Y-39928800D01*
X31324113Y-39761979D01*
X31372777Y-39601556D01*
X31451795Y-39453722D01*
X31558141Y-39324141D01*
X31687722Y-39217795D01*
X31835556Y-39138777D01*
X31835559Y-39138776D01*
X31835561Y-39138775D01*
X31995975Y-39090114D01*
X31995976Y-39090114D01*
X31995979Y-39090113D01*
X32120996Y-39077800D01*
X33004604Y-39077800D01*
X33129621Y-39090113D01*
X33129621Y-39090113D01*
G37*
G36*
X17889621Y-39090113D02*
X17889624Y-39090114D01*
X17889625Y-39090114D01*
X18050039Y-39138775D01*
X18050041Y-39138776D01*
X18050044Y-39138777D01*
X18197878Y-39217795D01*
X18327459Y-39324141D01*
X18433805Y-39453722D01*
X18512823Y-39601556D01*
X18561487Y-39761979D01*
X18577917Y-39928800D01*
X18561487Y-40095621D01*
X18512823Y-40256044D01*
X18433805Y-40403878D01*
X18327459Y-40533459D01*
X18197878Y-40639805D01*
X18050044Y-40718823D01*
X18050041Y-40718824D01*
X18050039Y-40718825D01*
X17889625Y-40767486D01*
X17889624Y-40767486D01*
X17889621Y-40767487D01*
X17764604Y-40779800D01*
X16880996Y-40779800D01*
X16755979Y-40767487D01*
X16755976Y-40767486D01*
X16755975Y-40767486D01*
X16595561Y-40718825D01*
X16595559Y-40718824D01*
X16595556Y-40718823D01*
X16447722Y-40639805D01*
X16318141Y-40533459D01*
X16211795Y-40403878D01*
X16132777Y-40256044D01*
X16084113Y-40095621D01*
X16067683Y-39928800D01*
X16084113Y-39761979D01*
X16132777Y-39601556D01*
X16211795Y-39453722D01*
X16318141Y-39324141D01*
X16447722Y-39217795D01*
X16595556Y-39138777D01*
X16595559Y-39138776D01*
X16595561Y-39138775D01*
X16755975Y-39090114D01*
X16755976Y-39090114D01*
X16755979Y-39090113D01*
X16880996Y-39077800D01*
X17764604Y-39077800D01*
X17889621Y-39090113D01*
X17889621Y-39090113D01*
G37*
G36*
X17889621Y-36550113D02*
X17889624Y-36550114D01*
X17889625Y-36550114D01*
X18050039Y-36598775D01*
X18050041Y-36598776D01*
X18050044Y-36598777D01*
X18197878Y-36677795D01*
X18327459Y-36784141D01*
X18433805Y-36913722D01*
X18512823Y-37061556D01*
X18561487Y-37221979D01*
X18577917Y-37388800D01*
X18561487Y-37555621D01*
X18512823Y-37716044D01*
X18433805Y-37863878D01*
X18327459Y-37993459D01*
X18197878Y-38099805D01*
X18050044Y-38178823D01*
X18050041Y-38178824D01*
X18050039Y-38178825D01*
X17889625Y-38227486D01*
X17889624Y-38227486D01*
X17889621Y-38227487D01*
X17764604Y-38239800D01*
X16880996Y-38239800D01*
X16755979Y-38227487D01*
X16755976Y-38227486D01*
X16755975Y-38227486D01*
X16595561Y-38178825D01*
X16595559Y-38178824D01*
X16595556Y-38178823D01*
X16447722Y-38099805D01*
X16318141Y-37993459D01*
X16211795Y-37863878D01*
X16132777Y-37716044D01*
X16084113Y-37555621D01*
X16067683Y-37388800D01*
X16084113Y-37221979D01*
X16132777Y-37061556D01*
X16211795Y-36913722D01*
X16318141Y-36784141D01*
X16447722Y-36677795D01*
X16595556Y-36598777D01*
X16595559Y-36598776D01*
X16595561Y-36598775D01*
X16755975Y-36550114D01*
X16755976Y-36550114D01*
X16755979Y-36550113D01*
X16880996Y-36537800D01*
X17764604Y-36537800D01*
X17889621Y-36550113D01*
X17889621Y-36550113D01*
G37*
G36*
X39327221Y-36550113D02*
X39327224Y-36550114D01*
X39327225Y-36550114D01*
X39487639Y-36598775D01*
X39487641Y-36598776D01*
X39487644Y-36598777D01*
X39635478Y-36677795D01*
X39765059Y-36784141D01*
X39871405Y-36913722D01*
X39950423Y-37061556D01*
X39999087Y-37221979D01*
X40015517Y-37388800D01*
X39999087Y-37555621D01*
X39950423Y-37716044D01*
X39871405Y-37863878D01*
X39765059Y-37993459D01*
X39635478Y-38099805D01*
X39487644Y-38178823D01*
X39487641Y-38178824D01*
X39487639Y-38178825D01*
X39327225Y-38227486D01*
X39327224Y-38227486D01*
X39327221Y-38227487D01*
X39202204Y-38239800D01*
X38318596Y-38239800D01*
X38193579Y-38227487D01*
X38193576Y-38227486D01*
X38193575Y-38227486D01*
X38033161Y-38178825D01*
X38033159Y-38178824D01*
X38033156Y-38178823D01*
X37885322Y-38099805D01*
X37755741Y-37993459D01*
X37649395Y-37863878D01*
X37570377Y-37716044D01*
X37521713Y-37555621D01*
X37505283Y-37388800D01*
X37521713Y-37221979D01*
X37570377Y-37061556D01*
X37649395Y-36913722D01*
X37755741Y-36784141D01*
X37885322Y-36677795D01*
X38033156Y-36598777D01*
X38033159Y-36598776D01*
X38033161Y-36598775D01*
X38193575Y-36550114D01*
X38193576Y-36550114D01*
X38193579Y-36550113D01*
X38318596Y-36537800D01*
X39202204Y-36537800D01*
X39327221Y-36550113D01*
X39327221Y-36550113D01*
G37*
G36*
X33129621Y-36550113D02*
X33129624Y-36550114D01*
X33129625Y-36550114D01*
X33290039Y-36598775D01*
X33290041Y-36598776D01*
X33290044Y-36598777D01*
X33437878Y-36677795D01*
X33567459Y-36784141D01*
X33673805Y-36913722D01*
X33752823Y-37061556D01*
X33801487Y-37221979D01*
X33817917Y-37388800D01*
X33801487Y-37555621D01*
X33752823Y-37716044D01*
X33673805Y-37863878D01*
X33567459Y-37993459D01*
X33437878Y-38099805D01*
X33290044Y-38178823D01*
X33290041Y-38178824D01*
X33290039Y-38178825D01*
X33129625Y-38227486D01*
X33129624Y-38227486D01*
X33129621Y-38227487D01*
X33004604Y-38239800D01*
X32120996Y-38239800D01*
X31995979Y-38227487D01*
X31995976Y-38227486D01*
X31995975Y-38227486D01*
X31835561Y-38178825D01*
X31835559Y-38178824D01*
X31835556Y-38178823D01*
X31687722Y-38099805D01*
X31558141Y-37993459D01*
X31451795Y-37863878D01*
X31372777Y-37716044D01*
X31324113Y-37555621D01*
X31307683Y-37388800D01*
X31324113Y-37221979D01*
X31372777Y-37061556D01*
X31451795Y-36913722D01*
X31558141Y-36784141D01*
X31687722Y-36677795D01*
X31835556Y-36598777D01*
X31835559Y-36598776D01*
X31835561Y-36598775D01*
X31995975Y-36550114D01*
X31995976Y-36550114D01*
X31995979Y-36550113D01*
X32120996Y-36537800D01*
X33004604Y-36537800D01*
X33129621Y-36550113D01*
X33129621Y-36550113D01*
G37*
G36*
X24087221Y-36550113D02*
X24087224Y-36550114D01*
X24087225Y-36550114D01*
X24247639Y-36598775D01*
X24247641Y-36598776D01*
X24247644Y-36598777D01*
X24395478Y-36677795D01*
X24525059Y-36784141D01*
X24631405Y-36913722D01*
X24710423Y-37061556D01*
X24759087Y-37221979D01*
X24775517Y-37388800D01*
X24759087Y-37555621D01*
X24710423Y-37716044D01*
X24631405Y-37863878D01*
X24525059Y-37993459D01*
X24395478Y-38099805D01*
X24247644Y-38178823D01*
X24247641Y-38178824D01*
X24247639Y-38178825D01*
X24087225Y-38227486D01*
X24087224Y-38227486D01*
X24087221Y-38227487D01*
X23962204Y-38239800D01*
X23078596Y-38239800D01*
X22953579Y-38227487D01*
X22953576Y-38227486D01*
X22953575Y-38227486D01*
X22793161Y-38178825D01*
X22793159Y-38178824D01*
X22793156Y-38178823D01*
X22645322Y-38099805D01*
X22515741Y-37993459D01*
X22409395Y-37863878D01*
X22330377Y-37716044D01*
X22281713Y-37555621D01*
X22265283Y-37388800D01*
X22281713Y-37221979D01*
X22330377Y-37061556D01*
X22409395Y-36913722D01*
X22515741Y-36784141D01*
X22645322Y-36677795D01*
X22793156Y-36598777D01*
X22793159Y-36598776D01*
X22793161Y-36598775D01*
X22953575Y-36550114D01*
X22953576Y-36550114D01*
X22953579Y-36550113D01*
X23078596Y-36537800D01*
X23962204Y-36537800D01*
X24087221Y-36550113D01*
X24087221Y-36550113D01*
G37*
G36*
X33129621Y-34010113D02*
X33129624Y-34010114D01*
X33129625Y-34010114D01*
X33290039Y-34058775D01*
X33290041Y-34058776D01*
X33290044Y-34058777D01*
X33437878Y-34137795D01*
X33567459Y-34244141D01*
X33673805Y-34373722D01*
X33752823Y-34521556D01*
X33801487Y-34681979D01*
X33817917Y-34848800D01*
X33801487Y-35015621D01*
X33752823Y-35176044D01*
X33673805Y-35323878D01*
X33567459Y-35453459D01*
X33437878Y-35559805D01*
X33290044Y-35638823D01*
X33290041Y-35638824D01*
X33290039Y-35638825D01*
X33129625Y-35687486D01*
X33129624Y-35687486D01*
X33129621Y-35687487D01*
X33004604Y-35699800D01*
X32120996Y-35699800D01*
X31995979Y-35687487D01*
X31995976Y-35687486D01*
X31995975Y-35687486D01*
X31835561Y-35638825D01*
X31835559Y-35638824D01*
X31835556Y-35638823D01*
X31687722Y-35559805D01*
X31558141Y-35453459D01*
X31451795Y-35323878D01*
X31372777Y-35176044D01*
X31324113Y-35015621D01*
X31307683Y-34848800D01*
X31324113Y-34681979D01*
X31372777Y-34521556D01*
X31451795Y-34373722D01*
X31558141Y-34244141D01*
X31687722Y-34137795D01*
X31835556Y-34058777D01*
X31835559Y-34058776D01*
X31835561Y-34058775D01*
X31995975Y-34010114D01*
X31995976Y-34010114D01*
X31995979Y-34010113D01*
X32120996Y-33997800D01*
X33004604Y-33997800D01*
X33129621Y-34010113D01*
X33129621Y-34010113D01*
G37*
G36*
X24087221Y-34010113D02*
X24087224Y-34010114D01*
X24087225Y-34010114D01*
X24247639Y-34058775D01*
X24247641Y-34058776D01*
X24247644Y-34058777D01*
X24395478Y-34137795D01*
X24525059Y-34244141D01*
X24631405Y-34373722D01*
X24710423Y-34521556D01*
X24759087Y-34681979D01*
X24775517Y-34848800D01*
X24759087Y-35015621D01*
X24710423Y-35176044D01*
X24631405Y-35323878D01*
X24525059Y-35453459D01*
X24395478Y-35559805D01*
X24247644Y-35638823D01*
X24247641Y-35638824D01*
X24247639Y-35638825D01*
X24087225Y-35687486D01*
X24087224Y-35687486D01*
X24087221Y-35687487D01*
X23962204Y-35699800D01*
X23078596Y-35699800D01*
X22953579Y-35687487D01*
X22953576Y-35687486D01*
X22953575Y-35687486D01*
X22793161Y-35638825D01*
X22793159Y-35638824D01*
X22793156Y-35638823D01*
X22645322Y-35559805D01*
X22515741Y-35453459D01*
X22409395Y-35323878D01*
X22330377Y-35176044D01*
X22281713Y-35015621D01*
X22265283Y-34848800D01*
X22281713Y-34681979D01*
X22330377Y-34521556D01*
X22409395Y-34373722D01*
X22515741Y-34244141D01*
X22645322Y-34137795D01*
X22793156Y-34058777D01*
X22793159Y-34058776D01*
X22793161Y-34058775D01*
X22953575Y-34010114D01*
X22953576Y-34010114D01*
X22953579Y-34010113D01*
X23078596Y-33997800D01*
X23962204Y-33997800D01*
X24087221Y-34010113D01*
X24087221Y-34010113D01*
G37*
G36*
X17889621Y-34010113D02*
X17889624Y-34010114D01*
X17889625Y-34010114D01*
X18050039Y-34058775D01*
X18050041Y-34058776D01*
X18050044Y-34058777D01*
X18197878Y-34137795D01*
X18327459Y-34244141D01*
X18433805Y-34373722D01*
X18512823Y-34521556D01*
X18561487Y-34681979D01*
X18577917Y-34848800D01*
X18561487Y-35015621D01*
X18512823Y-35176044D01*
X18433805Y-35323878D01*
X18327459Y-35453459D01*
X18197878Y-35559805D01*
X18050044Y-35638823D01*
X18050041Y-35638824D01*
X18050039Y-35638825D01*
X17889625Y-35687486D01*
X17889624Y-35687486D01*
X17889621Y-35687487D01*
X17764604Y-35699800D01*
X16880996Y-35699800D01*
X16755979Y-35687487D01*
X16755976Y-35687486D01*
X16755975Y-35687486D01*
X16595561Y-35638825D01*
X16595559Y-35638824D01*
X16595556Y-35638823D01*
X16447722Y-35559805D01*
X16318141Y-35453459D01*
X16211795Y-35323878D01*
X16132777Y-35176044D01*
X16084113Y-35015621D01*
X16067683Y-34848800D01*
X16084113Y-34681979D01*
X16132777Y-34521556D01*
X16211795Y-34373722D01*
X16318141Y-34244141D01*
X16447722Y-34137795D01*
X16595556Y-34058777D01*
X16595559Y-34058776D01*
X16595561Y-34058775D01*
X16755975Y-34010114D01*
X16755976Y-34010114D01*
X16755979Y-34010113D01*
X16880996Y-33997800D01*
X17764604Y-33997800D01*
X17889621Y-34010113D01*
X17889621Y-34010113D01*
G37*
G36*
X39327221Y-34010113D02*
X39327224Y-34010114D01*
X39327225Y-34010114D01*
X39487639Y-34058775D01*
X39487641Y-34058776D01*
X39487644Y-34058777D01*
X39635478Y-34137795D01*
X39765059Y-34244141D01*
X39871405Y-34373722D01*
X39950423Y-34521556D01*
X39999087Y-34681979D01*
X40015517Y-34848800D01*
X39999087Y-35015621D01*
X39950423Y-35176044D01*
X39871405Y-35323878D01*
X39765059Y-35453459D01*
X39635478Y-35559805D01*
X39487644Y-35638823D01*
X39487641Y-35638824D01*
X39487639Y-35638825D01*
X39327225Y-35687486D01*
X39327224Y-35687486D01*
X39327221Y-35687487D01*
X39202204Y-35699800D01*
X38318596Y-35699800D01*
X38193579Y-35687487D01*
X38193576Y-35687486D01*
X38193575Y-35687486D01*
X38033161Y-35638825D01*
X38033159Y-35638824D01*
X38033156Y-35638823D01*
X37885322Y-35559805D01*
X37755741Y-35453459D01*
X37649395Y-35323878D01*
X37570377Y-35176044D01*
X37521713Y-35015621D01*
X37505283Y-34848800D01*
X37521713Y-34681979D01*
X37570377Y-34521556D01*
X37649395Y-34373722D01*
X37755741Y-34244141D01*
X37885322Y-34137795D01*
X38033156Y-34058777D01*
X38033159Y-34058776D01*
X38033161Y-34058775D01*
X38193575Y-34010114D01*
X38193576Y-34010114D01*
X38193579Y-34010113D01*
X38318596Y-33997800D01*
X39202204Y-33997800D01*
X39327221Y-34010113D01*
X39327221Y-34010113D01*
G37*
G36*
X24087221Y-31470113D02*
X24087224Y-31470114D01*
X24087225Y-31470114D01*
X24247639Y-31518775D01*
X24247641Y-31518776D01*
X24247644Y-31518777D01*
X24395478Y-31597795D01*
X24525059Y-31704141D01*
X24631405Y-31833722D01*
X24710423Y-31981556D01*
X24759087Y-32141979D01*
X24775517Y-32308800D01*
X24759087Y-32475621D01*
X24710423Y-32636044D01*
X24631405Y-32783878D01*
X24525059Y-32913459D01*
X24395478Y-33019805D01*
X24247644Y-33098823D01*
X24247641Y-33098824D01*
X24247639Y-33098825D01*
X24087225Y-33147486D01*
X24087224Y-33147486D01*
X24087221Y-33147487D01*
X23962204Y-33159800D01*
X23078596Y-33159800D01*
X22953579Y-33147487D01*
X22953576Y-33147486D01*
X22953575Y-33147486D01*
X22793161Y-33098825D01*
X22793159Y-33098824D01*
X22793156Y-33098823D01*
X22645322Y-33019805D01*
X22515741Y-32913459D01*
X22409395Y-32783878D01*
X22330377Y-32636044D01*
X22281713Y-32475621D01*
X22265283Y-32308800D01*
X22281713Y-32141979D01*
X22330377Y-31981556D01*
X22409395Y-31833722D01*
X22515741Y-31704141D01*
X22645322Y-31597795D01*
X22793156Y-31518777D01*
X22793159Y-31518776D01*
X22793161Y-31518775D01*
X22953575Y-31470114D01*
X22953576Y-31470114D01*
X22953579Y-31470113D01*
X23078596Y-31457800D01*
X23962204Y-31457800D01*
X24087221Y-31470113D01*
X24087221Y-31470113D01*
G37*
G36*
X17889621Y-31470113D02*
X17889624Y-31470114D01*
X17889625Y-31470114D01*
X18050039Y-31518775D01*
X18050041Y-31518776D01*
X18050044Y-31518777D01*
X18197878Y-31597795D01*
X18327459Y-31704141D01*
X18433805Y-31833722D01*
X18512823Y-31981556D01*
X18561487Y-32141979D01*
X18577917Y-32308800D01*
X18561487Y-32475621D01*
X18512823Y-32636044D01*
X18433805Y-32783878D01*
X18327459Y-32913459D01*
X18197878Y-33019805D01*
X18050044Y-33098823D01*
X18050041Y-33098824D01*
X18050039Y-33098825D01*
X17889625Y-33147486D01*
X17889624Y-33147486D01*
X17889621Y-33147487D01*
X17764604Y-33159800D01*
X16880996Y-33159800D01*
X16755979Y-33147487D01*
X16755976Y-33147486D01*
X16755975Y-33147486D01*
X16595561Y-33098825D01*
X16595559Y-33098824D01*
X16595556Y-33098823D01*
X16447722Y-33019805D01*
X16318141Y-32913459D01*
X16211795Y-32783878D01*
X16132777Y-32636044D01*
X16084113Y-32475621D01*
X16067683Y-32308800D01*
X16084113Y-32141979D01*
X16132777Y-31981556D01*
X16211795Y-31833722D01*
X16318141Y-31704141D01*
X16447722Y-31597795D01*
X16595556Y-31518777D01*
X16595559Y-31518776D01*
X16595561Y-31518775D01*
X16755975Y-31470114D01*
X16755976Y-31470114D01*
X16755979Y-31470113D01*
X16880996Y-31457800D01*
X17764604Y-31457800D01*
X17889621Y-31470113D01*
X17889621Y-31470113D01*
G37*
G36*
X33129621Y-31470113D02*
X33129624Y-31470114D01*
X33129625Y-31470114D01*
X33290039Y-31518775D01*
X33290041Y-31518776D01*
X33290044Y-31518777D01*
X33437878Y-31597795D01*
X33567459Y-31704141D01*
X33673805Y-31833722D01*
X33752823Y-31981556D01*
X33801487Y-32141979D01*
X33817917Y-32308800D01*
X33801487Y-32475621D01*
X33752823Y-32636044D01*
X33673805Y-32783878D01*
X33567459Y-32913459D01*
X33437878Y-33019805D01*
X33290044Y-33098823D01*
X33290041Y-33098824D01*
X33290039Y-33098825D01*
X33129625Y-33147486D01*
X33129624Y-33147486D01*
X33129621Y-33147487D01*
X33004604Y-33159800D01*
X32120996Y-33159800D01*
X31995979Y-33147487D01*
X31995976Y-33147486D01*
X31995975Y-33147486D01*
X31835561Y-33098825D01*
X31835559Y-33098824D01*
X31835556Y-33098823D01*
X31687722Y-33019805D01*
X31558141Y-32913459D01*
X31451795Y-32783878D01*
X31372777Y-32636044D01*
X31324113Y-32475621D01*
X31307683Y-32308800D01*
X31324113Y-32141979D01*
X31372777Y-31981556D01*
X31451795Y-31833722D01*
X31558141Y-31704141D01*
X31687722Y-31597795D01*
X31835556Y-31518777D01*
X31835559Y-31518776D01*
X31835561Y-31518775D01*
X31995975Y-31470114D01*
X31995976Y-31470114D01*
X31995979Y-31470113D01*
X32120996Y-31457800D01*
X33004604Y-31457800D01*
X33129621Y-31470113D01*
X33129621Y-31470113D01*
G37*
G36*
X39327221Y-31470113D02*
X39327224Y-31470114D01*
X39327225Y-31470114D01*
X39487639Y-31518775D01*
X39487641Y-31518776D01*
X39487644Y-31518777D01*
X39635478Y-31597795D01*
X39765059Y-31704141D01*
X39871405Y-31833722D01*
X39950423Y-31981556D01*
X39999087Y-32141979D01*
X40015517Y-32308800D01*
X39999087Y-32475621D01*
X39950423Y-32636044D01*
X39871405Y-32783878D01*
X39765059Y-32913459D01*
X39635478Y-33019805D01*
X39487644Y-33098823D01*
X39487641Y-33098824D01*
X39487639Y-33098825D01*
X39327225Y-33147486D01*
X39327224Y-33147486D01*
X39327221Y-33147487D01*
X39202204Y-33159800D01*
X38318596Y-33159800D01*
X38193579Y-33147487D01*
X38193576Y-33147486D01*
X38193575Y-33147486D01*
X38033161Y-33098825D01*
X38033159Y-33098824D01*
X38033156Y-33098823D01*
X37885322Y-33019805D01*
X37755741Y-32913459D01*
X37649395Y-32783878D01*
X37570377Y-32636044D01*
X37521713Y-32475621D01*
X37505283Y-32308800D01*
X37521713Y-32141979D01*
X37570377Y-31981556D01*
X37649395Y-31833722D01*
X37755741Y-31704141D01*
X37885322Y-31597795D01*
X38033156Y-31518777D01*
X38033159Y-31518776D01*
X38033161Y-31518775D01*
X38193575Y-31470114D01*
X38193576Y-31470114D01*
X38193579Y-31470113D01*
X38318596Y-31457800D01*
X39202204Y-31457800D01*
X39327221Y-31470113D01*
X39327221Y-31470113D01*
G37*
G36*
X39327221Y-28930113D02*
X39327224Y-28930114D01*
X39327225Y-28930114D01*
X39487639Y-28978775D01*
X39487641Y-28978776D01*
X39487644Y-28978777D01*
X39635478Y-29057795D01*
X39765059Y-29164141D01*
X39871405Y-29293722D01*
X39950423Y-29441556D01*
X39999087Y-29601979D01*
X40015517Y-29768800D01*
X39999087Y-29935621D01*
X39950423Y-30096044D01*
X39871405Y-30243878D01*
X39765059Y-30373459D01*
X39635478Y-30479805D01*
X39487644Y-30558823D01*
X39487641Y-30558824D01*
X39487639Y-30558825D01*
X39327225Y-30607486D01*
X39327224Y-30607486D01*
X39327221Y-30607487D01*
X39202204Y-30619800D01*
X38318596Y-30619800D01*
X38193579Y-30607487D01*
X38193576Y-30607486D01*
X38193575Y-30607486D01*
X38033161Y-30558825D01*
X38033159Y-30558824D01*
X38033156Y-30558823D01*
X37885322Y-30479805D01*
X37755741Y-30373459D01*
X37649395Y-30243878D01*
X37570377Y-30096044D01*
X37521713Y-29935621D01*
X37505283Y-29768800D01*
X37521713Y-29601979D01*
X37570377Y-29441556D01*
X37649395Y-29293722D01*
X37755741Y-29164141D01*
X37885322Y-29057795D01*
X38033156Y-28978777D01*
X38033159Y-28978776D01*
X38033161Y-28978775D01*
X38193575Y-28930114D01*
X38193576Y-28930114D01*
X38193579Y-28930113D01*
X38318596Y-28917800D01*
X39202204Y-28917800D01*
X39327221Y-28930113D01*
X39327221Y-28930113D01*
G37*
G36*
X17889621Y-28930113D02*
X17889624Y-28930114D01*
X17889625Y-28930114D01*
X18050039Y-28978775D01*
X18050041Y-28978776D01*
X18050044Y-28978777D01*
X18197878Y-29057795D01*
X18327459Y-29164141D01*
X18433805Y-29293722D01*
X18512823Y-29441556D01*
X18561487Y-29601979D01*
X18577917Y-29768800D01*
X18561487Y-29935621D01*
X18512823Y-30096044D01*
X18433805Y-30243878D01*
X18327459Y-30373459D01*
X18197878Y-30479805D01*
X18050044Y-30558823D01*
X18050041Y-30558824D01*
X18050039Y-30558825D01*
X17889625Y-30607486D01*
X17889624Y-30607486D01*
X17889621Y-30607487D01*
X17764604Y-30619800D01*
X16880996Y-30619800D01*
X16755979Y-30607487D01*
X16755976Y-30607486D01*
X16755975Y-30607486D01*
X16595561Y-30558825D01*
X16595559Y-30558824D01*
X16595556Y-30558823D01*
X16447722Y-30479805D01*
X16318141Y-30373459D01*
X16211795Y-30243878D01*
X16132777Y-30096044D01*
X16084113Y-29935621D01*
X16067683Y-29768800D01*
X16084113Y-29601979D01*
X16132777Y-29441556D01*
X16211795Y-29293722D01*
X16318141Y-29164141D01*
X16447722Y-29057795D01*
X16595556Y-28978777D01*
X16595559Y-28978776D01*
X16595561Y-28978775D01*
X16755975Y-28930114D01*
X16755976Y-28930114D01*
X16755979Y-28930113D01*
X16880996Y-28917800D01*
X17764604Y-28917800D01*
X17889621Y-28930113D01*
X17889621Y-28930113D01*
G37*
G36*
X24087221Y-28930113D02*
X24087224Y-28930114D01*
X24087225Y-28930114D01*
X24247639Y-28978775D01*
X24247641Y-28978776D01*
X24247644Y-28978777D01*
X24395478Y-29057795D01*
X24525059Y-29164141D01*
X24631405Y-29293722D01*
X24710423Y-29441556D01*
X24759087Y-29601979D01*
X24775517Y-29768800D01*
X24759087Y-29935621D01*
X24710423Y-30096044D01*
X24631405Y-30243878D01*
X24525059Y-30373459D01*
X24395478Y-30479805D01*
X24247644Y-30558823D01*
X24247641Y-30558824D01*
X24247639Y-30558825D01*
X24087225Y-30607486D01*
X24087224Y-30607486D01*
X24087221Y-30607487D01*
X23962204Y-30619800D01*
X23078596Y-30619800D01*
X22953579Y-30607487D01*
X22953576Y-30607486D01*
X22953575Y-30607486D01*
X22793161Y-30558825D01*
X22793159Y-30558824D01*
X22793156Y-30558823D01*
X22645322Y-30479805D01*
X22515741Y-30373459D01*
X22409395Y-30243878D01*
X22330377Y-30096044D01*
X22281713Y-29935621D01*
X22265283Y-29768800D01*
X22281713Y-29601979D01*
X22330377Y-29441556D01*
X22409395Y-29293722D01*
X22515741Y-29164141D01*
X22645322Y-29057795D01*
X22793156Y-28978777D01*
X22793159Y-28978776D01*
X22793161Y-28978775D01*
X22953575Y-28930114D01*
X22953576Y-28930114D01*
X22953579Y-28930113D01*
X23078596Y-28917800D01*
X23962204Y-28917800D01*
X24087221Y-28930113D01*
X24087221Y-28930113D01*
G37*
G36*
X33129621Y-28930113D02*
X33129624Y-28930114D01*
X33129625Y-28930114D01*
X33290039Y-28978775D01*
X33290041Y-28978776D01*
X33290044Y-28978777D01*
X33437878Y-29057795D01*
X33567459Y-29164141D01*
X33673805Y-29293722D01*
X33752823Y-29441556D01*
X33801487Y-29601979D01*
X33817917Y-29768800D01*
X33801487Y-29935621D01*
X33752823Y-30096044D01*
X33673805Y-30243878D01*
X33567459Y-30373459D01*
X33437878Y-30479805D01*
X33290044Y-30558823D01*
X33290041Y-30558824D01*
X33290039Y-30558825D01*
X33129625Y-30607486D01*
X33129624Y-30607486D01*
X33129621Y-30607487D01*
X33004604Y-30619800D01*
X32120996Y-30619800D01*
X31995979Y-30607487D01*
X31995976Y-30607486D01*
X31995975Y-30607486D01*
X31835561Y-30558825D01*
X31835559Y-30558824D01*
X31835556Y-30558823D01*
X31687722Y-30479805D01*
X31558141Y-30373459D01*
X31451795Y-30243878D01*
X31372777Y-30096044D01*
X31324113Y-29935621D01*
X31307683Y-29768800D01*
X31324113Y-29601979D01*
X31372777Y-29441556D01*
X31451795Y-29293722D01*
X31558141Y-29164141D01*
X31687722Y-29057795D01*
X31835556Y-28978777D01*
X31835559Y-28978776D01*
X31835561Y-28978775D01*
X31995975Y-28930114D01*
X31995976Y-28930114D01*
X31995979Y-28930113D01*
X32120996Y-28917800D01*
X33004604Y-28917800D01*
X33129621Y-28930113D01*
X33129621Y-28930113D01*
G37*
G36*
X33129621Y-26390113D02*
X33129624Y-26390114D01*
X33129625Y-26390114D01*
X33290039Y-26438775D01*
X33290041Y-26438776D01*
X33290044Y-26438777D01*
X33437878Y-26517795D01*
X33567459Y-26624141D01*
X33673805Y-26753722D01*
X33752823Y-26901556D01*
X33801487Y-27061979D01*
X33817917Y-27228800D01*
X33801487Y-27395621D01*
X33752823Y-27556044D01*
X33673805Y-27703878D01*
X33567459Y-27833459D01*
X33437878Y-27939805D01*
X33290044Y-28018823D01*
X33290041Y-28018824D01*
X33290039Y-28018825D01*
X33129625Y-28067486D01*
X33129624Y-28067486D01*
X33129621Y-28067487D01*
X33004604Y-28079800D01*
X32120996Y-28079800D01*
X31995979Y-28067487D01*
X31995976Y-28067486D01*
X31995975Y-28067486D01*
X31835561Y-28018825D01*
X31835559Y-28018824D01*
X31835556Y-28018823D01*
X31687722Y-27939805D01*
X31558141Y-27833459D01*
X31451795Y-27703878D01*
X31372777Y-27556044D01*
X31324113Y-27395621D01*
X31307683Y-27228800D01*
X31324113Y-27061979D01*
X31372777Y-26901556D01*
X31451795Y-26753722D01*
X31558141Y-26624141D01*
X31687722Y-26517795D01*
X31835556Y-26438777D01*
X31835559Y-26438776D01*
X31835561Y-26438775D01*
X31995975Y-26390114D01*
X31995976Y-26390114D01*
X31995979Y-26390113D01*
X32120996Y-26377800D01*
X33004604Y-26377800D01*
X33129621Y-26390113D01*
X33129621Y-26390113D01*
G37*
G36*
X17889621Y-26390113D02*
X17889624Y-26390114D01*
X17889625Y-26390114D01*
X18050039Y-26438775D01*
X18050041Y-26438776D01*
X18050044Y-26438777D01*
X18197878Y-26517795D01*
X18327459Y-26624141D01*
X18433805Y-26753722D01*
X18512823Y-26901556D01*
X18561487Y-27061979D01*
X18577917Y-27228800D01*
X18561487Y-27395621D01*
X18512823Y-27556044D01*
X18433805Y-27703878D01*
X18327459Y-27833459D01*
X18197878Y-27939805D01*
X18050044Y-28018823D01*
X18050041Y-28018824D01*
X18050039Y-28018825D01*
X17889625Y-28067486D01*
X17889624Y-28067486D01*
X17889621Y-28067487D01*
X17764604Y-28079800D01*
X16880996Y-28079800D01*
X16755979Y-28067487D01*
X16755976Y-28067486D01*
X16755975Y-28067486D01*
X16595561Y-28018825D01*
X16595559Y-28018824D01*
X16595556Y-28018823D01*
X16447722Y-27939805D01*
X16318141Y-27833459D01*
X16211795Y-27703878D01*
X16132777Y-27556044D01*
X16084113Y-27395621D01*
X16067683Y-27228800D01*
X16084113Y-27061979D01*
X16132777Y-26901556D01*
X16211795Y-26753722D01*
X16318141Y-26624141D01*
X16447722Y-26517795D01*
X16595556Y-26438777D01*
X16595559Y-26438776D01*
X16595561Y-26438775D01*
X16755975Y-26390114D01*
X16755976Y-26390114D01*
X16755979Y-26390113D01*
X16880996Y-26377800D01*
X17764604Y-26377800D01*
X17889621Y-26390113D01*
X17889621Y-26390113D01*
G37*
G36*
X24087221Y-26390113D02*
X24087224Y-26390114D01*
X24087225Y-26390114D01*
X24247639Y-26438775D01*
X24247641Y-26438776D01*
X24247644Y-26438777D01*
X24395478Y-26517795D01*
X24525059Y-26624141D01*
X24631405Y-26753722D01*
X24710423Y-26901556D01*
X24759087Y-27061979D01*
X24775517Y-27228800D01*
X24759087Y-27395621D01*
X24710423Y-27556044D01*
X24631405Y-27703878D01*
X24525059Y-27833459D01*
X24395478Y-27939805D01*
X24247644Y-28018823D01*
X24247641Y-28018824D01*
X24247639Y-28018825D01*
X24087225Y-28067486D01*
X24087224Y-28067486D01*
X24087221Y-28067487D01*
X23962204Y-28079800D01*
X23078596Y-28079800D01*
X22953579Y-28067487D01*
X22953576Y-28067486D01*
X22953575Y-28067486D01*
X22793161Y-28018825D01*
X22793159Y-28018824D01*
X22793156Y-28018823D01*
X22645322Y-27939805D01*
X22515741Y-27833459D01*
X22409395Y-27703878D01*
X22330377Y-27556044D01*
X22281713Y-27395621D01*
X22265283Y-27228800D01*
X22281713Y-27061979D01*
X22330377Y-26901556D01*
X22409395Y-26753722D01*
X22515741Y-26624141D01*
X22645322Y-26517795D01*
X22793156Y-26438777D01*
X22793159Y-26438776D01*
X22793161Y-26438775D01*
X22953575Y-26390114D01*
X22953576Y-26390114D01*
X22953579Y-26390113D01*
X23078596Y-26377800D01*
X23962204Y-26377800D01*
X24087221Y-26390113D01*
X24087221Y-26390113D01*
G37*
G36*
X39327221Y-26390113D02*
X39327224Y-26390114D01*
X39327225Y-26390114D01*
X39487639Y-26438775D01*
X39487641Y-26438776D01*
X39487644Y-26438777D01*
X39635478Y-26517795D01*
X39765059Y-26624141D01*
X39871405Y-26753722D01*
X39950423Y-26901556D01*
X39999087Y-27061979D01*
X40015517Y-27228800D01*
X39999087Y-27395621D01*
X39950423Y-27556044D01*
X39871405Y-27703878D01*
X39765059Y-27833459D01*
X39635478Y-27939805D01*
X39487644Y-28018823D01*
X39487641Y-28018824D01*
X39487639Y-28018825D01*
X39327225Y-28067486D01*
X39327224Y-28067486D01*
X39327221Y-28067487D01*
X39202204Y-28079800D01*
X38318596Y-28079800D01*
X38193579Y-28067487D01*
X38193576Y-28067486D01*
X38193575Y-28067486D01*
X38033161Y-28018825D01*
X38033159Y-28018824D01*
X38033156Y-28018823D01*
X37885322Y-27939805D01*
X37755741Y-27833459D01*
X37649395Y-27703878D01*
X37570377Y-27556044D01*
X37521713Y-27395621D01*
X37505283Y-27228800D01*
X37521713Y-27061979D01*
X37570377Y-26901556D01*
X37649395Y-26753722D01*
X37755741Y-26624141D01*
X37885322Y-26517795D01*
X38033156Y-26438777D01*
X38033159Y-26438776D01*
X38033161Y-26438775D01*
X38193575Y-26390114D01*
X38193576Y-26390114D01*
X38193579Y-26390113D01*
X38318596Y-26377800D01*
X39202204Y-26377800D01*
X39327221Y-26390113D01*
X39327221Y-26390113D01*
G37*
G36*
X39327221Y-23850113D02*
X39327224Y-23850114D01*
X39327225Y-23850114D01*
X39487639Y-23898775D01*
X39487641Y-23898776D01*
X39487644Y-23898777D01*
X39635478Y-23977795D01*
X39765059Y-24084141D01*
X39871405Y-24213722D01*
X39950423Y-24361556D01*
X39999087Y-24521979D01*
X40015517Y-24688800D01*
X39999087Y-24855621D01*
X39950423Y-25016044D01*
X39871405Y-25163878D01*
X39765059Y-25293459D01*
X39635478Y-25399805D01*
X39487644Y-25478823D01*
X39487641Y-25478824D01*
X39487639Y-25478825D01*
X39327225Y-25527486D01*
X39327224Y-25527486D01*
X39327221Y-25527487D01*
X39202204Y-25539800D01*
X38318596Y-25539800D01*
X38193579Y-25527487D01*
X38193576Y-25527486D01*
X38193575Y-25527486D01*
X38033161Y-25478825D01*
X38033159Y-25478824D01*
X38033156Y-25478823D01*
X37885322Y-25399805D01*
X37755741Y-25293459D01*
X37649395Y-25163878D01*
X37570377Y-25016044D01*
X37521713Y-24855621D01*
X37505283Y-24688800D01*
X37521713Y-24521979D01*
X37570377Y-24361556D01*
X37649395Y-24213722D01*
X37755741Y-24084141D01*
X37885322Y-23977795D01*
X38033156Y-23898777D01*
X38033159Y-23898776D01*
X38033161Y-23898775D01*
X38193575Y-23850114D01*
X38193576Y-23850114D01*
X38193579Y-23850113D01*
X38318596Y-23837800D01*
X39202204Y-23837800D01*
X39327221Y-23850113D01*
X39327221Y-23850113D01*
G37*
G36*
X24087221Y-23850113D02*
X24087224Y-23850114D01*
X24087225Y-23850114D01*
X24247639Y-23898775D01*
X24247641Y-23898776D01*
X24247644Y-23898777D01*
X24395478Y-23977795D01*
X24525059Y-24084141D01*
X24631405Y-24213722D01*
X24710423Y-24361556D01*
X24759087Y-24521979D01*
X24775517Y-24688800D01*
X24759087Y-24855621D01*
X24710423Y-25016044D01*
X24631405Y-25163878D01*
X24525059Y-25293459D01*
X24395478Y-25399805D01*
X24247644Y-25478823D01*
X24247641Y-25478824D01*
X24247639Y-25478825D01*
X24087225Y-25527486D01*
X24087224Y-25527486D01*
X24087221Y-25527487D01*
X23962204Y-25539800D01*
X23078596Y-25539800D01*
X22953579Y-25527487D01*
X22953576Y-25527486D01*
X22953575Y-25527486D01*
X22793161Y-25478825D01*
X22793159Y-25478824D01*
X22793156Y-25478823D01*
X22645322Y-25399805D01*
X22515741Y-25293459D01*
X22409395Y-25163878D01*
X22330377Y-25016044D01*
X22281713Y-24855621D01*
X22265283Y-24688800D01*
X22281713Y-24521979D01*
X22330377Y-24361556D01*
X22409395Y-24213722D01*
X22515741Y-24084141D01*
X22645322Y-23977795D01*
X22793156Y-23898777D01*
X22793159Y-23898776D01*
X22793161Y-23898775D01*
X22953575Y-23850114D01*
X22953576Y-23850114D01*
X22953579Y-23850113D01*
X23078596Y-23837800D01*
X23962204Y-23837800D01*
X24087221Y-23850113D01*
X24087221Y-23850113D01*
G37*
G36*
X17889621Y-23850113D02*
X17889624Y-23850114D01*
X17889625Y-23850114D01*
X18050039Y-23898775D01*
X18050041Y-23898776D01*
X18050044Y-23898777D01*
X18197878Y-23977795D01*
X18327459Y-24084141D01*
X18433805Y-24213722D01*
X18512823Y-24361556D01*
X18561487Y-24521979D01*
X18577917Y-24688800D01*
X18561487Y-24855621D01*
X18512823Y-25016044D01*
X18433805Y-25163878D01*
X18327459Y-25293459D01*
X18197878Y-25399805D01*
X18050044Y-25478823D01*
X18050041Y-25478824D01*
X18050039Y-25478825D01*
X17889625Y-25527486D01*
X17889624Y-25527486D01*
X17889621Y-25527487D01*
X17764604Y-25539800D01*
X16880996Y-25539800D01*
X16755979Y-25527487D01*
X16755976Y-25527486D01*
X16755975Y-25527486D01*
X16595561Y-25478825D01*
X16595559Y-25478824D01*
X16595556Y-25478823D01*
X16447722Y-25399805D01*
X16318141Y-25293459D01*
X16211795Y-25163878D01*
X16132777Y-25016044D01*
X16084113Y-24855621D01*
X16067683Y-24688800D01*
X16084113Y-24521979D01*
X16132777Y-24361556D01*
X16211795Y-24213722D01*
X16318141Y-24084141D01*
X16447722Y-23977795D01*
X16595556Y-23898777D01*
X16595559Y-23898776D01*
X16595561Y-23898775D01*
X16755975Y-23850114D01*
X16755976Y-23850114D01*
X16755979Y-23850113D01*
X16880996Y-23837800D01*
X17764604Y-23837800D01*
X17889621Y-23850113D01*
X17889621Y-23850113D01*
G37*
G36*
X33129621Y-23850113D02*
X33129624Y-23850114D01*
X33129625Y-23850114D01*
X33290039Y-23898775D01*
X33290041Y-23898776D01*
X33290044Y-23898777D01*
X33437878Y-23977795D01*
X33567459Y-24084141D01*
X33673805Y-24213722D01*
X33752823Y-24361556D01*
X33801487Y-24521979D01*
X33817917Y-24688800D01*
X33801487Y-24855621D01*
X33752823Y-25016044D01*
X33673805Y-25163878D01*
X33567459Y-25293459D01*
X33437878Y-25399805D01*
X33290044Y-25478823D01*
X33290041Y-25478824D01*
X33290039Y-25478825D01*
X33129625Y-25527486D01*
X33129624Y-25527486D01*
X33129621Y-25527487D01*
X33004604Y-25539800D01*
X32120996Y-25539800D01*
X31995979Y-25527487D01*
X31995976Y-25527486D01*
X31995975Y-25527486D01*
X31835561Y-25478825D01*
X31835559Y-25478824D01*
X31835556Y-25478823D01*
X31687722Y-25399805D01*
X31558141Y-25293459D01*
X31451795Y-25163878D01*
X31372777Y-25016044D01*
X31324113Y-24855621D01*
X31307683Y-24688800D01*
X31324113Y-24521979D01*
X31372777Y-24361556D01*
X31451795Y-24213722D01*
X31558141Y-24084141D01*
X31687722Y-23977795D01*
X31835556Y-23898777D01*
X31835559Y-23898776D01*
X31835561Y-23898775D01*
X31995975Y-23850114D01*
X31995976Y-23850114D01*
X31995979Y-23850113D01*
X32120996Y-23837800D01*
X33004604Y-23837800D01*
X33129621Y-23850113D01*
X33129621Y-23850113D01*
G37*
G36*
X39327221Y-21310113D02*
X39327224Y-21310114D01*
X39327225Y-21310114D01*
X39487639Y-21358775D01*
X39487641Y-21358776D01*
X39487644Y-21358777D01*
X39635478Y-21437795D01*
X39765059Y-21544141D01*
X39871405Y-21673722D01*
X39950423Y-21821556D01*
X39999087Y-21981979D01*
X40015517Y-22148800D01*
X39999087Y-22315621D01*
X39950423Y-22476044D01*
X39871405Y-22623878D01*
X39765059Y-22753459D01*
X39635478Y-22859805D01*
X39487644Y-22938823D01*
X39487641Y-22938824D01*
X39487639Y-22938825D01*
X39327225Y-22987486D01*
X39327224Y-22987486D01*
X39327221Y-22987487D01*
X39202204Y-22999800D01*
X38318596Y-22999800D01*
X38193579Y-22987487D01*
X38193576Y-22987486D01*
X38193575Y-22987486D01*
X38033161Y-22938825D01*
X38033159Y-22938824D01*
X38033156Y-22938823D01*
X37885322Y-22859805D01*
X37755741Y-22753459D01*
X37649395Y-22623878D01*
X37570377Y-22476044D01*
X37521713Y-22315621D01*
X37505283Y-22148800D01*
X37521713Y-21981979D01*
X37570377Y-21821556D01*
X37649395Y-21673722D01*
X37755741Y-21544141D01*
X37885322Y-21437795D01*
X38033156Y-21358777D01*
X38033159Y-21358776D01*
X38033161Y-21358775D01*
X38193575Y-21310114D01*
X38193576Y-21310114D01*
X38193579Y-21310113D01*
X38318596Y-21297800D01*
X39202204Y-21297800D01*
X39327221Y-21310113D01*
X39327221Y-21310113D01*
G37*
G36*
X24087221Y-21310113D02*
X24087224Y-21310114D01*
X24087225Y-21310114D01*
X24247639Y-21358775D01*
X24247641Y-21358776D01*
X24247644Y-21358777D01*
X24395478Y-21437795D01*
X24525059Y-21544141D01*
X24631405Y-21673722D01*
X24710423Y-21821556D01*
X24759087Y-21981979D01*
X24775517Y-22148800D01*
X24759087Y-22315621D01*
X24710423Y-22476044D01*
X24631405Y-22623878D01*
X24525059Y-22753459D01*
X24395478Y-22859805D01*
X24247644Y-22938823D01*
X24247641Y-22938824D01*
X24247639Y-22938825D01*
X24087225Y-22987486D01*
X24087224Y-22987486D01*
X24087221Y-22987487D01*
X23962204Y-22999800D01*
X23078596Y-22999800D01*
X22953579Y-22987487D01*
X22953576Y-22987486D01*
X22953575Y-22987486D01*
X22793161Y-22938825D01*
X22793159Y-22938824D01*
X22793156Y-22938823D01*
X22645322Y-22859805D01*
X22515741Y-22753459D01*
X22409395Y-22623878D01*
X22330377Y-22476044D01*
X22281713Y-22315621D01*
X22265283Y-22148800D01*
X22281713Y-21981979D01*
X22330377Y-21821556D01*
X22409395Y-21673722D01*
X22515741Y-21544141D01*
X22645322Y-21437795D01*
X22793156Y-21358777D01*
X22793159Y-21358776D01*
X22793161Y-21358775D01*
X22953575Y-21310114D01*
X22953576Y-21310114D01*
X22953579Y-21310113D01*
X23078596Y-21297800D01*
X23962204Y-21297800D01*
X24087221Y-21310113D01*
X24087221Y-21310113D01*
G37*
G36*
X33129621Y-21310113D02*
X33129624Y-21310114D01*
X33129625Y-21310114D01*
X33290039Y-21358775D01*
X33290041Y-21358776D01*
X33290044Y-21358777D01*
X33437878Y-21437795D01*
X33567459Y-21544141D01*
X33673805Y-21673722D01*
X33752823Y-21821556D01*
X33801487Y-21981979D01*
X33817917Y-22148800D01*
X33801487Y-22315621D01*
X33752823Y-22476044D01*
X33673805Y-22623878D01*
X33567459Y-22753459D01*
X33437878Y-22859805D01*
X33290044Y-22938823D01*
X33290041Y-22938824D01*
X33290039Y-22938825D01*
X33129625Y-22987486D01*
X33129624Y-22987486D01*
X33129621Y-22987487D01*
X33004604Y-22999800D01*
X32120996Y-22999800D01*
X31995979Y-22987487D01*
X31995976Y-22987486D01*
X31995975Y-22987486D01*
X31835561Y-22938825D01*
X31835559Y-22938824D01*
X31835556Y-22938823D01*
X31687722Y-22859805D01*
X31558141Y-22753459D01*
X31451795Y-22623878D01*
X31372777Y-22476044D01*
X31324113Y-22315621D01*
X31307683Y-22148800D01*
X31324113Y-21981979D01*
X31372777Y-21821556D01*
X31451795Y-21673722D01*
X31558141Y-21544141D01*
X31687722Y-21437795D01*
X31835556Y-21358777D01*
X31835559Y-21358776D01*
X31835561Y-21358775D01*
X31995975Y-21310114D01*
X31995976Y-21310114D01*
X31995979Y-21310113D01*
X32120996Y-21297800D01*
X33004604Y-21297800D01*
X33129621Y-21310113D01*
X33129621Y-21310113D01*
G37*
G36*
X17889621Y-21310113D02*
X17889624Y-21310114D01*
X17889625Y-21310114D01*
X18050039Y-21358775D01*
X18050041Y-21358776D01*
X18050044Y-21358777D01*
X18197878Y-21437795D01*
X18327459Y-21544141D01*
X18433805Y-21673722D01*
X18512823Y-21821556D01*
X18561487Y-21981979D01*
X18577917Y-22148800D01*
X18561487Y-22315621D01*
X18512823Y-22476044D01*
X18433805Y-22623878D01*
X18327459Y-22753459D01*
X18197878Y-22859805D01*
X18050044Y-22938823D01*
X18050041Y-22938824D01*
X18050039Y-22938825D01*
X17889625Y-22987486D01*
X17889624Y-22987486D01*
X17889621Y-22987487D01*
X17764604Y-22999800D01*
X16880996Y-22999800D01*
X16755979Y-22987487D01*
X16755976Y-22987486D01*
X16755975Y-22987486D01*
X16595561Y-22938825D01*
X16595559Y-22938824D01*
X16595556Y-22938823D01*
X16447722Y-22859805D01*
X16318141Y-22753459D01*
X16211795Y-22623878D01*
X16132777Y-22476044D01*
X16084113Y-22315621D01*
X16067683Y-22148800D01*
X16084113Y-21981979D01*
X16132777Y-21821556D01*
X16211795Y-21673722D01*
X16318141Y-21544141D01*
X16447722Y-21437795D01*
X16595556Y-21358777D01*
X16595559Y-21358776D01*
X16595561Y-21358775D01*
X16755975Y-21310114D01*
X16755976Y-21310114D01*
X16755979Y-21310113D01*
X16880996Y-21297800D01*
X17764604Y-21297800D01*
X17889621Y-21310113D01*
X17889621Y-21310113D01*
G37*
G36*
X33129621Y-18770113D02*
X33129624Y-18770114D01*
X33129625Y-18770114D01*
X33290039Y-18818775D01*
X33290041Y-18818776D01*
X33290044Y-18818777D01*
X33437878Y-18897795D01*
X33567459Y-19004141D01*
X33673805Y-19133722D01*
X33752823Y-19281556D01*
X33801487Y-19441979D01*
X33817917Y-19608800D01*
X33801487Y-19775621D01*
X33752823Y-19936044D01*
X33673805Y-20083878D01*
X33567459Y-20213459D01*
X33437878Y-20319805D01*
X33290044Y-20398823D01*
X33290041Y-20398824D01*
X33290039Y-20398825D01*
X33129625Y-20447486D01*
X33129624Y-20447486D01*
X33129621Y-20447487D01*
X33004604Y-20459800D01*
X32120996Y-20459800D01*
X31995979Y-20447487D01*
X31995976Y-20447486D01*
X31995975Y-20447486D01*
X31835561Y-20398825D01*
X31835559Y-20398824D01*
X31835556Y-20398823D01*
X31687722Y-20319805D01*
X31558141Y-20213459D01*
X31451795Y-20083878D01*
X31372777Y-19936044D01*
X31324113Y-19775621D01*
X31307683Y-19608800D01*
X31324113Y-19441979D01*
X31372777Y-19281556D01*
X31451795Y-19133722D01*
X31558141Y-19004141D01*
X31687722Y-18897795D01*
X31835556Y-18818777D01*
X31835559Y-18818776D01*
X31835561Y-18818775D01*
X31995975Y-18770114D01*
X31995976Y-18770114D01*
X31995979Y-18770113D01*
X32120996Y-18757800D01*
X33004604Y-18757800D01*
X33129621Y-18770113D01*
X33129621Y-18770113D01*
G37*
G36*
X17889621Y-18770113D02*
X17889624Y-18770114D01*
X17889625Y-18770114D01*
X18050039Y-18818775D01*
X18050041Y-18818776D01*
X18050044Y-18818777D01*
X18197878Y-18897795D01*
X18327459Y-19004141D01*
X18433805Y-19133722D01*
X18512823Y-19281556D01*
X18561487Y-19441979D01*
X18577917Y-19608800D01*
X18561487Y-19775621D01*
X18512823Y-19936044D01*
X18433805Y-20083878D01*
X18327459Y-20213459D01*
X18197878Y-20319805D01*
X18050044Y-20398823D01*
X18050041Y-20398824D01*
X18050039Y-20398825D01*
X17889625Y-20447486D01*
X17889624Y-20447486D01*
X17889621Y-20447487D01*
X17764604Y-20459800D01*
X16880996Y-20459800D01*
X16755979Y-20447487D01*
X16755976Y-20447486D01*
X16755975Y-20447486D01*
X16595561Y-20398825D01*
X16595559Y-20398824D01*
X16595556Y-20398823D01*
X16447722Y-20319805D01*
X16318141Y-20213459D01*
X16211795Y-20083878D01*
X16132777Y-19936044D01*
X16084113Y-19775621D01*
X16067683Y-19608800D01*
X16084113Y-19441979D01*
X16132777Y-19281556D01*
X16211795Y-19133722D01*
X16318141Y-19004141D01*
X16447722Y-18897795D01*
X16595556Y-18818777D01*
X16595559Y-18818776D01*
X16595561Y-18818775D01*
X16755975Y-18770114D01*
X16755976Y-18770114D01*
X16755979Y-18770113D01*
X16880996Y-18757800D01*
X17764604Y-18757800D01*
X17889621Y-18770113D01*
X17889621Y-18770113D01*
G37*
G36*
X39327221Y-18770113D02*
X39327224Y-18770114D01*
X39327225Y-18770114D01*
X39487639Y-18818775D01*
X39487641Y-18818776D01*
X39487644Y-18818777D01*
X39635478Y-18897795D01*
X39765059Y-19004141D01*
X39871405Y-19133722D01*
X39950423Y-19281556D01*
X39999087Y-19441979D01*
X40015517Y-19608800D01*
X39999087Y-19775621D01*
X39950423Y-19936044D01*
X39871405Y-20083878D01*
X39765059Y-20213459D01*
X39635478Y-20319805D01*
X39487644Y-20398823D01*
X39487641Y-20398824D01*
X39487639Y-20398825D01*
X39327225Y-20447486D01*
X39327224Y-20447486D01*
X39327221Y-20447487D01*
X39202204Y-20459800D01*
X38318596Y-20459800D01*
X38193579Y-20447487D01*
X38193576Y-20447486D01*
X38193575Y-20447486D01*
X38033161Y-20398825D01*
X38033159Y-20398824D01*
X38033156Y-20398823D01*
X37885322Y-20319805D01*
X37755741Y-20213459D01*
X37649395Y-20083878D01*
X37570377Y-19936044D01*
X37521713Y-19775621D01*
X37505283Y-19608800D01*
X37521713Y-19441979D01*
X37570377Y-19281556D01*
X37649395Y-19133722D01*
X37755741Y-19004141D01*
X37885322Y-18897795D01*
X38033156Y-18818777D01*
X38033159Y-18818776D01*
X38033161Y-18818775D01*
X38193575Y-18770114D01*
X38193576Y-18770114D01*
X38193579Y-18770113D01*
X38318596Y-18757800D01*
X39202204Y-18757800D01*
X39327221Y-18770113D01*
X39327221Y-18770113D01*
G37*
G36*
X24087221Y-18770113D02*
X24087224Y-18770114D01*
X24087225Y-18770114D01*
X24247639Y-18818775D01*
X24247641Y-18818776D01*
X24247644Y-18818777D01*
X24395478Y-18897795D01*
X24525059Y-19004141D01*
X24631405Y-19133722D01*
X24710423Y-19281556D01*
X24759087Y-19441979D01*
X24775517Y-19608800D01*
X24759087Y-19775621D01*
X24710423Y-19936044D01*
X24631405Y-20083878D01*
X24525059Y-20213459D01*
X24395478Y-20319805D01*
X24247644Y-20398823D01*
X24247641Y-20398824D01*
X24247639Y-20398825D01*
X24087225Y-20447486D01*
X24087224Y-20447486D01*
X24087221Y-20447487D01*
X23962204Y-20459800D01*
X23078596Y-20459800D01*
X22953579Y-20447487D01*
X22953576Y-20447486D01*
X22953575Y-20447486D01*
X22793161Y-20398825D01*
X22793159Y-20398824D01*
X22793156Y-20398823D01*
X22645322Y-20319805D01*
X22515741Y-20213459D01*
X22409395Y-20083878D01*
X22330377Y-19936044D01*
X22281713Y-19775621D01*
X22265283Y-19608800D01*
X22281713Y-19441979D01*
X22330377Y-19281556D01*
X22409395Y-19133722D01*
X22515741Y-19004141D01*
X22645322Y-18897795D01*
X22793156Y-18818777D01*
X22793159Y-18818776D01*
X22793161Y-18818775D01*
X22953575Y-18770114D01*
X22953576Y-18770114D01*
X22953579Y-18770113D01*
X23078596Y-18757800D01*
X23962204Y-18757800D01*
X24087221Y-18770113D01*
X24087221Y-18770113D01*
G37*
G36*
X39327221Y-16230113D02*
X39327224Y-16230114D01*
X39327225Y-16230114D01*
X39487639Y-16278775D01*
X39487641Y-16278776D01*
X39487644Y-16278777D01*
X39635478Y-16357795D01*
X39765059Y-16464141D01*
X39871405Y-16593722D01*
X39950423Y-16741556D01*
X39999087Y-16901979D01*
X40015517Y-17068800D01*
X39999087Y-17235621D01*
X39950423Y-17396044D01*
X39871405Y-17543878D01*
X39765059Y-17673459D01*
X39635478Y-17779805D01*
X39487644Y-17858823D01*
X39487641Y-17858824D01*
X39487639Y-17858825D01*
X39327225Y-17907486D01*
X39327224Y-17907486D01*
X39327221Y-17907487D01*
X39202204Y-17919800D01*
X38318596Y-17919800D01*
X38193579Y-17907487D01*
X38193576Y-17907486D01*
X38193575Y-17907486D01*
X38033161Y-17858825D01*
X38033159Y-17858824D01*
X38033156Y-17858823D01*
X37885322Y-17779805D01*
X37755741Y-17673459D01*
X37649395Y-17543878D01*
X37570377Y-17396044D01*
X37521713Y-17235621D01*
X37505283Y-17068800D01*
X37521713Y-16901979D01*
X37570377Y-16741556D01*
X37649395Y-16593722D01*
X37755741Y-16464141D01*
X37885322Y-16357795D01*
X38033156Y-16278777D01*
X38033159Y-16278776D01*
X38033161Y-16278775D01*
X38193575Y-16230114D01*
X38193576Y-16230114D01*
X38193579Y-16230113D01*
X38318596Y-16217800D01*
X39202204Y-16217800D01*
X39327221Y-16230113D01*
X39327221Y-16230113D01*
G37*
G36*
X33129621Y-16230113D02*
X33129624Y-16230114D01*
X33129625Y-16230114D01*
X33290039Y-16278775D01*
X33290041Y-16278776D01*
X33290044Y-16278777D01*
X33437878Y-16357795D01*
X33567459Y-16464141D01*
X33673805Y-16593722D01*
X33752823Y-16741556D01*
X33801487Y-16901979D01*
X33817917Y-17068800D01*
X33801487Y-17235621D01*
X33752823Y-17396044D01*
X33673805Y-17543878D01*
X33567459Y-17673459D01*
X33437878Y-17779805D01*
X33290044Y-17858823D01*
X33290041Y-17858824D01*
X33290039Y-17858825D01*
X33129625Y-17907486D01*
X33129624Y-17907486D01*
X33129621Y-17907487D01*
X33004604Y-17919800D01*
X32120996Y-17919800D01*
X31995979Y-17907487D01*
X31995976Y-17907486D01*
X31995975Y-17907486D01*
X31835561Y-17858825D01*
X31835559Y-17858824D01*
X31835556Y-17858823D01*
X31687722Y-17779805D01*
X31558141Y-17673459D01*
X31451795Y-17543878D01*
X31372777Y-17396044D01*
X31324113Y-17235621D01*
X31307683Y-17068800D01*
X31324113Y-16901979D01*
X31372777Y-16741556D01*
X31451795Y-16593722D01*
X31558141Y-16464141D01*
X31687722Y-16357795D01*
X31835556Y-16278777D01*
X31835559Y-16278776D01*
X31835561Y-16278775D01*
X31995975Y-16230114D01*
X31995976Y-16230114D01*
X31995979Y-16230113D01*
X32120996Y-16217800D01*
X33004604Y-16217800D01*
X33129621Y-16230113D01*
X33129621Y-16230113D01*
G37*
G36*
X24771400Y-17919800D02*
X22269400Y-17919800D01*
X22269400Y-16217800D01*
X24771400Y-16217800D01*
X24771400Y-17919800D01*
X24771400Y-17919800D01*
G37*
G36*
X18573800Y-17919800D02*
X16071800Y-17919800D01*
X16071800Y-16217800D01*
X18573800Y-16217800D01*
X18573800Y-17919800D01*
X18573800Y-17919800D01*
G37*
M02*
