G04 #@! TF.GenerationSoftware,KiCad,Pcbnew,5.0.2-bee76a0~70~ubuntu18.10.1*
G04 #@! TF.CreationDate,2019-03-17T01:28:34+01:00*
G04 #@! TF.ProjectId,27c160 Kickstart,32376331-3630-4204-9b69-636b73746172,rev?*
G04 #@! TF.SameCoordinates,Original*
G04 #@! TF.FileFunction,Copper,L2,Bot*
G04 #@! TF.FilePolarity,Positive*
%FSLAX46Y46*%
G04 Gerber Fmt 4.6, Leading zero omitted, Abs format (unit mm)*
G04 Created by KiCad (PCBNEW 5.0.2-bee76a0~70~ubuntu18.10.1) date dom 17 mar 2019 01:28:34 CET*
%MOMM*%
%LPD*%
G01*
G04 APERTURE LIST*
G04 #@! TA.AperFunction,ComponentPad*
%ADD10R,2.400000X1.600000*%
G04 #@! TD*
G04 #@! TA.AperFunction,ComponentPad*
%ADD11O,2.400000X1.600000*%
G04 #@! TD*
G04 #@! TA.AperFunction,ComponentPad*
%ADD12O,1.700000X1.700000*%
G04 #@! TD*
G04 #@! TA.AperFunction,ComponentPad*
%ADD13C,1.700000*%
G04 #@! TD*
G04 #@! TA.AperFunction,ViaPad*
%ADD14C,0.800000*%
G04 #@! TD*
G04 #@! TA.AperFunction,Conductor*
%ADD15C,0.300000*%
G04 #@! TD*
G04 #@! TA.AperFunction,Conductor*
%ADD16C,0.254000*%
G04 #@! TD*
G04 APERTURE END LIST*
D10*
G04 #@! TO.P,U1,1*
G04 #@! TO.N,/BYTE*
X17322800Y-17068800D03*
D11*
G04 #@! TO.P,U1,21*
G04 #@! TO.N,/A0*
X32562800Y-65328800D03*
G04 #@! TO.P,U1,2*
G04 #@! TO.N,/CE*
X17322800Y-19608800D03*
G04 #@! TO.P,U1,22*
G04 #@! TO.N,/A1*
X32562800Y-62788800D03*
G04 #@! TO.P,U1,3*
G04 #@! TO.N,/D15*
X17322800Y-22148800D03*
G04 #@! TO.P,U1,23*
G04 #@! TO.N,/A2*
X32562800Y-60248800D03*
G04 #@! TO.P,U1,4*
G04 #@! TO.N,/D14*
X17322800Y-24688800D03*
G04 #@! TO.P,U1,24*
G04 #@! TO.N,/A3*
X32562800Y-57708800D03*
G04 #@! TO.P,U1,5*
G04 #@! TO.N,/D13*
X17322800Y-27228800D03*
G04 #@! TO.P,U1,25*
G04 #@! TO.N,/A4*
X32562800Y-55168800D03*
G04 #@! TO.P,U1,6*
G04 #@! TO.N,/D12*
X17322800Y-29768800D03*
G04 #@! TO.P,U1,26*
G04 #@! TO.N,/A5*
X32562800Y-52628800D03*
G04 #@! TO.P,U1,7*
G04 #@! TO.N,/D11*
X17322800Y-32308800D03*
G04 #@! TO.P,U1,27*
G04 #@! TO.N,/A6*
X32562800Y-50088800D03*
G04 #@! TO.P,U1,8*
G04 #@! TO.N,/D10*
X17322800Y-34848800D03*
G04 #@! TO.P,U1,28*
G04 #@! TO.N,/A7*
X32562800Y-47548800D03*
G04 #@! TO.P,U1,9*
G04 #@! TO.N,/D9*
X17322800Y-37388800D03*
G04 #@! TO.P,U1,29*
G04 #@! TO.N,/A8*
X32562800Y-45008800D03*
G04 #@! TO.P,U1,10*
G04 #@! TO.N,/D8*
X17322800Y-39928800D03*
G04 #@! TO.P,U1,30*
G04 #@! TO.N,GND*
X32562800Y-42468800D03*
G04 #@! TO.P,U1,11*
X17322800Y-42468800D03*
G04 #@! TO.P,U1,31*
G04 #@! TO.N,/A9*
X32562800Y-39928800D03*
G04 #@! TO.P,U1,12*
G04 #@! TO.N,/D7*
X17322800Y-45008800D03*
G04 #@! TO.P,U1,32*
G04 #@! TO.N,/A10*
X32562800Y-37388800D03*
G04 #@! TO.P,U1,13*
G04 #@! TO.N,/D6*
X17322800Y-47548800D03*
G04 #@! TO.P,U1,33*
G04 #@! TO.N,/A11*
X32562800Y-34848800D03*
G04 #@! TO.P,U1,14*
G04 #@! TO.N,/D5*
X17322800Y-50088800D03*
G04 #@! TO.P,U1,34*
G04 #@! TO.N,/A12*
X32562800Y-32308800D03*
G04 #@! TO.P,U1,15*
G04 #@! TO.N,/D4*
X17322800Y-52628800D03*
G04 #@! TO.P,U1,35*
G04 #@! TO.N,/A13*
X32562800Y-29768800D03*
G04 #@! TO.P,U1,16*
G04 #@! TO.N,/D3*
X17322800Y-55168800D03*
G04 #@! TO.P,U1,36*
G04 #@! TO.N,/A14*
X32562800Y-27228800D03*
G04 #@! TO.P,U1,17*
G04 #@! TO.N,/D2*
X17322800Y-57708800D03*
G04 #@! TO.P,U1,37*
G04 #@! TO.N,/A15*
X32562800Y-24688800D03*
G04 #@! TO.P,U1,18*
G04 #@! TO.N,/D1*
X17322800Y-60248800D03*
G04 #@! TO.P,U1,38*
G04 #@! TO.N,/A16*
X32562800Y-22148800D03*
G04 #@! TO.P,U1,19*
G04 #@! TO.N,/D0*
X17322800Y-62788800D03*
G04 #@! TO.P,U1,39*
G04 #@! TO.N,/A17*
X32562800Y-19608800D03*
G04 #@! TO.P,U1,20*
G04 #@! TO.N,/OE*
X17322800Y-65328800D03*
G04 #@! TO.P,U1,40*
G04 #@! TO.N,VCC*
X32562800Y-17068800D03*
G04 #@! TD*
D10*
G04 #@! TO.P,U2,1*
G04 #@! TO.N,A18*
X23520400Y-17068800D03*
D11*
G04 #@! TO.P,U2,22*
G04 #@! TO.N,VCC*
X38760400Y-67868800D03*
G04 #@! TO.P,U2,2*
G04 #@! TO.N,/A17*
X23520400Y-19608800D03*
G04 #@! TO.P,U2,23*
G04 #@! TO.N,/D4*
X38760400Y-65328800D03*
G04 #@! TO.P,U2,3*
G04 #@! TO.N,/A7*
X23520400Y-22148800D03*
G04 #@! TO.P,U2,24*
G04 #@! TO.N,/D12*
X38760400Y-62788800D03*
G04 #@! TO.P,U2,4*
G04 #@! TO.N,/A6*
X23520400Y-24688800D03*
G04 #@! TO.P,U2,25*
G04 #@! TO.N,/D5*
X38760400Y-60248800D03*
G04 #@! TO.P,U2,5*
G04 #@! TO.N,/A5*
X23520400Y-27228800D03*
G04 #@! TO.P,U2,26*
G04 #@! TO.N,/D13*
X38760400Y-57708800D03*
G04 #@! TO.P,U2,6*
G04 #@! TO.N,/A4*
X23520400Y-29768800D03*
G04 #@! TO.P,U2,27*
G04 #@! TO.N,/D6*
X38760400Y-55168800D03*
G04 #@! TO.P,U2,7*
G04 #@! TO.N,/A3*
X23520400Y-32308800D03*
G04 #@! TO.P,U2,28*
G04 #@! TO.N,/D14*
X38760400Y-52628800D03*
G04 #@! TO.P,U2,8*
G04 #@! TO.N,/A2*
X23520400Y-34848800D03*
G04 #@! TO.P,U2,29*
G04 #@! TO.N,/D7*
X38760400Y-50088800D03*
G04 #@! TO.P,U2,9*
G04 #@! TO.N,/A1*
X23520400Y-37388800D03*
G04 #@! TO.P,U2,30*
G04 #@! TO.N,/D15*
X38760400Y-47548800D03*
G04 #@! TO.P,U2,10*
G04 #@! TO.N,/A0*
X23520400Y-39928800D03*
G04 #@! TO.P,U2,31*
G04 #@! TO.N,GND*
X38760400Y-45008800D03*
G04 #@! TO.P,U2,11*
G04 #@! TO.N,/CE*
X23520400Y-42468800D03*
G04 #@! TO.P,U2,32*
G04 #@! TO.N,/BYTE*
X38760400Y-42468800D03*
G04 #@! TO.P,U2,12*
G04 #@! TO.N,GND*
X23520400Y-45008800D03*
G04 #@! TO.P,U2,33*
G04 #@! TO.N,/A16*
X38760400Y-39928800D03*
G04 #@! TO.P,U2,13*
G04 #@! TO.N,/OE*
X23520400Y-47548800D03*
G04 #@! TO.P,U2,34*
G04 #@! TO.N,/A15*
X38760400Y-37388800D03*
G04 #@! TO.P,U2,14*
G04 #@! TO.N,/D0*
X23520400Y-50088800D03*
G04 #@! TO.P,U2,35*
G04 #@! TO.N,/A14*
X38760400Y-34848800D03*
G04 #@! TO.P,U2,15*
G04 #@! TO.N,/D8*
X23520400Y-52628800D03*
G04 #@! TO.P,U2,36*
G04 #@! TO.N,/A13*
X38760400Y-32308800D03*
G04 #@! TO.P,U2,16*
G04 #@! TO.N,/D1*
X23520400Y-55168800D03*
G04 #@! TO.P,U2,37*
G04 #@! TO.N,/A12*
X38760400Y-29768800D03*
G04 #@! TO.P,U2,17*
G04 #@! TO.N,/D9*
X23520400Y-57708800D03*
G04 #@! TO.P,U2,38*
G04 #@! TO.N,/A11*
X38760400Y-27228800D03*
G04 #@! TO.P,U2,18*
G04 #@! TO.N,/D2*
X23520400Y-60248800D03*
G04 #@! TO.P,U2,39*
G04 #@! TO.N,/A10*
X38760400Y-24688800D03*
G04 #@! TO.P,U2,19*
G04 #@! TO.N,/D10*
X23520400Y-62788800D03*
G04 #@! TO.P,U2,40*
G04 #@! TO.N,/A9*
X38760400Y-22148800D03*
G04 #@! TO.P,U2,20*
G04 #@! TO.N,/D3*
X23520400Y-65328800D03*
G04 #@! TO.P,U2,41*
G04 #@! TO.N,/A8*
X38760400Y-19608800D03*
G04 #@! TO.P,U2,21*
G04 #@! TO.N,/D11*
X23520400Y-67868800D03*
G04 #@! TO.P,U2,42*
G04 #@! TO.N,A19*
X38760400Y-17068800D03*
G04 #@! TD*
D12*
G04 #@! TO.P,SW2,3*
G04 #@! TO.N,GND*
X38354000Y-72491600D03*
G04 #@! TO.P,SW2,2*
G04 #@! TO.N,A19*
X35814000Y-72491600D03*
D13*
G04 #@! TO.P,SW2,1*
G04 #@! TO.N,Net-(R2-Pad2)*
X33274000Y-72491600D03*
G04 #@! TD*
G04 #@! TO.P,SW1,1*
G04 #@! TO.N,Net-(R1-Pad2)*
X22809200Y-72491600D03*
D12*
G04 #@! TO.P,SW1,2*
G04 #@! TO.N,A18*
X20269200Y-72491600D03*
G04 #@! TO.P,SW1,3*
G04 #@! TO.N,GND*
X17729200Y-72491600D03*
G04 #@! TD*
D14*
G04 #@! TO.N,/D7*
X34808900Y-51158000D03*
G04 #@! TD*
D15*
G04 #@! TO.N,/A17*
X23520400Y-19608800D02*
X32562800Y-19608800D01*
G04 #@! TO.N,/D4*
X37210100Y-65328800D02*
X33400100Y-61518800D01*
X33400100Y-61518800D02*
X31785900Y-61518800D01*
X31785900Y-61518800D02*
X25388600Y-55121500D01*
X25388600Y-55121500D02*
X25388600Y-54968500D01*
X25388600Y-54968500D02*
X24263700Y-53843600D01*
X24263700Y-53843600D02*
X21706100Y-53843600D01*
X21706100Y-53843600D02*
X20491300Y-52628800D01*
X20491300Y-52628800D02*
X17322800Y-52628800D01*
X38760400Y-65328800D02*
X37210100Y-65328800D01*
G04 #@! TO.N,/D12*
X17322800Y-29768800D02*
X18873100Y-29768800D01*
X38760400Y-62788800D02*
X40310700Y-62788800D01*
X40310700Y-62788800D02*
X40310700Y-65816900D01*
X40310700Y-65816900D02*
X39637500Y-66490100D01*
X39637500Y-66490100D02*
X31682800Y-66490100D01*
X31682800Y-66490100D02*
X25388100Y-60195400D01*
X25388100Y-60195400D02*
X25388100Y-57548400D01*
X25388100Y-57548400D02*
X24278500Y-56438800D01*
X24278500Y-56438800D02*
X20700100Y-56438800D01*
X20700100Y-56438800D02*
X18160100Y-53898800D01*
X18160100Y-53898800D02*
X16510700Y-53898800D01*
X16510700Y-53898800D02*
X15734600Y-53122700D01*
X15734600Y-53122700D02*
X15734600Y-42016100D01*
X15734600Y-42016100D02*
X16551900Y-41198800D01*
X16551900Y-41198800D02*
X18147800Y-41198800D01*
X18147800Y-41198800D02*
X18873100Y-40473500D01*
X18873100Y-40473500D02*
X18873100Y-29768800D01*
G04 #@! TO.N,/D5*
X17322800Y-50088800D02*
X18873100Y-50088800D01*
X38760400Y-60248800D02*
X37210100Y-60248800D01*
X37210100Y-60248800D02*
X33400100Y-56438800D01*
X33400100Y-56438800D02*
X29404400Y-56438800D01*
X29404400Y-56438800D02*
X24444000Y-51478400D01*
X24444000Y-51478400D02*
X20262700Y-51478400D01*
X20262700Y-51478400D02*
X18873100Y-50088800D01*
G04 #@! TO.N,/D13*
X38760400Y-57708800D02*
X40310700Y-57708800D01*
X40310700Y-57708800D02*
X40310700Y-54676800D01*
X40310700Y-54676800D02*
X39471300Y-53837400D01*
X39471300Y-53837400D02*
X37888700Y-53837400D01*
X37888700Y-53837400D02*
X36366800Y-52315500D01*
X36366800Y-52315500D02*
X36366800Y-51645700D01*
X36366800Y-51645700D02*
X33539900Y-48818800D01*
X33539900Y-48818800D02*
X31710900Y-48818800D01*
X31710900Y-48818800D02*
X26750500Y-43858400D01*
X26750500Y-43858400D02*
X22564200Y-43858400D01*
X22564200Y-43858400D02*
X19386400Y-40680600D01*
X19386400Y-40680600D02*
X19386400Y-29292400D01*
X19386400Y-29292400D02*
X17322800Y-27228800D01*
G04 #@! TO.N,/D6*
X17322800Y-47548800D02*
X18873100Y-47548800D01*
X38760400Y-55168800D02*
X37210100Y-55168800D01*
X37210100Y-55168800D02*
X35940100Y-53898800D01*
X35940100Y-53898800D02*
X31716000Y-53898800D01*
X31716000Y-53898800D02*
X26755600Y-48938400D01*
X26755600Y-48938400D02*
X20262700Y-48938400D01*
X20262700Y-48938400D02*
X18873100Y-47548800D01*
G04 #@! TO.N,/D14*
X18873100Y-24688800D02*
X21469800Y-27285500D01*
X21469800Y-27285500D02*
X21469800Y-34865100D01*
X21469800Y-34865100D02*
X22723500Y-36118800D01*
X22723500Y-36118800D02*
X24318700Y-36118800D01*
X24318700Y-36118800D02*
X25330400Y-37130500D01*
X25330400Y-37130500D02*
X25330400Y-39823300D01*
X25330400Y-39823300D02*
X31785900Y-46278800D01*
X31785900Y-46278800D02*
X33320800Y-46278800D01*
X33320800Y-46278800D02*
X34491100Y-47449100D01*
X34491100Y-47449100D02*
X34491100Y-48359500D01*
X34491100Y-48359500D02*
X38760400Y-52628800D01*
X17322800Y-24688800D02*
X18873100Y-24688800D01*
G04 #@! TO.N,/D7*
X17322800Y-45008800D02*
X18873100Y-45008800D01*
X34808900Y-51158000D02*
X34708500Y-51258400D01*
X34708500Y-51258400D02*
X31641200Y-51258400D01*
X31641200Y-51258400D02*
X26781200Y-46398400D01*
X26781200Y-46398400D02*
X20262700Y-46398400D01*
X20262700Y-46398400D02*
X18873100Y-45008800D01*
G04 #@! TO.N,/D15*
X17322800Y-22148800D02*
X18873100Y-22148800D01*
X38760400Y-47548800D02*
X37210100Y-47548800D01*
X37210100Y-47548800D02*
X33400100Y-43738800D01*
X33400100Y-43738800D02*
X31727300Y-43738800D01*
X31727300Y-43738800D02*
X26461900Y-38473400D01*
X26461900Y-38473400D02*
X26461900Y-33196100D01*
X26461900Y-33196100D02*
X24304600Y-31038800D01*
X24304600Y-31038800D02*
X22699600Y-31038800D01*
X22699600Y-31038800D02*
X21970100Y-30309300D01*
X21970100Y-30309300D02*
X21970100Y-25245800D01*
X21970100Y-25245800D02*
X18873100Y-22148800D01*
G04 #@! TO.N,/CE*
X15772500Y-19608800D02*
X15772500Y-25225000D01*
X15772500Y-25225000D02*
X16506300Y-25958800D01*
X16506300Y-25958800D02*
X18120900Y-25958800D01*
X18120900Y-25958800D02*
X20969500Y-28807400D01*
X20969500Y-28807400D02*
X20969500Y-41468200D01*
X20969500Y-41468200D02*
X21970100Y-42468800D01*
X17322800Y-19608800D02*
X15772500Y-19608800D01*
X23520400Y-42468800D02*
X21970100Y-42468800D01*
G04 #@! TO.N,GND*
X38354000Y-72491600D02*
X37153700Y-72491600D01*
X17729200Y-72491600D02*
X18929500Y-72491600D01*
X18929500Y-72491600D02*
X18929500Y-72866700D01*
X18929500Y-72866700D02*
X19792000Y-73729200D01*
X19792000Y-73729200D02*
X36289100Y-73729200D01*
X36289100Y-73729200D02*
X37153700Y-72864600D01*
X37153700Y-72864600D02*
X37153700Y-72491600D01*
X32562800Y-42468800D02*
X34113100Y-42468800D01*
X34113100Y-42468800D02*
X36653100Y-45008800D01*
X36653100Y-45008800D02*
X38760400Y-45008800D01*
X23520400Y-45008800D02*
X21970100Y-45008800D01*
X17322800Y-42468800D02*
X19430100Y-42468800D01*
X19430100Y-42468800D02*
X21970100Y-45008800D01*
G04 #@! TO.N,/BYTE*
X17322800Y-17068800D02*
X18873100Y-17068800D01*
X38760400Y-42468800D02*
X37210100Y-42468800D01*
X37210100Y-42468800D02*
X36059700Y-41318400D01*
X36059700Y-41318400D02*
X31694400Y-41318400D01*
X31694400Y-41318400D02*
X27999400Y-37623400D01*
X27999400Y-37623400D02*
X27999400Y-24596400D01*
X27999400Y-24596400D02*
X24281800Y-20878800D01*
X24281800Y-20878800D02*
X22683100Y-20878800D01*
X22683100Y-20878800D02*
X18873100Y-17068800D01*
G04 #@! TO.N,/A16*
X37210100Y-39928800D02*
X35940100Y-38658800D01*
X35940100Y-38658800D02*
X31742800Y-38658800D01*
X31742800Y-38658800D02*
X29000200Y-35916200D01*
X29000200Y-35916200D02*
X29000200Y-24161100D01*
X29000200Y-24161100D02*
X31012500Y-22148800D01*
X32562800Y-22148800D02*
X31012500Y-22148800D01*
X38760400Y-39928800D02*
X37210100Y-39928800D01*
G04 #@! TO.N,/A15*
X31012500Y-24688800D02*
X30000800Y-25700500D01*
X30000800Y-25700500D02*
X30000800Y-34333700D01*
X30000800Y-34333700D02*
X31785900Y-36118800D01*
X31785900Y-36118800D02*
X35940100Y-36118800D01*
X35940100Y-36118800D02*
X37210100Y-37388800D01*
X32562800Y-24688800D02*
X31012500Y-24688800D01*
X38760400Y-37388800D02*
X37210100Y-37388800D01*
G04 #@! TO.N,/A14*
X38760400Y-34848800D02*
X37210100Y-34848800D01*
X37210100Y-34848800D02*
X36059700Y-33698400D01*
X36059700Y-33698400D02*
X31901100Y-33698400D01*
X31901100Y-33698400D02*
X31001500Y-32798800D01*
X31001500Y-32798800D02*
X31001500Y-28790100D01*
X31001500Y-28790100D02*
X32562800Y-27228800D01*
G04 #@! TO.N,/A13*
X32562800Y-29768800D02*
X34113100Y-29768800D01*
X38760400Y-32308800D02*
X40310700Y-32308800D01*
X40310700Y-32308800D02*
X40310700Y-29280700D01*
X40310700Y-29280700D02*
X39637500Y-28607500D01*
X39637500Y-28607500D02*
X35274400Y-28607500D01*
X35274400Y-28607500D02*
X34113100Y-29768800D01*
G04 #@! TO.N,/A12*
X38760400Y-29768800D02*
X37210100Y-29768800D01*
X37210100Y-29768800D02*
X34670100Y-32308800D01*
X34670100Y-32308800D02*
X32562800Y-32308800D01*
G04 #@! TO.N,/D2*
X23520400Y-60248800D02*
X21970100Y-60248800D01*
X17322800Y-57708800D02*
X19430100Y-57708800D01*
X19430100Y-57708800D02*
X21970100Y-60248800D01*
G04 #@! TO.N,/A11*
X38760400Y-27228800D02*
X37210100Y-27228800D01*
X32562800Y-34848800D02*
X32343800Y-34848800D01*
X32343800Y-34848800D02*
X30501100Y-33006100D01*
X30501100Y-33006100D02*
X30501100Y-27262800D01*
X30501100Y-27262800D02*
X31741300Y-26022600D01*
X31741300Y-26022600D02*
X36003900Y-26022600D01*
X36003900Y-26022600D02*
X37210100Y-27228800D01*
G04 #@! TO.N,/A10*
X38760400Y-24688800D02*
X37210100Y-24688800D01*
X32562800Y-37388800D02*
X32338300Y-37388800D01*
X32338300Y-37388800D02*
X29500500Y-34551000D01*
X29500500Y-34551000D02*
X29500500Y-25481600D01*
X29500500Y-25481600D02*
X31509100Y-23473000D01*
X31509100Y-23473000D02*
X35994300Y-23473000D01*
X35994300Y-23473000D02*
X37210100Y-24688800D01*
G04 #@! TO.N,/D3*
X17322800Y-55168800D02*
X15772500Y-55168800D01*
X23520400Y-65328800D02*
X19669600Y-61478000D01*
X19669600Y-61478000D02*
X19669600Y-60537800D01*
X19669600Y-60537800D02*
X18110600Y-58978800D01*
X18110600Y-58978800D02*
X16540400Y-58978800D01*
X16540400Y-58978800D02*
X15772500Y-58210900D01*
X15772500Y-58210900D02*
X15772500Y-55168800D01*
G04 #@! TO.N,/A9*
X31012500Y-39928800D02*
X28499800Y-37416100D01*
X28499800Y-37416100D02*
X28499800Y-23953800D01*
X28499800Y-23953800D02*
X31455200Y-20998400D01*
X31455200Y-20998400D02*
X36059700Y-20998400D01*
X36059700Y-20998400D02*
X37210100Y-22148800D01*
X32562800Y-39928800D02*
X31012500Y-39928800D01*
X38760400Y-22148800D02*
X37210100Y-22148800D01*
G04 #@! TD*
D16*
G04 #@! TO.N,GND*
G36*
X31073053Y-66990511D02*
X31116847Y-67056053D01*
X31182389Y-67099847D01*
X31182391Y-67099849D01*
X31376508Y-67229554D01*
X31605484Y-67275100D01*
X31605487Y-67275100D01*
X31682799Y-67290478D01*
X31760111Y-67275100D01*
X37031238Y-67275100D01*
X37008660Y-67308891D01*
X36897287Y-67868800D01*
X37008660Y-68428709D01*
X37325823Y-68903377D01*
X37800491Y-69220540D01*
X38219067Y-69303800D01*
X39301733Y-69303800D01*
X39720309Y-69220540D01*
X40194977Y-68903377D01*
X40443307Y-68531726D01*
X40438603Y-74067600D01*
X15594400Y-74067600D01*
X15594400Y-72848492D01*
X16287714Y-72848492D01*
X16534017Y-73372958D01*
X16962276Y-73763245D01*
X17372310Y-73933076D01*
X17602200Y-73811755D01*
X17602200Y-72618600D01*
X16408381Y-72618600D01*
X16287714Y-72848492D01*
X15594400Y-72848492D01*
X15594400Y-72134708D01*
X16287714Y-72134708D01*
X16408381Y-72364600D01*
X17602200Y-72364600D01*
X17602200Y-71171445D01*
X17856200Y-71171445D01*
X17856200Y-72364600D01*
X17876200Y-72364600D01*
X17876200Y-72618600D01*
X17856200Y-72618600D01*
X17856200Y-73811755D01*
X18086090Y-73933076D01*
X18496124Y-73763245D01*
X18924383Y-73372958D01*
X18985357Y-73243122D01*
X19198575Y-73562225D01*
X19689782Y-73890439D01*
X20122944Y-73976600D01*
X20415456Y-73976600D01*
X20848618Y-73890439D01*
X21339825Y-73562225D01*
X21528409Y-73279989D01*
X21550278Y-73332785D01*
X21968015Y-73750522D01*
X22513815Y-73976600D01*
X23104585Y-73976600D01*
X23650385Y-73750522D01*
X24068122Y-73332785D01*
X24294200Y-72786985D01*
X24294200Y-72196215D01*
X31789000Y-72196215D01*
X31789000Y-72786985D01*
X32015078Y-73332785D01*
X32432815Y-73750522D01*
X32978615Y-73976600D01*
X33569385Y-73976600D01*
X34115185Y-73750522D01*
X34532922Y-73332785D01*
X34554791Y-73279989D01*
X34743375Y-73562225D01*
X35234582Y-73890439D01*
X35667744Y-73976600D01*
X35960256Y-73976600D01*
X36393418Y-73890439D01*
X36884625Y-73562225D01*
X37097843Y-73243122D01*
X37158817Y-73372958D01*
X37587076Y-73763245D01*
X37997110Y-73933076D01*
X38227000Y-73811755D01*
X38227000Y-72618600D01*
X38481000Y-72618600D01*
X38481000Y-73811755D01*
X38710890Y-73933076D01*
X39120924Y-73763245D01*
X39549183Y-73372958D01*
X39795486Y-72848492D01*
X39674819Y-72618600D01*
X38481000Y-72618600D01*
X38227000Y-72618600D01*
X38207000Y-72618600D01*
X38207000Y-72364600D01*
X38227000Y-72364600D01*
X38227000Y-71171445D01*
X38481000Y-71171445D01*
X38481000Y-72364600D01*
X39674819Y-72364600D01*
X39795486Y-72134708D01*
X39549183Y-71610242D01*
X39120924Y-71219955D01*
X38710890Y-71050124D01*
X38481000Y-71171445D01*
X38227000Y-71171445D01*
X37997110Y-71050124D01*
X37587076Y-71219955D01*
X37158817Y-71610242D01*
X37097843Y-71740078D01*
X36884625Y-71420975D01*
X36393418Y-71092761D01*
X35960256Y-71006600D01*
X35667744Y-71006600D01*
X35234582Y-71092761D01*
X34743375Y-71420975D01*
X34554791Y-71703211D01*
X34532922Y-71650415D01*
X34115185Y-71232678D01*
X33569385Y-71006600D01*
X32978615Y-71006600D01*
X32432815Y-71232678D01*
X32015078Y-71650415D01*
X31789000Y-72196215D01*
X24294200Y-72196215D01*
X24068122Y-71650415D01*
X23650385Y-71232678D01*
X23104585Y-71006600D01*
X22513815Y-71006600D01*
X21968015Y-71232678D01*
X21550278Y-71650415D01*
X21528409Y-71703211D01*
X21339825Y-71420975D01*
X20848618Y-71092761D01*
X20415456Y-71006600D01*
X20122944Y-71006600D01*
X19689782Y-71092761D01*
X19198575Y-71420975D01*
X18985357Y-71740078D01*
X18924383Y-71610242D01*
X18496124Y-71219955D01*
X18086090Y-71050124D01*
X17856200Y-71171445D01*
X17602200Y-71171445D01*
X17372310Y-71050124D01*
X16962276Y-71219955D01*
X16534017Y-71610242D01*
X16287714Y-72134708D01*
X15594400Y-72134708D01*
X15594400Y-65923640D01*
X15888223Y-66363377D01*
X16362891Y-66680540D01*
X16781467Y-66763800D01*
X17864133Y-66763800D01*
X18282709Y-66680540D01*
X18757377Y-66363377D01*
X19074540Y-65888709D01*
X19185913Y-65328800D01*
X19074540Y-64768891D01*
X18757377Y-64294223D01*
X18405042Y-64058800D01*
X18757377Y-63823377D01*
X19074540Y-63348709D01*
X19185913Y-62788800D01*
X19074540Y-62228891D01*
X18757377Y-61754223D01*
X18405042Y-61518800D01*
X18757377Y-61283377D01*
X18884600Y-61092974D01*
X18884600Y-61400688D01*
X18869222Y-61478000D01*
X18884600Y-61555312D01*
X18884600Y-61555315D01*
X18930146Y-61784291D01*
X19103647Y-62043953D01*
X19169192Y-62087749D01*
X21801374Y-64719931D01*
X21768660Y-64768891D01*
X21657287Y-65328800D01*
X21768660Y-65888709D01*
X22085823Y-66363377D01*
X22438158Y-66598800D01*
X22085823Y-66834223D01*
X21768660Y-67308891D01*
X21657287Y-67868800D01*
X21768660Y-68428709D01*
X22085823Y-68903377D01*
X22560491Y-69220540D01*
X22979067Y-69303800D01*
X24061733Y-69303800D01*
X24480309Y-69220540D01*
X24954977Y-68903377D01*
X25272140Y-68428709D01*
X25383513Y-67868800D01*
X25272140Y-67308891D01*
X24954977Y-66834223D01*
X24602642Y-66598800D01*
X24954977Y-66363377D01*
X25272140Y-65888709D01*
X25383513Y-65328800D01*
X25272140Y-64768891D01*
X24954977Y-64294223D01*
X24602642Y-64058800D01*
X24954977Y-63823377D01*
X25272140Y-63348709D01*
X25383513Y-62788800D01*
X25272140Y-62228891D01*
X24954977Y-61754223D01*
X24602642Y-61518800D01*
X24954977Y-61283377D01*
X25119578Y-61037035D01*
X31073053Y-66990511D01*
X31073053Y-66990511D01*
G37*
X31073053Y-66990511D02*
X31116847Y-67056053D01*
X31182389Y-67099847D01*
X31182391Y-67099849D01*
X31376508Y-67229554D01*
X31605484Y-67275100D01*
X31605487Y-67275100D01*
X31682799Y-67290478D01*
X31760111Y-67275100D01*
X37031238Y-67275100D01*
X37008660Y-67308891D01*
X36897287Y-67868800D01*
X37008660Y-68428709D01*
X37325823Y-68903377D01*
X37800491Y-69220540D01*
X38219067Y-69303800D01*
X39301733Y-69303800D01*
X39720309Y-69220540D01*
X40194977Y-68903377D01*
X40443307Y-68531726D01*
X40438603Y-74067600D01*
X15594400Y-74067600D01*
X15594400Y-72848492D01*
X16287714Y-72848492D01*
X16534017Y-73372958D01*
X16962276Y-73763245D01*
X17372310Y-73933076D01*
X17602200Y-73811755D01*
X17602200Y-72618600D01*
X16408381Y-72618600D01*
X16287714Y-72848492D01*
X15594400Y-72848492D01*
X15594400Y-72134708D01*
X16287714Y-72134708D01*
X16408381Y-72364600D01*
X17602200Y-72364600D01*
X17602200Y-71171445D01*
X17856200Y-71171445D01*
X17856200Y-72364600D01*
X17876200Y-72364600D01*
X17876200Y-72618600D01*
X17856200Y-72618600D01*
X17856200Y-73811755D01*
X18086090Y-73933076D01*
X18496124Y-73763245D01*
X18924383Y-73372958D01*
X18985357Y-73243122D01*
X19198575Y-73562225D01*
X19689782Y-73890439D01*
X20122944Y-73976600D01*
X20415456Y-73976600D01*
X20848618Y-73890439D01*
X21339825Y-73562225D01*
X21528409Y-73279989D01*
X21550278Y-73332785D01*
X21968015Y-73750522D01*
X22513815Y-73976600D01*
X23104585Y-73976600D01*
X23650385Y-73750522D01*
X24068122Y-73332785D01*
X24294200Y-72786985D01*
X24294200Y-72196215D01*
X31789000Y-72196215D01*
X31789000Y-72786985D01*
X32015078Y-73332785D01*
X32432815Y-73750522D01*
X32978615Y-73976600D01*
X33569385Y-73976600D01*
X34115185Y-73750522D01*
X34532922Y-73332785D01*
X34554791Y-73279989D01*
X34743375Y-73562225D01*
X35234582Y-73890439D01*
X35667744Y-73976600D01*
X35960256Y-73976600D01*
X36393418Y-73890439D01*
X36884625Y-73562225D01*
X37097843Y-73243122D01*
X37158817Y-73372958D01*
X37587076Y-73763245D01*
X37997110Y-73933076D01*
X38227000Y-73811755D01*
X38227000Y-72618600D01*
X38481000Y-72618600D01*
X38481000Y-73811755D01*
X38710890Y-73933076D01*
X39120924Y-73763245D01*
X39549183Y-73372958D01*
X39795486Y-72848492D01*
X39674819Y-72618600D01*
X38481000Y-72618600D01*
X38227000Y-72618600D01*
X38207000Y-72618600D01*
X38207000Y-72364600D01*
X38227000Y-72364600D01*
X38227000Y-71171445D01*
X38481000Y-71171445D01*
X38481000Y-72364600D01*
X39674819Y-72364600D01*
X39795486Y-72134708D01*
X39549183Y-71610242D01*
X39120924Y-71219955D01*
X38710890Y-71050124D01*
X38481000Y-71171445D01*
X38227000Y-71171445D01*
X37997110Y-71050124D01*
X37587076Y-71219955D01*
X37158817Y-71610242D01*
X37097843Y-71740078D01*
X36884625Y-71420975D01*
X36393418Y-71092761D01*
X35960256Y-71006600D01*
X35667744Y-71006600D01*
X35234582Y-71092761D01*
X34743375Y-71420975D01*
X34554791Y-71703211D01*
X34532922Y-71650415D01*
X34115185Y-71232678D01*
X33569385Y-71006600D01*
X32978615Y-71006600D01*
X32432815Y-71232678D01*
X32015078Y-71650415D01*
X31789000Y-72196215D01*
X24294200Y-72196215D01*
X24068122Y-71650415D01*
X23650385Y-71232678D01*
X23104585Y-71006600D01*
X22513815Y-71006600D01*
X21968015Y-71232678D01*
X21550278Y-71650415D01*
X21528409Y-71703211D01*
X21339825Y-71420975D01*
X20848618Y-71092761D01*
X20415456Y-71006600D01*
X20122944Y-71006600D01*
X19689782Y-71092761D01*
X19198575Y-71420975D01*
X18985357Y-71740078D01*
X18924383Y-71610242D01*
X18496124Y-71219955D01*
X18086090Y-71050124D01*
X17856200Y-71171445D01*
X17602200Y-71171445D01*
X17372310Y-71050124D01*
X16962276Y-71219955D01*
X16534017Y-71610242D01*
X16287714Y-72134708D01*
X15594400Y-72134708D01*
X15594400Y-65923640D01*
X15888223Y-66363377D01*
X16362891Y-66680540D01*
X16781467Y-66763800D01*
X17864133Y-66763800D01*
X18282709Y-66680540D01*
X18757377Y-66363377D01*
X19074540Y-65888709D01*
X19185913Y-65328800D01*
X19074540Y-64768891D01*
X18757377Y-64294223D01*
X18405042Y-64058800D01*
X18757377Y-63823377D01*
X19074540Y-63348709D01*
X19185913Y-62788800D01*
X19074540Y-62228891D01*
X18757377Y-61754223D01*
X18405042Y-61518800D01*
X18757377Y-61283377D01*
X18884600Y-61092974D01*
X18884600Y-61400688D01*
X18869222Y-61478000D01*
X18884600Y-61555312D01*
X18884600Y-61555315D01*
X18930146Y-61784291D01*
X19103647Y-62043953D01*
X19169192Y-62087749D01*
X21801374Y-64719931D01*
X21768660Y-64768891D01*
X21657287Y-65328800D01*
X21768660Y-65888709D01*
X22085823Y-66363377D01*
X22438158Y-66598800D01*
X22085823Y-66834223D01*
X21768660Y-67308891D01*
X21657287Y-67868800D01*
X21768660Y-68428709D01*
X22085823Y-68903377D01*
X22560491Y-69220540D01*
X22979067Y-69303800D01*
X24061733Y-69303800D01*
X24480309Y-69220540D01*
X24954977Y-68903377D01*
X25272140Y-68428709D01*
X25383513Y-67868800D01*
X25272140Y-67308891D01*
X24954977Y-66834223D01*
X24602642Y-66598800D01*
X24954977Y-66363377D01*
X25272140Y-65888709D01*
X25383513Y-65328800D01*
X25272140Y-64768891D01*
X24954977Y-64294223D01*
X24602642Y-64058800D01*
X24954977Y-63823377D01*
X25272140Y-63348709D01*
X25383513Y-62788800D01*
X25272140Y-62228891D01*
X24954977Y-61754223D01*
X24602642Y-61518800D01*
X24954977Y-61283377D01*
X25119578Y-61037035D01*
X31073053Y-66990511D01*
G36*
X21896926Y-44301284D02*
X21746033Y-44576981D01*
X21728496Y-44659761D01*
X21850485Y-44881800D01*
X23393400Y-44881800D01*
X23393400Y-44861800D01*
X23647400Y-44861800D01*
X23647400Y-44881800D01*
X25190315Y-44881800D01*
X25312304Y-44659761D01*
X25308838Y-44643400D01*
X26425343Y-44643400D01*
X31011241Y-49229299D01*
X30895490Y-49402532D01*
X27390948Y-45897991D01*
X27347153Y-45832447D01*
X27087492Y-45658946D01*
X26858516Y-45613400D01*
X26858512Y-45613400D01*
X26781200Y-45598022D01*
X26703888Y-45613400D01*
X25200202Y-45613400D01*
X25294767Y-45440619D01*
X25312304Y-45357839D01*
X25190315Y-45135800D01*
X23647400Y-45135800D01*
X23647400Y-45155800D01*
X23393400Y-45155800D01*
X23393400Y-45135800D01*
X21850485Y-45135800D01*
X21728496Y-45357839D01*
X21746033Y-45440619D01*
X21840598Y-45613400D01*
X20587858Y-45613400D01*
X19482849Y-44508392D01*
X19439053Y-44442847D01*
X19179392Y-44269346D01*
X18950416Y-44223800D01*
X18950412Y-44223800D01*
X18920112Y-44217773D01*
X18757377Y-43974223D01*
X18401301Y-43736301D01*
X18827300Y-43393696D01*
X19097167Y-42900619D01*
X19114704Y-42817839D01*
X18992715Y-42595800D01*
X17449800Y-42595800D01*
X17449800Y-42615800D01*
X17195800Y-42615800D01*
X17195800Y-42595800D01*
X17175800Y-42595800D01*
X17175800Y-42341800D01*
X17195800Y-42341800D01*
X17195800Y-42321800D01*
X17449800Y-42321800D01*
X17449800Y-42341800D01*
X18992715Y-42341800D01*
X19114704Y-42119761D01*
X19097167Y-42036981D01*
X18857562Y-41599196D01*
X19026200Y-41430557D01*
X21896926Y-44301284D01*
X21896926Y-44301284D01*
G37*
X21896926Y-44301284D02*
X21746033Y-44576981D01*
X21728496Y-44659761D01*
X21850485Y-44881800D01*
X23393400Y-44881800D01*
X23393400Y-44861800D01*
X23647400Y-44861800D01*
X23647400Y-44881800D01*
X25190315Y-44881800D01*
X25312304Y-44659761D01*
X25308838Y-44643400D01*
X26425343Y-44643400D01*
X31011241Y-49229299D01*
X30895490Y-49402532D01*
X27390948Y-45897991D01*
X27347153Y-45832447D01*
X27087492Y-45658946D01*
X26858516Y-45613400D01*
X26858512Y-45613400D01*
X26781200Y-45598022D01*
X26703888Y-45613400D01*
X25200202Y-45613400D01*
X25294767Y-45440619D01*
X25312304Y-45357839D01*
X25190315Y-45135800D01*
X23647400Y-45135800D01*
X23647400Y-45155800D01*
X23393400Y-45155800D01*
X23393400Y-45135800D01*
X21850485Y-45135800D01*
X21728496Y-45357839D01*
X21746033Y-45440619D01*
X21840598Y-45613400D01*
X20587858Y-45613400D01*
X19482849Y-44508392D01*
X19439053Y-44442847D01*
X19179392Y-44269346D01*
X18950416Y-44223800D01*
X18950412Y-44223800D01*
X18920112Y-44217773D01*
X18757377Y-43974223D01*
X18401301Y-43736301D01*
X18827300Y-43393696D01*
X19097167Y-42900619D01*
X19114704Y-42817839D01*
X18992715Y-42595800D01*
X17449800Y-42595800D01*
X17449800Y-42615800D01*
X17195800Y-42615800D01*
X17195800Y-42595800D01*
X17175800Y-42595800D01*
X17175800Y-42341800D01*
X17195800Y-42341800D01*
X17195800Y-42321800D01*
X17449800Y-42321800D01*
X17449800Y-42341800D01*
X18992715Y-42341800D01*
X19114704Y-42119761D01*
X19097167Y-42036981D01*
X18857562Y-41599196D01*
X19026200Y-41430557D01*
X21896926Y-44301284D01*
G36*
X36600353Y-42969211D02*
X36644147Y-43034753D01*
X36709689Y-43078547D01*
X36709691Y-43078549D01*
X36770150Y-43118946D01*
X36903808Y-43208254D01*
X37132784Y-43253800D01*
X37132788Y-43253800D01*
X37163088Y-43259827D01*
X37325823Y-43503377D01*
X37681899Y-43741299D01*
X37255900Y-44083904D01*
X36986033Y-44576981D01*
X36968496Y-44659761D01*
X37090485Y-44881800D01*
X38633400Y-44881800D01*
X38633400Y-44861800D01*
X38887400Y-44861800D01*
X38887400Y-44881800D01*
X38907400Y-44881800D01*
X38907400Y-45135800D01*
X38887400Y-45135800D01*
X38887400Y-45155800D01*
X38633400Y-45155800D01*
X38633400Y-45135800D01*
X37090485Y-45135800D01*
X36968496Y-45357839D01*
X36986033Y-45440619D01*
X37255900Y-45933696D01*
X37681899Y-46276301D01*
X37325823Y-46514223D01*
X37309744Y-46538287D01*
X34101912Y-43330455D01*
X34337167Y-42900619D01*
X34354704Y-42817839D01*
X34232715Y-42595800D01*
X32689800Y-42595800D01*
X32689800Y-42615800D01*
X32435800Y-42615800D01*
X32435800Y-42595800D01*
X32415800Y-42595800D01*
X32415800Y-42341800D01*
X32435800Y-42341800D01*
X32435800Y-42321800D01*
X32689800Y-42321800D01*
X32689800Y-42341800D01*
X34232715Y-42341800D01*
X34354704Y-42119761D01*
X34351238Y-42103400D01*
X35734543Y-42103400D01*
X36600353Y-42969211D01*
X36600353Y-42969211D01*
G37*
X36600353Y-42969211D02*
X36644147Y-43034753D01*
X36709689Y-43078547D01*
X36709691Y-43078549D01*
X36770150Y-43118946D01*
X36903808Y-43208254D01*
X37132784Y-43253800D01*
X37132788Y-43253800D01*
X37163088Y-43259827D01*
X37325823Y-43503377D01*
X37681899Y-43741299D01*
X37255900Y-44083904D01*
X36986033Y-44576981D01*
X36968496Y-44659761D01*
X37090485Y-44881800D01*
X38633400Y-44881800D01*
X38633400Y-44861800D01*
X38887400Y-44861800D01*
X38887400Y-44881800D01*
X38907400Y-44881800D01*
X38907400Y-45135800D01*
X38887400Y-45135800D01*
X38887400Y-45155800D01*
X38633400Y-45155800D01*
X38633400Y-45135800D01*
X37090485Y-45135800D01*
X36968496Y-45357839D01*
X36986033Y-45440619D01*
X37255900Y-45933696D01*
X37681899Y-46276301D01*
X37325823Y-46514223D01*
X37309744Y-46538287D01*
X34101912Y-43330455D01*
X34337167Y-42900619D01*
X34354704Y-42817839D01*
X34232715Y-42595800D01*
X32689800Y-42595800D01*
X32689800Y-42615800D01*
X32435800Y-42615800D01*
X32435800Y-42595800D01*
X32415800Y-42595800D01*
X32415800Y-42341800D01*
X32435800Y-42341800D01*
X32435800Y-42321800D01*
X32689800Y-42321800D01*
X32689800Y-42341800D01*
X34232715Y-42341800D01*
X34354704Y-42119761D01*
X34351238Y-42103400D01*
X35734543Y-42103400D01*
X36600353Y-42969211D01*
G04 #@! TD*
M02*
