G04 #@! TF.GenerationSoftware,KiCad,Pcbnew,5.0.2-bee76a0~70~ubuntu18.10.1*
G04 #@! TF.CreationDate,2019-03-17T01:28:34+01:00*
G04 #@! TF.ProjectId,27c160 Kickstart,32376331-3630-4204-9b69-636b73746172,rev?*
G04 #@! TF.SameCoordinates,Original*
G04 #@! TF.FileFunction,Copper,L1,Top*
G04 #@! TF.FilePolarity,Positive*
%FSLAX46Y46*%
G04 Gerber Fmt 4.6, Leading zero omitted, Abs format (unit mm)*
G04 Created by KiCad (PCBNEW 5.0.2-bee76a0~70~ubuntu18.10.1) date dom 17 mar 2019 01:28:34 CET*
%MOMM*%
%LPD*%
G01*
G04 APERTURE LIST*
G04 #@! TA.AperFunction,ComponentPad*
%ADD10R,2.400000X1.600000*%
G04 #@! TD*
G04 #@! TA.AperFunction,ComponentPad*
%ADD11O,2.400000X1.600000*%
G04 #@! TD*
G04 #@! TA.AperFunction,ComponentPad*
%ADD12O,1.700000X1.700000*%
G04 #@! TD*
G04 #@! TA.AperFunction,ComponentPad*
%ADD13C,1.700000*%
G04 #@! TD*
G04 #@! TA.AperFunction,Conductor*
%ADD14C,0.100000*%
G04 #@! TD*
G04 #@! TA.AperFunction,SMDPad,CuDef*
%ADD15C,0.590000*%
G04 #@! TD*
G04 #@! TA.AperFunction,ViaPad*
%ADD16C,0.800000*%
G04 #@! TD*
G04 #@! TA.AperFunction,Conductor*
%ADD17C,0.300000*%
G04 #@! TD*
G04 #@! TA.AperFunction,Conductor*
%ADD18C,0.254000*%
G04 #@! TD*
G04 APERTURE END LIST*
D10*
G04 #@! TO.P,U1,1*
G04 #@! TO.N,/BYTE*
X17322800Y-17068800D03*
D11*
G04 #@! TO.P,U1,21*
G04 #@! TO.N,/A0*
X32562800Y-65328800D03*
G04 #@! TO.P,U1,2*
G04 #@! TO.N,/CE*
X17322800Y-19608800D03*
G04 #@! TO.P,U1,22*
G04 #@! TO.N,/A1*
X32562800Y-62788800D03*
G04 #@! TO.P,U1,3*
G04 #@! TO.N,/D15*
X17322800Y-22148800D03*
G04 #@! TO.P,U1,23*
G04 #@! TO.N,/A2*
X32562800Y-60248800D03*
G04 #@! TO.P,U1,4*
G04 #@! TO.N,/D14*
X17322800Y-24688800D03*
G04 #@! TO.P,U1,24*
G04 #@! TO.N,/A3*
X32562800Y-57708800D03*
G04 #@! TO.P,U1,5*
G04 #@! TO.N,/D13*
X17322800Y-27228800D03*
G04 #@! TO.P,U1,25*
G04 #@! TO.N,/A4*
X32562800Y-55168800D03*
G04 #@! TO.P,U1,6*
G04 #@! TO.N,/D12*
X17322800Y-29768800D03*
G04 #@! TO.P,U1,26*
G04 #@! TO.N,/A5*
X32562800Y-52628800D03*
G04 #@! TO.P,U1,7*
G04 #@! TO.N,/D11*
X17322800Y-32308800D03*
G04 #@! TO.P,U1,27*
G04 #@! TO.N,/A6*
X32562800Y-50088800D03*
G04 #@! TO.P,U1,8*
G04 #@! TO.N,/D10*
X17322800Y-34848800D03*
G04 #@! TO.P,U1,28*
G04 #@! TO.N,/A7*
X32562800Y-47548800D03*
G04 #@! TO.P,U1,9*
G04 #@! TO.N,/D9*
X17322800Y-37388800D03*
G04 #@! TO.P,U1,29*
G04 #@! TO.N,/A8*
X32562800Y-45008800D03*
G04 #@! TO.P,U1,10*
G04 #@! TO.N,/D8*
X17322800Y-39928800D03*
G04 #@! TO.P,U1,30*
G04 #@! TO.N,GND*
X32562800Y-42468800D03*
G04 #@! TO.P,U1,11*
X17322800Y-42468800D03*
G04 #@! TO.P,U1,31*
G04 #@! TO.N,/A9*
X32562800Y-39928800D03*
G04 #@! TO.P,U1,12*
G04 #@! TO.N,/D7*
X17322800Y-45008800D03*
G04 #@! TO.P,U1,32*
G04 #@! TO.N,/A10*
X32562800Y-37388800D03*
G04 #@! TO.P,U1,13*
G04 #@! TO.N,/D6*
X17322800Y-47548800D03*
G04 #@! TO.P,U1,33*
G04 #@! TO.N,/A11*
X32562800Y-34848800D03*
G04 #@! TO.P,U1,14*
G04 #@! TO.N,/D5*
X17322800Y-50088800D03*
G04 #@! TO.P,U1,34*
G04 #@! TO.N,/A12*
X32562800Y-32308800D03*
G04 #@! TO.P,U1,15*
G04 #@! TO.N,/D4*
X17322800Y-52628800D03*
G04 #@! TO.P,U1,35*
G04 #@! TO.N,/A13*
X32562800Y-29768800D03*
G04 #@! TO.P,U1,16*
G04 #@! TO.N,/D3*
X17322800Y-55168800D03*
G04 #@! TO.P,U1,36*
G04 #@! TO.N,/A14*
X32562800Y-27228800D03*
G04 #@! TO.P,U1,17*
G04 #@! TO.N,/D2*
X17322800Y-57708800D03*
G04 #@! TO.P,U1,37*
G04 #@! TO.N,/A15*
X32562800Y-24688800D03*
G04 #@! TO.P,U1,18*
G04 #@! TO.N,/D1*
X17322800Y-60248800D03*
G04 #@! TO.P,U1,38*
G04 #@! TO.N,/A16*
X32562800Y-22148800D03*
G04 #@! TO.P,U1,19*
G04 #@! TO.N,/D0*
X17322800Y-62788800D03*
G04 #@! TO.P,U1,39*
G04 #@! TO.N,/A17*
X32562800Y-19608800D03*
G04 #@! TO.P,U1,20*
G04 #@! TO.N,/OE*
X17322800Y-65328800D03*
G04 #@! TO.P,U1,40*
G04 #@! TO.N,VCC*
X32562800Y-17068800D03*
G04 #@! TD*
D10*
G04 #@! TO.P,U2,1*
G04 #@! TO.N,A18*
X23520400Y-17068800D03*
D11*
G04 #@! TO.P,U2,22*
G04 #@! TO.N,VCC*
X38760400Y-67868800D03*
G04 #@! TO.P,U2,2*
G04 #@! TO.N,/A17*
X23520400Y-19608800D03*
G04 #@! TO.P,U2,23*
G04 #@! TO.N,/D4*
X38760400Y-65328800D03*
G04 #@! TO.P,U2,3*
G04 #@! TO.N,/A7*
X23520400Y-22148800D03*
G04 #@! TO.P,U2,24*
G04 #@! TO.N,/D12*
X38760400Y-62788800D03*
G04 #@! TO.P,U2,4*
G04 #@! TO.N,/A6*
X23520400Y-24688800D03*
G04 #@! TO.P,U2,25*
G04 #@! TO.N,/D5*
X38760400Y-60248800D03*
G04 #@! TO.P,U2,5*
G04 #@! TO.N,/A5*
X23520400Y-27228800D03*
G04 #@! TO.P,U2,26*
G04 #@! TO.N,/D13*
X38760400Y-57708800D03*
G04 #@! TO.P,U2,6*
G04 #@! TO.N,/A4*
X23520400Y-29768800D03*
G04 #@! TO.P,U2,27*
G04 #@! TO.N,/D6*
X38760400Y-55168800D03*
G04 #@! TO.P,U2,7*
G04 #@! TO.N,/A3*
X23520400Y-32308800D03*
G04 #@! TO.P,U2,28*
G04 #@! TO.N,/D14*
X38760400Y-52628800D03*
G04 #@! TO.P,U2,8*
G04 #@! TO.N,/A2*
X23520400Y-34848800D03*
G04 #@! TO.P,U2,29*
G04 #@! TO.N,/D7*
X38760400Y-50088800D03*
G04 #@! TO.P,U2,9*
G04 #@! TO.N,/A1*
X23520400Y-37388800D03*
G04 #@! TO.P,U2,30*
G04 #@! TO.N,/D15*
X38760400Y-47548800D03*
G04 #@! TO.P,U2,10*
G04 #@! TO.N,/A0*
X23520400Y-39928800D03*
G04 #@! TO.P,U2,31*
G04 #@! TO.N,GND*
X38760400Y-45008800D03*
G04 #@! TO.P,U2,11*
G04 #@! TO.N,/CE*
X23520400Y-42468800D03*
G04 #@! TO.P,U2,32*
G04 #@! TO.N,/BYTE*
X38760400Y-42468800D03*
G04 #@! TO.P,U2,12*
G04 #@! TO.N,GND*
X23520400Y-45008800D03*
G04 #@! TO.P,U2,33*
G04 #@! TO.N,/A16*
X38760400Y-39928800D03*
G04 #@! TO.P,U2,13*
G04 #@! TO.N,/OE*
X23520400Y-47548800D03*
G04 #@! TO.P,U2,34*
G04 #@! TO.N,/A15*
X38760400Y-37388800D03*
G04 #@! TO.P,U2,14*
G04 #@! TO.N,/D0*
X23520400Y-50088800D03*
G04 #@! TO.P,U2,35*
G04 #@! TO.N,/A14*
X38760400Y-34848800D03*
G04 #@! TO.P,U2,15*
G04 #@! TO.N,/D8*
X23520400Y-52628800D03*
G04 #@! TO.P,U2,36*
G04 #@! TO.N,/A13*
X38760400Y-32308800D03*
G04 #@! TO.P,U2,16*
G04 #@! TO.N,/D1*
X23520400Y-55168800D03*
G04 #@! TO.P,U2,37*
G04 #@! TO.N,/A12*
X38760400Y-29768800D03*
G04 #@! TO.P,U2,17*
G04 #@! TO.N,/D9*
X23520400Y-57708800D03*
G04 #@! TO.P,U2,38*
G04 #@! TO.N,/A11*
X38760400Y-27228800D03*
G04 #@! TO.P,U2,18*
G04 #@! TO.N,/D2*
X23520400Y-60248800D03*
G04 #@! TO.P,U2,39*
G04 #@! TO.N,/A10*
X38760400Y-24688800D03*
G04 #@! TO.P,U2,19*
G04 #@! TO.N,/D10*
X23520400Y-62788800D03*
G04 #@! TO.P,U2,40*
G04 #@! TO.N,/A9*
X38760400Y-22148800D03*
G04 #@! TO.P,U2,20*
G04 #@! TO.N,/D3*
X23520400Y-65328800D03*
G04 #@! TO.P,U2,41*
G04 #@! TO.N,/A8*
X38760400Y-19608800D03*
G04 #@! TO.P,U2,21*
G04 #@! TO.N,/D11*
X23520400Y-67868800D03*
G04 #@! TO.P,U2,42*
G04 #@! TO.N,A19*
X38760400Y-17068800D03*
G04 #@! TD*
D12*
G04 #@! TO.P,SW2,3*
G04 #@! TO.N,GND*
X38354000Y-72491600D03*
G04 #@! TO.P,SW2,2*
G04 #@! TO.N,A19*
X35814000Y-72491600D03*
D13*
G04 #@! TO.P,SW2,1*
G04 #@! TO.N,Net-(R2-Pad2)*
X33274000Y-72491600D03*
G04 #@! TD*
G04 #@! TO.P,SW1,1*
G04 #@! TO.N,Net-(R1-Pad2)*
X22809200Y-72491600D03*
D12*
G04 #@! TO.P,SW1,2*
G04 #@! TO.N,A18*
X20269200Y-72491600D03*
G04 #@! TO.P,SW1,3*
G04 #@! TO.N,GND*
X17729200Y-72491600D03*
G04 #@! TD*
D14*
G04 #@! TO.N,Net-(R2-Pad2)*
G04 #@! TO.C,R2*
G36*
X30311358Y-72682310D02*
X30325676Y-72684434D01*
X30339717Y-72687951D01*
X30353346Y-72692828D01*
X30366431Y-72699017D01*
X30378847Y-72706458D01*
X30390473Y-72715081D01*
X30401198Y-72724802D01*
X30410919Y-72735527D01*
X30419542Y-72747153D01*
X30426983Y-72759569D01*
X30433172Y-72772654D01*
X30438049Y-72786283D01*
X30441566Y-72800324D01*
X30443690Y-72814642D01*
X30444400Y-72829100D01*
X30444400Y-73124100D01*
X30443690Y-73138558D01*
X30441566Y-73152876D01*
X30438049Y-73166917D01*
X30433172Y-73180546D01*
X30426983Y-73193631D01*
X30419542Y-73206047D01*
X30410919Y-73217673D01*
X30401198Y-73228398D01*
X30390473Y-73238119D01*
X30378847Y-73246742D01*
X30366431Y-73254183D01*
X30353346Y-73260372D01*
X30339717Y-73265249D01*
X30325676Y-73268766D01*
X30311358Y-73270890D01*
X30296900Y-73271600D01*
X29951900Y-73271600D01*
X29937442Y-73270890D01*
X29923124Y-73268766D01*
X29909083Y-73265249D01*
X29895454Y-73260372D01*
X29882369Y-73254183D01*
X29869953Y-73246742D01*
X29858327Y-73238119D01*
X29847602Y-73228398D01*
X29837881Y-73217673D01*
X29829258Y-73206047D01*
X29821817Y-73193631D01*
X29815628Y-73180546D01*
X29810751Y-73166917D01*
X29807234Y-73152876D01*
X29805110Y-73138558D01*
X29804400Y-73124100D01*
X29804400Y-72829100D01*
X29805110Y-72814642D01*
X29807234Y-72800324D01*
X29810751Y-72786283D01*
X29815628Y-72772654D01*
X29821817Y-72759569D01*
X29829258Y-72747153D01*
X29837881Y-72735527D01*
X29847602Y-72724802D01*
X29858327Y-72715081D01*
X29869953Y-72706458D01*
X29882369Y-72699017D01*
X29895454Y-72692828D01*
X29909083Y-72687951D01*
X29923124Y-72684434D01*
X29937442Y-72682310D01*
X29951900Y-72681600D01*
X30296900Y-72681600D01*
X30311358Y-72682310D01*
X30311358Y-72682310D01*
G37*
D15*
G04 #@! TD*
G04 #@! TO.P,R2,2*
G04 #@! TO.N,Net-(R2-Pad2)*
X30124400Y-72976600D03*
D14*
G04 #@! TO.N,VCC*
G04 #@! TO.C,R2*
G36*
X30311358Y-71712310D02*
X30325676Y-71714434D01*
X30339717Y-71717951D01*
X30353346Y-71722828D01*
X30366431Y-71729017D01*
X30378847Y-71736458D01*
X30390473Y-71745081D01*
X30401198Y-71754802D01*
X30410919Y-71765527D01*
X30419542Y-71777153D01*
X30426983Y-71789569D01*
X30433172Y-71802654D01*
X30438049Y-71816283D01*
X30441566Y-71830324D01*
X30443690Y-71844642D01*
X30444400Y-71859100D01*
X30444400Y-72154100D01*
X30443690Y-72168558D01*
X30441566Y-72182876D01*
X30438049Y-72196917D01*
X30433172Y-72210546D01*
X30426983Y-72223631D01*
X30419542Y-72236047D01*
X30410919Y-72247673D01*
X30401198Y-72258398D01*
X30390473Y-72268119D01*
X30378847Y-72276742D01*
X30366431Y-72284183D01*
X30353346Y-72290372D01*
X30339717Y-72295249D01*
X30325676Y-72298766D01*
X30311358Y-72300890D01*
X30296900Y-72301600D01*
X29951900Y-72301600D01*
X29937442Y-72300890D01*
X29923124Y-72298766D01*
X29909083Y-72295249D01*
X29895454Y-72290372D01*
X29882369Y-72284183D01*
X29869953Y-72276742D01*
X29858327Y-72268119D01*
X29847602Y-72258398D01*
X29837881Y-72247673D01*
X29829258Y-72236047D01*
X29821817Y-72223631D01*
X29815628Y-72210546D01*
X29810751Y-72196917D01*
X29807234Y-72182876D01*
X29805110Y-72168558D01*
X29804400Y-72154100D01*
X29804400Y-71859100D01*
X29805110Y-71844642D01*
X29807234Y-71830324D01*
X29810751Y-71816283D01*
X29815628Y-71802654D01*
X29821817Y-71789569D01*
X29829258Y-71777153D01*
X29837881Y-71765527D01*
X29847602Y-71754802D01*
X29858327Y-71745081D01*
X29869953Y-71736458D01*
X29882369Y-71729017D01*
X29895454Y-71722828D01*
X29909083Y-71717951D01*
X29923124Y-71714434D01*
X29937442Y-71712310D01*
X29951900Y-71711600D01*
X30296900Y-71711600D01*
X30311358Y-71712310D01*
X30311358Y-71712310D01*
G37*
D15*
G04 #@! TD*
G04 #@! TO.P,R2,1*
G04 #@! TO.N,VCC*
X30124400Y-72006600D03*
D14*
G04 #@! TO.N,VCC*
G04 #@! TO.C,R1*
G36*
X26196558Y-71712310D02*
X26210876Y-71714434D01*
X26224917Y-71717951D01*
X26238546Y-71722828D01*
X26251631Y-71729017D01*
X26264047Y-71736458D01*
X26275673Y-71745081D01*
X26286398Y-71754802D01*
X26296119Y-71765527D01*
X26304742Y-71777153D01*
X26312183Y-71789569D01*
X26318372Y-71802654D01*
X26323249Y-71816283D01*
X26326766Y-71830324D01*
X26328890Y-71844642D01*
X26329600Y-71859100D01*
X26329600Y-72154100D01*
X26328890Y-72168558D01*
X26326766Y-72182876D01*
X26323249Y-72196917D01*
X26318372Y-72210546D01*
X26312183Y-72223631D01*
X26304742Y-72236047D01*
X26296119Y-72247673D01*
X26286398Y-72258398D01*
X26275673Y-72268119D01*
X26264047Y-72276742D01*
X26251631Y-72284183D01*
X26238546Y-72290372D01*
X26224917Y-72295249D01*
X26210876Y-72298766D01*
X26196558Y-72300890D01*
X26182100Y-72301600D01*
X25837100Y-72301600D01*
X25822642Y-72300890D01*
X25808324Y-72298766D01*
X25794283Y-72295249D01*
X25780654Y-72290372D01*
X25767569Y-72284183D01*
X25755153Y-72276742D01*
X25743527Y-72268119D01*
X25732802Y-72258398D01*
X25723081Y-72247673D01*
X25714458Y-72236047D01*
X25707017Y-72223631D01*
X25700828Y-72210546D01*
X25695951Y-72196917D01*
X25692434Y-72182876D01*
X25690310Y-72168558D01*
X25689600Y-72154100D01*
X25689600Y-71859100D01*
X25690310Y-71844642D01*
X25692434Y-71830324D01*
X25695951Y-71816283D01*
X25700828Y-71802654D01*
X25707017Y-71789569D01*
X25714458Y-71777153D01*
X25723081Y-71765527D01*
X25732802Y-71754802D01*
X25743527Y-71745081D01*
X25755153Y-71736458D01*
X25767569Y-71729017D01*
X25780654Y-71722828D01*
X25794283Y-71717951D01*
X25808324Y-71714434D01*
X25822642Y-71712310D01*
X25837100Y-71711600D01*
X26182100Y-71711600D01*
X26196558Y-71712310D01*
X26196558Y-71712310D01*
G37*
D15*
G04 #@! TD*
G04 #@! TO.P,R1,1*
G04 #@! TO.N,VCC*
X26009600Y-72006600D03*
D14*
G04 #@! TO.N,Net-(R1-Pad2)*
G04 #@! TO.C,R1*
G36*
X26196558Y-72682310D02*
X26210876Y-72684434D01*
X26224917Y-72687951D01*
X26238546Y-72692828D01*
X26251631Y-72699017D01*
X26264047Y-72706458D01*
X26275673Y-72715081D01*
X26286398Y-72724802D01*
X26296119Y-72735527D01*
X26304742Y-72747153D01*
X26312183Y-72759569D01*
X26318372Y-72772654D01*
X26323249Y-72786283D01*
X26326766Y-72800324D01*
X26328890Y-72814642D01*
X26329600Y-72829100D01*
X26329600Y-73124100D01*
X26328890Y-73138558D01*
X26326766Y-73152876D01*
X26323249Y-73166917D01*
X26318372Y-73180546D01*
X26312183Y-73193631D01*
X26304742Y-73206047D01*
X26296119Y-73217673D01*
X26286398Y-73228398D01*
X26275673Y-73238119D01*
X26264047Y-73246742D01*
X26251631Y-73254183D01*
X26238546Y-73260372D01*
X26224917Y-73265249D01*
X26210876Y-73268766D01*
X26196558Y-73270890D01*
X26182100Y-73271600D01*
X25837100Y-73271600D01*
X25822642Y-73270890D01*
X25808324Y-73268766D01*
X25794283Y-73265249D01*
X25780654Y-73260372D01*
X25767569Y-73254183D01*
X25755153Y-73246742D01*
X25743527Y-73238119D01*
X25732802Y-73228398D01*
X25723081Y-73217673D01*
X25714458Y-73206047D01*
X25707017Y-73193631D01*
X25700828Y-73180546D01*
X25695951Y-73166917D01*
X25692434Y-73152876D01*
X25690310Y-73138558D01*
X25689600Y-73124100D01*
X25689600Y-72829100D01*
X25690310Y-72814642D01*
X25692434Y-72800324D01*
X25695951Y-72786283D01*
X25700828Y-72772654D01*
X25707017Y-72759569D01*
X25714458Y-72747153D01*
X25723081Y-72735527D01*
X25732802Y-72724802D01*
X25743527Y-72715081D01*
X25755153Y-72706458D01*
X25767569Y-72699017D01*
X25780654Y-72692828D01*
X25794283Y-72687951D01*
X25808324Y-72684434D01*
X25822642Y-72682310D01*
X25837100Y-72681600D01*
X26182100Y-72681600D01*
X26196558Y-72682310D01*
X26196558Y-72682310D01*
G37*
D15*
G04 #@! TD*
G04 #@! TO.P,R1,2*
G04 #@! TO.N,Net-(R1-Pad2)*
X26009600Y-72976600D03*
D16*
G04 #@! TO.N,/D7*
X34808900Y-51158000D03*
G04 #@! TD*
D17*
G04 #@! TO.N,VCC*
X31012500Y-17068800D02*
X31012500Y-45542500D01*
X31012500Y-45542500D02*
X31748800Y-46278800D01*
X31748800Y-46278800D02*
X33369100Y-46278800D01*
X33369100Y-46278800D02*
X34160400Y-47070100D01*
X34160400Y-47070100D02*
X34160400Y-50745500D01*
X34160400Y-50745500D02*
X34058600Y-50847300D01*
X34058600Y-50847300D02*
X34058600Y-51468700D01*
X34058600Y-51468700D02*
X34262200Y-51672300D01*
X34262200Y-51672300D02*
X34262200Y-67868800D01*
X34262200Y-67868800D02*
X38760400Y-67868800D01*
X30124400Y-72006600D02*
X34262200Y-67868800D01*
X32562800Y-17068800D02*
X31012500Y-17068800D01*
X26009600Y-72006600D02*
X30124400Y-72006600D01*
G04 #@! TO.N,Net-(R1-Pad2)*
X26009600Y-72976600D02*
X23294200Y-72976600D01*
X23294200Y-72976600D02*
X22809200Y-72491600D01*
G04 #@! TO.N,Net-(R2-Pad2)*
X30124400Y-72976600D02*
X32789000Y-72976600D01*
X32789000Y-72976600D02*
X33274000Y-72491600D01*
G04 #@! TO.N,/A7*
X31012500Y-47548800D02*
X30481700Y-47018000D01*
X30481700Y-47018000D02*
X30481700Y-27559800D01*
X30481700Y-27559800D02*
X25070700Y-22148800D01*
X32562800Y-47548800D02*
X31012500Y-47548800D01*
X23520400Y-22148800D02*
X25070700Y-22148800D01*
G04 #@! TO.N,/A6*
X32562800Y-50088800D02*
X32562800Y-49831300D01*
X32562800Y-49831300D02*
X29659600Y-46928100D01*
X29659600Y-46928100D02*
X29659600Y-29277700D01*
X29659600Y-29277700D02*
X25070700Y-24688800D01*
X23520400Y-24688800D02*
X25070700Y-24688800D01*
G04 #@! TO.N,/A5*
X31012500Y-52628800D02*
X31012500Y-49183600D01*
X31012500Y-49183600D02*
X29159300Y-47330400D01*
X29159300Y-47330400D02*
X29159300Y-31317400D01*
X29159300Y-31317400D02*
X25070700Y-27228800D01*
X32562800Y-52628800D02*
X31012500Y-52628800D01*
X23520400Y-27228800D02*
X25070700Y-27228800D01*
G04 #@! TO.N,/A4*
X31012500Y-55168800D02*
X30073700Y-54230000D01*
X30073700Y-54230000D02*
X30073700Y-48952300D01*
X30073700Y-48952300D02*
X28659000Y-47537600D01*
X28659000Y-47537600D02*
X28659000Y-33357100D01*
X28659000Y-33357100D02*
X25070700Y-29768800D01*
X32562800Y-55168800D02*
X31012500Y-55168800D01*
X23520400Y-29768800D02*
X25070700Y-29768800D01*
G04 #@! TO.N,/A3*
X31012500Y-57708800D02*
X29573400Y-56269700D01*
X29573400Y-56269700D02*
X29573400Y-49159500D01*
X29573400Y-49159500D02*
X28158700Y-47744800D01*
X28158700Y-47744800D02*
X28158700Y-35396800D01*
X28158700Y-35396800D02*
X25070700Y-32308800D01*
X32562800Y-57708800D02*
X31012500Y-57708800D01*
X23520400Y-32308800D02*
X25070700Y-32308800D01*
G04 #@! TO.N,/A2*
X31012500Y-60248800D02*
X29073100Y-58309400D01*
X29073100Y-58309400D02*
X29073100Y-49366700D01*
X29073100Y-49366700D02*
X27658400Y-47952000D01*
X27658400Y-47952000D02*
X27658400Y-37436500D01*
X27658400Y-37436500D02*
X25070700Y-34848800D01*
X32562800Y-60248800D02*
X31012500Y-60248800D01*
X23520400Y-34848800D02*
X25070700Y-34848800D01*
G04 #@! TO.N,/A1*
X31012500Y-62788800D02*
X28572800Y-60349100D01*
X28572800Y-60349100D02*
X28572800Y-49573900D01*
X28572800Y-49573900D02*
X27158100Y-48159200D01*
X27158100Y-48159200D02*
X27158100Y-39476200D01*
X27158100Y-39476200D02*
X25070700Y-37388800D01*
X32562800Y-62788800D02*
X31012500Y-62788800D01*
X23520400Y-37388800D02*
X25070700Y-37388800D01*
G04 #@! TO.N,/D7*
X38760400Y-50088800D02*
X35878100Y-50088800D01*
X35878100Y-50088800D02*
X34808900Y-51158000D01*
G04 #@! TO.N,/A0*
X31012500Y-65328800D02*
X28072500Y-62388800D01*
X28072500Y-62388800D02*
X28072500Y-49781100D01*
X28072500Y-49781100D02*
X26509800Y-48218400D01*
X26509800Y-48218400D02*
X26509800Y-41367900D01*
X26509800Y-41367900D02*
X25070700Y-39928800D01*
X32562800Y-65328800D02*
X31012500Y-65328800D01*
X23520400Y-39928800D02*
X25070700Y-39928800D01*
G04 #@! TO.N,GND*
X15772500Y-42468800D02*
X15272200Y-42969100D01*
X15272200Y-42969100D02*
X15272200Y-68834300D01*
X15272200Y-68834300D02*
X17729200Y-71291300D01*
X17729200Y-72491600D02*
X17729200Y-71291300D01*
X17322800Y-42468800D02*
X15772500Y-42468800D01*
X15772500Y-42468800D02*
X15772500Y-31779700D01*
X15772500Y-31779700D02*
X16513400Y-31038800D01*
X16513400Y-31038800D02*
X18144000Y-31038800D01*
X18144000Y-31038800D02*
X20894700Y-28288100D01*
X20894700Y-28288100D02*
X20894700Y-17161000D01*
X20894700Y-17161000D02*
X22195600Y-15860100D01*
X22195600Y-15860100D02*
X33438600Y-15860100D01*
X33438600Y-15860100D02*
X34113100Y-16534600D01*
X34113100Y-16534600D02*
X34113100Y-42468800D01*
X32562800Y-42468800D02*
X34113100Y-42468800D01*
G04 #@! TO.N,/OE*
X18873100Y-65328800D02*
X20143100Y-64058800D01*
X20143100Y-64058800D02*
X24556100Y-64058800D01*
X24556100Y-64058800D02*
X26571600Y-62043300D01*
X26571600Y-62043300D02*
X26571600Y-50405100D01*
X26571600Y-50405100D02*
X23715300Y-47548800D01*
X23715300Y-47548800D02*
X23520400Y-47548800D01*
X17322800Y-65328800D02*
X18873100Y-65328800D01*
G04 #@! TO.N,/D0*
X18873100Y-62788800D02*
X22744500Y-58917400D01*
X22744500Y-58917400D02*
X24352700Y-58917400D01*
X24352700Y-58917400D02*
X25571000Y-57699100D01*
X25571000Y-57699100D02*
X25571000Y-51874100D01*
X25571000Y-51874100D02*
X23785700Y-50088800D01*
X23785700Y-50088800D02*
X23520400Y-50088800D01*
X17322800Y-62788800D02*
X18873100Y-62788800D01*
G04 #@! TO.N,/D8*
X18873100Y-39928800D02*
X18873100Y-49531800D01*
X18873100Y-49531800D02*
X21970100Y-52628800D01*
X23520400Y-52628800D02*
X21970100Y-52628800D01*
X17322800Y-39928800D02*
X18873100Y-39928800D01*
G04 #@! TO.N,/D1*
X17322800Y-60248800D02*
X18873100Y-60248800D01*
X23520400Y-55168800D02*
X21970100Y-55168800D01*
X21970100Y-55168800D02*
X21970100Y-57151800D01*
X21970100Y-57151800D02*
X18873100Y-60248800D01*
G04 #@! TO.N,/D9*
X17322800Y-37388800D02*
X18873100Y-37388800D01*
X23520400Y-57708800D02*
X25070700Y-56158500D01*
X25070700Y-56158500D02*
X25070700Y-52112300D01*
X25070700Y-52112300D02*
X24317200Y-51358800D01*
X24317200Y-51358800D02*
X22744000Y-51358800D01*
X22744000Y-51358800D02*
X19946800Y-48561600D01*
X19946800Y-48561600D02*
X19946800Y-38462500D01*
X19946800Y-38462500D02*
X18873100Y-37388800D01*
G04 #@! TO.N,/D10*
X25070700Y-62788800D02*
X26071300Y-61788200D01*
X26071300Y-61788200D02*
X26071300Y-50612500D01*
X26071300Y-50612500D02*
X24277600Y-48818800D01*
X24277600Y-48818800D02*
X22748400Y-48818800D01*
X22748400Y-48818800D02*
X20666500Y-46736900D01*
X20666500Y-46736900D02*
X20666500Y-36642200D01*
X20666500Y-36642200D02*
X18873100Y-34848800D01*
X23520400Y-62788800D02*
X25070700Y-62788800D01*
X17322800Y-34848800D02*
X18873100Y-34848800D01*
G04 #@! TO.N,/D11*
X23520400Y-67868800D02*
X27071900Y-64317300D01*
X27071900Y-64317300D02*
X27071900Y-50197900D01*
X27071900Y-50197900D02*
X25156900Y-48282900D01*
X25156900Y-48282900D02*
X25156900Y-47110900D01*
X25156900Y-47110900D02*
X24324800Y-46278800D01*
X24324800Y-46278800D02*
X22746400Y-46278800D01*
X22746400Y-46278800D02*
X21416900Y-44949300D01*
X21416900Y-44949300D02*
X21416900Y-34852600D01*
X21416900Y-34852600D02*
X18873100Y-32308800D01*
X17322800Y-32308800D02*
X18873100Y-32308800D01*
G04 #@! TO.N,/A8*
X32562800Y-45008800D02*
X34113100Y-45008800D01*
X38760400Y-19608800D02*
X37210100Y-19608800D01*
X37210100Y-19608800D02*
X37210100Y-41911800D01*
X37210100Y-41911800D02*
X34113100Y-45008800D01*
G04 #@! TO.N,A18*
X21469500Y-72491600D02*
X21469500Y-71951600D01*
X21469500Y-71951600D02*
X27572200Y-65848900D01*
X27572200Y-65848900D02*
X27572200Y-49990700D01*
X27572200Y-49990700D02*
X25657200Y-48075700D01*
X25657200Y-48075700D02*
X25657200Y-42567900D01*
X25657200Y-42567900D02*
X24288100Y-41198800D01*
X24288100Y-41198800D02*
X22742100Y-41198800D01*
X22742100Y-41198800D02*
X21970100Y-40426800D01*
X21970100Y-40426800D02*
X21970100Y-17068800D01*
X23520400Y-17068800D02*
X21970100Y-17068800D01*
X20269200Y-72491600D02*
X21469500Y-72491600D01*
G04 #@! TO.N,A19*
X38760400Y-17068800D02*
X40310700Y-17068800D01*
X35814000Y-72491600D02*
X37014300Y-72491600D01*
X37014300Y-72491600D02*
X37014300Y-71672500D01*
X37014300Y-71672500D02*
X40310700Y-68376100D01*
X40310700Y-68376100D02*
X40310700Y-17068800D01*
G04 #@! TD*
D18*
G04 #@! TO.N,VCC*
G36*
X37325823Y-51123377D02*
X37678158Y-51358800D01*
X37325823Y-51594223D01*
X37008660Y-52068891D01*
X36897287Y-52628800D01*
X37008660Y-53188709D01*
X37325823Y-53663377D01*
X37678158Y-53898800D01*
X37325823Y-54134223D01*
X37008660Y-54608891D01*
X36897287Y-55168800D01*
X37008660Y-55728709D01*
X37325823Y-56203377D01*
X37678158Y-56438800D01*
X37325823Y-56674223D01*
X37008660Y-57148891D01*
X36897287Y-57708800D01*
X37008660Y-58268709D01*
X37325823Y-58743377D01*
X37678158Y-58978800D01*
X37325823Y-59214223D01*
X37008660Y-59688891D01*
X36897287Y-60248800D01*
X37008660Y-60808709D01*
X37325823Y-61283377D01*
X37678158Y-61518800D01*
X37325823Y-61754223D01*
X37008660Y-62228891D01*
X36897287Y-62788800D01*
X37008660Y-63348709D01*
X37325823Y-63823377D01*
X37678158Y-64058800D01*
X37325823Y-64294223D01*
X37008660Y-64768891D01*
X36897287Y-65328800D01*
X37008660Y-65888709D01*
X37325823Y-66363377D01*
X37681899Y-66601299D01*
X37255900Y-66943904D01*
X36986033Y-67436981D01*
X36968496Y-67519761D01*
X37090485Y-67741800D01*
X38633400Y-67741800D01*
X38633400Y-67721800D01*
X38887400Y-67721800D01*
X38887400Y-67741800D01*
X38907400Y-67741800D01*
X38907400Y-67995800D01*
X38887400Y-67995800D01*
X38887400Y-68015800D01*
X38633400Y-68015800D01*
X38633400Y-67995800D01*
X37090485Y-67995800D01*
X36968496Y-68217839D01*
X36986033Y-68300619D01*
X37255900Y-68793696D01*
X37693917Y-69145966D01*
X38233400Y-69303800D01*
X38272843Y-69303800D01*
X36513890Y-71062753D01*
X36448348Y-71106547D01*
X36437762Y-71122390D01*
X36393418Y-71092761D01*
X35960256Y-71006600D01*
X35667744Y-71006600D01*
X35234582Y-71092761D01*
X34743375Y-71420975D01*
X34554791Y-71703211D01*
X34532922Y-71650415D01*
X34115185Y-71232678D01*
X33569385Y-71006600D01*
X32978615Y-71006600D01*
X32432815Y-71232678D01*
X32015078Y-71650415D01*
X31790912Y-72191600D01*
X30978650Y-72191600D01*
X30920650Y-72133600D01*
X30659371Y-72133600D01*
X30601110Y-72094671D01*
X30296900Y-72034160D01*
X29951900Y-72034160D01*
X29647690Y-72094671D01*
X29589429Y-72133600D01*
X29328150Y-72133600D01*
X29169400Y-72292350D01*
X29169400Y-72427909D01*
X29214908Y-72537775D01*
X29156960Y-72829100D01*
X29156960Y-73124100D01*
X29217471Y-73428310D01*
X29389793Y-73686207D01*
X29647690Y-73858529D01*
X29951900Y-73919040D01*
X30296900Y-73919040D01*
X30601110Y-73858529D01*
X30746174Y-73761600D01*
X32459560Y-73761600D01*
X32978615Y-73976600D01*
X33569385Y-73976600D01*
X34115185Y-73750522D01*
X34532922Y-73332785D01*
X34554791Y-73279989D01*
X34743375Y-73562225D01*
X35234582Y-73890439D01*
X35667744Y-73976600D01*
X35960256Y-73976600D01*
X36393418Y-73890439D01*
X36884625Y-73562225D01*
X37072999Y-73280303D01*
X37091616Y-73276600D01*
X37092420Y-73276440D01*
X37283375Y-73562225D01*
X37774582Y-73890439D01*
X38207744Y-73976600D01*
X38500256Y-73976600D01*
X38933418Y-73890439D01*
X39424625Y-73562225D01*
X39752839Y-73071018D01*
X39868092Y-72491600D01*
X39752839Y-71912182D01*
X39424625Y-71420975D01*
X38933418Y-71092761D01*
X38742226Y-71054731D01*
X40442608Y-69354349D01*
X40438603Y-74067600D01*
X15594400Y-74067600D01*
X15594400Y-70266657D01*
X16712612Y-71384869D01*
X16658575Y-71420975D01*
X16330361Y-71912182D01*
X16215108Y-72491600D01*
X16330361Y-73071018D01*
X16658575Y-73562225D01*
X17149782Y-73890439D01*
X17582944Y-73976600D01*
X17875456Y-73976600D01*
X18308618Y-73890439D01*
X18799825Y-73562225D01*
X18999200Y-73263839D01*
X19198575Y-73562225D01*
X19689782Y-73890439D01*
X20122944Y-73976600D01*
X20415456Y-73976600D01*
X20848618Y-73890439D01*
X21339825Y-73562225D01*
X21528199Y-73280303D01*
X21528513Y-73280241D01*
X21550278Y-73332785D01*
X21968015Y-73750522D01*
X22513815Y-73976600D01*
X23104585Y-73976600D01*
X23623640Y-73761600D01*
X25387826Y-73761600D01*
X25532890Y-73858529D01*
X25837100Y-73919040D01*
X26182100Y-73919040D01*
X26486310Y-73858529D01*
X26744207Y-73686207D01*
X26916529Y-73428310D01*
X26977040Y-73124100D01*
X26977040Y-72829100D01*
X26919092Y-72537775D01*
X26964600Y-72427909D01*
X26964600Y-72292350D01*
X26805850Y-72133600D01*
X26544571Y-72133600D01*
X26486310Y-72094671D01*
X26182100Y-72034160D01*
X25837100Y-72034160D01*
X25532890Y-72094671D01*
X25474629Y-72133600D01*
X25213350Y-72133600D01*
X25155350Y-72191600D01*
X24292288Y-72191600D01*
X24068122Y-71650415D01*
X24002998Y-71585291D01*
X25054600Y-71585291D01*
X25054600Y-71720850D01*
X25213350Y-71879600D01*
X25882600Y-71879600D01*
X25882600Y-71235350D01*
X26136600Y-71235350D01*
X26136600Y-71879600D01*
X26805850Y-71879600D01*
X26964600Y-71720850D01*
X26964600Y-71585291D01*
X29169400Y-71585291D01*
X29169400Y-71720850D01*
X29328150Y-71879600D01*
X29997400Y-71879600D01*
X29997400Y-71235350D01*
X30251400Y-71235350D01*
X30251400Y-71879600D01*
X30920650Y-71879600D01*
X31079400Y-71720850D01*
X31079400Y-71585291D01*
X30982727Y-71351902D01*
X30804099Y-71173273D01*
X30570710Y-71076600D01*
X30410150Y-71076600D01*
X30251400Y-71235350D01*
X29997400Y-71235350D01*
X29838650Y-71076600D01*
X29678090Y-71076600D01*
X29444701Y-71173273D01*
X29266073Y-71351902D01*
X29169400Y-71585291D01*
X26964600Y-71585291D01*
X26867927Y-71351902D01*
X26689299Y-71173273D01*
X26455910Y-71076600D01*
X26295350Y-71076600D01*
X26136600Y-71235350D01*
X25882600Y-71235350D01*
X25723850Y-71076600D01*
X25563290Y-71076600D01*
X25329901Y-71173273D01*
X25151273Y-71351902D01*
X25054600Y-71585291D01*
X24002998Y-71585291D01*
X23650385Y-71232678D01*
X23401621Y-71129636D01*
X28072611Y-66458647D01*
X28138153Y-66414853D01*
X28181947Y-66349311D01*
X28181949Y-66349309D01*
X28311654Y-66155192D01*
X28328947Y-66068254D01*
X28357200Y-65926216D01*
X28357200Y-65926213D01*
X28372578Y-65848901D01*
X28357200Y-65771589D01*
X28357200Y-63783657D01*
X30402753Y-65829211D01*
X30446547Y-65894753D01*
X30512089Y-65938547D01*
X30512091Y-65938549D01*
X30706208Y-66068254D01*
X30935184Y-66113800D01*
X30935188Y-66113800D01*
X30965488Y-66119827D01*
X31128223Y-66363377D01*
X31602891Y-66680540D01*
X32021467Y-66763800D01*
X33104133Y-66763800D01*
X33522709Y-66680540D01*
X33997377Y-66363377D01*
X34314540Y-65888709D01*
X34425913Y-65328800D01*
X34314540Y-64768891D01*
X33997377Y-64294223D01*
X33645042Y-64058800D01*
X33997377Y-63823377D01*
X34314540Y-63348709D01*
X34425913Y-62788800D01*
X34314540Y-62228891D01*
X33997377Y-61754223D01*
X33645042Y-61518800D01*
X33997377Y-61283377D01*
X34314540Y-60808709D01*
X34425913Y-60248800D01*
X34314540Y-59688891D01*
X33997377Y-59214223D01*
X33645042Y-58978800D01*
X33997377Y-58743377D01*
X34314540Y-58268709D01*
X34425913Y-57708800D01*
X34314540Y-57148891D01*
X33997377Y-56674223D01*
X33645042Y-56438800D01*
X33997377Y-56203377D01*
X34314540Y-55728709D01*
X34425913Y-55168800D01*
X34314540Y-54608891D01*
X33997377Y-54134223D01*
X33645042Y-53898800D01*
X33997377Y-53663377D01*
X34314540Y-53188709D01*
X34425913Y-52628800D01*
X34315540Y-52073920D01*
X34603026Y-52193000D01*
X35014774Y-52193000D01*
X35395180Y-52035431D01*
X35686331Y-51744280D01*
X35843900Y-51363874D01*
X35843900Y-51233157D01*
X36203258Y-50873800D01*
X37159061Y-50873800D01*
X37325823Y-51123377D01*
X37325823Y-51123377D01*
G37*
X37325823Y-51123377D02*
X37678158Y-51358800D01*
X37325823Y-51594223D01*
X37008660Y-52068891D01*
X36897287Y-52628800D01*
X37008660Y-53188709D01*
X37325823Y-53663377D01*
X37678158Y-53898800D01*
X37325823Y-54134223D01*
X37008660Y-54608891D01*
X36897287Y-55168800D01*
X37008660Y-55728709D01*
X37325823Y-56203377D01*
X37678158Y-56438800D01*
X37325823Y-56674223D01*
X37008660Y-57148891D01*
X36897287Y-57708800D01*
X37008660Y-58268709D01*
X37325823Y-58743377D01*
X37678158Y-58978800D01*
X37325823Y-59214223D01*
X37008660Y-59688891D01*
X36897287Y-60248800D01*
X37008660Y-60808709D01*
X37325823Y-61283377D01*
X37678158Y-61518800D01*
X37325823Y-61754223D01*
X37008660Y-62228891D01*
X36897287Y-62788800D01*
X37008660Y-63348709D01*
X37325823Y-63823377D01*
X37678158Y-64058800D01*
X37325823Y-64294223D01*
X37008660Y-64768891D01*
X36897287Y-65328800D01*
X37008660Y-65888709D01*
X37325823Y-66363377D01*
X37681899Y-66601299D01*
X37255900Y-66943904D01*
X36986033Y-67436981D01*
X36968496Y-67519761D01*
X37090485Y-67741800D01*
X38633400Y-67741800D01*
X38633400Y-67721800D01*
X38887400Y-67721800D01*
X38887400Y-67741800D01*
X38907400Y-67741800D01*
X38907400Y-67995800D01*
X38887400Y-67995800D01*
X38887400Y-68015800D01*
X38633400Y-68015800D01*
X38633400Y-67995800D01*
X37090485Y-67995800D01*
X36968496Y-68217839D01*
X36986033Y-68300619D01*
X37255900Y-68793696D01*
X37693917Y-69145966D01*
X38233400Y-69303800D01*
X38272843Y-69303800D01*
X36513890Y-71062753D01*
X36448348Y-71106547D01*
X36437762Y-71122390D01*
X36393418Y-71092761D01*
X35960256Y-71006600D01*
X35667744Y-71006600D01*
X35234582Y-71092761D01*
X34743375Y-71420975D01*
X34554791Y-71703211D01*
X34532922Y-71650415D01*
X34115185Y-71232678D01*
X33569385Y-71006600D01*
X32978615Y-71006600D01*
X32432815Y-71232678D01*
X32015078Y-71650415D01*
X31790912Y-72191600D01*
X30978650Y-72191600D01*
X30920650Y-72133600D01*
X30659371Y-72133600D01*
X30601110Y-72094671D01*
X30296900Y-72034160D01*
X29951900Y-72034160D01*
X29647690Y-72094671D01*
X29589429Y-72133600D01*
X29328150Y-72133600D01*
X29169400Y-72292350D01*
X29169400Y-72427909D01*
X29214908Y-72537775D01*
X29156960Y-72829100D01*
X29156960Y-73124100D01*
X29217471Y-73428310D01*
X29389793Y-73686207D01*
X29647690Y-73858529D01*
X29951900Y-73919040D01*
X30296900Y-73919040D01*
X30601110Y-73858529D01*
X30746174Y-73761600D01*
X32459560Y-73761600D01*
X32978615Y-73976600D01*
X33569385Y-73976600D01*
X34115185Y-73750522D01*
X34532922Y-73332785D01*
X34554791Y-73279989D01*
X34743375Y-73562225D01*
X35234582Y-73890439D01*
X35667744Y-73976600D01*
X35960256Y-73976600D01*
X36393418Y-73890439D01*
X36884625Y-73562225D01*
X37072999Y-73280303D01*
X37091616Y-73276600D01*
X37092420Y-73276440D01*
X37283375Y-73562225D01*
X37774582Y-73890439D01*
X38207744Y-73976600D01*
X38500256Y-73976600D01*
X38933418Y-73890439D01*
X39424625Y-73562225D01*
X39752839Y-73071018D01*
X39868092Y-72491600D01*
X39752839Y-71912182D01*
X39424625Y-71420975D01*
X38933418Y-71092761D01*
X38742226Y-71054731D01*
X40442608Y-69354349D01*
X40438603Y-74067600D01*
X15594400Y-74067600D01*
X15594400Y-70266657D01*
X16712612Y-71384869D01*
X16658575Y-71420975D01*
X16330361Y-71912182D01*
X16215108Y-72491600D01*
X16330361Y-73071018D01*
X16658575Y-73562225D01*
X17149782Y-73890439D01*
X17582944Y-73976600D01*
X17875456Y-73976600D01*
X18308618Y-73890439D01*
X18799825Y-73562225D01*
X18999200Y-73263839D01*
X19198575Y-73562225D01*
X19689782Y-73890439D01*
X20122944Y-73976600D01*
X20415456Y-73976600D01*
X20848618Y-73890439D01*
X21339825Y-73562225D01*
X21528199Y-73280303D01*
X21528513Y-73280241D01*
X21550278Y-73332785D01*
X21968015Y-73750522D01*
X22513815Y-73976600D01*
X23104585Y-73976600D01*
X23623640Y-73761600D01*
X25387826Y-73761600D01*
X25532890Y-73858529D01*
X25837100Y-73919040D01*
X26182100Y-73919040D01*
X26486310Y-73858529D01*
X26744207Y-73686207D01*
X26916529Y-73428310D01*
X26977040Y-73124100D01*
X26977040Y-72829100D01*
X26919092Y-72537775D01*
X26964600Y-72427909D01*
X26964600Y-72292350D01*
X26805850Y-72133600D01*
X26544571Y-72133600D01*
X26486310Y-72094671D01*
X26182100Y-72034160D01*
X25837100Y-72034160D01*
X25532890Y-72094671D01*
X25474629Y-72133600D01*
X25213350Y-72133600D01*
X25155350Y-72191600D01*
X24292288Y-72191600D01*
X24068122Y-71650415D01*
X24002998Y-71585291D01*
X25054600Y-71585291D01*
X25054600Y-71720850D01*
X25213350Y-71879600D01*
X25882600Y-71879600D01*
X25882600Y-71235350D01*
X26136600Y-71235350D01*
X26136600Y-71879600D01*
X26805850Y-71879600D01*
X26964600Y-71720850D01*
X26964600Y-71585291D01*
X29169400Y-71585291D01*
X29169400Y-71720850D01*
X29328150Y-71879600D01*
X29997400Y-71879600D01*
X29997400Y-71235350D01*
X30251400Y-71235350D01*
X30251400Y-71879600D01*
X30920650Y-71879600D01*
X31079400Y-71720850D01*
X31079400Y-71585291D01*
X30982727Y-71351902D01*
X30804099Y-71173273D01*
X30570710Y-71076600D01*
X30410150Y-71076600D01*
X30251400Y-71235350D01*
X29997400Y-71235350D01*
X29838650Y-71076600D01*
X29678090Y-71076600D01*
X29444701Y-71173273D01*
X29266073Y-71351902D01*
X29169400Y-71585291D01*
X26964600Y-71585291D01*
X26867927Y-71351902D01*
X26689299Y-71173273D01*
X26455910Y-71076600D01*
X26295350Y-71076600D01*
X26136600Y-71235350D01*
X25882600Y-71235350D01*
X25723850Y-71076600D01*
X25563290Y-71076600D01*
X25329901Y-71173273D01*
X25151273Y-71351902D01*
X25054600Y-71585291D01*
X24002998Y-71585291D01*
X23650385Y-71232678D01*
X23401621Y-71129636D01*
X28072611Y-66458647D01*
X28138153Y-66414853D01*
X28181947Y-66349311D01*
X28181949Y-66349309D01*
X28311654Y-66155192D01*
X28328947Y-66068254D01*
X28357200Y-65926216D01*
X28357200Y-65926213D01*
X28372578Y-65848901D01*
X28357200Y-65771589D01*
X28357200Y-63783657D01*
X30402753Y-65829211D01*
X30446547Y-65894753D01*
X30512089Y-65938547D01*
X30512091Y-65938549D01*
X30706208Y-66068254D01*
X30935184Y-66113800D01*
X30935188Y-66113800D01*
X30965488Y-66119827D01*
X31128223Y-66363377D01*
X31602891Y-66680540D01*
X32021467Y-66763800D01*
X33104133Y-66763800D01*
X33522709Y-66680540D01*
X33997377Y-66363377D01*
X34314540Y-65888709D01*
X34425913Y-65328800D01*
X34314540Y-64768891D01*
X33997377Y-64294223D01*
X33645042Y-64058800D01*
X33997377Y-63823377D01*
X34314540Y-63348709D01*
X34425913Y-62788800D01*
X34314540Y-62228891D01*
X33997377Y-61754223D01*
X33645042Y-61518800D01*
X33997377Y-61283377D01*
X34314540Y-60808709D01*
X34425913Y-60248800D01*
X34314540Y-59688891D01*
X33997377Y-59214223D01*
X33645042Y-58978800D01*
X33997377Y-58743377D01*
X34314540Y-58268709D01*
X34425913Y-57708800D01*
X34314540Y-57148891D01*
X33997377Y-56674223D01*
X33645042Y-56438800D01*
X33997377Y-56203377D01*
X34314540Y-55728709D01*
X34425913Y-55168800D01*
X34314540Y-54608891D01*
X33997377Y-54134223D01*
X33645042Y-53898800D01*
X33997377Y-53663377D01*
X34314540Y-53188709D01*
X34425913Y-52628800D01*
X34315540Y-52073920D01*
X34603026Y-52193000D01*
X35014774Y-52193000D01*
X35395180Y-52035431D01*
X35686331Y-51744280D01*
X35843900Y-51363874D01*
X35843900Y-51233157D01*
X36203258Y-50873800D01*
X37159061Y-50873800D01*
X37325823Y-51123377D01*
G36*
X33773900Y-51363874D02*
X33820306Y-51475908D01*
X33645042Y-51358800D01*
X33773900Y-51272700D01*
X33773900Y-51363874D01*
X33773900Y-51363874D01*
G37*
X33773900Y-51363874D02*
X33820306Y-51475908D01*
X33645042Y-51358800D01*
X33773900Y-51272700D01*
X33773900Y-51363874D01*
G36*
X37325823Y-43503377D02*
X37678158Y-43738800D01*
X37325823Y-43974223D01*
X37008660Y-44448891D01*
X36897287Y-45008800D01*
X37008660Y-45568709D01*
X37325823Y-46043377D01*
X37678158Y-46278800D01*
X37325823Y-46514223D01*
X37008660Y-46988891D01*
X36897287Y-47548800D01*
X37008660Y-48108709D01*
X37325823Y-48583377D01*
X37678158Y-48818800D01*
X37325823Y-49054223D01*
X37159061Y-49303800D01*
X35955410Y-49303800D01*
X35878099Y-49288422D01*
X35800788Y-49303800D01*
X35800784Y-49303800D01*
X35571808Y-49349346D01*
X35458963Y-49424747D01*
X35377691Y-49479051D01*
X35377689Y-49479053D01*
X35312147Y-49522847D01*
X35268353Y-49588389D01*
X34733743Y-50123000D01*
X34603026Y-50123000D01*
X34402596Y-50206021D01*
X34425913Y-50088800D01*
X34314540Y-49528891D01*
X33997377Y-49054223D01*
X33645042Y-48818800D01*
X33997377Y-48583377D01*
X34314540Y-48108709D01*
X34425913Y-47548800D01*
X34314540Y-46988891D01*
X33997377Y-46514223D01*
X33645042Y-46278800D01*
X33997377Y-46043377D01*
X34160112Y-45799827D01*
X34190412Y-45793800D01*
X34190416Y-45793800D01*
X34419392Y-45748254D01*
X34679053Y-45574753D01*
X34722849Y-45509208D01*
X37086641Y-43145416D01*
X37325823Y-43503377D01*
X37325823Y-43503377D01*
G37*
X37325823Y-43503377D02*
X37678158Y-43738800D01*
X37325823Y-43974223D01*
X37008660Y-44448891D01*
X36897287Y-45008800D01*
X37008660Y-45568709D01*
X37325823Y-46043377D01*
X37678158Y-46278800D01*
X37325823Y-46514223D01*
X37008660Y-46988891D01*
X36897287Y-47548800D01*
X37008660Y-48108709D01*
X37325823Y-48583377D01*
X37678158Y-48818800D01*
X37325823Y-49054223D01*
X37159061Y-49303800D01*
X35955410Y-49303800D01*
X35878099Y-49288422D01*
X35800788Y-49303800D01*
X35800784Y-49303800D01*
X35571808Y-49349346D01*
X35458963Y-49424747D01*
X35377691Y-49479051D01*
X35377689Y-49479053D01*
X35312147Y-49522847D01*
X35268353Y-49588389D01*
X34733743Y-50123000D01*
X34603026Y-50123000D01*
X34402596Y-50206021D01*
X34425913Y-50088800D01*
X34314540Y-49528891D01*
X33997377Y-49054223D01*
X33645042Y-48818800D01*
X33997377Y-48583377D01*
X34314540Y-48108709D01*
X34425913Y-47548800D01*
X34314540Y-46988891D01*
X33997377Y-46514223D01*
X33645042Y-46278800D01*
X33997377Y-46043377D01*
X34160112Y-45799827D01*
X34190412Y-45793800D01*
X34190416Y-45793800D01*
X34419392Y-45748254D01*
X34679053Y-45574753D01*
X34722849Y-45509208D01*
X37086641Y-43145416D01*
X37325823Y-43503377D01*
G36*
X30770896Y-16719761D02*
X30892885Y-16941800D01*
X32435800Y-16941800D01*
X32435800Y-16921800D01*
X32689800Y-16921800D01*
X32689800Y-16941800D01*
X32709800Y-16941800D01*
X32709800Y-17195800D01*
X32689800Y-17195800D01*
X32689800Y-17215800D01*
X32435800Y-17215800D01*
X32435800Y-17195800D01*
X30892885Y-17195800D01*
X30770896Y-17417839D01*
X30788433Y-17500619D01*
X31058300Y-17993696D01*
X31484299Y-18336301D01*
X31128223Y-18574223D01*
X30811060Y-19048891D01*
X30699687Y-19608800D01*
X30811060Y-20168709D01*
X31128223Y-20643377D01*
X31480558Y-20878800D01*
X31128223Y-21114223D01*
X30811060Y-21588891D01*
X30699687Y-22148800D01*
X30811060Y-22708709D01*
X31128223Y-23183377D01*
X31480558Y-23418800D01*
X31128223Y-23654223D01*
X30811060Y-24128891D01*
X30699687Y-24688800D01*
X30811060Y-25248709D01*
X31128223Y-25723377D01*
X31480558Y-25958800D01*
X31128223Y-26194223D01*
X30811060Y-26668891D01*
X30792791Y-26760734D01*
X25680449Y-21648392D01*
X25636653Y-21582847D01*
X25376992Y-21409346D01*
X25148016Y-21363800D01*
X25148012Y-21363800D01*
X25117712Y-21357773D01*
X24954977Y-21114223D01*
X24602642Y-20878800D01*
X24954977Y-20643377D01*
X25272140Y-20168709D01*
X25383513Y-19608800D01*
X25272140Y-19048891D01*
X24954977Y-18574223D01*
X24834294Y-18493585D01*
X24968165Y-18466957D01*
X25178209Y-18326609D01*
X25318557Y-18116565D01*
X25367840Y-17868800D01*
X25367840Y-16645100D01*
X30786713Y-16645100D01*
X30770896Y-16719761D01*
X30770896Y-16719761D01*
G37*
X30770896Y-16719761D02*
X30892885Y-16941800D01*
X32435800Y-16941800D01*
X32435800Y-16921800D01*
X32689800Y-16921800D01*
X32689800Y-16941800D01*
X32709800Y-16941800D01*
X32709800Y-17195800D01*
X32689800Y-17195800D01*
X32689800Y-17215800D01*
X32435800Y-17215800D01*
X32435800Y-17195800D01*
X30892885Y-17195800D01*
X30770896Y-17417839D01*
X30788433Y-17500619D01*
X31058300Y-17993696D01*
X31484299Y-18336301D01*
X31128223Y-18574223D01*
X30811060Y-19048891D01*
X30699687Y-19608800D01*
X30811060Y-20168709D01*
X31128223Y-20643377D01*
X31480558Y-20878800D01*
X31128223Y-21114223D01*
X30811060Y-21588891D01*
X30699687Y-22148800D01*
X30811060Y-22708709D01*
X31128223Y-23183377D01*
X31480558Y-23418800D01*
X31128223Y-23654223D01*
X30811060Y-24128891D01*
X30699687Y-24688800D01*
X30811060Y-25248709D01*
X31128223Y-25723377D01*
X31480558Y-25958800D01*
X31128223Y-26194223D01*
X30811060Y-26668891D01*
X30792791Y-26760734D01*
X25680449Y-21648392D01*
X25636653Y-21582847D01*
X25376992Y-21409346D01*
X25148016Y-21363800D01*
X25148012Y-21363800D01*
X25117712Y-21357773D01*
X24954977Y-21114223D01*
X24602642Y-20878800D01*
X24954977Y-20643377D01*
X25272140Y-20168709D01*
X25383513Y-19608800D01*
X25272140Y-19048891D01*
X24954977Y-18574223D01*
X24834294Y-18493585D01*
X24968165Y-18466957D01*
X25178209Y-18326609D01*
X25318557Y-18116565D01*
X25367840Y-17868800D01*
X25367840Y-16645100D01*
X30786713Y-16645100D01*
X30770896Y-16719761D01*
G04 #@! TD*
M02*
